<?xml version="1.0" encoding="UTF-8" standalone="no"?>
<!-- Created with Inkscape (http://www.inkscape.org/) -->

<svg
   xmlns:dc="http://purl.org/dc/elements/1.1/"
   xmlns:cc="http://creativecommons.org/ns#"
   xmlns:rdf="http://www.w3.org/1999/02/22-rdf-syntax-ns#"
   xmlns:svg="http://www.w3.org/2000/svg"
   xmlns="http://www.w3.org/2000/svg"
   xmlns:xlink="http://www.w3.org/1999/xlink"
   xmlns:sodipodi="http://sodipodi.sourceforge.net/DTD/sodipodi-0.dtd"
   xmlns:inkscape="http://www.inkscape.org/namespaces/inkscape"
   width="2979.9199"
   height="2104.72"
   id="svg3324"
   version="1.1"
   inkscape:version="0.91 r"
   sodipodi:docname="flagge0.svg"
   inkscape:export-filename="/home/ku3i/piraten/Gestaltung/pirat*n_xhain/prtxhn/flagge/exprt/flagge0.png"
   inkscape:export-xdpi="43"
   inkscape:export-ydpi="43">
  <defs
     id="defs3326">
    <color-profile
       name="ISO-Coated-v2-300---ECI-"
       xlink:href="/home/ku3i/.local/share/color/icc/ISOcoated_v2_300_eci.icc"
       id="color-profile3036" />
  </defs>
  <sodipodi:namedview
     id="base"
     pagecolor="#ffffff"
     bordercolor="#666666"
     borderopacity="1.0"
     inkscape:pageopacity="0.0"
     inkscape:pageshadow="2"
     inkscape:zoom="0.087500002"
     inkscape:cx="615.77779"
     inkscape:cy="32.549427"
     inkscape:document-units="px"
     inkscape:current-layer="layer1"
     showgrid="true"
     width="2104.72px"
     inkscape:window-width="1440"
     inkscape:window-height="823"
     inkscape:window-x="0"
     inkscape:window-y="25"
     inkscape:window-maximized="1" />
  <metadata
     id="metadata3329">
    <rdf:RDF>
      <cc:Work
         rdf:about="">
        <dc:format>image/svg+xml</dc:format>
        <dc:type
           rdf:resource="http://purl.org/dc/dcmitype/StillImage" />
        <dc:title />
      </cc:Work>
    </rdf:RDF>
  </metadata>
  <g
     inkscape:label="Ebene 1"
     inkscape:groupmode="layer"
     id="layer1"
     transform="translate(0,1052.3581)">
    <rect
       style="fill:#2b3a4d;fill-opacity:1;stroke:none"
       id="rect3332"
       width="2104.72"
       height="2979.9199"
       x="-1052.3582"
       y="-2979.9199"
       transform="matrix(0,1,-1,0,0,0)" />
    <g
       id="g4468"
       transform="matrix(1.3424928,0,0,1.3424928,1371.9467,-656.68106)"
       style="fill:#ffffff;fill-opacity:1;stroke:none">
      <g
         transform="matrix(0.43504939,0,0,0.43504939,-897.5762,-145.43687)"
         id="g4853"
         style="fill:#ffffff;fill-opacity:1;stroke:none" />
    </g>
    <g
       id="g5930"
       transform="matrix(17.716523,0,0,17.716523,-1136.0438,2352.2477)">
      <path
         inkscape:connector-curvature="0"
         id="path3154"
         d="m 123.2234,-182.17122 c 0,0 25,0 25,0 0,0 25,0 25,0 0,0 0,5 0,5 0,0 0,5 0,5 0,0 5,0 5,0 0,0 5.00005,0 5.00005,0 0,0 0,25.00001 0,25.00001 0,0 0,25 0,25 0,0 -5.00005,0 -5.00005,0 0,0 -5,0 -5,0 0,0 0,5 0,5 0,0 0,5 0,5 0,0 -25,0 -25,0 0,0 -25,0 -25,0 0,0 0,-5 0,-5 0,0 0,-5 0,-5 0,0 -5,0 -5,0 0,0 -5,0 -5,0 0,0 0,-25 0,-25 0,0 0,-25.00001 0,-25.00001 0,0 5,0 5,0 0,0 5,0 5,0 0,0 0,-5 0,-5 0,0 0,-5 0,-5 0,0 0,0 0,0"
         style="fill:#fefefe" />
      <path
         inkscape:connector-curvature="0"
         style="fill:#000000"
         d="m 123.22343,-117.17121 c 0,0 0,-5 0,-5 0,0 -5.00001,0 -5.00001,0 0,0 -5,0 -5,0 0,0 0,-25 0,-25 0,0 0,-25.00001 0,-25.00001 0,0 5,0 5,0 0,0 5.00001,0 5.00001,0 0,0 0,-5 0,-5 0,0 0,-5 0,-5 0,0 25,0 25,0 0,0 25,0 25,0 0,0 0,5 0,5 0,0 0,5 0,5 0,0 5,0 5,0 0,0 5,0 5,0 0,0 0,25.00001 0,25.00001 0,0 0,25 0,25 0,0 -5,0 -5,0 0,0 -5,0 -5,0 0,0 0,5 0,5 0,0 0,5 0,5 0,0 -25,0 -25,0 0,0 -25,0 -25,0 0,0 0,-5 0,-5 0,0 0,0 0,0 m 20,-10 c 0,0 0,-5 0,-5 0,0 5,0 5,0 0,0 5,0 5,0 0,0 0,5 0,5 0,0 0,5 0,5 0,0 5,0 5,0 0,0 5,0 5,0 0,0 0,-5 0,-5 0,0 0,-5 0,-5 0,0 5,0 5,0 0,0 5,0 5,0 0,0 0,-15 0,-15 0,0 0,-15.00001 0,-15.00001 0,0 -5,0 -5,0 0,0 -5,0 -5,0 0,0 0,-5 0,-5 0,0 0,-5 0,-5 0,0 -15,0 -15,0 0,0 -15,0 -15,0 0,0 0,5 0,5 0,0 0,5 0,5 0,0 -5,0 -5,0 0,0 -5,0 -5,0 0,0 0,15.00001 0,15.00001 0,0 0,15 0,15 0,0 5,0 5,0 0,0 5,0 5,0 0,0 0,5 0,5 0,0 0,5 0,5 0,0 5,0 5,0 0,0 5,0 5,0 0,0 0,-5 0,-5 0,0 0,0 0,0 m -10,-20 c 0,0 0,-5 0,-5 0,0 5,0 5,0 0,0 5,0 5,0 0,0 0,5 0,5 0,0 0,5 0,5 0,0 -5,0 -5,0 0,0 -5,0 -5,0 0,0 0,-5 0,-5 0,0 0,0 0,0 m 20,0 c 0,0 0,-5 0,-5 0,0 5,0 5,0 0,0 5,0 5,0 0,0 0,5 0,5 0,0 0,5 0,5 0,0 -5,0 -5,0 0,0 -5,0 -5,0 0,0 0,-5 0,-5 0,0 0,0 0,0"
         id="path3146" />
    </g>
    <g
       id="g6252"
       transform="translate(14,11.603849)">
      <g
         id="text5006-0-9"
         style="font-style:normal;font-variant:normal;font-weight:normal;font-stretch:normal;font-size:360.33999634px;line-height:125%;font-family:'Politics Head';-inkscape-font-specification:'Politics Head';letter-spacing:0px;word-spacing:0px;fill:#ffffff;fill-opacity:1;stroke:none">
        <path
           id="path6166"
           d="m 381.66823,721.54694 c 3.69489,0 5.98221,-2.28732 5.98221,-5.98221 l 0,-70.55485 c 0,-3.6949 2.28731,-5.98221 5.98221,-5.98221 l 33.78187,0 c 48.3855,0 72.31433,-33.60593 72.31433,-69.14728 l 0,-5.45436 c 0,-42.40329 -23.92883,-68.97133 -72.13838,-68.97133 l -83.22306,0 c -3.69489,0 -5.98221,2.28732 -5.98221,5.98221 l 0,214.12782 c 0,3.69489 2.28732,5.98221 5.98221,5.98221 l 37.30082,0 z m 11.96442,-127.20988 c -3.6949,0 -5.98221,-2.28731 -5.98221,-5.9822 l 0,-42.0514 c 0,-3.69489 2.28731,-5.98221 5.98221,-5.98221 l 34.83755,0 c 13.89984,0 24.63262,9.6771 24.63262,24.63262 l 0,5.10247 c 0,14.95552 -10.73278,24.28072 -24.63262,24.28072 l -34.83755,0 z"
           inkscape:connector-curvature="0" />
        <path
           id="path6168"
           d="m 546.35487,721.54694 37.30082,0 c 3.69489,0 5.98221,-2.28732 5.98221,-5.98221 l 0,-215.88729 c 0,-3.6949 -2.28732,-5.98221 -5.98221,-5.98221 l -37.30082,0 c -3.69489,0 -5.98221,2.28731 -5.98221,5.98221 l 0,215.88729 c 0,3.69489 2.28732,5.98221 5.98221,5.98221 z"
           inkscape:connector-curvature="0" />
        <path
           id="path6170"
           d="m 743.23986,590.29028 -42.0514,0 c -3.69489,0 -5.9822,-2.28732 -5.9822,-5.98221 l 0,-38.00461 c 0,-3.69489 2.28731,-5.98221 5.9822,-5.98221 l 42.0514,0 c 13.89983,0 24.63262,9.32521 24.63262,21.81746 l 0,6.15816 c 0,12.49225 -11.08468,21.99341 -24.63262,21.99341 z m -91.31663,131.25666 37.30082,0 c 3.69489,0 5.98221,-2.28732 5.98221,-5.98221 l 0,-76.00922 c 0,-3.69489 2.28731,-5.98221 5.9822,-5.98221 l 30.43888,0 c 1.58352,0 2.9911,0.70379 3.69489,2.46327 l 34.30972,82.69521 c 0.87973,1.93542 2.11137,2.81516 3.51894,2.81516 l 42.57924,0 c 2.81516,0 4.22274,-1.40758 4.22274,-2.81516 0,-1.40758 -0.70379,-3.69489 -2.28732,-7.38979 l -34.48566,-83.92684 c -0.52784,-1.40758 -0.87974,-2.46326 -0.87974,-3.87084 0,-1.40758 0.87974,-2.46326 2.63921,-3.51895 20.23394,-12.3163 29.73509,-30.61482 29.73509,-55.07149 0,-42.57924 -26.91993,-69.49917 -71.96243,-69.49917 l -90.78879,0 c -3.69489,0 -5.98221,2.28732 -5.98221,5.98221 l 0,214.12782 c 0,3.69489 2.28732,5.98221 5.98221,5.98221 z"
           inkscape:connector-curvature="0" />
        <path
           id="path6172"
           d="m 915.84413,640.78714 c -3.16705,0 -4.04678,-1.40758 -3.51894,-3.69489 l 20.40988,-76.00922 0.87974,-7.21384 6.15815,0 0.87974,7.21384 20.23393,76.00922 c 0.52784,2.28731 -0.52784,3.69489 -3.69489,3.69489 l -41.34761,0 z m 54.7196,44.86655 c 2.63921,0 3.51895,0.3519 4.04679,2.11137 l 8.26952,31.14267 c 0.52784,1.75947 1.75947,2.63921 3.69489,2.63921 l 43.63497,0 c 2.6392,0 3.8708,-0.87974 3.8708,-2.63921 0,-0.52784 0,-0.87974 -0.3519,-1.93542 L 969.15615,497.39012 c -0.70379,-2.46326 -2.9911,-3.69489 -5.63031,-3.69489 l -53.31202,0 c -2.63921,0 -4.92652,1.23163 -5.63031,3.69489 0,0 -64.22075,217.64677 -64.3967,218.17461 -0.3519,0.87974 -0.70379,2.46326 -0.70379,3.343 0,1.75947 1.40758,2.63921 4.04679,2.63921 l 43.45897,0 c 1.75947,0 2.9911,-0.87974 3.51895,-2.63921 l 8.26952,-31.14267 c 0.52784,-1.75947 1.23163,-2.11137 4.04678,-2.11137 l 67.7397,0 z"
           inkscape:connector-curvature="0" />
        <path
           id="path6174"
           d="m 1097.0698,721.54694 37.3008,0 c 3.6949,0 5.9822,-2.28732 5.9822,-5.98221 l 0,-169.26127 c 0,-3.69489 2.2873,-5.98221 5.9822,-5.98221 l 39.4122,0 c 3.6949,0 5.9822,-2.28731 5.9822,-5.9822 l 0,-32.90214 c 0,-3.69489 -2.2873,-5.98221 -5.9822,-5.98221 l -140.054,0 c -3.6949,0 -5.9822,2.28732 -5.9822,5.98221 l 0,32.90214 c 0,3.69489 2.2873,5.9822 5.9822,5.9822 l 39.4122,0 c 3.6949,0 5.9822,2.28732 5.9822,5.98221 l 0,169.26127 c 0,3.69489 2.2873,5.98221 5.9822,5.98221 z"
           inkscape:connector-curvature="0" />
        <path
           id="path6176"
           d="m 1379.2892,721.54694 c 3.6949,0 5.9822,-2.28732 5.9822,-5.98221 l 0,-32.90214 c 0,-3.69489 -2.2873,-5.98221 -5.9822,-5.98221 l -88.3255,0 c -3.6949,0 -5.9822,-2.28731 -5.9822,-5.9822 l 0,-34.66161 c 0,-3.6949 2.2873,-5.98221 5.9822,-5.98221 l 72.4903,0 c 3.6949,0 5.9822,-2.28732 5.9822,-5.98221 l 0,-32.90214 c 0,-3.69489 -2.2873,-5.9822 -5.9822,-5.9822 l -72.4903,0 c -3.6949,0 -5.9822,-2.28732 -5.9822,-5.98221 l 0,-32.90214 c 0,-3.69489 2.2873,-5.98221 5.9822,-5.98221 l 88.3255,0 c 3.6949,0 5.9822,-2.28731 5.9822,-5.9822 l 0,-32.90214 c 0,-3.69489 -2.2873,-5.98221 -5.9822,-5.98221 l -137.5907,0 c -3.6949,0 -5.9822,2.28732 -5.9822,5.98221 l 0,214.12782 c 0,3.69489 2.2873,5.98221 5.9822,5.98221 l 137.5907,0 z"
           inkscape:connector-curvature="0" />
        <path
           id="path6178"
           d="m 1440.8707,721.54694 37.3008,0 c 3.6949,0 5.9822,-2.28732 5.9822,-5.98221 l 0,-71.96243 c 0,-23.04909 -2.4632,-47.50576 -5.2784,-57.53476 l 1.4076,0 c 0,0.70379 3.167,7.91763 7.3898,15.48336 l 71.0827,117.18088 c 1.4076,2.11137 2.9911,2.81516 5.2784,2.81516 l 34.1338,0 c 3.6949,0 5.9822,-2.28732 5.9822,-5.98221 l 0,-215.88729 c 0,-3.6949 -2.2873,-5.98221 -5.9822,-5.98221 l -37.3009,0 c -3.6949,0 -5.9822,2.28731 -5.9822,5.98221 l 0,72.31432 c 0,19.88204 2.9911,48.20955 6.862,65.10049 l -1.4076,0 c -0.7038,-2.28732 -5.4544,-12.14036 -9.6771,-19.17825 l -70.203,-121.75551 c -1.0556,-1.58352 -2.8151,-2.46326 -5.1024,-2.46326 l -34.4857,0 c -3.6949,0 -5.9822,2.28731 -5.9822,5.98221 l 0,215.88729 c 0,3.69489 2.2873,5.98221 5.9822,5.98221 z"
           inkscape:connector-curvature="0" />
        <path
           id="path6180"
           d="m 1791.3578,548.59078 -26.0402,-52.08039 c -1.0557,-1.93542 -2.8152,-2.81516 -5.8063,-2.81516 l -45.3944,0 c -1.7595,0 -3.167,1.40758 -3.167,2.81516 0,1.05568 0.1759,1.93542 0.5278,2.46326 l 57.0069,101.34562 c 0.5279,0.87974 0.8798,1.75947 0.8798,2.9911 0,0.87974 -0.176,1.93542 -0.8798,3.16706 l -60.7018,109.43919 c -0.5278,0.87974 -0.8797,1.93542 -0.8797,2.81516 0,1.93542 1.2316,2.81516 4.0468,2.81516 l 45.3944,0 c 3.8708,0 5.8062,-1.58353 7.0378,-4.04679 l 16.0112,-31.14267 c 9.3253,-17.94662 15.1315,-34.83755 15.1315,-44.86655 l 1.0557,0 c 2.1114,5.63031 8.2695,18.82636 10.3809,23.57693 l 25.3364,52.43229 c 1.0557,2.46326 2.8151,4.04679 6.686,4.04679 l 46.0982,0 c 2.4632,0 4.3987,-0.87974 4.3987,-2.81516 0,-0.87974 -0.176,-1.40758 -0.8798,-2.46326 l -57.5347,-102.40131 c -0.7038,-1.05568 -1.4076,-1.93542 -1.4076,-3.16705 0,-1.23163 0.5278,-2.11137 1.0557,-2.9911 l 59.998,-108.38352 c 0.1759,-0.52784 0.3519,-1.58352 0.3519,-2.46326 0,-1.40758 -1.2317,-3.16705 -3.1671,-3.16705 l -47.6817,0 c -2.4632,0 -4.5746,0.70379 -5.6303,2.81516 l -16.0112,30.79077 c -10.7328,23.40098 -15.1315,33.25403 -14.2517,47.15386 l -1.0557,0 c -2.1114,-5.63031 -8.7974,-21.11367 -10.9087,-25.86424 z"
           inkscape:connector-curvature="0" />
        <path
           id="path6182"
           d="m 1932.8193,721.54694 37.3008,0 c 3.6949,0 5.9822,-2.28732 5.9822,-5.98221 l 0,-82.16737 c 0,-3.6949 2.2874,-5.98221 5.9822,-5.98221 l 64.2208,0 c 3.6949,0 5.9822,2.28731 5.9822,5.98221 l 0,82.16737 c 0,3.69489 2.2873,5.98221 5.9822,5.98221 l 37.3008,0 c 3.6949,0 5.9822,-2.28732 5.9822,-5.98221 l 0,-215.88729 c 0,-3.6949 -2.2873,-5.98221 -5.9822,-5.98221 l -37.3008,0 c -3.6949,0 -5.9822,2.28731 -5.9822,5.98221 l 0,76.88895 c 0,3.69489 -2.2873,5.98221 -5.9822,5.98221 l -64.2208,0 c -3.6948,0 -5.9822,-2.28732 -5.9822,-5.98221 l 0,-76.88895 c 0,-3.6949 -2.2873,-5.98221 -5.9822,-5.98221 l -37.3008,0 c -3.6949,0 -5.9822,2.28731 -5.9822,5.98221 l 0,215.88729 c 0,3.69489 2.2873,5.98221 5.9822,5.98221 z"
           inkscape:connector-curvature="0" />
        <path
           id="path6184"
           d="m 2212.9273,640.78714 c -3.167,0 -4.0468,-1.40758 -3.5189,-3.69489 l 20.4099,-76.00922 0.8797,-7.21384 6.1582,0 0.8797,7.21384 20.2339,76.00922 c 0.5279,2.28731 -0.5278,3.69489 -3.6949,3.69489 l -41.3476,0 z m 54.7196,44.86655 c 2.6392,0 3.519,0.3519 4.0468,2.11137 l 8.2695,31.14267 c 0.5279,1.75947 1.7595,2.63921 3.6949,2.63921 l 43.6349,0 c 2.6393,0 3.8709,-0.87974 3.8709,-2.63921 0,-0.52784 0,-0.87974 -0.3519,-1.93542 l -64.5727,-219.58219 c -0.7037,-2.46326 -2.9911,-3.69489 -5.6303,-3.69489 l -53.312,0 c -2.6392,0 -4.9265,1.23163 -5.6303,3.69489 0,0 -64.2208,217.64677 -64.3967,218.17461 -0.3519,0.87974 -0.7038,2.46326 -0.7038,3.343 0,1.75947 1.4076,2.63921 4.0468,2.63921 l 43.459,0 c 1.7594,0 2.9911,-0.87974 3.5189,-2.63921 l 8.2695,-31.14267 c 0.5279,-1.75947 1.2317,-2.11137 4.0468,-2.11137 l 67.7397,0 z"
           inkscape:connector-curvature="0" />
        <path
           id="path6186"
           d="m 2372.6875,721.54694 37.3008,0 c 3.6949,0 5.9822,-2.28732 5.9822,-5.98221 l 0,-215.88729 c 0,-3.6949 -2.2873,-5.98221 -5.9822,-5.98221 l -37.3008,0 c -3.6949,0 -5.9822,2.28731 -5.9822,5.98221 l 0,215.88729 c 0,3.69489 2.2873,5.98221 5.9822,5.98221 z"
           inkscape:connector-curvature="0" />
        <path
           id="path6188"
           d="m 2478.2558,721.54694 37.3009,0 c 3.6949,0 5.9822,-2.28732 5.9822,-5.98221 l 0,-71.96243 c 0,-23.04909 -2.4633,-47.50576 -5.2785,-57.53476 l 1.4076,0 c 0,0.70379 3.1671,7.91763 7.3898,15.48336 l 71.0827,117.18088 c 1.4076,2.11137 2.9911,2.81516 5.2784,2.81516 l 34.1338,0 c 3.6949,0 5.9822,-2.28732 5.9822,-5.98221 l 0,-215.88729 c 0,-3.6949 -2.2873,-5.98221 -5.9822,-5.98221 l -37.3008,0 c -3.6949,0 -5.9822,2.28731 -5.9822,5.98221 l 0,72.31432 c 0,19.88204 2.9911,48.20955 6.8619,65.10049 l -1.4076,0 c -0.7038,-2.28732 -5.4543,-12.14036 -9.6771,-19.17825 L 2517.844,496.15849 c -1.0557,-1.58352 -2.8152,-2.46326 -5.1025,-2.46326 l -34.4857,0 c -3.6949,0 -5.9822,2.28731 -5.9822,5.98221 l 0,215.88729 c 0,3.69489 2.2873,5.98221 5.9822,5.98221 z"
           inkscape:connector-curvature="0" />
      </g>
      <path
         sodipodi:nodetypes="czczczczc"
         inkscape:connector-curvature="0"
         id="path4657-8"
         d="m 1419.4124,792.85093 c 0,0 188.1856,0 212.7316,-24.54627 24.5462,-24.54593 24.5462,-212.7316 24.5462,-212.7316 0,0 0,188.18567 24.546,212.7316 24.5462,24.54627 212.7319,24.54627 212.7319,24.54627 0,0 -188.1857,0 -212.7319,24.54592 -24.546,24.54627 -24.546,212.73125 -24.546,212.73125 0,0 0,-188.18498 -24.5462,-212.73125 -24.546,-24.54592 -212.7316,-24.54592 -212.7316,-24.54592 z"
         style="fill:#ffffff;fill-opacity:1;stroke:none" />
    </g>
  </g>
</svg>
