<?xml version="1.0" encoding="UTF-8" standalone="no"?>
<!-- Created with Inkscape (http://www.inkscape.org/) -->

<svg
   xmlns:dc="http://purl.org/dc/elements/1.1/"
   xmlns:cc="http://creativecommons.org/ns#"
   xmlns:rdf="http://www.w3.org/1999/02/22-rdf-syntax-ns#"
   xmlns:svg="http://www.w3.org/2000/svg"
   xmlns="http://www.w3.org/2000/svg"
   xmlns:xlink="http://www.w3.org/1999/xlink"
   xmlns:sodipodi="http://sodipodi.sourceforge.net/DTD/sodipodi-0.dtd"
   xmlns:inkscape="http://www.inkscape.org/namespaces/inkscape"
   width="2979.9199"
   height="2104.72"
   id="svg3324"
   version="1.1"
   inkscape:version="0.48.4 r9939"
   sodipodi:docname="flagge2.svg"
   inkscape:export-filename="/home/ku3i/piraten/Gestaltung/pirat*n_xhain/Plakate/serie_2/8_Unruhe.png"
   inkscape:export-xdpi="21.889999"
   inkscape:export-ydpi="21.889999">
  <defs
     id="defs3326">
    <color-profile
       name="ISO-Coated-v2-300---ECI-"
       xlink:href="/home/ku3i/.local/share/color/icc/ISOcoated_v2_300_eci.icc"
       id="color-profile3036" />
    <path
       sodipodi:type="arc"
       style="fill:none;stroke:none"
       id="path3757"
       sodipodi:cx="168.69548"
       sodipodi:cy="541.22498"
       sodipodi:rx="136.37059"
       sodipodi:ry="136.37059"
       d="m 305.06607,541.22498 a 136.37059,136.37059 0 1 1 -272.74118,0 136.37059,136.37059 0 1 1 272.74118,0 z"
       transform="matrix(-0.82384091,-0.10297834,0.10297834,-0.82384091,455.29103,989.43635)" />
  </defs>
  <sodipodi:namedview
     id="base"
     pagecolor="#ffffff"
     bordercolor="#666666"
     borderopacity="1.0"
     inkscape:pageopacity="0.0"
     inkscape:pageshadow="2"
     inkscape:zoom="0.12374369"
     inkscape:cx="2338.5929"
     inkscape:cy="575.72349"
     inkscape:document-units="px"
     inkscape:current-layer="layer1"
     showgrid="true"
     width="2104.72px"
     inkscape:window-width="1440"
     inkscape:window-height="823"
     inkscape:window-x="0"
     inkscape:window-y="25"
     inkscape:window-maximized="1" />
  <metadata
     id="metadata3329">
    <rdf:RDF>
      <cc:Work
         rdf:about="">
        <dc:format>image/svg+xml</dc:format>
        <dc:type
           rdf:resource="http://purl.org/dc/dcmitype/StillImage" />
        <dc:title></dc:title>
      </cc:Work>
    </rdf:RDF>
  </metadata>
  <g
     inkscape:label="Ebene 1"
     inkscape:groupmode="layer"
     id="layer1"
     transform="translate(0,1052.3581)">
    <rect
       style="fill:#2b3a4d;fill-opacity:1;stroke:none"
       id="rect3332"
       width="2104.72"
       height="2979.9199"
       x="-1052.3582"
       y="-2979.9199"
       transform="matrix(0,1,-1,0,0,0)" />
    <g
       id="g4468"
       transform="matrix(1.3424928,0,0,1.3424928,1371.9467,-656.68106)"
       style="fill:#ffffff;fill-opacity:1;stroke:none">
      <g
         transform="matrix(0.43504939,0,0,0.43504939,-897.5762,-145.43687)"
         id="g4853"
         style="fill:#ffffff;fill-opacity:1;stroke:none" />
    </g>
    <g
       id="g5930"
       transform="matrix(15.185591,0,0,15.185591,-760.90035,2234.8838)">
      <path
         inkscape:connector-curvature="0"
         id="path3154"
         d="m 123.2234,-182.17122 c 0,0 25,0 25,0 0,0 25,0 25,0 0,0 0,5 0,5 0,0 0,5 0,5 0,0 5,0 5,0 0,0 5.00005,0 5.00005,0 0,0 0,25.00001 0,25.00001 0,0 0,25 0,25 0,0 -5.00005,0 -5.00005,0 0,0 -5,0 -5,0 0,0 0,5 0,5 0,0 0,5 0,5 0,0 -25,0 -25,0 0,0 -25,0 -25,0 0,0 0,-5 0,-5 0,0 0,-5 0,-5 0,0 -5,0 -5,0 0,0 -5,0 -5,0 0,0 0,-25 0,-25 0,0 0,-25.00001 0,-25.00001 0,0 5,0 5,0 0,0 5,0 5,0 0,0 0,-5 0,-5 0,0 0,-5 0,-5 0,0 0,0 0,0"
         style="fill:#fefefe" />
      <path
         inkscape:connector-curvature="0"
         style="fill:#000000"
         d="m 123.22343,-117.17121 c 0,0 0,-5 0,-5 0,0 -5.00001,0 -5.00001,0 0,0 -5,0 -5,0 0,0 0,-25 0,-25 0,0 0,-25.00001 0,-25.00001 0,0 5,0 5,0 0,0 5.00001,0 5.00001,0 0,0 0,-5 0,-5 0,0 0,-5 0,-5 0,0 25,0 25,0 0,0 25,0 25,0 0,0 0,5 0,5 0,0 0,5 0,5 0,0 5,0 5,0 0,0 5,0 5,0 0,0 0,25.00001 0,25.00001 0,0 0,25 0,25 0,0 -5,0 -5,0 0,0 -5,0 -5,0 0,0 0,5 0,5 0,0 0,5 0,5 0,0 -25,0 -25,0 0,0 -25,0 -25,0 0,0 0,-5 0,-5 0,0 0,0 0,0 m 20,-10 c 0,0 0,-5 0,-5 0,0 5,0 5,0 0,0 5,0 5,0 0,0 0,5 0,5 0,0 0,5 0,5 0,0 5,0 5,0 0,0 5,0 5,0 0,0 0,-5 0,-5 0,0 0,-5 0,-5 0,0 5,0 5,0 0,0 5,0 5,0 0,0 0,-15 0,-15 0,0 0,-15.00001 0,-15.00001 0,0 -5,0 -5,0 0,0 -5,0 -5,0 0,0 0,-5 0,-5 0,0 0,-5 0,-5 0,0 -15,0 -15,0 0,0 -15,0 -15,0 0,0 0,5 0,5 0,0 0,5 0,5 0,0 -5,0 -5,0 0,0 -5,0 -5,0 0,0 0,15.00001 0,15.00001 0,0 0,15 0,15 0,0 5,0 5,0 0,0 5,0 5,0 0,0 0,5 0,5 0,0 0,5 0,5 0,0 5,0 5,0 0,0 5,0 5,0 0,0 0,-5 0,-5 0,0 0,0 0,0 m -10,-20 c 0,0 0,-5 0,-5 0,0 5,0 5,0 0,0 5,0 5,0 0,0 0,5 0,5 0,0 0,5 0,5 0,0 -5,0 -5,0 0,0 -5,0 -5,0 0,0 0,-5 0,-5 0,0 0,0 0,0 m 20,0 c 0,0 0,-5 0,-5 0,0 5,0 5,0 0,0 5,0 5,0 0,0 0,5 0,5 0,0 0,5 0,5 0,0 -5,0 -5,0 0,0 -5,0 -5,0 0,0 0,-5 0,-5 0,0 0,0 0,0"
         id="path3146" />
    </g>
    <g
       id="g3025"
       transform="matrix(1.5208975,0,0,1.5208975,-384.46198,655.00734)">
      <g
         id="text3755"
         style="font-size:94.82155609px;font-style:normal;font-variant:normal;font-weight:normal;font-stretch:normal;text-align:start;line-height:125%;letter-spacing:0px;word-spacing:0px;writing-mode:lr-tb;text-anchor:start;fill:#ffffff;fill-opacity:1;stroke:none;font-family:Montserrat;-inkscape-font-specification:Montserrat">
        <path
           inkscape:connector-curvature="0"
           id="path3009"
           style="font-size:96px"
           d="m 869.20921,583.08766 13.728,0 0.672,-8.256 -13.344,0 2.112,-17.184 -8.16,0 -2.112,17.184 -16.992,0 2.112,-17.184 -8.16,0 -2.112,17.184 -13.632,0 -0.768,8.256 13.344,0 -2.016,16.896 -13.728,0 -0.768,8.256 13.44,0 -2.016,16.608 8.064,0 2.112,-16.608 16.992,0 -2.016,16.608 8.064,0 2.112,-16.608 13.632,0 0.768,-8.256 -13.44,0 2.112,-16.896 m -8.16,0 -2.016,16.896 -17.088,0 2.112,-16.896 16.992,0" />
        <path
           inkscape:connector-curvature="0"
           id="path3011"
           style="font-size:96px"
           d="m 895.18771,557.64766 0,67.2 11.328,0 0,-20.256 15.456,0 c 16.89599,0 26.592,-8.83202 26.592,-24 0,-14.59199 -9.69601,-22.944 -26.592,-22.944 l -26.784,0 m 11.328,10.176 14.976,0 c 10.36799,0 16.224,4.22401 16.224,13.056 0,9.11999 -5.85601,13.536 -16.224,13.536 l -14.976,0 0,-26.592" />
        <path
           inkscape:connector-curvature="0"
           id="path3013"
           style="font-size:96px"
           d="m 1002.4992,624.84766 12.864,0 -15.072,-22.464 c 8.928,-3.456 13.92,-11.04001 13.92,-21.792 0,-14.59199 -9.888,-22.944 -27.07199,-22.944 l -27.264,0 0,67.2 11.328,0 0,-20.256 15.936,0 c 1.056,0 2.112,0 3.072,-0.096 l 12.28799,20.352 m -31.29599,-30.432 0,-26.592 15.936,0 c 10.36799,0 16.31999,4.22401 16.31999,13.056 0,9.11999 -5.952,13.536 -16.31999,13.536 l -15.936,0" />
        <path
           inkscape:connector-curvature="0"
           id="path3015"
           style="font-size:96px"
           d="m 1075.1382,567.82366 0,-10.176 -53.856,0 0,10.176 21.216,0 0,57.024 11.328,0 0,-57.024 21.312,0" />
        <path
           inkscape:connector-curvature="0"
           id="path3017"
           style="font-size:96px"
           d="m 1115.8542,589.90366 22.56,-32.256 -13.248,0 -16.512,23.328 -16.416,-23.328 -13.152,0 22.752,32.736 -24.48,34.464 13.248,0 18.048,-25.344 18.144,25.344 13.536,0 -24.48,-34.944" />
        <path
           inkscape:connector-curvature="0"
           id="path3019"
           style="font-size:96px"
           d="m 1209.3972,624.84766 0,-67.2 -11.328,0 0,29.184 -35.616,0 0,-29.184 -11.328,0 0,67.2 11.328,0 0,-27.84 35.616,0 0,27.84 11.328,0" />
        <path
           inkscape:connector-curvature="0"
           id="path3021"
           style="font-size:96px"
           d="m 1285.3347,624.84766 0,-67.2 -11.136,0 0,48.288 -36,-48.288 -11.136,0 0,67.2 11.328,0 0,-48.192 35.808,48.192 11.136,0" />
      </g>
      <path
         inkscape:connector-curvature="0"
         id="rect3779"
         d="m 824.70477,505.18176 460.62993,0 0,28.34646 -460.62993,0 z"
         style="fill:#ffffff;fill-opacity:1;stroke:none" />
    </g>
    <path
       sodipodi:type="arc"
       style="opacity:0.75000000000000000;fill:none;stroke:none;stroke-width:1;stroke-linecap:butt;stroke-linejoin:miter;stroke-miterlimit:4;stroke-opacity:1;stroke-dasharray:none;stroke-dashoffset:0"
       id="path9218"
       sodipodi:cx="1502.8572"
       sodipodi:cy="1076.1486"
       sodipodi:rx="668.57141"
       sodipodi:ry="668.57141"
       d="m 2171.4286,1076.1486 a 668.57141,668.57141 0 1 1 -1337.14283,0 668.57141,668.57141 0 1 1 1337.14283,0 z"
       transform="matrix(1.0591716,0,0,1.0591716,-101.82368,-1139.8241)" />
    <text
       xml:space="preserve"
       style="font-size:72px;font-style:normal;font-variant:normal;font-weight:normal;font-stretch:normal;line-height:125%;letter-spacing:0px;word-spacing:0px;fill:#ffffff;fill-opacity:1;stroke:none;font-family:Politics Head;-inkscape-font-specification:Politics Head"
       id="text9220"
       sodipodi:linespacing="125%"
       transform="matrix(-0.99437936,0.10587583,-0.10587583,-0.99437936,2968.2239,-157.46286)"><textPath
         xlink:href="#path9218"
         id="textPath9227"
         style="font-size:260px"
         dx="0 0 0 0 0 0 0 0 5.7142859">Piraten Friedrichshain-Kreuzberg</textPath></text>
  </g>
</svg>
