<?xml version="1.0" encoding="UTF-8" standalone="no"?>
<!DOCTYPE svg PUBLIC "-//W3C//DTD SVG 1.1//EN" "http://www.w3.org/Graphics/SVG/1.1/DTD/svg11.dtd">
<svg version="1.1"
   xmlns="http://www.w3.org/2000/svg"
   width="498" height="826" viewBox="0 0 2490 4130">
  <title>Berliner Baer</title>
  <desc>der Berliner Baer ist das Wappentier der Stadt Berlin</desc>
  <path d="M 1667,525 c -56,-27 -157,-11 -250,-26 -187,-30 -210,-83 -210,-122 -1,-41 -38,-43 -38,1 1,260 392,127 503,194 M 395,436 c 1,-70 -47,-115 -89,-119 25,29 30,71 34,112 -8,-58 -51,-96 -88,-98 20,21 31,64 33,106 -6,-32 -36,-80 -86,-85 23,24 30,69 35,110 -7,-35 -43,-75 -83,-78 17,14 31,65 34,104 -5,-16 -33,-55 -77,-60 23,21 33,72 37,112 M 320,1494 c -12,-55 -60,-113 -114,-106 25,17 44,81 51,122 -17,-46 -59,-95 -109,-89 27,24 43,83 53,127 -27,-51 -60,-89 -109,-83 33,32 45,88 53,131 -16,-36 -53,-80 -103,-75 31,28 44,89 55,134 -20,-27 -50,-65 -97,-61 31,30 45,89 58,134 M 480,3451 c -53,-32 -126,-21 -160,23 38,-7 94,14 116,32 -36,-23 -111,-9 -140,31 34,-9 89,14 118,31 -38,-13 -97,-10 -134,35 31,-7 82,10 115,29 -47,-11 -93,7 -120,39 41,-9 87,15 115,28 -53,-1 -85,20 -104,42 34,-7 86,11 124,31 M 1871,3780 c -69,-9 -126,33 -143,82 19,-15 79,-24 118,-12 -54,-3 -108,41 -119,81 22,-18 92,-23 118,-12 -49,2 -96,39 -110,80 23,-15 87,-21 123,-12 -53,8 -91,46 -103,81 32,-21 74,-19 126,-16 -54,20 -72,43 -90,79 30,-19 83,-20 135,-16" fill="#f33b1d" />
  <path d="M 1513,109 l -244,9 c -12,1 -21,7 -21,21 1,88 18,145 81,191 -8,49 -3,74 48,115 5,-40 21,-58 46,-75 2,1 4,1 5,2 -3,18 -3,37 1,48 10,28 59,29 72,9 12,29 37,30 57,30 21,0 31,-15 38,-29 12,10 24,21 35,35 35,48 41,110 41,169 -11,1 -22,2 -33,3 l 0,-24 c -1,-34 -80,-40 -98,-11 -20,-22 -82,-18 -82,17 l 0,11 c -14,-18 -25,-37 -34,-56 -25,16 -40,28 -36,85 -11,1 -22,2 -32,3 1,66 30,84 266,79 6,66 -60,103 -109,134 -128,73 -263,153 -336,287 -61,106 -76,232 -69,354 l 70,-31 8,38 c -126,60 -356,182 -507,252 -37,17 -133,41 -153,7 -69,-119 -124,-209 -204,-300 -41,-47 -313,178 -263,254 114,173 300,421 610,423 321,2 600,-116 661,-134 l 13,41 c -41,18 -77,31 -120,45 56,220 121,306 272,440 l -31,23 c -27,-16 -73,-67 -98,-91 -321,152 -441,304 -518,461 -85,189 -69,404 -33,603 7,33 -29,49 -56,39 -74,-17 -115,-91 -186,-118 -32,-14 -74,-30 -109,-24 -57,10 -118,298 -60,326 108,53 226,64 346,126 79,32 155,84 245,70 51,-5 102,-40 107,-94 45,-194 108,-400 256,-540 71,-70 163,-126 254,-169 -36,-138 -63,-276 -60,-420 l 44,-2 c 32,548 178,663 435,918 26,26 24,75 -14,90 -50,25 -109,26 -166,29 -61,3 -15,341 75,338 158,-5 322,-128 417,-249 40,-50 88,-100 126,-149 47,-61 -4,-132 -18,-188 -39,-160 -57,-620 -59,-684 l 56,1 8,-116 c -167,-207 -140,-531 -209,-740 -27,-85 -57,-173 -57,-263 0,-122 138,-351 135,-555 -1,-86 -49,-198 -48,-249 1,-148 86,-116 84,-424 -1,-85 -11,-148 -33,-235 149,-157 -56,-314 -174,-216 -95,-25 -107,-50 -293,-50 -159,0 -250,43 -349,109 M 1225,1026 C 933,940 726,901 610,813 493,724 545,528 404,424 334,372 113,495 147,548 364,886 74,967 1065,1533 1061,1220 1120,1155 1225,1026" />
  <path d="M 1861,299 c -118,-187 -213,-206 -248,-71 -14,55 34,54 45,13 13,-46 35,-94 122,39 8,11 35,19 50,19 M 2153,201 c 28,-28 61,-52 100,-69 47,-16 23,-64 -36,-44 -40,13 -77,44 -101,76 M 1340,337 c -9,31 2,66 29,85 5,-22 21,-42 38,-56 -31,-9 -52,-20 -67,-29 m 160,53 c -20,-6 -41,-10 -61,-15 c -4,15 -4,31 -1,40 8,22 45,23 55,7 4,-6 7,-19 7,-32 m 12,3 c -3,12 -5,26 0,36 10,19 28,20 44,20 18,0 27,-12 32,-24 -23,-15 -49,-24 -76,-32 m -54,260 v -7 c -14,-17 -26,-36 -37,-56 -22,16 -25,40 -22,68 m 140,-12 v -25 c -1,-31 -71,-33 -71,0 v 31.5 M 1629,638 v -22 c 0,-30 -81,-32 -81,1 v 28" fill="white" />
</svg>
