<?xml version="1.0" encoding="UTF-8"?>
<!-- Generator: Adobe Illustrator 16.0.4, SVG Export Plug-In . SVG Version: 6.00 Build 0)  -->
<!DOCTYPE svg PUBLIC "-//W3C//DTD SVG 1.1//EN" "http://www.w3.org/Graphics/SVG/1.1/DTD/svg11.dtd">
<svg version="1.1" id="Layer_1" xmlns="http://www.w3.org/2000/svg" xmlns:xlink="http://www.w3.org/1999/xlink" x="0px" y="0px" width="256px" height="256px" viewBox="0 0 256 256" enable-background="new 0 0 256 256" xml:space="preserve">
<g>
	<g>
		<path fill="#FFFFFF" d="M127.578,0C57.102,0,0,57.288,0,127.766C0,198.238,57.102,255.53,127.578,255.53    c70.468,0,127.772-57.292,127.772-127.764C255.35,57.295,198.046,0,127.578,0"/>
		<path fill="#FFFFFF" d="M127.578,9.591C62.401,9.591,9.601,62.575,9.601,127.766c0,65.179,52.8,118.16,117.977,118.16    c65.175,0,118.174-52.98,118.174-118.16C245.752,62.587,192.753,9.591,127.578,9.591"/>
		<path fill="#151515" d="M133.24,61.363c43.289,1.346,68.459,21.041,68.459,49.931c0,26.409-16.329,40.859-70.065,50.395    c-40.024,7.107-50.613,16.76-50.613,33.241c0,10.103,3.375,17.834,9.279,24.761c-8.988-5.647-16.215-17.304-16.215-30.497    c0-8.104,2.395-15.786,7.826-22.291v-94.41c-1.337-0.085-2.687-0.125-4.067-0.125c-0.599,0-1.184,0.025-1.752,0.059    c-0.734,0.049-0.958-0.802-0.19-1.126c1.855-0.78,3.861-1.542,6.009-2.265V49.192c0-0.406,0.318-0.734,0.734-0.734h10.757    c0.404,0,0.737,0.328,0.737,0.734v16.454C106.993,62.694,121.696,61.003,133.24,61.363 M94.14,157.149    c1.46-0.792,3.023-1.542,4.653-2.246c19.464-8.392,29.096-23.135,29.096-41.284c0-18.002-13.3-33.679-33.749-39.161V157.149z"/>
		<path fill="#1D1D1B" d="M127.578,9.591C62.401,9.591,9.601,62.575,9.601,127.766c0,65.173,52.8,118.16,117.977,118.16    c65.175,0,118.174-52.986,118.174-118.16C245.752,62.587,192.753,9.591,127.578,9.591 M127.583,20.924    c59.051,0,106.836,47.794,106.836,106.842c0,59.042-47.785,106.833-106.836,106.833c-59.03,0-106.653-47.791-106.653-106.833    C20.931,68.718,68.554,20.924,127.583,20.924"/>
	</g>
</g>
</svg>