<?xml version="1.0" encoding="UTF-8" standalone="no"?>
<!-- Created with Inkscape (http://www.inkscape.org/) -->

<svg
   xmlns:dc="http://purl.org/dc/elements/1.1/"
   xmlns:cc="http://creativecommons.org/ns#"
   xmlns:rdf="http://www.w3.org/1999/02/22-rdf-syntax-ns#"
   xmlns:svg="http://www.w3.org/2000/svg"
   xmlns="http://www.w3.org/2000/svg"
   xmlns:sodipodi="http://sodipodi.sourceforge.net/DTD/sodipodi-0.dtd"
   xmlns:inkscape="http://www.inkscape.org/namespaces/inkscape"
   id="svg3020"
   version="1.1"
   inkscape:version="0.48.4 r9939"
   width="400"
   height="1033"
   sodipodi:docname="mann.gif">
  <metadata
     id="metadata3026">
    <rdf:RDF>
      <cc:Work
         rdf:about="">
        <dc:format>image/svg+xml</dc:format>
        <dc:type
           rdf:resource="http://purl.org/dc/dcmitype/StillImage" />
        <dc:title></dc:title>
      </cc:Work>
    </rdf:RDF>
  </metadata>
  <defs
     id="defs3024" />
  <sodipodi:namedview
     pagecolor="#ffffff"
     bordercolor="#666666"
     borderopacity="1"
     objecttolerance="10"
     gridtolerance="10"
     guidetolerance="10"
     inkscape:pageopacity="0"
     inkscape:pageshadow="2"
     inkscape:window-width="1440"
     inkscape:window-height="823"
     id="namedview3022"
     showgrid="false"
     inkscape:zoom="0.58276864"
     inkscape:cx="1.8081395"
     inkscape:cy="516.5"
     inkscape:window-x="0"
     inkscape:window-y="25"
     inkscape:window-maximized="1"
     inkscape:current-layer="svg3020" />
  <path
     inkscape:connector-curvature="0"
     id="path3032"
     d="m 127.75,1020.0577 c -14.74673,-5.678 -22.98796,-13.7288 -28.22915,-27.57707 l -2.27085,-6 -0.26034,-329.77865 -0.26034,-329.77868 -2.55476,-0.97132 c -3.85842,-1.46697 -13.74317,-1.19002 -15.98343,0.44783 -1.8986,1.38805 -1.95209,4.12158 -2.44113,124.75 l -0.5,123.33085 -2.64796,5.64796 C 64.4895,597.43223 44.04733,604.1868 24.82198,595.91628 15.80953,592.03923 6.75,579.54275 6.75,570.98827 c 0,-0.9695 -0.675,-2.32292 -1.5,-3.00761 -1.3196,-1.09517 -1.5,-17.27531 -1.5,-134.53911 0,-97.67004 0.29999,-133.39422 1.12248,-133.66838 0.61736,-0.20579 1.70873,-4.90128 2.42527,-10.43442 2.01555,-15.56416 8.15383,-31.97895 16.7746,-44.85809 5.9866,-8.94378 20.11747,-22.97699 29.17765,-28.976 9.96247,-6.59643 14.39386,-8.83199 23.67402,-11.94313 17.10515,-5.73445 13.66031,-5.57923 123.82598,-5.57923 88.13349,0 102.48767,0.20564 109,1.56161 42.65435,8.88126 72.43781,38.02686 84.2409,82.43675 l 2.2591,8.5 0,142 0,142 -2.65134,5.65134 c -3.38609,7.21747 -9.52849,13.34733 -16.7007,16.66658 -4.87768,2.25736 -6.94359,2.60655 -15.14796,2.56039 -7.40233,-0.0417 -10.5311,-0.51549 -14.16967,-2.14591 -5.82238,-2.60898 -12.20653,-8.29984 -15.31151,-13.64876 -5.67787,-9.78118 -5.51882,-5.84902 -5.51882,-136.4428 0,-117.6867 -0.0384,-120.09102 -1.93426,-121.10566 -2.8769,-1.53967 -13.34554,-1.28228 -15.62461,0.38416 -1.91294,1.39873 -1.94839,6.20167 -2.44113,330.75 l -0.5,329.33063 -2.38082,6.3656 c -4.94042,13.20907 -16.19867,23.68997 -29.6462,27.59927 -6.63381,1.9285 -22.39227,1.9933 -28.57241,0.1175 -17.23971,-5.2326 -29.38583,-17.9648 -32.79886,-34.38157 -0.77993,-3.7514 -1.10171,-61.06089 -1.10171,-196.21481 0,-187.72919 -0.0323,-190.93287 -1.93426,-191.95078 -2.5037,-1.33993 -13.62778,-1.33993 -16.13148,0 -1.9016,1.01771 -1.93515,4.23031 -1.98687,190.25 -0.0415,149.18516 -0.32346,190.72709 -1.33292,196.36319 -3.08449,17.22157 -13.05704,28.76777 -30.23125,35.00167 -8.24627,2.9932 -25.13972,3.216 -32.38322,0.427 z m 67,-844.71675 c -29.00811,-3.31722 -53.07158,-19.35469 -65.82208,-43.86813 -12.11288,-23.28757 -12.47541,-51.978473 -0.94758,-74.992162 14.29105,-28.530068 41.9995,-45.5 74.29225,-45.5 17.37582,0 35.41819,5.752747 47.97741,15.297435 18.3114,13.916201 29.02759,31.482346 33.0401,54.159884 1.80663,10.21056 1.80955,15.08794 0.015,25.042683 -2.7087,15.02567 -6.01504,23.37098 -13.81935,34.8804 -10.77849,15.89561 -29.84695,28.75531 -49.02197,33.06021 -6.86319,1.54083 -20.27253,2.54191 -25.71378,1.91968 z"
     style="fill:#000000" />
</svg>
