<?xml version="1.0" encoding="UTF-8" standalone="no"?>
<svg
   xmlns:dc="http://purl.org/dc/elements/1.1/"
   xmlns:cc="http://creativecommons.org/ns#"
   xmlns:rdf="http://www.w3.org/1999/02/22-rdf-syntax-ns#"
   xmlns:svg="http://www.w3.org/2000/svg"
   xmlns="http://www.w3.org/2000/svg"
   viewBox="0 0 500 500"
   height="500"
   width="500"
   xml:space="preserve"
   version="1.1"
   id="svg3374"><metadata
     id="metadata3380"><rdf:RDF><cc:Work
         rdf:about=""><dc:format>image/svg+xml</dc:format><dc:type
           rdf:resource="http://purl.org/dc/dcmitype/StillImage" /><dc:title></dc:title></cc:Work></rdf:RDF></metadata><defs
     id="defs3378" /><g
     transform="matrix(1.25,0,0,-1.25,0,500)"
     id="g3382"><g
       id="g3384"><g
         transform="matrix(1,0,0,-1,0,400)"
         id="g3386"><path
           id="path3388"
           style="fill:none;stroke:#000000;stroke-width:4;stroke-linecap:butt;stroke-linejoin:miter;stroke-miterlimit:10;stroke-dasharray:none;stroke-opacity:1"
           d="m 373.453,395.594 -346.906,0 c -12.207,0 -22.141,-9.934 -22.141,-22.141 l 0,-346.906 C 4.406,14.34 14.34,4.406 26.547,4.406 l 346.906,0 c 12.207,0 22.141,9.934 22.141,22.141 l 0,346.906 c 0,12.207 -9.934,22.141 -22.141,22.141 z" /></g><path
         id="path3390"
         style="fill:#154889;fill-opacity:1;fill-rule:nonzero;stroke:none"
         d="m 391.594,26.547 c 0,-10.02 -8.121,-18.141 -18.141,-18.141 l -346.906,0 c -10.02,0 -18.141,8.121 -18.141,18.141 l 0,346.906 c 0,10.02 8.121,18.141 18.141,18.141 l 346.906,0 c 10.02,0 18.141,-8.121 18.141,-18.141 l 0,-346.906 z" /><path
         id="path3392"
         style="fill:#ffffff;fill-opacity:1;fill-rule:nonzero;stroke:none"
         d="m 373.453,4.406 -346.906,0 C 14.34,4.406 4.406,14.34 4.406,26.547 l 0,346.906 c 0,12.207 9.934,22.141 22.141,22.141 l 346.906,0 c 12.207,0 22.141,-9.934 22.141,-22.141 l 0,-346.906 C 395.594,14.34 385.66,4.406 373.453,4.406 Z M 26.547,387.594 c -7.797,0 -14.141,-6.344 -14.141,-14.141 l 0,-346.906 c 0,-7.797 6.344,-14.141 14.141,-14.141 l 346.906,0 c 7.797,0 14.141,6.344 14.141,14.141 l 0,346.906 c 0,7.797 -6.344,14.141 -14.141,14.141 l -346.906,0 z" /><path
         id="path3394"
         style="fill:#ffffff;fill-opacity:1;fill-rule:nonzero;stroke:none"
         d="m 190.879,254.953 -50.691,0 35.914,105.914 18.828,0 -4.051,-105.914 z m -1.629,-42.637 -63.52,0 -56.66,-167.105 113.789,0 6.391,167.105 z m 70.562,42.637 -35.914,105.914 -18.824,0 4.047,-105.914 50.691,0 z m 14.458,-42.637 -63.516,0 6.387,-167.105 113.793,0 -56.664,167.105 z m -229.887,31.032 0,-13.223 32.894,0 0,-17.809 30.364,0 0,17.809 184.718,0 0,-17.809 30.364,0 0,17.809 32.894,0 0,13.223 -311.234,0 z" /></g></g></svg>