<?xml version="1.0" encoding="UTF-8" standalone="no"?>
<!-- Created with Inkscape (http://www.inkscape.org/) -->

<svg
   xmlns:dc="http://purl.org/dc/elements/1.1/"
   xmlns:cc="http://creativecommons.org/ns#"
   xmlns:rdf="http://www.w3.org/1999/02/22-rdf-syntax-ns#"
   xmlns:svg="http://www.w3.org/2000/svg"
   xmlns="http://www.w3.org/2000/svg"
   xmlns:xlink="http://www.w3.org/1999/xlink"
   xmlns:sodipodi="http://sodipodi.sourceforge.net/DTD/sodipodi-0.dtd"
   xmlns:inkscape="http://www.inkscape.org/namespaces/inkscape"
   width="3543.3069"
   height="602.36218"
   id="svg3324"
   version="1.1"
   inkscape:version="0.48.4 r9939"
   sodipodi:docname="zelten_verboten1.svg"
   inkscape:export-filename="/home/ku3i/piraten/Gestaltung/pirat*n_xhain/Plakate/zelten_verboten/zelten_verboten.png"
   inkscape:export-xdpi="300.01883"
   inkscape:export-ydpi="300.01883">
  <defs
     id="defs3326">
    <color-profile
       name="ISO-Coated-v2-300---ECI-"
       xlink:href="/home/ku3i/.local/share/color/icc/ISOcoated_v2_300_eci.icc"
       id="color-profile3031" />
  </defs>
  <sodipodi:namedview
     id="base"
     pagecolor="#ffffff"
     bordercolor="#666666"
     borderopacity="1.0"
     inkscape:pageopacity="0.0"
     inkscape:pageshadow="2"
     inkscape:zoom="0.16"
     inkscape:cx="1672.9181"
     inkscape:cy="21.350923"
     inkscape:document-units="px"
     inkscape:current-layer="layer1"
     showgrid="true"
     width="2104.72px"
     inkscape:window-width="1440"
     inkscape:window-height="823"
     inkscape:window-x="0"
     inkscape:window-y="25"
     inkscape:window-maximized="1"
     units="cm"
     showguides="true"
     inkscape:guide-bbox="true" />
  <metadata
     id="metadata3329">
    <rdf:RDF>
      <cc:Work
         rdf:about="">
        <dc:format>image/svg+xml</dc:format>
        <dc:type
           rdf:resource="http://purl.org/dc/dcmitype/StillImage" />
        <dc:title></dc:title>
      </cc:Work>
    </rdf:RDF>
  </metadata>
  <g
     inkscape:label="Ebene 1"
     inkscape:groupmode="layer"
     id="layer1"
     transform="translate(0,-450.03778)">
    <g
       id="g3317"
       transform="matrix(0.09999933,0,0,0.09999933,0.01179684,947.1607)">
      <g
         id="g3910">
        <rect
           style="fill:#5600d0;fill-opacity:1;stroke:none"
           id="rect3332"
           width="35433.07"
           height="6023.6221"
           x="0"
           y="-4971.2627" />
        <g
           style="font-size:9526.16015625px;font-style:normal;font-variant:normal;font-weight:normal;font-stretch:normal;text-align:start;line-height:125%;letter-spacing:0px;word-spacing:0px;writing-mode:lr-tb;text-anchor:start;fill:#6400f0;fill-opacity:1;stroke:none;font-family:Politics Head;-inkscape-font-specification:Politics Head"
           id="text3038-5-8">
          <path
             inkscape:connector-curvature="0"
             d="m 2129.5422,1052.3998 c 97.6802,0 158.1491,-60.46891 158.1491,-158.14916 l 0,-1865.2296 c 0,-97.68024 60.4689,-158.14914 158.1492,-158.14914 l 893.0775,0 c 1279.1462,0 1911.744,-888.427 1911.744,-1828.018 l 0,-144.1949 c 0,-1120.9972 -632.5978,-1823.3665 -1907.0926,-1823.3665 l -2200.1337,0 c -97.6802,0 -158.14909,60.4688 -158.14909,158.1491 l 0,5660.80904 c 0,97.68025 60.46889,158.14916 158.14909,158.14916 l 986.1065,0 m 316.2983,-3362.995 c -97.6803,0 -158.1492,-60.4689 -158.1492,-158.1492 l 0,-1111.6954 c 0,-97.6803 60.4689,-158.1492 158.1492,-158.1492 l 920.9861,0 c 367.4639,0 651.2024,255.8299 651.2024,651.2024 l 0,134.8919 c 0,395.3725 -283.7385,641.8995 -651.2024,641.8995 l -920.9861,0"
             id="path3861"
             style="fill:#6400f0;fill-opacity:1" />
          <path
             inkscape:connector-curvature="0"
             d="m 6483.2951,1052.3998 986.1064,0 c 97.6803,0 158.1492,-60.46891 158.1492,-158.14916 l 0,-5707.32354 c 0,-97.6802 -60.4689,-158.1491 -158.1492,-158.1491 l -986.1064,0 c -97.6802,0 -158.1491,60.4689 -158.1491,158.1491 l 0,5707.32354 c 0,97.68025 60.4689,158.14916 158.1491,158.14916"
             id="path3863"
             style="fill:#6400f0;fill-opacity:1" />
          <path
             inkscape:connector-curvature="0"
             d="m 11688.262,-2417.5785 -1111.695,0 c -97.68,0 -158.149,-60.4689 -158.149,-158.1491 l 0,-1004.7122 c 0,-97.6803 60.469,-158.1492 158.149,-158.1492 l 1111.695,0 c 367.464,0 651.203,246.527 651.203,576.7793 l 0,162.8005 c 0,330.2523 -293.042,581.4307 -651.203,581.4307 m -2414.0997,3469.9783 986.1067,0 c 97.68,0 158.149,-60.46891 158.149,-158.14916 l 0,-2009.42444 c 0,-97.6802 60.469,-158.1491 158.149,-158.1491 l 804.7,0 c 41.863,0 79.075,18.6058 97.68,65.1202 l 907.032,2186.17935 c 23.257,51.16585 55.818,74.42315 93.029,74.42315 l 1125.65,0 c 74.423,0 111.635,-37.2116 111.635,-74.42315 0,-37.21152 -18.606,-97.68045 -60.469,-195.3607 l -911.683,-2218.73945 c -13.955,-37.2115 -23.258,-65.1203 -23.258,-102.3318 0,-37.2115 23.258,-65.1203 69.772,-93.0289 534.916,-325.6009 786.094,-809.3522 786.094,-1455.9024 0,-1125.6487 -711.672,-1837.3209 -1902.441,-1837.3209 l -2400.1457,0 c -97.6802,0 -158.1491,60.4688 -158.1491,158.1491 l 0,5660.80904 c 0,97.68025 60.4689,158.14916 158.1491,158.14916"
             id="path3865"
             style="fill:#6400f0;fill-opacity:1" />
          <path
             inkscape:connector-curvature="0"
             d="m 16251.331,-1082.6137 c -83.726,0 -106.984,-37.2116 -93.029,-97.6803 l 539.567,-2009.4244 23.258,-190.7093 162.8,0 23.257,190.7093 534.917,2009.4244 c 13.954,60.4687 -13.955,97.6803 -97.681,97.6803 l -1093.089,0 M 17697.93,103.50492 c 69.772,0 93.029,9.30294 106.983,55.81735 l 218.618,823.30583 c 13.955,46.5144 46.515,69.7717 97.681,69.7717 l 1153.558,0 c 69.772,0 102.332,-23.2573 102.332,-69.7717 0,-13.95432 0,-23.25726 -9.303,-51.1659 l -1707.08,-5805.0038 c -18.606,-65.1202 -79.075,-97.6804 -148.847,-97.6804 l -1409.388,0 c -69.771,0 -130.24,32.5602 -148.846,97.6804 0,0 -1697.777,5753.83791 -1702.429,5767.79224 -9.303,23.2572 -18.606,65.12026 -18.606,88.37746 0,46.5144 37.212,69.7717 106.984,69.7717 l 1148.907,0 c 46.514,0 79.074,-23.2573 93.029,-69.7717 l 218.617,-823.30583 c 13.955,-46.51441 32.561,-55.81735 106.984,-55.81735 l 1790.806,0"
             id="path3867"
             style="fill:#6400f0;fill-opacity:1" />
          <path
             inkscape:connector-curvature="0"
             d="m 21042.318,1052.3998 986.107,0 c 97.68,0 158.149,-60.46891 158.149,-158.14916 l 0,-4474.69044 c 0,-97.6803 60.469,-158.1492 158.149,-158.1492 l 1041.924,0 c 97.68,0 158.149,-60.4689 158.149,-158.1491 l 0,-869.8203 c 0,-97.6803 -60.469,-158.1491 -158.149,-158.1491 l -3702.551,0 c -97.68,0 -158.149,60.4688 -158.149,158.1491 l 0,869.8203 c 0,97.6802 60.469,158.1491 158.149,158.1491 l 1041.924,0 c 97.68,0 158.149,60.4689 158.149,158.1492 l 0,4474.69044 c 0,97.68025 60.469,158.14916 158.149,158.14916"
             id="path3869"
             style="fill:#6400f0;fill-opacity:1" />
          <path
             inkscape:connector-curvature="0"
             d="m 28503.237,1052.3998 c 97.68,0 158.149,-60.46891 158.149,-158.14916 l 0,-869.820291 c 0,-97.680255 -60.469,-158.149139 -158.149,-158.149139 l -2335.025,0 c -97.681,0 -158.15,-60.46889 -158.15,-158.14915 l 0,-916.33476 c 0,-97.6802 60.469,-158.1491 158.15,-158.1491 l 1916.395,0 c 97.68,0 158.149,-60.4689 158.149,-158.1492 l 0,-869.8203 c 0,-97.6802 -60.469,-158.1491 -158.149,-158.1491 l -1916.395,0 c -97.681,0 -158.15,-60.4689 -158.15,-158.1491 l 0,-869.8203 c 0,-97.6803 60.469,-158.1492 158.15,-158.1492 l 2335.025,0 c 97.68,0 158.149,-60.4689 158.149,-158.1491 l 0,-869.8203 c 0,-97.6803 -60.469,-158.1491 -158.149,-158.1491 l -3637.43,0 c -97.68,0 -158.149,60.4688 -158.149,158.1491 l 0,5660.80904 c 0,97.68025 60.469,158.14916 158.149,158.14916 l 3637.43,0"
             id="path3871"
             style="fill:#6400f0;fill-opacity:1" />
          <path
             inkscape:connector-curvature="0"
             d="m 30131.242,1052.3998 986.107,0 c 97.68,0 158.149,-60.46891 158.149,-158.14916 l 0,-1902.44114 c 0,-609.3388 -65.12,-1255.8905 -139.543,-1521.0227 l 37.211,0 c 0,18.6058 83.726,209.3153 195.361,409.3272 l 1879.184,3097.86265 c 37.211,55.81725 79.074,74.42315 139.543,74.42315 l 902.381,0 c 97.68,0 158.149,-60.46891 158.149,-158.14916 l 0,-5707.32354 c 0,-97.6802 -60.469,-158.1491 -158.149,-158.1491 l -986.107,0 c -97.68,0 -158.149,60.4689 -158.149,158.1491 l 0,1911.7441 c 0,525.6128 79.075,1274.4965 181.406,1721.0348 l -37.211,0 c -18.606,-60.4687 -144.195,-320.9499 -255.83,-507.0076 l -1855.926,-3218.8002 c -27.909,-41.8629 -74.424,-65.1202 -134.892,-65.1202 l -911.684,0 c -97.68,0 -158.149,60.4689 -158.149,158.1491 l 0,5707.32354 c 0,97.68025 60.469,158.14916 158.149,158.14916"
             id="path3873"
             style="fill:#6400f0;fill-opacity:1" />
        </g>
      </g>
      <text
         xml:space="preserve"
         style="font-size:816.50323486px;font-style:normal;font-variant:normal;font-weight:normal;font-stretch:normal;line-height:125%;letter-spacing:0px;word-spacing:0px;fill:#ffffff;fill-opacity:1;stroke:none;font-family:Playfair Display;-inkscape-font-specification:Playfair Display"
         x="3803.6863"
         y="-508.95572"
         id="text4094"
         sodipodi:linespacing="125%"><tspan
           sodipodi:role="line"
           x="3803.6863"
           y="-508.95572"
           id="tspan4098">Senatsverwaltung für Problemverdrängung, Räumung und Gefahrengebiete.</tspan></text>
      <g
         transform="matrix(0.58405067,0,0,0.58405067,166.95711,-851.92901)"
         id="g4853"
         style="fill:#ffffff;fill-opacity:1;stroke:none" />
      <text
         sodipodi:linespacing="125%"
         id="text3886"
         y="-1538.1476"
         x="3693.3799"
         style="font-size:3851.59545898px;font-style:normal;font-variant:normal;font-weight:normal;font-stretch:normal;line-height:125%;letter-spacing:0px;word-spacing:0px;fill:#ffffff;fill-opacity:1;stroke:none;font-family:Playfair Display;-inkscape-font-specification:Playfair Display"
         xml:space="preserve"><tspan
           y="-1538.1476"
           x="3693.3799"
           id="tspan3888"
           sodipodi:role="line">Zelten verboten!</tspan></text>
      <g
         transform="matrix(1.2680127,0,0,1.2680127,-4464.4873,32.70335)"
         id="g4297">
        <path
           inkscape:connector-curvature="0"
           id="rect3779"
           d="m 6561.1364,58.557868 21863.2166,0 0,98.170642 -21863.2166,0 z"
           style="fill:#ffffff;fill-opacity:1;stroke:none"
           sodipodi:nodetypes="ccccc" />
        <text
           xml:space="preserve"
           style="font-size:498.01794434px;font-style:normal;font-variant:normal;font-weight:normal;font-stretch:normal;line-height:125%;letter-spacing:0px;word-spacing:0px;fill:#000000;fill-opacity:1;stroke:none;font-family:Politics Head;-inkscape-font-specification:Politics Head"
           x="6530.7573"
           y="557.42548"
           id="text4133"
           sodipodi:linespacing="125%"><tspan
             sodipodi:role="line"
             id="tspan4135"
             x="6530.7573"
             y="557.42548"
             style="fill:#ffffff">PIRATEN XHAIN     #PRTXHN     @prt_XHN     OFFENE GRENZEN     BUNTES LEBEN     FREIHEIT STATT ANGST</tspan></text>
        <path
           style="fill:#ffffff;fill-opacity:1;stroke:none"
           d="m 9884.9804,401.06561 c 0,0 126.8966,0 143.4486,-16.55183 16.551,-16.55172 16.551,-143.44843 16.551,-143.44843 0,0 0,126.89671 16.551,143.44843 16.553,16.55183 143.449,16.55183 143.449,16.55183 0,0 -126.896,0 -143.449,16.5517 -16.551,16.55184 -16.551,143.44804 -16.551,143.44804 0,0 0,-126.8962 -16.551,-143.44804 -16.552,-16.5517 -143.4486,-16.5517 -143.4486,-16.5517 z"
           id="path4657-8"
           inkscape:connector-curvature="0"
           sodipodi:nodetypes="czczczczc" />
        <path
           style="fill:#ffffff;fill-opacity:1;stroke:none"
           d="m 12386.726,401.06565 c 0,0 126.897,0 143.449,-16.5519 16.551,-16.5517 16.551,-143.4484 16.551,-143.4484 0,0 0,126.8967 16.551,143.4484 16.553,16.5519 143.449,16.5519 143.449,16.5519 0,0 -126.896,0 -143.449,16.5517 -16.551,16.5518 -16.551,143.448 -16.551,143.448 0,0 0,-126.8962 -16.551,-143.448 -16.552,-16.5517 -143.449,-16.5517 -143.449,-16.5517 z"
           id="path4657-8-3"
           inkscape:connector-curvature="0"
           sodipodi:nodetypes="czczczczc" />
        <path
           style="fill:#ffffff;fill-opacity:1;stroke:none"
           d="m 15296.533,401.06565 c 0,0 126.897,0 143.449,-16.5519 16.551,-16.5517 16.551,-143.4484 16.551,-143.4484 0,0 0,126.8967 16.551,143.4484 16.553,16.5519 143.449,16.5519 143.449,16.5519 0,0 -126.896,0 -143.449,16.5517 -16.551,16.5518 -16.551,143.448 -16.551,143.448 0,0 0,-126.8962 -16.551,-143.448 -16.552,-16.5517 -143.449,-16.5517 -143.449,-16.5517 z"
           id="path4657-8-0"
           inkscape:connector-curvature="0"
           sodipodi:nodetypes="czczczczc" />
        <path
           style="fill:#ffffff;fill-opacity:1;stroke:none"
           d="m 19562.029,401.06565 c 0,0 126.897,0 143.449,-16.5519 16.551,-16.5517 16.551,-143.4484 16.551,-143.4484 0,0 0,126.8967 16.551,143.4484 16.553,16.5519 143.449,16.5519 143.449,16.5519 0,0 -126.896,0 -143.449,16.5517 -16.551,16.5518 -16.551,143.448 -16.551,143.448 0,0 0,-126.8962 -16.551,-143.448 -16.552,-16.5517 -143.449,-16.5517 -143.449,-16.5517 z"
           id="path4657-8-7"
           inkscape:connector-curvature="0"
           sodipodi:nodetypes="czczczczc" />
        <path
           style="fill:#ffffff;fill-opacity:1;stroke:none"
           d="m 23239.557,401.06565 c 0,0 126.897,0 143.449,-16.5519 16.551,-16.5517 16.551,-143.4484 16.551,-143.4484 0,0 0,126.8967 16.551,143.4484 16.553,16.5519 143.449,16.5519 143.449,16.5519 0,0 -126.896,0 -143.449,16.5517 -16.551,16.5518 -16.551,143.448 -16.551,143.448 0,0 0,-126.8962 -16.551,-143.448 -16.552,-16.5517 -143.449,-16.5517 -143.449,-16.5517 z"
           id="path4657-8-5"
           inkscape:connector-curvature="0"
           sodipodi:nodetypes="czczczczc" />
      </g>
      <g
         transform="translate(-578.94368,-77.339804)"
         id="g4388" />
    </g>
  </g>
</svg>
