<?xml version="1.0" encoding="UTF-8" standalone="no"?>
<!-- Created with Inkscape (http://www.inkscape.org/) -->

<svg
   xmlns:dc="http://purl.org/dc/elements/1.1/"
   xmlns:cc="http://creativecommons.org/ns#"
   xmlns:rdf="http://www.w3.org/1999/02/22-rdf-syntax-ns#"
   xmlns:svg="http://www.w3.org/2000/svg"
   xmlns="http://www.w3.org/2000/svg"
   xmlns:sodipodi="http://sodipodi.sourceforge.net/DTD/sodipodi-0.dtd"
   xmlns:inkscape="http://www.inkscape.org/namespaces/inkscape"
   width="210mm"
   height="297mm"
   id="svg2"
   version="1.1"
   inkscape:version="0.48.1 r9760"
   sodipodi:docname="Neues Dokument 1">
  <defs
     id="defs4" />
  <sodipodi:namedview
     id="base"
     pagecolor="#ffffff"
     bordercolor="#666666"
     borderopacity="1.0"
     inkscape:pageopacity="0.0"
     inkscape:pageshadow="2"
     inkscape:zoom="0.24748737"
     inkscape:cx="2354.8218"
     inkscape:cy="504.05794"
     inkscape:document-units="px"
     inkscape:current-layer="layer1"
     showgrid="false"
     inkscape:window-width="1440"
     inkscape:window-height="827"
     inkscape:window-x="0"
     inkscape:window-y="26"
     inkscape:window-maximized="1" />
  <metadata
     id="metadata7">
    <rdf:RDF>
      <cc:Work
         rdf:about="">
        <dc:format>image/svg+xml</dc:format>
        <dc:type
           rdf:resource="http://purl.org/dc/dcmitype/StillImage" />
        <dc:title></dc:title>
      </cc:Work>
    </rdf:RDF>
  </metadata>
  <g
     inkscape:label="Ebene 1"
     inkscape:groupmode="layer"
     id="layer1">
    <path
       style="fill:#000000"
       d="m 295.308,984.51324 c -2.36875,-0.1813 -6.9828,-0.934 -11.60151,-1.8925 -0.75069,-0.1558 -2.58144,-0.9045 -4.06833,-1.6639 -1.48691,-0.7592 -3.26237,-1.3805 -3.94547,-1.3805 -0.6831,0 -1.41876,-0.4607 -1.63482,-1.0237 -0.21605,-0.563 -0.67317,-1.0237 -1.0158,-1.0237 -0.34265,0 -1.92206,-0.8218 -3.50981,-1.82607 -2.62534,-1.66077 -5.12561,-2.47403 -10.1218,-3.29242 -0.9765,-0.1599 -3.43329,0.0171 -5.45953,0.39343 -2.02625,0.37637 -5.06603,0.83872 -6.75507,1.02748 -1.68904,0.18883 -4.45294,0.80802 -6.14198,1.37606 -3.61267,1.21502 -15.01372,2.08312 -15.01372,1.14332 0,-0.3499 -1.58407,-0.67238 -3.52016,-0.7164 -1.93608,-0.0444 -3.73623,-0.42991 -4.00033,-0.85718 -0.2641,-0.42734 -0.75295,-0.79395 -1.08633,-0.81476 -0.33338,-0.0205 -1.28361,-0.48168 -2.11162,-1.02415 -0.82803,-0.54254 -1.79333,-0.80855 -2.14514,-0.59112 -0.35181,0.21741 -0.83954,-0.40115 -1.08386,-1.37451 -0.24431,-0.97344 -1.0446,-2.58359 -1.77842,-3.57811 -0.86119,-1.16719 -1.59611,-3.86481 -2.07292,-7.60903 -0.79106,-6.21199 -0.48813,-11.13151 1.04228,-16.92626 0.9534,-3.60991 0.95089,-3.62418 -1.0393,-5.89084 -1.09725,-1.24975 -1.99501,-2.60965 -1.99501,-3.02219 0,-0.41247 -0.75552,-0.93959 -1.67893,-1.17134 -0.92341,-0.23176 -2.74021,-1.69628 -4.03734,-3.25456 -1.29713,-1.5583 -3.25139,-3.79104 -4.3428,-4.96164 -2.98891,-3.20583 -4.2722,-6.47302 -4.2722,-10.87668 0,-5.08461 1.61101,-7.24801 8.10228,-10.88037 2.88912,-1.61671 5.02935,-3.29483 5.24882,-4.1156 0.64424,-2.4093 -1.00741,-7.80284 -3.81485,-12.45764 -1.49151,-2.47296 -2.71184,-4.90368 -2.71184,-5.40167 0,-0.49797 -0.28836,-1.43864 -0.6408,-2.09044 -0.35243,-0.65174 -1.33939,-4.25599 -2.19324,-8.00941 -1.71345,-7.53218 -2.04027,-18.42593 -0.69507,-23.16856 0.62418,-2.2006 0.57962,-2.89956 -0.24282,-3.80837 -0.79359,-0.87687 -0.91345,-2.22353 -0.56488,-6.34705 0.27788,-3.28732 0.19191,-5.23399 -0.23115,-5.23399 -1.1555,0 -2.47496,-7.19061 -2.08966,-11.38791 0.2003,-2.18183 0.83396,-5.04187 1.40815,-6.35557 2.01054,-4.6 3.9333,-8.55605 5.60787,-11.53825 1.40716,-2.50593 1.69028,-3.92909 1.69703,-8.53052 0.0147,-10.07755 3.20841,-17.9805 10.90036,-26.97406 4.76529,-5.57166 4.90808,-5.84354 4.4797,-8.53052 -0.26834,-1.68317 -1.21168,-3.58112 -2.3971,-4.82275 -2.29807,-2.40704 -5.8188,-9.22422 -6.52026,-12.62517 -0.27095,-1.3137 -1.65428,-5.92018 -3.07406,-10.23663 -3.60286,-10.95352 -5.44407,-18.02001 -5.44407,-20.89418 0,-1.62091 -0.57874,-3.14083 -1.70611,-4.48062 -0.93835,-1.11517 -1.72852,-2.54144 -1.75592,-3.1695 -0.0274,-0.62806 -0.28468,-2.79504 -0.57174,-4.81553 -0.34778,-2.4479 -0.21365,-4.95259 0.40198,-7.50686 1.06549,-4.42059 1.34815,-7.0214 1.93258,-17.78192 0.24425,-4.49712 0.86142,-8.83685 1.4558,-10.23663 0.66116,-1.55705 1.09464,-5.12654 1.20673,-9.93678 0.0961,-4.12877 0.36462,-7.96751 0.59646,-8.53052 0.4492,-1.09075 1.22132,-5.36951 1.47782,-8.18931 0.0854,-0.93835 0.38311,-4.62353 0.66167,-8.1893 0.27856,-3.56575 0.94956,-8.17224 1.49111,-10.23662 0.54154,-2.06439 1.10254,-7.89927 1.24668,-12.96639 0.14412,-5.06713 0.72129,-11.82331 1.28259,-15.01372 0.56129,-3.19042 1.38861,-9.3059 1.83846,-13.58996 0.44985,-4.28406 1.20603,-8.89054 1.68042,-10.23663 0.57299,-1.62586 0.6538,-3.01077 0.24073,-4.12564 -0.85863,-2.3174 -0.73717,-22.73186 0.16256,-27.32555 0.40434,-2.06439 0.9813,-6.22901 1.28214,-9.25471 0.30085,-3.02569 1.17805,-6.92788 1.94934,-8.67153 1.47973,-3.34514 1.42728,-4.98518 -0.5532,-17.29821 -0.36919,-2.29532 -0.67126,-6.29987 -0.67126,-8.89897 0,-2.59909 -0.46065,-6.49418 -1.02366,-8.65574 -0.56302,-2.16156 -1.02367,-6.20024 -1.02367,-8.97485 0,-2.77461 -0.3071,-5.23454 -0.68244,-5.46651 -0.37535,-0.23198 -0.68244,-1.0116 -0.68244,-1.7325 0,-0.85818 -1.00145,-1.81465 -2.90039,-2.77013 -1.59519,-0.80265 -5.66426,-4.26375 -9.04235,-7.69132 -8.28866,-8.41012 -13.52867,-12.55125 -16.95337,-13.3981 -10.59123,-2.61894 -21.90961,-7.62934 -26.82634,-11.87541 -4.24969,-3.67002 -6.90055,-8.08963 -7.43952,-12.40343 -0.50089,-4.00901 -0.10778,-4.97525 3.58777,-8.81911 3.79755,-3.94991 9.1292,-6.93835 13.50938,-7.57214 1.12603,-0.16294 7.08002,0.19011 13.2311,0.78452 8.70713,0.84144 12.83541,1.59862 18.64213,3.41922 4.1021,1.28614 7.92041,2.8005 8.48518,3.36526 0.56474,0.56474 1.54778,1.02681 2.18452,1.02681 2.64652,0 10.53964,6.85383 12.81308,11.12598 0.55991,1.05214 2.23775,3.13273 3.72854,4.62352 2.59969,2.59969 6.08863,8.97343 6.08863,11.12295 0,0.56491 0.30711,1.21691 0.68245,1.44889 0.37535,0.23197 0.68244,0.8443 0.68244,1.36072 0,0.51643 0.35429,1.80348 0.7873,2.86011 1.50871,3.68148 4.15431,17.20539 3.70642,18.94667 -0.18807,0.73115 0.007,1.7492 0.43234,2.26232 1.19066,1.43466 1.28545,3.0475 1.55376,26.43575 0.24112,21.01748 0.19968,21.8925 -1.10267,23.28463 -0.94864,1.01404 -1.22479,1.95803 -0.92372,3.15763 0.23622,0.94113 -0.0689,3.82185 -0.67795,6.40159 -0.60909,2.57975 -1.42115,6.0595 -1.80459,7.7328 -0.4362,1.90356 -0.53018,8.28971 -0.25108,17.06104 0.41734,13.11529 0.35431,14.27846 -0.97808,18.04956 -0.7833,2.21699 -1.42417,5.03423 -1.42417,6.26053 0,1.22631 -0.2884,3.7118 -0.64089,5.52331 -2.27591,11.69663 -2.96382,19.03389 -2.56697,27.37971 0.50106,10.53779 -0.31146,19.84944 -2.46744,28.27745 -1.65883,6.48466 -1.85538,13.06803 -0.85454,28.6227 0.21696,3.37201 -0.0405,7.01517 -0.72328,10.23663 -1.08366,5.11257 -0.9724,10.32282 0.42014,19.67396 0.36332,2.43973 0.98248,6.88193 1.37591,9.87157 0.39344,2.98964 1.11088,6.06062 1.5943,6.82442 0.48343,0.76379 1.27295,3.23131 1.75447,5.48337 0.48153,2.25205 2.11351,7.31919 3.62661,11.26028 1.51311,3.9411 3.14154,9.36167 3.61875,12.04564 0.88707,4.98934 3.81044,12.54254 5.73298,14.81247 0.96315,1.13716 1.76956,1.22158 7.8971,0.82685 17.32358,-1.11613 19.73812,-1.1596 23.92367,-0.43069 2.43866,0.42469 7.72709,1.79701 11.75206,3.04956 4.02496,1.25262 10.54265,2.80491 14.48375,3.44954 3.9411,0.64463 8.85467,1.78159 10.91906,2.52653 2.06439,0.74496 5.44248,1.9494 7.50687,2.67648 2.06437,0.72707 4.21407,1.51495 4.77709,1.7508 0.56301,0.23586 1.5566,0.48808 2.20798,0.56056 0.65137,0.0724 1.80423,0.69267 2.56192,1.37839 1.09814,0.99378 1.69743,1.10098 2.95403,0.52841 0.88476,-0.40311 2.01884,-0.47067 2.58476,-0.15395 0.62256,0.34838 2.13573,0.0593 3.95487,-0.75485 1.80283,-0.8072 4.46278,-1.31923 6.85283,-1.31923 2.14848,0 5.65026,-0.35023 7.78175,-0.77833 3.98755,-0.80077 5.03963,-1.59383 12.17305,-9.17562 2.67508,-2.84327 8.74705,-13.84149 8.74705,-15.84371 0,-0.65794 0.40387,-1.80206 0.89749,-2.54243 1.86308,-2.7944 3.87961,-8.79935 3.87961,-11.55279 0,-1.74125 -0.76001,-4.44058 -1.94389,-6.90406 -1.06914,-2.22476 -2.15432,-4.90737 -2.4115,-5.96133 -0.25719,-1.05403 -1.46782,-3.35725 -2.69031,-5.11833 -2.81847,-4.06019 -5.23825,-8.22007 -5.23825,-9.00514 0,-0.33378 -1.04423,-2.38914 -2.3205,-4.56747 -1.27626,-2.17834 -2.83355,-5.72643 -3.46063,-7.88465 -0.62708,-2.15822 -1.21616,-3.92403 -1.30908,-3.92403 -0.0929,0 -1.83693,0.51567 -3.87562,1.14594 -2.03866,0.63026 -4.04999,1.08676 -4.46957,1.01444 -0.4196,-0.0723 -4.25834,1.28326 -8.53052,3.01239 -7.34352,2.97224 -11.72724,4.62035 -26.19356,9.8478 -3.37808,1.22068 -7.56506,3.254 -9.30439,4.51849 -3.31911,2.41299 -4.82381,2.73169 -7.71222,1.63353 -1.89241,-0.7195 -2.15478,-1.79733 -1.03458,-4.25005 0.88348,-1.93439 9.52194,-7.66379 14.28217,-9.47254 1.93688,-0.73596 5.57341,-2.34719 8.0812,-3.58051 2.50776,-1.23332 9.62518,-3.91367 15.81647,-5.95632 l 11.2569,-3.71393 -3.75005,-0.41105 c -5.94829,-0.652 -16.17874,1.32313 -21.95349,4.23842 -1.37903,0.69618 -4.91066,2.06721 -7.84809,3.04674 -2.93742,0.97951 -6.8856,2.79942 -8.77371,4.04422 -2.29369,1.51219 -4.44139,2.33608 -6.47176,2.48268 -2.7705,0.20003 -3.09582,0.0573 -3.68433,-1.6161 -0.56167,-1.59711 -0.34157,-2.15498 1.69466,-4.29532 2.41795,-2.54155 12.57808,-7.80927 20.08367,-10.41277 13.10856,-4.54701 17.02211,-5.46845 23.20338,-5.46313 3.37789,0.002 9.15895,-0.37629 12.84681,-0.84264 7.46216,-0.94365 7.74381,-1.18223 8.44031,-7.14965 0.28443,-2.43689 -0.11598,-3.38876 -3.73183,-8.87174 -2.22774,-3.37809 -5.36254,-9.05942 -6.96621,-12.62518 -4.04099,-8.98512 -5.13872,-15.67523 -5.09491,-31.0511 l 0.035,-12.28394 2.24756,-5.29119 c 2.53065,-5.95761 3.633,-6.96164 6.1919,-5.63962 0.94994,0.49077 3.10912,1.25997 4.79816,1.70934 1.68904,0.44936 5.134,2.17059 7.65545,3.82496 2.52147,1.65438 4.76268,3.00796 4.9805,3.00796 0.73947,0 7.48358,4.58441 10.15661,6.90411 7.04255,6.11166 12.52301,10.96537 14.18117,12.55944 l 1.82798,1.75732 6.36132,-2.07992 c 3.49873,-1.14394 6.73935,-2.07991 7.20138,-2.07991 1.48864,-10e-6 1.7545,-3.35171 1.27127,-16.02663 -0.33892,-8.88942 -0.2483,-12.91609 0.31866,-14.16045 0.62594,-1.37378 0.56149,-2.65901 -0.30703,-6.1221 -1.37651,-5.48868 -1.36256,-10.59856 0.0528,-19.30983 1.17284,-7.21901 1.3065,-10.14789 1.05327,-23.0791 l -0.15799,-8.06539 -3.2416,-3.08214 c -10.32896,-9.82085 -12.32973,-12.01137 -15.63784,-17.12087 -2.00262,-3.09315 -3.64115,-5.79661 -3.64115,-6.00769 0,-0.21107 -1.40502,-2.53614 -3.12228,-5.16681 -6.31964,-9.68109 -7.61357,-17.86826 -4.67927,-29.60764 0.93819,-3.75342 1.85074,-8.82055 2.02792,-11.26028 0.17717,-2.43974 0.6067,-5.05007 0.95453,-5.80076 0.34784,-0.75069 1.48058,-4.28232 2.51722,-7.84808 l 1.8848,-6.48319 3.28017,-1.64859 c 1.80411,-0.90673 3.46831,-1.46047 3.69824,-1.23054 0.22993,0.22994 -0.23101,2.55497 -1.02431,5.16675 -2.61387,8.60562 -1.44522,15.29986 3.63743,20.83593 1.66279,1.81112 3.41748,3.16153 3.89931,3.00092 0.48183,-0.16061 1.12212,-1.49784 1.42287,-2.97161 0.30075,-1.47379 1.04314,-3.75446 1.64977,-5.06816 4.28035,-9.26944 6.67753,-13.90755 8.02621,-15.52923 0.85674,-1.03017 2.41863,-3.25497 3.47085,-4.94402 5.2572,-8.43879 8.58914,-10.92213 14.53505,-10.83309 l 4.30294,0.0644 -1.20295,1.46028 c -1.96024,2.37969 -5.29307,5.17562 -6.19295,5.19535 -2.06117,0.0451 -4.07608,5.5037 -4.76009,12.89537 -0.38504,4.16076 1.0255,9.63418 3.68273,14.29032 1.3644,2.39081 1.99498,2.90122 3.37228,2.72978 1.6616,-0.20684 3.02759,-2.64297 5.85821,-10.44752 1.56702,-4.32069 6.85356,-12.62343 9.93663,-15.60595 6.671,-6.45353 8.46255,-7.62814 11.92192,-7.81648 4.11608,-0.2241 4.24901,0.85803 0.59454,4.84114 -2.12928,2.32081 -2.93962,4.01923 -4.14289,8.68338 -2.61124,10.12172 -2.94448,21.90969 -0.76216,26.95896 0.3245,0.75067 0.9765,2.43972 1.44903,3.75342 0.47252,1.3137 1.40023,3.62292 2.06159,5.13158 1.92606,4.39351 1.59446,10.16084 -0.83599,14.54033 -1.10931,1.99899 -2.58305,5.45329 -3.27491,7.6762 -0.69178,2.22292 -2.18388,5.50096 -3.31564,7.28455 -1.13176,1.78357 -2.36111,4.3702 -2.73181,5.74807 -0.58336,2.16804 -4.30614,8.43898 -5.60272,9.43752 -0.92736,0.71423 -7.95549,9.27546 -8.68325,10.57742 -0.60341,1.07954 -0.52336,1.62926 0.38333,2.63258 0.98026,1.08465 1.15305,3.05938 1.19435,13.64926 0.0266,6.80963 0.43416,14.58354 0.90573,17.27536 0.64047,3.65637 0.66347,5.25652 0.0907,6.32668 -0.42169,0.78786 -0.57564,1.74151 -0.34225,2.1192 0.80556,1.30338 1.10577,9.60001 0.37903,10.47561 -0.39875,0.4805 -0.82323,5.28879 -0.96033,10.87899 -0.31147,12.69608 -0.0457,13.03898 5.69954,7.36423 2.29608,-2.26775 4.78959,-4.31833 5.54103,-4.55683 0.75143,-0.2385 1.20662,-0.59331 1.01144,-0.78845 -1.20082,-1.20085 12.85571,-8.97293 17.30856,-9.57018 2.16943,-0.29097 2.72562,-0.0357 4.61693,2.1183 1.18268,1.34704 2.49112,3.7594 2.90761,5.36083 0.4165,1.60143 1.04455,3.8548 1.39566,5.00748 0.35118,1.15268 0.63843,3.31772 0.63843,4.81121 0,1.4935 0.27748,3.00718 0.61666,3.36376 0.93733,0.98555 1.27056,8.92919 0.62668,14.93904 -0.38346,3.57867 -1.23474,6.74386 -2.56175,9.52461 -1.09314,2.29063 -2.34548,5.32605 -2.78307,6.74539 -0.75478,2.44815 -0.68741,2.69124 1.31173,4.73603 1.15899,1.18548 2.10731,2.53549 2.10731,3.00001 0,0.46452 0.76774,1.44848 1.7061,2.1866 0.93835,0.73811 1.70611,1.96149 1.70611,2.71864 0,0.75713 0.95992,2.18431 2.1331,3.17151 2.02543,1.70425 2.19821,1.73599 3.4219,0.6286 0.73813,-0.66803 1.12951,-1.668 0.91597,-2.34063 -0.205,-0.64589 0.23129,-2.20663 0.96942,-3.46832 2.5885,-4.42435 4.29678,-10.01944 3.77643,-12.36874 -0.4883,-2.20434 -0.48707,-4.91181 0.007,-15.11586 0.19517,-4.03241 0.53633,-5.55369 1.34721,-6.00748 0.7468,-0.41793 0.95419,-1.13217 0.66422,-2.28741 -0.28396,-1.13137 0.19333,-2.8951 1.46192,-5.40245 1.36517,-2.69814 1.6866,-3.96323 1.16801,-4.59672 -1.16349,-1.42133 -0.89476,-30.13517 0.32115,-34.31368 1.64523,-5.65386 3.12894,-19.23846 2.23609,-20.47326 -0.77662,-1.07397 -1.32502,-10.21467 -0.67589,-11.265 0.32137,-0.51998 0.33597,-1.4226 0.032,-2.00584 -0.30348,-0.58324 -0.75068,-4.00394 -0.9937,-7.60156 -0.24397,-3.61163 -1.01881,-8.11978 -1.73019,-10.06602 -0.70865,-1.93866 -1.19359,-3.52487 -1.07771,-3.52487 0.11594,0 -0.54931,-2.84066 -1.47825,-6.31258 -2.5455,-9.51367 -2.98384,-11.84833 -3.61946,-19.27601 -0.50452,-5.89527 -0.37002,-7.93375 0.99057,-15.01372 0.86587,-4.50574 1.89145,-9.11357 2.27901,-10.2396 2.19173,-6.36735 2.87274,-9.1869 2.88475,-11.94272 0.0368,-8.46256 10.42873,-27.13829 17.61751,-31.6616 2.07796,-1.30747 8.97759,-2.87633 8.97759,-2.04136 0,0.13833 -0.99808,1.59397 -2.21793,3.23477 -6.81153,9.16203 -9.62319,17.84612 -8.40598,25.96301 0.34183,2.27932 1.2202,4.01961 3.16011,6.26102 1.47768,1.70734 2.68671,3.39268 2.68671,3.74519 0,1.70485 1.32945,0.28837 2.60098,-2.77126 0.7799,-1.87673 1.72146,-3.41222 2.0923,-3.41222 0.37084,0 0.88806,-0.67362 1.14937,-1.49695 0.73826,-2.32591 4.45362,-7.28846 9.06426,-12.1068 2.31081,-2.41494 4.20145,-4.6642 4.20145,-4.99837 0,-1.95915 14.00746,-14.15508 16.25761,-14.15508 0.34996,0 1.01861,-0.46065 1.48588,-1.02366 0.90792,-1.09395 4.09465,-1.42455 4.09465,-0.42478 0,0.32938 -0.47334,0.9917 -1.05185,1.47183 -0.5785,0.48013 -2.76184,3.41643 -4.85182,6.52511 -3.56664,5.30509 -3.83866,6.00428 -4.43014,11.3869 -0.60996,5.55073 -0.56117,5.90715 1.52116,11.10747 1.18322,2.95499 2.24947,6.42861 2.36944,7.71914 0.1199,1.29054 0.54405,2.54791 0.94253,2.79414 0.39841,0.24625 2.49002,-1.20075 4.64804,-3.21552 6.39325,-5.96898 18.29558,-14.71143 26.4569,-19.43303 2.78566,-1.6116 7.82303,-3.94121 8.52213,-3.94121 0.89133,0 -1.27726,3.91336 -2.40937,4.34777 -1.20587,0.46276 -7.08769,9.33002 -9.47966,14.29137 -1.63601,3.39333 -1.719,4.19342 -1.99983,19.28346 -0.27236,14.63677 -0.40052,15.95579 -1.82348,18.76716 -0.84186,1.66314 -1.96474,3.27701 -2.49534,3.58638 -0.58514,0.34113 -0.79805,1.08786 -0.54105,1.89759 0.26226,0.82643 -0.23749,2.46335 -1.31171,4.29644 -1.9288,3.29125 -13.57057,14.64011 -17.81938,17.37109 -1.50137,0.96502 -3.97652,2.84082 -5.50028,4.16843 -7.00178,6.10041 -9.81454,7.90285 -13.35695,8.55937 -4.71499,0.87382 -6.27396,2.39342 -7.61046,7.41816 -0.66947,2.51724 -1.02024,4.8956 -0.77942,5.28526 0.49191,0.79591 -0.87332,6.18509 -2.22666,8.78995 -0.48761,0.93835 -0.88833,2.37895 -0.89066,3.20132 0,0.82236 -0.26779,1.65809 -0.5899,1.85718 -0.32211,0.19908 -0.81245,4.74691 -1.08965,10.10629 -0.55101,10.65203 -0.66409,12.07807 -1.55618,19.62474 -0.45259,3.82882 -0.3823,5.54629 0.28158,6.87705 0.94982,1.90388 1.06515,3.3722 0.94429,12.01814 -0.0471,3.36557 -0.58355,7.1495 -1.35465,9.55419 -0.70216,2.18988 -1.47209,6.43839 -1.71081,9.44114 -1.27404,16.02081 -1.39279,16.81662 -2.64719,17.73342 -0.77873,0.56914 -0.96791,1.06786 -0.51183,1.3497 1.02933,0.63618 0.8944,3.22585 -0.29195,5.60401 -1.40351,2.81345 -2.05155,7.21511 -1.88353,12.7933 0.0783,2.59778 -0.18522,5.11789 -0.58555,5.60025 -0.40031,0.48236 -0.48774,1.26555 -0.19422,1.74044 0.6385,1.03317 0.56834,2.71649 -0.51469,12.34011 -0.99507,8.8426 -0.90089,8.9767 6.75795,9.62411 2.77651,0.2347 5.56176,0.72639 6.18947,1.09264 0.62764,0.36624 0.77798,0.67525 0.33412,0.68666 -0.44385,0.0114 -0.99452,0.61145 -1.22369,1.33342 -0.22916,0.72197 -1.30333,2.18069 -2.38711,3.2416 -1.08372,1.06092 -2.58236,3.35801 -3.33031,5.10465 l -1.35984,3.17573 1.48302,0.39778 c 0.81565,0.21877 2.61941,0.40197 4.00825,0.40709 3.83621,0.0141 4.2568,1.50356 1.79925,6.37188 -1.19338,2.36416 -2.59245,4.17352 -3.38791,4.38154 -0.82862,0.21668 -1.20929,0.73397 -0.97998,1.33155 0.20623,0.53745 -0.0835,1.86377 -0.64388,2.94741 -1.52888,2.95662 -1.29453,3.75179 2.02227,6.86052 l 3.0411,2.85035 -0.17382,4.46529 c -0.16351,4.20003 -0.27325,4.47239 -1.84682,4.5841 -6.08751,0.43219 -11.56841,3.18148 -11.56841,5.80274 0,0.71492 0.70906,2.34465 1.57569,3.62172 0.86663,1.27705 2.4561,4.06202 3.53218,6.18885 2.54053,5.02127 2.03149,5.57705 -4.97275,5.42863 -2.88939,-0.0614 -5.56463,0.14638 -5.94495,0.46132 -0.38033,0.31495 -2.1699,0.94491 -3.97679,1.3999 -2.52286,0.63522 -3.44224,1.24007 -3.96165,2.60617 -0.82637,2.17365 -1.52048,13.7074 -1.38051,22.94158 0.13738,9.06739 -0.90724,17.05019 -2.60857,19.93372 -0.75403,1.278 -1.37102,2.71407 -1.37102,3.1913 0,0.47722 -0.8882,2.2255 -1.97376,3.88507 -1.08556,1.6595 -2.18477,4.01542 -2.44274,5.23529 -0.25796,1.21985 -0.71792,2.21793 -1.02208,2.21793 -0.30417,0 -1.2258,1.45872 -2.04808,3.2416 -0.82228,1.78288 -1.92517,3.57832 -2.45092,3.98989 -0.52569,0.41158 -1.34598,2.27273 -1.82281,4.13587 -0.998,3.89988 -3.16488,6.74095 -6.89545,9.04099 -1.97008,1.21468 -3.19642,2.81664 -4.95262,6.46982 -2.38056,4.9518 -7.61708,14.13378 -8.41246,14.75077 -0.24193,0.18768 -1.48151,2.03027 -2.7546,4.09466 -1.27311,2.06439 -3.1056,4.62976 -4.07227,5.70084 -1.68619,1.86839 -8.43724,6.58311 -9.4265,6.58311 -0.26226,0 -1.10079,0.7111 -1.86341,1.58026 -0.7627,0.86909 -2.76198,2.12308 -4.4429,2.78655 -1.68092,0.66354 -4.40612,2.11748 -6.05606,3.23095 -6.29089,4.24567 -15.08707,7.99371 -17.6494,7.52037 -0.45592,-0.0843 -4.29465,1.40958 -8.53053,3.31967 -8.7971,3.96683 -18.56625,7.24378 -23.05653,7.73411 -1.68904,0.18447 -5.84073,0.81743 -9.22596,1.40666 -4.42049,0.76938 -9.3245,1.00529 -17.40226,0.83714 -7.99614,-0.16644 -11.83909,0.015 -13.29462,0.62813 -1.12603,0.47422 -4.19702,1.67531 -6.82442,2.66902 -2.62741,0.9937 -5.84134,2.32618 -7.14206,2.96105 -2.99136,1.46001 -13.98222,12.67233 -15.46342,15.77498 -1.38005,2.89076 -2.33471,10.22721 -1.53274,11.77909 0.96214,1.86176 0.68078,6.02691 -0.48594,7.19362 -1.29614,1.29615 -0.8507,4.59242 1.15076,8.51564 1.91319,3.75015 2.68891,3.58043 10.26069,-2.24462 5.55871,-4.27638 15.12658,-5.57808 33.21019,-4.51811 6.70969,0.3933 9.68874,1.55351 9.68874,3.77336 0,0.66695 0.37429,1.58695 0.83178,2.04438 0.87045,0.87046 1.15129,8.93508 0.39645,11.38395 -0.2314,0.75069 -0.78398,2.7901 -1.22795,4.53197 -1.14025,4.47367 -4.78918,8.22001 -10.57813,10.86063 -4.7061,2.1467 -4.95964,2.1831 -17.06104,2.4466 -14.79852,0.3224 -21.29002,1.2483 -21.88458,3.1217 -0.22637,0.7131 -1.22981,1.6098 -2.2299,1.9926 -1.91848,0.7344 -8.1529,1.1018 -12.73738,0.7506 z m -39.83462,-47.63985 c -4.44654,-3.99781 -7.5111,-8.55045 -7.70625,-11.44824 -0.2918,-4.33282 7.90462,-12.0457 12.8008,-12.0457 1.09554,0 3.02771,-0.29707 4.29373,-0.66021 1.26602,-0.36305 3.95292,-0.81674 5.9709,-1.00817 2.01798,-0.19149 4.62136,-0.84056 5.78529,-1.4424 l 2.11625,-1.09437 -1.60846,-1.11524 c -0.88464,-0.61331 -1.91556,-1.37443 -2.29089,-1.6913 -0.37534,-0.31686 -1.60374,-1.12623 -2.72977,-1.79864 -1.28445,-0.76699 -2.92669,-2.95251 -4.40726,-5.86538 -1.79766,-3.53662 -3.05144,-5.06495 -5.26227,-6.41448 -1.59629,-0.97439 -4.06596,-2.48969 -5.48815,-3.3673 -2.81569,-1.73757 -8.02233,-7.6933 -9.79985,-11.20993 -0.61389,-1.21447 -1.92898,-3.78823 -2.92242,-5.71941 -0.99345,-1.93123 -1.80626,-3.99371 -1.80626,-4.58334 0,-0.58963 -0.42792,-2.0805 -0.95093,-3.31312 -0.97777,-2.30434 -3.50509,-12.66701 -4.12501,-16.91357 -0.65646,-4.49688 -1.01496,-12.10754 -0.59032,-12.53223 0.23339,-0.23331 0.37721,-4.16794 0.31962,-8.7435 -0.11815,-9.38514 1.53968,-18.26904 4.04039,-21.65143 1.16062,-1.56982 1.29568,-2.22345 0.69235,-3.35079 -0.9665,-1.80594 -3.26036,-2.52543 -4.57443,-1.4349 -2.55109,2.11728 -2.68611,4.97623 -0.27121,5.74269 2.04301,0.64845 2.03816,2.00918 -0.0223,6.22564 -1.75102,3.58337 -2.83399,7.94744 -3.78963,15.27127 -0.17141,1.3137 -0.44749,3.21533 -0.6135,4.22582 -0.16601,1.01048 0.18843,4.38857 0.78766,7.50686 0.59922,3.11828 1.15119,6.89798 1.22661,8.39935 0.0754,1.50137 0.63254,4.41881 1.23804,6.4832 0.60549,2.06439 1.08642,4.8581 1.06873,6.20817 -0.0411,3.14073 3.52525,13.90741 5.80085,17.51221 0.96165,1.52335 2.49054,4.56369 3.39754,6.75631 0.90698,2.19269 2.75897,5.82921 4.11552,8.08127 6.764,11.2291 6.78318,13.87978 0.15646,21.60863 -5.33175,6.21848 -6.67956,8.81899 -6.36297,12.27693 0.18464,2.01675 0.88997,3.90609 1.93275,5.1772 1.6007,1.95117 11.29667,8.97015 12.46426,9.02291 0.32211,0.0143 -0.97657,-1.37813 -2.88595,-3.09481 z m 75.6089,-120.48776 c 0.0397,-4.33561 -0.20439,-6.10212 -0.92588,-6.70096 -1.05007,-0.87148 -1.78805,-3.51095 -2.08919,-7.47232 -0.10279,-1.35275 -0.52922,-4.11363 -0.94754,-6.13543 -2.46053,-11.89216 0.19589,-14.48026 16.6417,-16.21386 11.23643,-1.18445 29.71142,-9.04235 27.95219,-11.88889 -0.28468,-0.46065 -1.46028,-0.61467 -2.95233,-0.38681 -1.36361,0.20822 -4.16833,0.63542 -6.23272,0.94935 -2.06438,0.31392 -4.98183,1.2417 -6.48319,2.06172 -3.34388,1.82628 -13.93794,5.93854 -17.994,6.98459 -1.63914,0.4227 -5.86243,0.753 -9.38507,0.7339 -5.15328,-0.0279 -6.96483,-0.32041 -9.27085,-1.49687 -1.57633,-0.80419 -4.49309,-2.02194 -6.4817,-2.70616 l -3.61564,-1.24395 0,1.97028 c 0,1.08371 0.29912,2.15521 0.66471,2.3811 0.36559,0.22596 1.11817,1.9378 1.6724,3.80414 0.97607,3.28678 8.2531,16.46152 9.33127,16.89385 1.10824,0.44434 3.25014,8.87938 3.64172,14.34144 0.22409,3.12586 0.98919,7.42524 1.70019,9.55419 0.71102,2.12887 1.67389,5.25268 2.13973,6.94172 l 0.84697,3.071 0.86665,-4.7771 c 0.47668,-2.6274 0.89093,-7.4266 0.92058,-10.66493 z m 112.48618,-67.23211 c 2.21705,-0.30383 2.90039,-0.6933 2.90039,-1.65288 0,-2.31838 -3.75091,-3.26247 -14.67251,-3.69296 -5.63014,-0.22193 -11.92567,-0.67923 -13.99005,-1.01616 -12.31925,-2.01075 -16.25529,-2.73754 -18.0847,-3.33938 -17.71987,-5.82916 -20.24982,-6.23411 -19.14494,-3.06445 0.50721,1.45511 9.35214,5.91281 14.77987,7.44885 21.35663,6.04391 33.29882,7.36096 48.21194,5.31698 z m -12.12808,-25.52544 c 0.85525,-0.50105 0.79764,-0.61318 -0.32648,-0.6357 -0.75068,-0.015 -5.35717,-0.46371 -10.23662,-0.99711 -4.87946,-0.53339 -12.40338,-1.16903 -16.71982,-1.41245 -8.1075,-0.45723 -16.92821,-1.89739 -19.25796,-3.14421 -1.58839,-0.85012 -1.61914,-0.8248 -2.1711,1.78615 -0.40628,1.92189 -0.24258,2.1252 2.67207,3.31831 2.46141,1.00756 5.5399,1.34249 14.85496,1.61609 6.46256,0.18978 11.90367,0.49702 12.09133,0.68264 0.55916,0.55312 17.96657,-0.55346 19.09362,-1.21372 z M 387.77886,707.3466 c 0,-0.33984 -1.04184,-1.86487 -2.31519,-3.38897 -1.27336,-1.52411 -3.28755,-5.16158 -4.47599,-8.08327 -1.18844,-2.92168 -2.57337,-6.23345 -3.07765,-7.35948 -1.79493,-4.0081 -2.36842,-9.98022 -1.76939,-18.42593 0.58146,-8.19806 1.33012,-11.22895 4.12871,-16.71463 1.66903,-3.27157 1.24546,-5.434 -1.33487,-6.81497 -1.20126,-0.64288 -1.49565,-0.51396 -2.02887,0.88848 -0.34304,0.90229 -1.10788,1.82629 -1.69964,2.05338 -0.59178,0.22708 -1.07595,0.82911 -1.07595,1.33785 0,0.50873 -1.22839,3.29879 -2.72976,6.20012 l -2.72977,5.27514 0.0167,8.66441 c 0.0169,8.74923 0.75154,13.9476 2.22157,15.71888 0.44104,0.53143 0.87306,2.07861 0.96004,3.43821 0.40917,6.39602 5.28546,13.25074 11.4742,16.12956 3.89037,1.80969 4.43587,1.94266 4.43587,1.08122 z M 590.15354,403.77055 c -0.95166,-2.48004 -1.25535,-9.68852 -0.44904,-10.66004 0.60962,-0.7345 0.61126,-1.75213 0.007,-4.28164 -1.02237,-4.27983 -0.84063,-10.13923 0.5149,-16.59845 1.55614,-7.41543 1.7238,-10.37352 1.87805,-33.12572 0.10645,-15.76512 0.38844,-21.62084 1.22531,-25.46353 1.11952,-5.14139 1.85083,-6.79575 1.99221,-4.50704 0.0444,0.71941 0.0355,1.56586 -0.02,1.88102 -0.74018,4.19058 -1.12385,15.38395 -0.56398,16.4528 1.21378,2.31743 1.28253,17.22216 0.10535,22.89703 -0.58394,2.81508 -0.96672,7.01533 -0.85085,9.3339 0.11599,2.31857 -0.0166,4.44267 -0.29385,4.72022 -0.74616,0.74628 -0.61254,3.00693 0.17787,3.00693 1.02172,0 0.82256,4.05205 -0.25194,5.12655 -0.93889,0.9389 -0.94654,5.09899 -0.02,10.73692 0.23098,1.40573 0.19061,3.09477 -0.0898,3.75343 -0.28055,0.65867 -0.44732,2.15714 -0.37059,3.32993 0.0765,1.1728 -0.35894,3.32249 -0.96783,4.7771 -0.77444,1.84973 -0.97688,3.59701 -0.67342,5.81273 0.43546,3.18075 -0.47747,5.08037 -1.34951,2.80786 z m -164.62658,-8.7916 c -0.23421,-0.61031 0,-2.22257 0.52513,-3.58282 1.14596,-2.98045 1.53905,-19.83168 0.53818,-23.07262 -0.43226,-1.39968 -0.43894,-3.10047 -0.0191,-4.7771 0.35877,-1.43197 0.83975,-3.43726 1.06892,-4.4562 0.57741,-2.56764 2.25007,-1.76546 3.12961,1.5009 0.66695,2.47691 0.38093,6.28257 -1.20608,16.04788 -0.3327,2.04712 -0.28561,4.04605 0.11778,4.99657 0.4988,1.17548 0.43253,1.73257 -0.2568,2.15859 -0.77471,0.47881 -1.98072,6.34693 -2.28127,11.10016 -0.0949,1.50192 -1.05341,1.5521 -1.61656,0.0846 z m 84.11265,-0.18264 c -0.25182,-0.40743 -0.73267,-5.81433 -1.06856,-12.01534 -0.3359,-6.20101 -0.77622,-11.54234 -0.97849,-11.86965 -0.20228,-0.32731 0.24219,-1.37061 0.98777,-2.31844 0.74557,-0.94785 1.35559,-2.15364 1.35559,-2.67955 0,-1.88237 1.63344,-3.26249 3.32651,-2.81072 1.58039,0.42169 1.60891,0.56043 1.15366,5.6195 -0.25674,2.85291 -0.74305,5.46629 -1.08064,5.8075 -0.33761,0.34121 -0.44884,1.8767 -0.24718,3.41221 0.55666,4.23838 -0.76495,15.36945 -1.96769,16.57219 -0.69493,0.69487 -1.17005,0.78545 -1.48097,0.2823 z m -50.87487,-10.82107 c 0.01,-7.60223 1.1609,-18.17843 2.40335,-22.09302 0.57401,-1.80848 2.36405,-1.61443 2.35135,0.25489 -0.008,1.24166 -0.13703,1.3396 -0.672,0.51183 -0.47108,-0.72896 -0.66456,0.0668 -0.67199,2.76388 -0.007,2.08317 -0.38484,4.16196 -0.84241,4.61955 -0.6544,0.65436 -0.43581,1.19935 1.02367,2.55266 2.2889,2.12243 2.33599,4.03819 0.20261,8.24678 -1.00865,1.98976 -1.45101,3.67032 -1.13469,4.31115 0.60812,1.23229 -1.08898,7.53341 -2.02904,7.53341 -0.36907,0 -0.63775,-3.70487 -0.63085,-8.70113 z m 90.31918,4.27056 c -0.2149,-0.56009 0.0895,-5.21591 0.67638,-10.34626 0.58696,-5.13034 0.8996,-9.59911 0.69472,-9.9306 -0.20487,-0.33148 -0.007,-1.04599 0.44503,-1.58778 0.44966,-0.54178 0.64265,-1.44074 0.42898,-1.99768 -0.21375,-0.55693 0.1358,-1.52847 0.77668,-2.15899 0.64088,-0.63051 1.49878,-2.09523 1.90647,-3.25493 0.74004,-2.10544 0.74236,-2.10626 1.56968,-0.56035 0.45574,0.8515 1.1203,1.36791 1.47681,1.14758 0.3565,-0.22033 0.64818,0.52355 0.64818,1.65307 0,1.23595 -0.47553,2.33068 -1.19427,2.7493 -0.81811,0.47651 -0.89762,0.70213 -0.25244,0.71635 1.31718,0.029 0.68791,4.98648 -1.10241,8.68514 -1.00743,2.08125 -1.29207,3.69834 -1.04175,5.9188 0.2953,2.62001 0.0246,3.54871 -1.90074,6.51995 -1.23481,1.90562 -2.35661,3.46476 -2.49282,3.46476 -0.13622,0 -0.42352,-0.45825 -0.6385,-1.01836 z M 400.7557,382.95158 c 0.007,-1.50795 0.19879,-1.92069 0.59879,-1.28934 0.53661,0.84692 0.27293,3.50728 -0.34761,3.50728 -0.14389,0 -0.25693,-0.99807 -0.25118,-2.21794 z m -0.68451,-4.93206 c -0.69643,-1.30128 -0.7388,-2.09673 -0.17354,-3.25724 0.75217,-1.54425 1.17215,-4.21332 2.0873,-13.26551 0.4783,-4.73113 1.03839,-6.35141 1.8983,-5.49151 0.79442,0.79443 0.29376,16.56431 -0.63231,19.91666 -1.08937,3.9435 -1.90419,4.48102 -3.17975,2.0976 z m 111.47483,-18.43734 c 0.24049,-0.62673 0.43724,-1.2392 0.43724,-1.36105 0,-0.12182 0.62675,-0.0575 1.39279,0.14272 1.79461,0.46931 1.35423,1.82852 -0.68926,2.1272 -1.23714,0.18083 -1.48364,-0.0155 -1.14077,-0.90887 z m -83.5031,-5.05308 c 0,-1.12028 0.27496,-1.28865 1.41552,-0.86674 1.92694,0.71283 1.98938,1.77353 0.11997,2.03901 -1.16124,0.16493 -1.53549,-0.12077 -1.53549,-1.17227 z m -24.97736,-1.02488 c -0.24982,-0.65101 -0.11641,-1.52146 0.29647,-1.93434 0.54596,-0.54594 0.87456,-0.42787 1.2049,0.43296 0.24981,0.65101 0.11641,1.52146 -0.29647,1.93434 -0.54596,0.54596 -0.87457,0.42787 -1.2049,-0.43296 z m 152.19651,-3.91575 c 0.9183,-8.35223 1.06441,-18.83026 0.3387,-24.2839 -0.58642,-4.40654 -0.58158,-5.93615 0.0197,-6.30797 1.11749,-0.69068 2.83622,-8.39514 2.05087,-9.19346 -0.3849,-0.39123 -0.16918,-1.14637 0.55632,-1.94752 1.38434,-1.52873 1.67233,-5.30348 1.91111,-25.05237 0.0885,-7.31919 0.32785,-14.07536 0.53177,-15.01372 0.20397,-0.93835 0.6346,-3.40292 0.95691,-5.47682 0.32232,-2.0739 0.82166,-4.15188 1.10958,-4.61774 0.28785,-0.46586 0.67166,-1.66424 0.85278,-2.66307 0.3142,-1.73281 1.95936,-3.55293 3.25328,-3.59926 0.73157,-0.0262 -0.0136,8.08579 -1.0954,11.92102 -0.42338,1.50138 -1.22552,3.26772 -1.7826,3.92522 -0.90014,1.06253 -0.87598,1.44936 0.21715,3.47917 0.87824,1.63079 1.07819,2.84991 0.69951,4.26409 -0.51866,1.9365 -0.5695,3.95413 -0.34054,13.50358 0.0689,2.87041 -0.18699,4.88403 -0.65753,5.17485 -0.4846,0.29951 -0.61387,1.46736 -0.34847,3.14927 0.47062,2.98232 -0.57748,6.53092 -1.84914,6.26105 -0.45518,-0.0966 -0.93903,0.4386 -1.07539,1.18927 -0.19893,1.09593 -0.11342,1.16705 0.43424,0.36099 1.24443,-1.83177 1.78042,0.0307 1.72971,6.01029 -0.0383,4.49345 -0.40181,6.7007 -1.51542,9.19566 -1.17695,2.63699 -1.30845,3.53411 -0.66831,4.55917 0.61255,0.98081 0.58798,2.3277 -0.10601,5.81959 -0.49676,2.49889 -0.85326,7.0726 -0.79239,10.16381 0.12769,6.4832 -0.25052,7.90799 -2.09926,7.90799 -0.73267,0 -1.13927,0.31211 -0.90348,0.69357 0.23571,0.38147 0.68237,0.53679 0.9924,0.34515 0.3101,-0.19165 0.75677,0.1544 0.99262,0.76899 0.48153,1.2549 0.25455,1.64404 -1.07635,1.84551 -0.50357,0.0762 -1.32585,0.39472 -1.82731,0.70777 -0.73512,0.45892 -0.83373,-0.13965 -0.50937,-3.09018 z m -41.91394,-1.23053 c 0,-1.12993 0.99583,-1.29203 1.90361,-0.30987 0.73103,0.79085 0.64436,0.95203 -0.51183,0.95203 -0.76543,0 -1.39178,-0.28898 -1.39178,-0.64216 z m -49.98885,-3.22202 c 0.46918,-0.18931 1.23692,-0.18931 1.7061,0 0.46919,0.18932 0.0853,0.34422 -0.85305,0.34422 -0.93836,0 -1.32223,-0.1549 -0.85305,-0.34422 z m 51.00221,-7.90793 c 0.22719,-4.59796 0.54269,-10.02967 0.70108,-12.07046 0.15839,-2.0408 0.0266,-4.03695 -0.29332,-4.43588 -0.70687,-0.88191 0.18413,-7.83706 1.26198,-9.85104 0.52097,-0.97349 1.43558,-1.45213 2.7748,-1.45213 l 1.99765,0 -0.4094,4.60648 c -0.22514,2.53357 -0.69554,5.16354 -1.04536,5.84438 -0.39568,0.77025 -0.39077,1.54367 0.013,2.04733 0.41738,0.52048 0.3168,2.0275 -0.28164,4.22163 -0.51191,1.87672 -1.1175,6.30584 -1.34577,9.84247 -0.46781,7.24846 -1.13183,9.60712 -2.70452,9.60712 -0.95084,0 -1.03171,-1.01083 -0.66852,-8.3599 z m -86.50078,2.55914 c 0.12181,-2.25205 0.68135,-6.85853 1.24354,-10.23662 0.56212,-3.37809 1.34318,-9.05941 1.73558,-12.62517 0.39241,-3.56576 0.92171,-7.99522 1.17619,-9.84327 l 0.46277,-3.36004 2.03607,1.75577 c 2.00732,1.73103 2.02316,1.79769 1.12002,4.72496 -0.50385,1.63303 -0.91195,3.89044 -0.90697,5.01648 0.007,1.12602 -0.61993,7.01341 -1.38876,13.08307 -1.20356,9.50215 -1.57386,11.08178 -2.66461,11.36701 -1.35074,0.35323 -1.71872,2.14647 -0.5843,2.84759 1.16821,0.72199 0.75171,1.36488 -0.88424,1.36488 -1.48451,0 -1.55508,-0.21484 -1.34529,-4.09466 z m 37.24105,1.9117 c -1.44418,-0.28032 -1.5067,-0.63316 -1.70611,-9.63185 -0.13035,-5.88428 0.0764,-9.97223 0.55885,-11.04699 0.4356,-0.97033 0.61775,-3.4242 0.42236,-5.69002 -0.40045,-4.64515 0.8588,-9.32909 2.50388,-9.31325 2.33758,0.0225 2.70951,0.89853 1.58927,3.74385 -1.11496,2.83212 -1.27876,6.80131 -0.48501,11.75398 0.29899,1.86548 0.11377,3.91295 -0.52479,5.80076 -0.68729,2.03202 -0.88977,4.7302 -0.66689,8.88901 0.17594,3.28425 0.20467,5.92955 0.0634,5.87843 -0.14093,-0.0511 -0.93078,-0.22389 -1.75531,-0.38392 z m -61.02908,-4.12963 c -0.0466,-0.2815 -0.19014,-4.19702 -0.3189,-8.70113 -0.12876,-4.50412 -0.33098,-10.03189 -0.4494,-12.28395 -0.11841,-2.25206 0.19055,-6.24435 0.68658,-8.87175 0.49603,-2.6274 1.02681,-5.66632 1.17952,-6.75317 0.35307,-2.51312 1.44024,-3.69172 2.46242,-2.66955 0.53925,0.53926 0.5326,1.14377 -0.0241,2.18382 -0.45578,0.85164 -0.50031,1.43815 -0.10922,1.43815 1.24335,0 1.51322,2.68877 0.79103,7.88118 -0.60455,4.34657 -0.5553,5.43231 0.30195,6.65622 1.13328,1.618 1.35929,6.36951 0.41875,8.80412 -0.33307,0.86218 -0.98075,3.19983 -1.43931,5.19478 -1.09717,4.77328 -3.18467,9.02133 -3.49941,7.12128 z m 113.37011,-31.56293 c 0,-0.37534 0.9213,-0.68244 2.04732,-0.68244 1.12603,0 2.04732,0.3071 2.04732,0.68244 0,0.37535 -0.92129,0.68244 -2.04732,0.68244 -1.12602,0 -2.04732,-0.30709 -2.04732,-0.68244 z m -50.84192,-2.72977 c -0.23195,-0.37534 0.0752,-0.68243 0.68245,-0.68243 0.6073,0 0.91441,0.30709 0.68244,0.68243 -0.23197,0.37535 -0.53906,0.68245 -0.68244,0.68245 -0.14339,0 -0.45048,-0.3071 -0.68245,-0.68245 z m 127.76973,-1.02366 c -0.97459,-4.72228 -1.39331,-11.63526 -1.40517,-23.20302 -0.0133,-12.86053 0.89642,-19.44959 2.68504,-19.44959 0.57018,0 0.95552,-0.70428 0.95552,-1.74637 0,-0.99048 -0.2953,-1.56382 -0.68241,-1.32461 -0.91416,0.56496 -0.879,-2.79349 0.0477,-4.52436 0.53647,-1.00251 0.5042,-1.63548 -0.12209,-2.39005 -0.6793,-0.81858 -0.68196,-2.64054 -0.0133,-8.99873 0.46141,-4.38478 0.76967,-11.04331 0.68518,-14.79674 -0.0954,-4.2178 0.15247,-7.39377 0.64814,-8.31505 0.44089,-0.81985 0.80172,-3.59909 0.80172,-6.1761 0,-2.57701 0.27877,-4.97721 0.61953,-5.33378 0.34076,-0.35659 0.77034,-2.18382 0.95463,-4.06053 0.1843,-1.87672 0.50909,-4.48706 0.72166,-5.80076 1.04922,-6.48362 2.51715,-28.30852 2.43277,-36.16941 -0.0421,-3.9411 0.25837,-8.23846 0.66821,-9.54968 0.40984,-1.31123 0.74517,-4.25542 0.74517,-6.54266 0,-2.28724 0.4074,-7.0493 0.90551,-10.58235 0.49799,-3.53306 0.83077,-10.04715 0.73962,-14.47577 -0.0909,-4.42863 0.11931,-9.03511 0.46794,-10.23663 0.34864,-1.20152 0.79441,-5.13078 0.99068,-8.731681 0.19638,-3.60089 0.66987,-8.20737 1.05221,-10.23662 0.38234,-2.02925 0.71257,-4.30375 0.73397,-5.05443 0.0554,-1.94475 2.49875,-20.694567 3.64632,-27.980111 0.53204,-3.378077 1.14625,-7.293595 1.36481,-8.701128 0.21867,-1.407533 0.69061,-2.597548 1.049,-2.644465 0.35828,-0.04691 1.03536,-0.143156 1.50453,-0.213881 2.21953,-0.334526 4.12991,3.232504 2.56794,4.794548 -0.37059,0.370521 -1.1631,4.961656 -1.76112,10.202505 -0.59802,5.24085 -1.3515,11.064304 -1.6743,12.941026 -2.20046,12.793116 -3.52335,24.833766 -3.44373,31.343767 0.0177,1.47467 -0.33499,3.93145 -0.78453,5.45953 -0.92082,3.12985 -0.94821,3.44072 -1.39641,15.87487 -0.24362,6.75963 -0.5795,9.25694 -1.3484,10.02582 -2.28318,2.28325 -3.93064,22.14766 -2.02659,24.43495 0.58405,0.70143 0.73242,1.50138 0.37979,2.04732 -0.75414,1.16777 -2.28905,17.50785 -1.82765,19.45635 0.19538,0.82459 0.0244,2.51363 -0.37868,3.75342 -1.42846,4.38877 -1.44787,10.0619 -0.0421,12.37357 1.14946,1.89026 1.1824,2.28585 0.30139,3.63045 -0.5439,0.82996 -1.16931,2.83581 -1.38987,4.45744 -0.22055,1.62163 -0.87579,4.82464 -1.45595,7.11779 -0.82545,3.26231 -0.88178,4.49277 -0.25937,5.65592 0.43756,0.81761 0.61221,2.06462 0.38789,2.77115 -1.02372,3.22549 -0.94987,4.46484 0.34818,5.84664 l 1.3565,1.44385 -1.71001,1.6064 c -1.68915,1.58689 -2.4301,5.46312 -1.04434,5.46312 0.41273,0 0.43867,0.59691 0.0688,1.57104 -0.32856,0.86407 -0.59735,2.71497 -0.59735,4.11311 0,1.39813 -0.36937,2.98722 -0.82101,3.5313 -0.45154,0.54406 -0.89287,2.3268 -0.98081,3.96163 -0.0876,1.63482 -0.38977,3.3445 -0.67087,3.7993 -0.2811,0.4548 -0.1192,1.29903 0.35972,1.87608 0.67553,0.81398 0.69083,1.33718 0.0688,2.33392 -0.49434,0.7915 -0.64071,2.46382 -0.38134,4.35592 0.28886,2.10768 0.0898,3.77473 -0.63317,5.31366 -0.7995,1.70072 -1.17087,5.98981 -1.53757,17.75387 -0.26602,8.53127 -0.70037,16.51584 -0.96539,17.74348 l -0.48192,2.23208 -0.4226,-2.04732 z m -162.23303,-1.02366 c 0,-0.37534 0.46065,-0.68244 1.02366,-0.68244 0.56302,0 1.02366,0.3071 1.02366,0.68244 0,0.37534 -0.46064,0.68244 -1.02366,0.68244 -0.56301,0 -1.02366,-0.3071 -1.02366,-0.68244 z m 86.44264,-5.23206 c -0.25025,-0.25023 -0.45498,-0.98437 -0.45498,-1.63143 0,-1.75886 4.36756,-2.13835 5.40944,-0.47002 0.4283,0.68588 0.59673,1.54166 0.37419,1.90173 -0.45745,0.74018 -4.63174,0.89664 -5.32865,0.19972 z m -51.91764,-1.33652 c -0.61475,-1.60188 -0.47996,-4.35049 0.21326,-4.35049 0.55639,0 0.58036,-5.49969 0.0314,-7.16563 -0.12373,-0.37535 0.007,-1.65114 0.28615,-2.83509 0.42175,-1.77646 1.79618,-14.56374 1.8224,-16.95573 0.007,-0.37534 -0.248,-2.07189 -0.56022,-3.77011 -0.31229,-1.69821 -0.32846,-4.01117 -0.0362,-5.13988 0.4745,-1.83114 0.80952,-2.04991 3.11002,-2.03065 l 2.57826,0.0215 -0.16098,4.7771 c -0.11227,3.33153 -0.47368,5.00636 -1.19428,5.53477 -1.33096,0.97596 -1.33546,4.32825 -0.007,5.30906 1.96666,1.4521 2.24128,4.5643 0.87987,9.97064 -0.70891,2.81508 -1.12636,5.97261 -0.92771,7.01675 0.29386,1.54482 0.058,2.01367 -1.26593,2.51707 -2.43597,0.92615 -2.73803,1.98899 -0.7771,2.73452 1.80821,0.68749 2.39975,2.06293 0.88712,2.06293 -0.47301,0 -1.67362,0.75445 -2.66809,1.67655 -1.50383,1.39444 -1.87589,1.49988 -2.21097,0.62663 z m -60.45779,-5.37416 c 0,-1.69851 0.27402,-2.41094 0.85306,-2.21793 0.46918,0.1564 0.85305,1.15446 0.85305,2.21793 0,1.06347 -0.38387,2.06155 -0.85305,2.21794 -0.57904,0.19302 -0.85306,-0.51941 -0.85306,-2.21794 z m 26.61523,0.80197 c 0,-1.94505 0.50841,-2.53202 1.77285,-2.04681 1.36761,0.52481 1.18131,1.80006 -0.40797,2.79258 -1.21897,0.76126 -1.36488,0.68154 -1.36488,-0.74577 z m 87.8136,1.09288 -1.92755,-0.2892 0.14344,-7.28602 c 0.0788,-4.0073 -0.0815,-8.71022 -0.35637,-10.45091 -0.37745,-2.38979 -0.23516,-3.56888 0.5809,-4.81437 0.86029,-1.31299 1.04782,-3.31241 0.91905,-9.80149 l -0.16174,-8.15203 3.07098,-0.2137 c 3.23164,-0.22487 3.23164,0.89041 0,1.38056 -1.67362,0.25383 -1.66025,0.287 0.69991,1.74092 l 2.40595,1.48214 -0.38073,4.53702 c -0.29973,3.57256 -0.70094,4.79631 -1.88723,5.75691 -1.42992,1.15788 -1.45482,1.34365 -0.48979,3.65334 1.20418,2.8819 1.3556,9.6942 0.23095,10.38926 -0.54931,0.33948 -0.42859,0.7469 0.40107,1.35353 0.96886,0.70843 1.13694,1.66576 0.91515,5.21126 -0.26588,4.24992 -0.81961,6.09921 -1.76493,5.89423 -0.25933,-0.0562 -1.33895,-0.23239 -2.39906,-0.39145 z m -87.13116,-9.23559 c 0,-2.34837 0.32654,-5.34259 0.72571,-6.6538 1.56552,-5.14321 2.38677,-15.5948 1.64564,-20.94423 -0.32682,-2.35923 -0.13355,-3.1272 1.09648,-4.35725 1.38467,-1.38466 1.5415,-1.40702 2.15679,-0.30764 0.9245,1.65199 0.34026,10.54825 -0.73643,11.21366 -0.68455,0.4231 -0.69219,0.90935 -0.0368,2.34769 0.62402,1.36953 0.64436,2.69223 0.0829,5.39768 -0.40898,1.97097 -1.0515,6.41986 -1.42773,9.88639 -0.74018,6.81931 -1.02503,7.68726 -2.52312,7.68726 -0.75144,0 -0.9834,-1.00709 -0.9834,-4.26976 z m -27.02885,-3.6799 c 1.0569,-15.24937 1.6392,-18.21126 3.13295,-15.9358 0.84885,1.29309 0.78009,5.89251 -0.22432,15.00655 -0.67603,6.13429 -0.97386,7.19376 -2.08173,7.40525 -1.22295,0.23348 -1.26766,-0.11665 -0.8269,-6.476 z m 2.88495,-21.26141 c -0.40932,-0.6623 0.55539,-8.84766 1.1079,-9.40015 0.11755,-0.11756 0.57026,0.007 1.00602,0.27591 0.58774,0.36324 0.47706,1.70123 -0.42868,5.18256 -0.67153,2.58111 -1.42988,4.35486 -1.68524,3.94168 z m 156.87882,-7.80175 c -1.59801,-1.52138 -1.63321,-2.58342 -0.79756,-24.06572 0.45717,-11.75252 0.79647,-14.91256 1.88592,-17.5617 0.73069,-1.77675 1.45517,-5.00129 1.60988,-7.16564 0.15472,-2.16437 0.61351,-7.77394 1.01943,-12.46573 0.40598,-4.69179 0.8753,-14.0583 1.04304,-20.81447 0.16768,-6.75618 0.70723,-14.58719 1.19892,-17.40227 0.49484,-2.83348 0.70224,-6.64154 0.46454,-8.53053 -0.2362,-1.87671 -0.18317,-3.73009 0.11786,-4.11861 1.04195,-1.34475 2.07203,-15.71579 1.86013,-25.95102 -0.18965,-9.1574 -0.0788,-10.41348 1.01493,-11.513151 0.67527,-0.67888 1.4001,-2.09598 1.61076,-3.14911 0.57878,-2.89402 2.01736,-1.78124 1.72057,1.33093 -0.13825,1.44977 0.0845,2.843561 0.49512,3.097311 1.0584,0.6541 0.92689,6.9186 -0.1913,9.11584 -0.62661,1.23132 -1.09231,5.867 -1.40344,13.97014 -0.49408,12.86846 -1.51904,19.54979 -3.51832,22.93425 -1.0468,1.77215 -1.09655,2.3163 -0.34081,3.72841 0.53524,1.00017 0.70401,2.4769 0.42706,3.7377 -0.31624,1.44001 -0.0996,2.63096 0.70108,3.85291 1.02585,1.56559 1.06605,2.34431 0.35003,6.78292 -0.63632,3.94436 -1.58995,26.05018 -1.61384,37.40972 0,1.0207 -0.27878,1.68594 -0.61467,1.47831 -0.33727,-0.20843 -0.41944,0.385 -0.18351,1.32516 0.26444,1.05356 -0.095,2.88349 -0.94287,4.80024 -1.13694,2.57024 -1.24572,3.50308 -0.63917,5.47941 0.63644,2.07379 0.49627,2.85044 -1.08378,6.00541 -2.06242,4.1182 -4.11431,17.05687 -3.03885,19.16198 0.33924,0.66391 0.52609,3.14654 0.41526,5.51694 -0.20036,4.28584 -0.2091,4.30259 -1.56641,3.01037 z m 6.02208,-48.01751 c -0.42278,-1.10186 -1.54505,-1.28641 -1.67151,-0.27489 -0.0471,0.37534 -0.14359,1.06632 -0.2149,1.53549 -0.2433,1.6018 0.50713,2.08542 1.38119,0.89011 0.4799,-0.65636 0.70729,-1.62418 0.50522,-2.15071 z m -134.87124,45.69474 c -0.72666,-0.72667 0.18405,-1.57761 1.2505,-1.16838 0.54882,0.21061 0.82801,0.65785 0.62034,0.99385 -0.44235,0.71576 -1.25392,0.79147 -1.87084,0.17453 z m -26.38776,-1.24731 c -0.45018,-0.54244 -0.62869,-1.2934 -0.39669,-1.66879 0.56509,-0.91432 2.42544,-0.14984 2.42544,0.9967 0,1.40052 -1.11707,1.77059 -2.02875,0.67209 z m 112.38565,-0.78978 c -0.76733,-0.76732 -0.56662,-7.76312 0.22269,-7.76312 0.38851,0 1.40746,0.4593 2.26421,1.02067 1.3429,0.87992 1.5043,1.42111 1.17024,3.92405 -0.29965,2.24516 -0.70325,2.94856 -1.78042,3.10275 -0.76618,0.10967 -1.6107,-0.0183 -1.87672,-0.28435 z m -50.98447,-7.08069 c 0,-1.75318 0.25653,-2.04732 1.78568,-2.04732 1.51885,0 1.72425,0.2295 1.37424,1.5355 -0.2263,0.84452 -0.41569,1.76581 -0.4208,2.04732 -0.007,0.28151 -0.62355,0.51184 -1.37423,0.51184 -1.06154,0 -1.36489,-0.45498 -1.36489,-2.04734 z m -37.9155,-0.26416 c -0.54098,-0.77243 -0.98368,-2.10383 -0.98368,-2.95867 0,-1.38872 0.32935,-1.55425 3.09242,-1.55425 3.37167,0 4.17913,0.85525 3.4711,3.67651 -0.57134,2.27631 -4.19122,2.81891 -5.57984,0.83641 z m -23.06784,0.4731 c -0.24002,-0.24003 -0.43641,-1.61362 -0.43641,-3.05245 0,-2.05131 0.26169,-2.61602 1.21231,-2.61602 1.00311,0 1.16731,0.47182 0.95156,2.73405 -0.25839,2.70957 -0.88608,3.7758 -1.72746,2.93442 z m 112.61156,-13.68716 c 0.22637,-6.66233 0.67951,-12.40508 1.00694,-12.76166 0.32744,-0.35657 0.5953,-1.96884 0.5953,-3.58281 0,-2.10881 0.27851,-2.93451 0.98974,-2.93451 0.54438,0 1.28907,-0.53486 1.65493,-1.18858 1.29656,-2.31681 1.56033,-0.22274 0.45211,3.58934 -1.01908,3.50564 -1.02509,4.01793 -0.0649,5.48406 1.51447,2.31139 0.99309,11.05409 -0.96627,16.2029 -0.82794,2.17562 -1.31397,4.45431 -1.0801,5.06375 0.42993,1.12037 -0.62819,2.21122 -2.16341,2.2304 -0.64436,0.008 -0.74189,-2.76988 -0.42476,-12.10289 z m -50.98529,6.14198 c -0.0327,-1.54679 -0.0184,-14.34494 0.0266,-23.90746 0.0116,-2.53618 1.74426,-5.60815 3.16258,-5.60815 1.14603,0 1.2806,3.55768 0.21025,5.55763 -0.55974,1.04582 -0.46548,1.94103 0.39507,3.75451 0.89905,1.89463 1.05703,3.6913 0.7732,8.79186 -0.19626,3.52583 -0.68107,7.0166 -1.07749,7.75727 -0.39637,0.74067 -0.72073,2.28816 -0.72073,3.43886 0,1.63723 -0.2968,2.09219 -1.36489,2.09219 -1.02441,0 -1.37471,-0.46814 -1.40439,-1.87671 z m -38.54335,-3.4016 c 0.26191,-2.16405 1.52628,-8.05975 2.80974,-13.10153 1.28341,-5.04178 2.33348,-10.32111 2.33348,-11.73184 0,-2.8823 0.48658,-3.42986 2.56488,-2.88638 1.37157,0.35867 1.42351,0.70625 1.14323,7.64456 -0.16146,3.99783 -0.74515,10.03269 -1.29712,13.41078 -0.55189,3.37807 -1.08986,7.06327 -1.19543,8.18929 -0.18173,1.93923 -0.36729,2.05689 -3.51348,2.22855 l -3.32151,0.18122 0.47621,-3.93465 z m -22.83688,-2.85412 c 0,-4.51538 0.19096,-5.5164 1.05236,-5.5164 0.87405,0 1.0186,0.8869 0.85304,5.23416 -0.13063,3.43082 -0.4932,5.33139 -1.05235,5.5164 -0.63537,0.21022 -0.85305,-1.12546 -0.85305,-5.23416 z m 0.82131,-12.62966 c 0.13956,-3.7262 0.48207,-5.49497 1.10392,-5.7008 0.7202,-0.23839 0.80682,0.71164 0.43061,4.72233 -0.65873,7.02252 -1.78788,7.74252 -1.53453,0.97847 z m 1.02212,-8.33184 c -0.71656,-0.71654 -0.57655,-4.25234 0.2279,-5.75546 0.90745,-1.69557 2.44795,-1.69717 2.89098,-0.002 0.8603,3.28981 -1.40502,7.47232 -3.11888,5.75846 z m 113.66944,-7.2852 c 0.14734,-0.44767 0.93331,-0.91188 1.74658,-1.03158 1.01827,-0.14987 1.36795,0.071 1.12302,0.70918 -0.44099,1.14918 -3.24542,1.46426 -2.8696,0.3224 z m -51.26099,-3.16836 c 0.15013,-0.45042 0.49566,-0.7959 0.76774,-0.76776 0.81599,0.0844 0.65801,1.02046 -0.22179,1.3137 -0.45041,0.15014 -0.69609,-0.0956 -0.54595,-0.54594 z m -33.54202,-1.39901 c -0.54124,-0.33453 -0.75757,-0.83477 -0.48071,-1.11167 0.27693,-0.2769 0.86172,-0.14517 1.29964,0.29274 1.0311,1.0311 0.45561,1.60662 -0.81893,0.81893 z m -27.9801,-2.38855 c 0,-0.93835 0.27424,-1.70611 0.60942,-1.70611 0.79591,0 1.55187,1.99328 1.05862,2.79136 -0.74337,1.20279 -1.66804,0.60119 -1.66804,-1.08525 z m 113.64593,-9.96223 c 0.12549,-6.53175 -0.10823,-14.05669 -0.51941,-16.72211 -0.41827,-2.71156 -0.49771,-5.41697 -0.18037,-6.14198 0.31187,-0.71267 0.59263,-2.37061 0.62376,-3.68431 0.056,-2.34692 0.10822,-2.3893 3.01577,-2.43161 2.92378,-0.0426 2.95525,-0.0182 2.63627,2.04732 -0.19347,1.25306 0.0649,2.53128 0.64477,3.19106 0.53217,0.60538 1.159,2.7164 1.39287,4.69117 0.34647,2.92533 0.21612,3.70749 -0.70354,4.22214 -0.62081,0.34743 -1.12875,1.40174 -1.12875,2.34291 0,0.94116 -0.29092,2.99882 -0.64647,4.57256 -0.35563,1.57376 -0.83654,4.04704 -1.06885,5.4962 -0.29072,1.81411 -0.83332,2.74236 -1.74199,2.97998 -1.57576,0.41207 -1.71437,1.25337 -0.29612,1.79762 0.75184,0.28848 1.02366,1.47522 1.02366,4.4686 0,3.83697 -0.82336,5.89552 -1.59582,3.98999 -0.26868,-0.66262 -0.49934,-0.64002 -1.01581,0.0995 -0.44345,0.63501 -0.59141,-3.03749 -0.43997,-10.91907 z m -50.87406,9.27978 c -0.0818,-0.37533 -0.0802,-0.98954 0.007,-1.36487 0.084,-0.37534 0.13171,-2.37149 0.10623,-4.43588 -0.0253,-2.06438 0.2267,-4.82827 0.56049,-6.14197 0.48508,-1.9088 0.5942,-1.22346 0.54336,3.41221 -0.056,5.1222 -0.80685,10.39689 -1.21386,8.53051 z m -34.57748,-1.87671 c -0.84739,-1.31729 -1.33895,-10.71494 -0.57387,-10.96989 0.39753,-0.13244 0.60055,-3.92705 0.50576,-9.45098 -0.11704,-6.82084 0.11034,-9.99143 0.87142,-12.14839 0.56635,-1.60528 1.02972,-3.95494 1.02972,-5.22145 0,-1.78891 0.28288,-2.30274 1.26771,-2.30274 1.04892,0 1.34257,0.71717 1.70215,4.15698 0.37569,3.59452 -0.43581,15.32535 -1.27037,18.3636 -0.15464,0.56302 -0.4704,4.06002 -0.70162,7.77113 -0.23121,3.71111 -0.68428,7.44148 -1.0068,8.28974 -0.32245,0.84825 -0.40121,1.72739 -0.17498,1.95367 0.2263,0.22626 0.0713,0.41138 -0.3445,0.41138 -0.41574,0 -1.00285,-0.38387 -1.30462,-0.85305 z m -27.80263,-1.11249 c -0.20417,-0.33037 -0.2459,-2.86393 -0.0927,-5.63014 0.15318,-2.76621 0.46683,-9.94306 0.697,-15.94855 0.42754,-11.15544 0.70567,-13.30762 1.71974,-13.30762 1.10305,0 1.55433,7.65858 1.44767,24.56791 -0.048,7.6126 -2.05336,13.09871 -3.77168,10.3184 z m 62.79974,-14.73569 c -0.24677,-0.98311 -0.23312,-2.13611 0.0301,-2.56222 0.54862,-0.88767 0.41138,-17.45014 -0.15211,-18.36192 -0.5362,-0.86752 1.1768,-2.33041 2.86073,-2.44308 1.31179,-0.0878 1.47851,0.36478 1.87889,5.10133 0.24166,2.8587 0.17574,5.36993 -0.14638,5.58049 -1.0197,0.6665 -2.31163,5.55648 -2.48225,9.39518 -0.18869,4.24622 -1.29137,6.07016 -1.9891,3.29022 z m 54.52969,-28.97662 -2.04732,-0.40374 0.24084,-7.15725 c 0.13239,-3.93649 0.47954,-10.22823 0.77142,-13.98166 0.29182,-3.75344 0.31399,-7.13153 0.0491,-7.50687 -0.26478,-0.37534 -0.43758,-3.44633 -0.38401,-6.82442 0.12455,-7.853131 1.57951,-10.919061 5.18165,-10.919061 2.24775,0 2.32276,0.0844 2.12164,2.38855 -0.11465,1.3137 -0.55838,3.463381 -0.98599,4.777091 -0.45123,1.38601 -0.73834,6.34242 -0.68415,11.80873 0.0794,8.01827 -0.0675,9.48185 -0.98647,9.83456 -0.95617,0.3669 -0.94027,0.5164 0.13881,1.3054 1.08119,0.7906 1.17673,1.71006 0.84773,8.15618 -0.41165,8.06626 -0.96525,9.17291 -4.26342,8.52249 z m 2.38855,-3.45795 c 0,-0.37535 -0.32518,-0.68244 -0.7227,-0.68244 -0.39752,0 -0.53293,0.30709 -0.30096,0.68244 0.23197,0.37534 0.55721,0.68244 0.7227,0.68244 0.16557,0 0.30096,-0.3071 0.30096,-0.68244 z m -54.14035,-0.45496 c -0.25025,-0.25023 -0.45498,-0.77229 -0.45498,-1.16016 0,-0.42761 0.31787,-0.38732 0.80753,0.10235 0.44419,0.44416 0.64893,0.96622 0.45498,1.16015 -0.19395,0.19393 -0.55736,0.14786 -0.80753,-0.10235 z m -35.25952,-2.19125 c 0,-0.32938 0.46065,-0.98118 1.02366,-1.44844 0.85524,-0.70979 1.02367,-0.61125 1.02367,0.59889 0,0.83254 -0.43526,1.44844 -1.02367,1.44844 -0.56301,0 -1.02366,-0.26951 -1.02366,-0.59889 z m -0.0614,-5.69605 c -0.25271,-10.70359 0.12148,-17.92729 1.07396,-20.73283 0.56902,-1.67606 1.03458,-4.61328 1.03458,-6.52717 0,-3.620961 1.21741,-8.756451 2.07578,-8.756451 0.27216,0 0.65542,-0.6142 0.85176,-1.36489 0.19626,-0.75069 0.65821,-1.36488 1.02653,-1.36488 0.92156,0 0.43587,12.202541 -0.82644,20.761601 -0.55783,3.78251 -1.20185,9.33408 -1.43115,12.33682 -0.51585,6.75644 -0.77423,7.67173 -2.41324,8.5489 -1.2067,0.6458 -1.3133,0.42358 -1.39178,-2.9011 z m 35.82819,-4.45353 c 0.26417,-4.41027 0.63174,-12.77871 0.81682,-18.59654 0.22424,-7.049801 0.61086,-10.805451 1.1592,-11.260281 0.45245,-0.37535 1.12807,-1.57865 1.5013,-2.67401 1.10576,-3.2454 2.41215,-3.02725 2.36903,0.39559 -0.0205,1.62847 0.14461,4.34281 0.36701,6.03185 0.31133,2.364831 0.0735,3.698691 -1.03389,5.800761 -1.4603,2.77178 -4.09459,19.06446 -4.09459,25.32456 0,1.79855 -0.3129,2.99676 -0.78255,2.99676 -0.57135,0 -0.65296,-2.1645 -0.30233,-8.01869 z m -64.08113,4.6181 c -0.22802,-0.36896 -0.24162,-1.67413 -0.0303,-2.90038 0.21142,-1.22625 0.49594,-6.42084 0.63226,-11.54352 0.24166,-9.08005 0.52955,-10.81806 1.79192,-10.81806 0.62871,0 0.43663,10.14135 -0.38454,20.30265 -0.42245,5.2274 -0.98525,6.61643 -2.00941,4.95931 z m 1.01649,-31.403931 c 0,-5.1145 0.0918,-5.45954 1.45264,-5.45954 1.37955,0 1.43169,0.23161 1.03568,4.60648 -0.22937,2.533571 -0.42238,4.990361 -0.42898,5.459541 -0.007,0.46918 -0.47266,0.85305 -1.03567,0.85305 -0.82462,0 -1.02367,-1.06158 -1.02367,-5.459531 z m 160.51419,-4.67592 c -0.69998,-0.44404 -0.74154,-1.82306 -0.20017,-6.64336 1.69097,-15.055753 2.00433,-20.450515 1.80057,-30.992104 -0.11971,-6.193166 -0.44012,-12.104809 -0.712,-13.137009 -0.42079,-1.597617 -0.28628,-1.876711 0.9043,-1.876711 0.76925,0 1.56388,0.267428 1.76589,0.594293 0.202,0.326864 1.295,0.77983 2.42881,1.006607 1.79496,0.358999 2.05941,0.701277 2.04487,2.647292 -0.009,1.229259 -0.32573,3.575258 -0.70339,5.213361 -0.37773,1.638102 -0.7986,4.094889 -0.93522,5.459531 -0.39138,3.908376 -1.95308,11.290737 -2.53207,11.969304 -0.28922,0.338995 -0.26533,1.10675 0.0532,1.706099 0.31992,0.602121 0.30388,2.769203 -0.0362,4.84315 -0.33809,2.064387 -0.55824,5.749567 -0.48918,8.189307 0.0775,2.7362 -0.33426,5.80868 -1.07458,8.01869 -0.66011,1.97055 -1.25234,3.57811 -1.31601,3.57237 -0.0634,-0.006 -0.51327,-0.26262 -0.99909,-0.57082 z m -42.35016,-4.75418 c -1.49536,-0.22097 -1.57302,-0.44702 -1.14179,-3.32295 0.25456,-1.69721 0.59127,-4.97309 0.74823,-7.27974 0.15703,-2.30665 0.5624,-8.186176 0.90082,-13.06563 0.33843,-4.879466 0.62628,-9.793041 0.63966,-10.919074 0.0136,-1.126022 0.0655,-4.823955 0.11533,-8.217623 l 0.091,-6.17029 2.51418,0.279793 c 1.38276,0.153901 2.89799,0.588116 3.36717,0.964946 1.03519,0.831393 1.19168,10.07219 0.17061,10.07219 -0.98483,0 -0.84125,1.878019 0.17061,2.231973 0.63795,0.22314 0.57414,0.624709 -0.25291,1.592361 -1.35329,1.58329 -2.05866,7.799665 -1.95226,17.205751 0.0512,4.550603 -0.20754,7.386093 -0.73254,8.018693 -0.62934,0.75834 -0.62265,1.20711 0.0301,1.99345 0.94873,1.14314 0.46938,3.89558 -1.05819,6.0765 -0.68941,0.98422 -0.9849,1.1024 -0.9922,0.3968 -0.007,-0.60246 -0.21129,-0.7276 -0.51184,-0.31248 -0.27577,0.38083 -1.22341,0.58573 -2.10595,0.45533 z m -116.1167,-5.2424 c 0,-0.56301 0.29746,-1.02366 0.661,-1.02366 0.36361,0 0.48427,0.46065 0.2682,1.02366 -0.21599,0.56302 -0.51346,1.02366 -0.66101,1.02366 -0.14748,0 -0.26819,-0.46064 -0.26819,-1.02366 z m 31.448,-3.58282 c -0.0307,-1.5952 0.23333,-2.90038 0.58648,-2.90038 1.25618,0 1.42563,1.32208 0.45438,3.54548 l -0.98517,2.25528 -0.056,-2.90038 z m -31.448,-0.78003 c 0,-2.46687 1.24217,-4.062902 2.32179,-2.98324 0.52835,0.5283 0.52467,3.17687 -0.007,4.56051 -0.83715,2.18119 -2.31566,1.17405 -2.31566,-1.57727 z m 65.51439,1.24183 c 0,-1.74887 2.25876,-1.55047 2.60141,0.22847 0.15771,0.81893 -0.20985,1.18645 -1.1865,1.18645 -0.97663,0 -1.41491,-0.43829 -1.41491,-1.41492 z m 0.35434,-4.02342 c -0.24364,-0.39422 -0.0974,-4.841013 0.32517,-9.881754 0.42251,-5.040752 0.72681,-10.795899 0.67617,-12.78922 -0.0505,-1.99332 0.0266,-4.639992 0.17102,-5.881482 0.14467,-1.241478 0.0136,-2.411223 -0.29058,-2.599422 -1.0543,-0.651599 -0.56922,-4.813133 0.69438,-5.95662 1.58197,-1.431662 3.46947,-1.436474 5.50028,-0.01397 1.43804,1.007239 1.54812,1.453973 1.13469,4.606482 -0.25175,1.920079 -0.87107,4.127014 -1.3762,4.904283 -1.05684,1.626038 -1.53243,5.197182 -2.38814,17.932322 -0.33666,5.009903 -0.71008,9.194363 -0.82992,9.298803 -0.81942,0.71445 -3.25232,0.97048 -3.61687,0.38063 z m -33.9584,-1.496978 c -0.40442,-1.16093 0.0621,-29.309351 0.54881,-33.102338 0.41295,-3.21913 1.75381,-4.858253 2.8438,-3.476423 1.047,1.327305 1.57344,9.676286 0.86172,13.666265 -0.63651,3.56876 -2.07592,15.908629 -2.34971,20.144213 -0.16188,2.503627 -1.38004,4.274191 -1.90462,2.768283 z m -31.2671,-1.765823 c -0.0219,-0.2815 -0.23647,-1.893776 -0.47764,-3.582821 -0.66956,-4.688838 -0.355,-12.114555 0.60505,-14.283389 0.71404,-1.613153 1.05976,-1.816022 2.04569,-1.200306 1.04154,0.650468 1.14603,1.620116 0.85564,7.941712 -0.4401,9.580868 -0.79286,11.63664 -1.99682,11.63664 -0.54602,0 -1.01036,-0.230325 -1.03192,-0.511836 z"
       id="path3050"
       inkscape:connector-curvature="0" />
  </g>
</svg>
