<?xml version="1.0" encoding="UTF-8" standalone="no"?>
<!-- Created with Inkscape (http://www.inkscape.org/) -->

<svg
   xmlns:dc="http://purl.org/dc/elements/1.1/"
   xmlns:cc="http://creativecommons.org/ns#"
   xmlns:rdf="http://www.w3.org/1999/02/22-rdf-syntax-ns#"
   xmlns:svg="http://www.w3.org/2000/svg"
   xmlns="http://www.w3.org/2000/svg"
   xmlns:sodipodi="http://sodipodi.sourceforge.net/DTD/sodipodi-0.dtd"
   xmlns:inkscape="http://www.inkscape.org/namespaces/inkscape"
   width="70.000053"
   height="70.000008"
   id="svg5947"
   version="1.1"
   inkscape:version="0.48.4 r9939"
   sodipodi:docname="Neues Dokument 9">
  <defs
     id="defs5949" />
  <sodipodi:namedview
     id="base"
     pagecolor="#ffffff"
     bordercolor="#666666"
     borderopacity="1.0"
     inkscape:pageopacity="0.0"
     inkscape:pageshadow="2"
     inkscape:zoom="3.959798"
     inkscape:cx="91.406836"
     inkscape:cy="15.165781"
     inkscape:document-units="px"
     inkscape:current-layer="layer1"
     showgrid="false"
     fit-margin-top="0"
     fit-margin-left="0"
     fit-margin-right="0"
     fit-margin-bottom="0"
     inkscape:window-width="1440"
     inkscape:window-height="823"
     inkscape:window-x="0"
     inkscape:window-y="25"
     inkscape:window-maximized="1" />
  <metadata
     id="metadata5952">
    <rdf:RDF>
      <cc:Work
         rdf:about="">
        <dc:format>image/svg+xml</dc:format>
        <dc:type
           rdf:resource="http://purl.org/dc/dcmitype/StillImage" />
        <dc:title></dc:title>
      </cc:Work>
    </rdf:RDF>
  </metadata>
  <g
     inkscape:label="Ebene 1"
     inkscape:groupmode="layer"
     id="layer1"
     transform="translate(-347.85712,-520.21932)">
    <g
       id="g5930"
       transform="translate(234.63372,702.39054)">
      <path
         inkscape:connector-curvature="0"
         id="path3154"
         d="m 123.2234,-182.17122 c 0,0 25,0 25,0 0,0 25,0 25,0 0,0 0,5 0,5 0,0 0,5 0,5 0,0 5,0 5,0 0,0 5.00005,0 5.00005,0 0,0 0,25.00001 0,25.00001 0,0 0,25 0,25 0,0 -5.00005,0 -5.00005,0 0,0 -5,0 -5,0 0,0 0,5 0,5 0,0 0,5 0,5 0,0 -25,0 -25,0 0,0 -25,0 -25,0 0,0 0,-5 0,-5 0,0 0,-5 0,-5 0,0 -5,0 -5,0 0,0 -5,0 -5,0 0,0 0,-25 0,-25 0,0 0,-25.00001 0,-25.00001 0,0 5,0 5,0 0,0 5,0 5,0 0,0 0,-5 0,-5 0,0 0,-5 0,-5 0,0 0,0 0,0"
         style="fill:#fefefe" />
      <path
         inkscape:connector-curvature="0"
         style="fill:#000000"
         d="m 123.22343,-117.17121 c 0,0 0,-5 0,-5 0,0 -5.00001,0 -5.00001,0 0,0 -5,0 -5,0 0,0 0,-25 0,-25 0,0 0,-25.00001 0,-25.00001 0,0 5,0 5,0 0,0 5.00001,0 5.00001,0 0,0 0,-5 0,-5 0,0 0,-5 0,-5 0,0 25,0 25,0 0,0 25,0 25,0 0,0 0,5 0,5 0,0 0,5 0,5 0,0 5,0 5,0 0,0 5,0 5,0 0,0 0,25.00001 0,25.00001 0,0 0,25 0,25 0,0 -5,0 -5,0 0,0 -5,0 -5,0 0,0 0,5 0,5 0,0 0,5 0,5 0,0 -25,0 -25,0 0,0 -25,0 -25,0 0,0 0,-5 0,-5 0,0 0,0 0,0 m 20,-10 c 0,0 0,-5 0,-5 0,0 5,0 5,0 0,0 5,0 5,0 0,0 0,5 0,5 0,0 0,5 0,5 0,0 5,0 5,0 0,0 5,0 5,0 0,0 0,-5 0,-5 0,0 0,-5 0,-5 0,0 5,0 5,0 0,0 5,0 5,0 0,0 0,-15 0,-15 0,0 0,-15.00001 0,-15.00001 0,0 -5,0 -5,0 0,0 -5,0 -5,0 0,0 0,-5 0,-5 0,0 0,-5 0,-5 0,0 -15,0 -15,0 0,0 -15,0 -15,0 0,0 0,5 0,5 0,0 0,5 0,5 0,0 -5,0 -5,0 0,0 -5,0 -5,0 0,0 0,15.00001 0,15.00001 0,0 0,15 0,15 0,0 5,0 5,0 0,0 5,0 5,0 0,0 0,5 0,5 0,0 0,5 0,5 0,0 5,0 5,0 0,0 5,0 5,0 0,0 0,-5 0,-5 0,0 0,0 0,0 m -10,-20 c 0,0 0,-5 0,-5 0,0 5,0 5,0 0,0 5,0 5,0 0,0 0,5 0,5 0,0 0,5 0,5 0,0 -5,0 -5,0 0,0 -5,0 -5,0 0,0 0,-5 0,-5 0,0 0,0 0,0 m 20,0 c 0,0 0,-5 0,-5 0,0 5,0 5,0 0,0 5,0 5,0 0,0 0,5 0,5 0,0 0,5 0,5 0,0 -5,0 -5,0 0,0 -5,0 -5,0 0,0 0,-5 0,-5 0,0 0,0 0,0"
         id="path3146" />
    </g>
  </g>
</svg>
