<?xml version="1.0" encoding="UTF-8" standalone="no"?>
<!-- Created with Inkscape (http://www.inkscape.org/) -->

<svg
   xmlns:dc="http://purl.org/dc/elements/1.1/"
   xmlns:cc="http://creativecommons.org/ns#"
   xmlns:rdf="http://www.w3.org/1999/02/22-rdf-syntax-ns#"
   xmlns:svg="http://www.w3.org/2000/svg"
   xmlns="http://www.w3.org/2000/svg"
   xmlns:sodipodi="http://sodipodi.sourceforge.net/DTD/sodipodi-0.dtd"
   xmlns:inkscape="http://www.inkscape.org/namespaces/inkscape"
   width="354.33069"
   height="354.33069"
   id="svg3045"
   version="1.1"
   inkscape:version="0.48.4 r9939"
   sodipodi:docname="GefahrengebietA100_Aufkleber_10x10cm.svg"
   inkscape:export-filename="/home/ku3i/piraten/Gestaltung/pirat*n_xhain/prtxhn/posters/GefahrA100/GefahrengebietA100_Aufkleber_10x10cm.png"
   inkscape:export-xdpi="260.10001"
   inkscape:export-ydpi="260.10001">
  <defs
     id="defs3047" />
  <sodipodi:namedview
     id="base"
     pagecolor="#ffffff"
     bordercolor="#666666"
     borderopacity="1.0"
     inkscape:pageopacity="0.0"
     inkscape:pageshadow="2"
     inkscape:zoom="0.9899495"
     inkscape:cx="202.15054"
     inkscape:cy="229.97477"
     inkscape:document-units="px"
     inkscape:current-layer="layer1"
     showgrid="false"
     inkscape:window-width="1440"
     inkscape:window-height="823"
     inkscape:window-x="0"
     inkscape:window-y="25"
     inkscape:window-maximized="1"
     units="cm" />
  <metadata
     id="metadata3050">
    <rdf:RDF>
      <cc:Work
         rdf:about="">
        <dc:format>image/svg+xml</dc:format>
        <dc:type
           rdf:resource="http://purl.org/dc/dcmitype/StillImage" />
        <dc:title></dc:title>
      </cc:Work>
    </rdf:RDF>
  </metadata>
  <g
     inkscape:label="Ebene 1"
     inkscape:groupmode="layer"
     id="layer1"
     transform="translate(0,-698.03161)">
    <rect
       style="opacity:1;fill:#ffffff;fill-opacity:1;stroke:none;stroke-opacity:1"
       id="rect4391"
       width="354.33072"
       height="354.33072"
       x="-1.5258789e-05"
       y="698.03162" />
    <g
       id="g4369">
      <g
         transform="matrix(0.33218503,0,0,0.33218503,11.072829,691.71051)"
         id="g3110">
        <g
           id="g5934"
           transform="matrix(0.13140625,0,0,0.13140625,-64.281147,880.00544)">
          <path
             style="fill:#f6bd16;fill-opacity:1"
             id="path4055-6"
             d="M 7920.3774,403.21715 4463.4852,-5584.8316 c -35.3241,-60.9037 -99.882,-97.4459 -169.3122,-97.4459 -69.4302,0 -133.988,37.7603 -169.3122,97.4459 L 667.96848,403.21715 c -35.32418,60.90372 -35.32418,135.20621 0,194.89175 35.3241,60.90371 99.88203,97.44591 169.3122,97.44591 H 7751.065 c 69.4302,0 133.9886,-37.7603 169.3124,-97.44591 35.3239,-60.90364 35.3239,-135.20613 0,-194.89175 z"
             inkscape:connector-curvature="0" />
          <path
             sodipodi:nodetypes="scccscccssccccccsccccccssssccscsscsccscsscscsccccccccccccccccccccccccccccccscccccccccccccccccccccsccccsccccccccccccccsccccccccccccc"
             inkscape:connector-curvature="0"
             id="path4055"
             transform="matrix(22.908883,0,0,22.908883,235.51262,-6552.0216)"
             d="m 177.15625,37.96875 c -3.03071,0 -5.83306,1.644653 -7.375,4.25 L 18.875,303.59375 c -1.54194,2.65852 -1.54194,5.92591 0,8.53125 1.54194,2.65852 4.34429,4.25 7.375,4.25 l 37.8125,0 c 1.994673,-6.74776 4.023283,-13.59799 4.03125,-13.625 0.0044,-0.015 0.02665,-0.0163 0.03125,-0.0312 0.378412,-1.22931 1.664176,-1.90625 2.625,-1.90625 l 7.09375,0 c 0.960824,0 2.246588,0.67694 2.625,1.90625 l 0.03125,0 c 0.0026,0.008 -0.0025,0.0213 0,0.0312 l 4,13.625 14.3125,0 -1.4375,-1.4375 c -0.422156,-0.4222 -0.875,-1.4935 -0.875,-2 0,-0.6871 0.305275,-1.31965 0.78125,-1.84375 l -0.03125,-0.0312 0.09375,-0.0937 8.09375,-9.25 0.0312,-0.0312 0,-0.0312 c 0.62956,-0.67453 1.83931,-1.09375 2.65625,-1.09375 l 3.21875,0 c 0.50653,0 1.27659,0.15159 1.875,0.75 0.59841,0.59841 0.71875,1.3685 0.71875,1.875 l 0,13.1875 5.6875,0 0,-2.9375 c 0,-3.9312 1.24874,-7.27265 3.59375,-9.53125 2.34501,-2.25873 5.65466,-3.34375 9.375,-3.34375 l 0.53125,0 c 3.72034,0 7.02999,1.08502 9.375,3.34375 2.34501,2.2586 3.59375,5.60005 3.59375,9.53125 l 0,2.9375 1.5625,0 0,-2.9375 c 0,-3.9312 1.24874,-7.27265 3.59375,-9.53125 2.34501,-2.25873 5.65466,-3.34375 9.375,-3.34375 l 0.53125,0 c 3.72034,0 7.02999,1.08502 9.375,3.34375 2.34501,2.2586 3.59375,5.60005 3.59375,9.53125 l 0,2.9375 153.9375,0 c 3.03071,0 5.86431,-1.64465 7.40625,-4.25 1.54193,-2.65852 1.54193,-5.9259 0,-8.53125 L 294.6875,233 c -2.42287,9.52827 -5.39235,17.4159 -7.21875,21.71875 l 25.875,44.59375 -272.25,0 L 121,161.53125 l -3.53125,0 -1.6875,0 0,-1.65625 0,-5 0,-1.65625 1.6875,0 8.34375,0 51.40625,-88.65625 51.40625,88.65625 6.71875,0 1.65625,0 0,1.65625 0,5 0,1.65625 -1.65625,0 -1.90625,0 12.03125,20.71875 6.0625,-2.8125 0.40625,-0.1875 0.40625,0.0312 7.28125,0.4375 c 0.58953,-1.37327 1.33864,-2.59244 2.21875,-3.65625 L 184.5625,42.21875 c -1.54194,-2.658519 -4.37554,-4.25 -7.40625,-4.25 z m -58.03125,118.5625 0,1.6875 3.78125,0 1,-1.6875 z m 111.40625,0 1,1.6875 2.15625,0 0,-1.6875 z m 33.125,22.6875 c -0.14849,0.23004 -0.30248,0.4739 -0.4375,0.71875 0.29335,0.0134 0.59711,0.0221 0.875,0.0312 z m -11.09375,3.40625 -5.4375,2.5 2,3.4375 c 3.28515,-1.28619 5.53558,-1.63051 9.78125,-1.6875 -0.3193,-1.38743 -0.33392,-2.69603 -0.1875,-3.875 z m 9.46875,0.5625 c -0.13768,0.89741 -0.12527,1.90026 0.125,2.96875 0.0543,0.232 0.1083,0.47955 0.1875,0.71875 l 5.40625,0 0.6875,3.15625 -2.875,1.375 c 0.3564,0.30978 0.76071,0.59486 1.1875,0.90625 0.73524,0.53645 1.58773,1.07214 2.5625,1.59375 0.34832,-0.17838 0.69207,-0.36211 1.03125,-0.53125 l 1.15625,-0.5625 -5.5,-9.5 c -1.11862,-0.002 -2.479,-0.0465 -3.96875,-0.125 z m -1.78125,7 c -4.81142,0.002 -6.51941,0.0988 -9.46875,1.25 l 2.125,3.65625 c 2.52732,-1.81278 5.25022,-3.5734 7.4375,-4.78125 -0.0273,-0.045 -0.0672,-0.08 -0.0937,-0.125 z m 2.15625,2.78125 c -2.06013,1.12098 -5.10465,3.07935 -7.8125,5.03125 l 1.9375,3.34375 c 2.594,-1.72167 5.99146,-3.7521 9.34375,-5.59375 -0.37461,-0.24332 -0.75256,-0.50106 -1.09375,-0.75 -0.90892,-0.66316 -1.68962,-1.33081 -2.375,-2.03125 z m 6.90625,4.6875 c -3.91132,2.0819 -8.19812,4.61552 -11.125,6.5625 l 22.03125,37.96875 c 3.01944,-8.2127 4.92676,-16.47924 5.90625,-24.03125 L 275.6875,200.0625 c -2.4356,-0.73836 -4.54951,-1.5374 -6.375,-2.40625 z m 19.5,25.125 c -1.25039,7.41363 -3.34388,15.32204 -6.4375,23.125 l 3,5.1875 c 1.98631,-5.05377 4.71762,-13.12809 6.8125,-22.4375 z" />
          <g
             transform="matrix(7.609787,0,0,7.609787,500.15046,-6696.7199)"
             id="g4359">
            <g
               id="g4297"
               transform="matrix(0.91226321,0,0,0.91226321,257.59183,132.40586)">
              <path
                 inkscape:connector-curvature="0"
                 id="path3099"
                 d="m 250.22826,380.86611 -63.36375,-8.57933 44.8925,-132.3925 23.535,0 z"
                 style="fill:#000000;fill-opacity:1;fill-rule:nonzero;stroke:none"
                 sodipodi:nodetypes="ccccc" />
              <path
                 inkscape:connector-curvature="0"
                 id="path3093-2"
                 d="m 168.80579,425.53074 79.395,8.1027 c 0,0 8.83224,137.23501 -14.41232,202.92141 -18.23346,51.52561 -40.9034,100.5013 -91.76119,129.17697 C 50.150197,817.53581 -5.6853753,807.76601 -32.972856,773.09616 -60.260337,738.42631 -69.276798,672.53535 -36.684442,631.0602 93.751457,465.07503 232.03481,824.48464 354.78285,814.94113 477.53089,805.39762 487.72476,712.57808 556.68611,778.75055 495.72901,736.36324 441.73539,843.31136 352.48823,841.31882 263.24106,839.32628 25.689381,604.57104 -3.779811,656.88044 -41.092668,723.11277 2.6353973,786.5666 54.744216,716.23434 79.434684,682.90915 85.956484,674.10737 97.975804,634.41199 119.28193,564.04572 168.80579,425.53074 168.80579,425.53074 z"
                 style="fill:#000000;fill-opacity:1;fill-rule:nonzero;stroke:none"
                 sodipodi:nodetypes="ccssssscssssc" />
              <path
                 inkscape:connector-curvature="0"
                 id="path3095"
                 d="m 336.39451,372.28678 -44.8925,-132.3925 -23.53,0 5.05875,140.97183 z"
                 style="fill:#000000;fill-opacity:1;fill-rule:nonzero;stroke:none"
                 sodipodi:nodetypes="ccccc" />
              <path
                 sodipodi:nodetypes="cccccsscsczsc"
                 inkscape:connector-curvature="0"
                 d="m 354.46701,425.58303 -79.395,8.1027 c 0,0 -8.83224,137.23501 14.41232,202.92141 34.31283,124.94923 110.65121,73.95102 168.63246,38.25858 77.83455,-47.78366 106.87612,170.91474 164.94044,39.46624 15.11088,-35.5338 54.85613,-149.94171 26.35854,-231.20343 -16.09919,-45.90731 -90.67219,-56.17427 -108.64011,-10.96566 -7.59562,19.11116 -6.56681,70.43488 168.48999,72.36043 -153.44693,-19.27541 -151.42292,-83.10035 -95.34454,-52.5537 24.71548,13.46286 27.60286,117.89614 -15.18532,210.67998 -35.59026,43.88433 -62.59324,-82.67917 -110.06221,-88.98613 -47.46897,-6.30696 -75.97534,23.62324 -81.948,-17.7706 -10.49954,-72.7676 -52.25857,-170.30982 -52.25857,-170.30982 z"
                 style="fill:#000000;fill-opacity:1;fill-rule:nonzero;stroke:none"
                 id="path4631" />
              <path
                 sodipodi:nodetypes="ccccccccccccccccc"
                 inkscape:connector-curvature="0"
                 id="path3394"
                 d="m 67.108259,386.79303 0,16.52875 41.117501,0 0,22.26125 37.955,0 0,-22.26125 115.44875,12.39237 115.44875,-12.39237 0,22.26125 37.955,0 0,-22.26125 41.1175,0 0,-16.52875 -97.26062,0 -97.26063,12.39237 -97.26063,-12.39237 z"
                 style="fill:#000000;fill-opacity:1;fill-rule:nonzero;stroke:none" />
            </g>
            <g
               id="g4108"
               transform="matrix(0.91226321,0,0,0.91226321,297.2174,-324.67055)">
              <path
                 id="path4061-1"
                 d="m 447.73103,1062.8239 c -9.543,-5.5583 -5.3709,-13.228 16.744,-30.78 11.895,-9.4411 29.163,-20.768 38.372,-25.172 l 16.744,-8.00616 -24.264,0 c -21.79,0 -26.45,0.9937 -45.697,9.76516 -24.515,11.172 -30.54199,11.937 -34.58199,4.3882 -5.0195,-9.379 0.0218,-14.39896 27.06699,-26.95096 l 26.363,-12.236 28.634,1.752 c 18.544,1.1347 29.261,0.7372 30.413,-1.128 0.97893,-1.5839 6.1258,-13.033 11.437,-25.443 l 9.6575,-22.563 -15.192,-10.53704 c -13.807,-9.5764 -15.968,-12.559 -23.706,-32.721 -10.344,-26.952 -10.082,-33.63 1.3175,-33.63 7.6227,0 8.7891,1.5054 16.744,21.612 7.9594,20.117 9.8053,22.498 26.69,34.423 17.337,12.245 18.818,12.75104 33.488,11.445 25.787,-2.2952 29.343,-4.7774 36.15,-25.23 3.314,-9.9585 7.7781,-19.561 9.9203,-21.339 5.9183,-4.9118 15.326,-0.70592 15.326,6.8519 0,7.0503 -12.757,42.77904 -17.176,48.10504 -1.5105,1.8206 -11.176,5.4816 -21.478,8.1356 l -18.732,4.8254 -13.865,32.33 -13.865,32.32996 -33.577,16.744 c -18.468,9.2093 -42.285,23.337 -52.928,31.395 -20.419,15.46 -22.234,16.164 -30.006,11.637 z"
                 inkscape:connector-curvature="0"
                 style="fill:#000000" />
              <path
                 id="path4063"
                 d="m 569.98103,908.9439 c -3.8473,-5.303 -4.8076,-12.845 -1.4868,-18.644 2.4395,-4.5804 6.4453,-8.3268 11.155,-10.489 6.0541,-2.3429 13.533,-0.4091 17.481,4.8074 4.4521,4.9721 7.3975,11.964 5.7639,18.67 -1.4681,5.6576 -6.7576,9.7453 -12.414,10.628 -5.4455,1.2588 -11.581,1.7261 -16.604,-1.1809 -1.5602,-0.95147 -2.9022,-2.258 -3.8956,-3.7918 z"
                 inkscape:connector-curvature="0"
                 style="fill:#000000;stroke:none" />
            </g>
          </g>
        </g>
      </g>
      <text
         sodipodi:linespacing="125%"
         id="text3053"
         y="1009.3517"
         x="233.94066"
         style="font-size:12.32797241px;font-style:normal;font-variant:normal;font-weight:normal;font-stretch:normal;line-height:125%;letter-spacing:0px;word-spacing:0px;fill:#f6bd16;fill-opacity:1;stroke:none;font-family:Politics Head;-inkscape-font-specification:Politics Head"
         xml:space="preserve"><tspan
           y="1009.3517"
           x="233.94066"
           id="tspan3055"
           sodipodi:role="line">Piraten XHAIN</tspan></text>
      <text
         sodipodi:linespacing="125%"
         id="text4697"
         y="993.0119"
         x="55.114178"
         style="font-size:15.33489799px;font-style:normal;font-variant:normal;font-weight:normal;font-stretch:normal;line-height:125%;letter-spacing:0px;word-spacing:0px;fill:#000000;fill-opacity:1;stroke:none;font-family:Politics Head;-inkscape-font-specification:Politics Head"
         xml:space="preserve"><tspan
           y="993.0119"
           x="55.114178"
           id="tspan4699"
           sodipodi:role="line">GEFAHRENGEBIET</tspan></text>
      <text
         sodipodi:linespacing="125%"
         id="text4697-3-1-4"
         y="1031.007"
         x="60.451347"
         style="font-size:47.84001541px;font-style:normal;font-variant:normal;font-weight:normal;font-stretch:normal;line-height:125%;letter-spacing:0px;word-spacing:0px;fill:#000000;fill-opacity:1;stroke:none;font-family:Politics Head;-inkscape-font-specification:Politics Head"
         xml:space="preserve"><tspan
           y="1031.007"
           x="60.451347"
           id="tspan4699-9-6-5"
           sodipodi:role="line">A 100</tspan></text>
    </g>
  </g>
</svg>
