<?xml version="1.0" encoding="UTF-8" standalone="no"?>
<!-- Created with Inkscape (http://www.inkscape.org/) -->

<svg
   xmlns:dc="http://purl.org/dc/elements/1.1/"
   xmlns:cc="http://creativecommons.org/ns#"
   xmlns:rdf="http://www.w3.org/1999/02/22-rdf-syntax-ns#"
   xmlns:svg="http://www.w3.org/2000/svg"
   xmlns="http://www.w3.org/2000/svg"
   xmlns:sodipodi="http://sodipodi.sourceforge.net/DTD/sodipodi-0.dtd"
   xmlns:inkscape="http://www.inkscape.org/namespaces/inkscape"
   width="1000"
   height="1000"
   id="svg3045"
   version="1.1"
   inkscape:version="0.48.4 r9939"
   sodipodi:docname="Gefahr100_ver2.svg"
   inkscape:export-filename="/home/ku3i/work/piraten/prtxhn/posters/GefahrA100/Gefahr100_ver2.png"
   inkscape:export-xdpi="92.160004"
   inkscape:export-ydpi="92.160004">
  <defs
     id="defs3047" />
  <sodipodi:namedview
     id="base"
     pagecolor="#ffffff"
     bordercolor="#666666"
     borderopacity="1.0"
     inkscape:pageopacity="0.0"
     inkscape:pageshadow="2"
     inkscape:zoom="0.49497475"
     inkscape:cx="713.79904"
     inkscape:cy="415.53301"
     inkscape:document-units="px"
     inkscape:current-layer="layer1"
     showgrid="false"
     inkscape:window-width="1440"
     inkscape:window-height="823"
     inkscape:window-x="0"
     inkscape:window-y="25"
     inkscape:window-maximized="1" />
  <metadata
     id="metadata3050">
    <rdf:RDF>
      <cc:Work
         rdf:about="">
        <dc:format>image/svg+xml</dc:format>
        <dc:type
           rdf:resource="http://purl.org/dc/dcmitype/StillImage" />
        <dc:title />
      </cc:Work>
    </rdf:RDF>
  </metadata>
  <g
     inkscape:label="Ebene 1"
     inkscape:groupmode="layer"
     id="layer1"
     transform="translate(0,-52.362183)">
    <g
       id="g5934"
       transform="matrix(0.13140625,0,0,0.13140625,-64.281147,880.00544)">
      <path
         style="fill:#f6bd16;fill-opacity:1"
         id="path4055-6"
         d="M 7920.3774,403.21715 4463.4852,-5584.8316 c -35.3241,-60.9037 -99.882,-97.4459 -169.3122,-97.4459 -69.4302,0 -133.988,37.7603 -169.3122,97.4459 L 667.96848,403.21715 c -35.32418,60.90372 -35.32418,135.20621 0,194.89175 35.3241,60.90371 99.88203,97.44591 169.3122,97.44591 H 7751.065 c 69.4302,0 133.9886,-37.7603 169.3124,-97.44591 35.3239,-60.90364 35.3239,-135.20613 0,-194.89175 z"
         inkscape:connector-curvature="0" />
      <path
         inkscape:connector-curvature="0"
         id="path4055"
         d="m 4294.1728,-5682.3377 c -69.4301,0 -133.9935,37.8148 -169.3177,97.5004 L 667.87153,403.11388 c -35.32413,60.90371 -35.32413,135.31525 0,195.00079 35.32413,60.90371 99.88757,97.50039 169.31776,97.50039 l 6913.96711,0 c 69.4302,0 133.9937,-37.81478 169.3178,-97.50039 35.324,-60.90364 35.324,-135.31518 0,-195.00079 L 6986.6106,-1214.2037 c -55.5052,218.28198 -123.4344,398.91633 -165.2751,497.48986 l 592.3744,1021.6139 -6236.6961,0 1830.1538,-3156.15916 -80.854,0 -38.0489,0 0,-38.0489 0,-114.8603 0,-38.0489 38.0489,0 191.6715,0 1177.3768,-2030.6241 1177.3767,2030.6241 154.336,0 38.0489,0 0,38.0489 0,114.8603 0,38.0489 -38.0489,0 -43.5185,0 275.1414,474.4227 139.3542,-64.6832 8.7988,-4.0427 9.5123,0.4756 166.9397,10.4634 c 13.5054,-31.46 30.4903,-59.3368 50.6526,-83.7076 L 4463.4906,-5584.8373 c -35.3241,-60.9037 -99.8876,-97.5004 -169.3178,-97.5004 z m -1329.8102,2716.2184 0,38.7623 86.7991,0 22.5915,-38.7623 -109.3906,0 z m 2552.6079,0 22.5915,38.7623 49.4637,0 0,-38.7623 -72.0552,0 z m 758.3628,519.6058 c -3.4018,5.27 -6.8947,10.7994 -9.9878,16.4086 6.7203,0.3074 13.6096,0.7411 19.9757,0.9512 l -9.9879,-17.3598 z m -254.2144,78.0003 -124.1347,57.7868 45.6587,78.4759 c 75.2591,-29.4652 126.9874,-37.4567 224.251,-38.7623 -7.3147,-31.7844 -7.8727,-61.6926 -4.5184,-88.7016 l -141.2566,-8.7988 z m 217.5923,13.0793 c -3.1542,20.5587 -3.3554,43.5346 2.3781,68.0125 1.2449,5.3149 2.9417,10.6911 4.7561,16.1708 l 123.1834,0 16.4086,72.2929 -66.11,31.6282 c 8.1648,7.0967 17.0948,14.031 26.8721,21.1647 16.8435,12.2894 36.645,24.4349 58.9758,36.3843 7.9796,-4.0864 16.0103,-8.2533 23.7806,-12.1281 l 26.1586,-13.0793 -125.5614,-217.3545 c -25.6263,-0.053 -56.7133,-1.2932 -90.8419,-3.0915 z m -41.1404,160.2811 c -110.2243,0.046 -149.0749,2.6394 -216.6411,29.0123 l 48.2746,83.4699 c 57.8981,-41.5287 120.1608,-81.7203 170.269,-109.3907 -0.6263,-1.0302 -1.2932,-2.061 -1.9025,-3.0915 z m 49.2258,63.4942 c -47.1953,25.6804 -117.0339,70.6199 -179.0678,115.3358 l 44.4697,76.5735 c 59.4257,-39.4416 137.2281,-85.9872 214.0253,-128.1773 -8.582,-5.5743 -16.9155,-11.1813 -24.7318,-16.8843 -20.8223,-15.1923 -38.9941,-30.8014 -54.6954,-46.8477 z m 158.3787,107.726 c -89.604,47.6941 -187.6385,105.6902 -254.69,150.2933 l 504.3862,870.1316 c 69.1721,-188.1438 113.1102,-377.7501 135.5493,-550.7583 l -239.2327,-414.4956 c -55.7968,-16.9151 -104.1928,-35.2667 -146.0128,-55.171 z m 446.3616,575.4902 c -28.645,169.8379 -76.5683,350.8366 -147.4396,529.59359 l 68.9637,118.90292 c 45.5041,-115.77613 108.2471,-300.39251 156.2384,-513.66061 l -77.7625,-134.8359 z" />
      <g
         transform="matrix(7.609787,0,0,7.609787,500.15046,-6696.7199)"
         id="g4359">
        <g
           id="g4297"
           transform="matrix(0.91226321,0,0,0.91226321,257.59183,132.40586)">
          <path
             inkscape:connector-curvature="0"
             id="path3099"
             d="m 250.22826,380.86611 -63.36375,-8.57933 44.8925,-132.3925 23.535,0 z"
             style="fill:#000000;fill-opacity:1;fill-rule:nonzero;stroke:none"
             sodipodi:nodetypes="ccccc" />
          <path
             inkscape:connector-curvature="0"
             id="path3093-2"
             d="m 168.80579,425.53074 79.395,8.1027 c 0,0 8.83224,137.23501 -14.41232,202.92141 -18.23346,51.52561 -40.9034,100.5013 -91.76119,129.17697 C 50.150197,817.53581 -5.6853753,807.76601 -32.972856,773.09616 -60.260337,738.42631 -69.276798,672.53535 -36.684442,631.0602 93.751457,465.07503 232.03481,824.48464 354.78285,814.94113 477.53089,805.39762 487.72476,712.57808 556.68611,778.75055 495.72901,736.36324 441.73539,843.31136 352.48823,841.31882 263.24106,839.32628 25.689381,604.57104 -3.779811,656.88044 -41.092668,723.11277 2.6353973,786.5666 54.744216,716.23434 79.434684,682.90915 85.956484,674.10737 97.975804,634.41199 119.28193,564.04572 168.80579,425.53074 168.80579,425.53074 z"
             style="fill:#000000;fill-opacity:1;fill-rule:nonzero;stroke:none"
             sodipodi:nodetypes="ccssssscssssc" />
          <path
             inkscape:connector-curvature="0"
             id="path3095"
             d="m 336.39451,372.28678 -44.8925,-132.3925 -23.53,0 5.05875,140.97183 z"
             style="fill:#000000;fill-opacity:1;fill-rule:nonzero;stroke:none"
             sodipodi:nodetypes="ccccc" />
          <path
             sodipodi:nodetypes="cccccsscsczsc"
             inkscape:connector-curvature="0"
             d="m 354.46701,425.58303 -79.395,8.1027 c 0,0 -8.83224,137.23501 14.41232,202.92141 34.31283,124.94923 110.65121,73.95102 168.63246,38.25858 77.83455,-47.78366 106.87612,170.91474 164.94044,39.46624 15.11088,-35.5338 54.85613,-149.94171 26.35854,-231.20343 -16.09919,-45.90731 -90.67219,-56.17427 -108.64011,-10.96566 -7.59562,19.11116 -6.56681,70.43488 168.48999,72.36043 -153.44693,-19.27541 -151.42292,-83.10035 -95.34454,-52.5537 24.71548,13.46286 27.60286,117.89614 -15.18532,210.67998 -35.59026,43.88433 -62.59324,-82.67917 -110.06221,-88.98613 -47.46897,-6.30696 -75.97534,23.62324 -81.948,-17.7706 -10.49954,-72.7676 -52.25857,-170.30982 -52.25857,-170.30982 z"
             style="fill:#000000;fill-opacity:1;fill-rule:nonzero;stroke:none;stroke-width:0.13171631000000000;stroke-miterlimit:4;stroke-opacity:1;stroke-dasharray:none"
             id="path4631" />
          <path
             sodipodi:nodetypes="ccccccccccccccccc"
             inkscape:connector-curvature="0"
             id="path3394"
             d="m 67.108259,386.79303 0,16.52875 41.117501,0 0,22.26125 37.955,0 0,-22.26125 115.44875,12.39237 115.44875,-12.39237 0,22.26125 37.955,0 0,-22.26125 41.1175,0 0,-16.52875 -97.26062,0 -97.26063,12.39237 -97.26063,-12.39237 z"
             style="fill:#000000;fill-opacity:1;fill-rule:nonzero;stroke:none" />
        </g>
        <g
           id="g4108"
           transform="matrix(0.91226321,0,0,0.91226321,297.2174,-324.67055)">
          <path
             id="path4061-1"
             d="m 447.73103,1062.8239 c -9.543,-5.5583 -5.3709,-13.228 16.744,-30.78 11.895,-9.4411 29.163,-20.768 38.372,-25.172 l 16.744,-8.00616 -24.264,0 c -21.79,0 -26.45,0.9937 -45.697,9.76516 -24.515,11.172 -30.54199,11.937 -34.58199,4.3882 -5.0195,-9.379 0.0218,-14.39896 27.06699,-26.95096 l 26.363,-12.236 28.634,1.752 c 18.544,1.1347 29.261,0.7372 30.413,-1.128 0.97893,-1.5839 6.1258,-13.033 11.437,-25.443 l 9.6575,-22.563 -15.192,-10.53704 c -13.807,-9.5764 -15.968,-12.559 -23.706,-32.721 -10.344,-26.952 -10.082,-33.63 1.3175,-33.63 7.6227,0 8.7891,1.5054 16.744,21.612 7.9594,20.117 9.8053,22.498 26.69,34.423 17.337,12.245 18.818,12.75104 33.488,11.445 25.787,-2.2952 29.343,-4.7774 36.15,-25.23 3.314,-9.9585 7.7781,-19.561 9.9203,-21.339 5.9183,-4.9118 15.326,-0.70592 15.326,6.8519 0,7.0503 -12.757,42.77904 -17.176,48.10504 -1.5105,1.8206 -11.176,5.4816 -21.478,8.1356 l -18.732,4.8254 -13.865,32.33 -13.865,32.32996 -33.577,16.744 c -18.468,9.2093 -42.285,23.337 -52.928,31.395 -20.419,15.46 -22.234,16.164 -30.006,11.637 z"
             inkscape:connector-curvature="0"
             style="fill:#000000" />
          <path
             id="path4063"
             d="m 569.98103,908.9439 c -3.8473,-5.303 -4.8076,-12.845 -1.4868,-18.644 2.4395,-4.5804 6.4453,-8.3268 11.155,-10.489 6.0541,-2.3429 13.533,-0.4091 17.481,4.8074 4.4521,4.9721 7.3975,11.964 5.7639,18.67 -1.4681,5.6576 -6.7576,9.7453 -12.414,10.628 -5.4455,1.2588 -11.581,1.7261 -16.604,-1.1809 -1.5602,-0.95147 -2.9022,-2.258 -3.8956,-3.7918 z"
             inkscape:connector-curvature="0"
             style="fill:#000000;stroke:none" />
        </g>
      </g>
    </g>
  </g>
</svg>
