<?xml version="1.0" encoding="UTF-8" standalone="no"?>
<!-- Created with Inkscape (http://www.inkscape.org/) -->

<svg
   xmlns:dc="http://purl.org/dc/elements/1.1/"
   xmlns:cc="http://creativecommons.org/ns#"
   xmlns:rdf="http://www.w3.org/1999/02/22-rdf-syntax-ns#"
   xmlns:svg="http://www.w3.org/2000/svg"
   xmlns="http://www.w3.org/2000/svg"
   xmlns:sodipodi="http://sodipodi.sourceforge.net/DTD/sodipodi-0.dtd"
   xmlns:inkscape="http://www.inkscape.org/namespaces/inkscape"
   width="744.09448"
   height="744.09448"
   id="svg2"
   version="1.1"
   inkscape:version="0.48.4 r9939"
   sodipodi:docname="Gefahr_Verwaltung.svg"
   inkscape:export-filename="/home/ku3i/piraten/Gestaltung/pirat*n_xhain/prtxhn/posters/GefahrWillkür/Gefahr_willkuer.png"
   inkscape:export-xdpi="77.410004"
   inkscape:export-ydpi="77.410004">
  <defs
     id="defs4">
    <filter
       inkscape:collect="always"
       id="filter6318">
      <feGaussianBlur
         inkscape:collect="always"
         stdDeviation="16.406933"
         id="feGaussianBlur6320" />
    </filter>
  </defs>
  <sodipodi:namedview
     id="base"
     pagecolor="#ffffff"
     bordercolor="#666666"
     borderopacity="1.0"
     inkscape:pageopacity="0.0"
     inkscape:pageshadow="2"
     inkscape:zoom="0.49497475"
     inkscape:cx="261.15866"
     inkscape:cy="281.21308"
     inkscape:document-units="px"
     inkscape:current-layer="layer1"
     showgrid="false"
     showguides="true"
     inkscape:guide-bbox="true"
     inkscape:window-width="1440"
     inkscape:window-height="823"
     inkscape:window-x="0"
     inkscape:window-y="25"
     inkscape:window-maximized="1"
     units="mm">
    <inkscape:grid
       type="xygrid"
       id="grid4856"
       empspacing="5"
       visible="true"
       enabled="true"
       snapvisiblegridlinesonly="true" />
  </sodipodi:namedview>
  <metadata
     id="metadata7">
    <rdf:RDF>
      <cc:Work
         rdf:about="">
        <dc:format>image/svg+xml</dc:format>
        <dc:type
           rdf:resource="http://purl.org/dc/dcmitype/StillImage" />
        <dc:title></dc:title>
      </cc:Work>
    </rdf:RDF>
  </metadata>
  <g
     inkscape:label="Ebene 1"
     inkscape:groupmode="layer"
     id="layer1"
     transform="translate(0,-308.26772)">
    <rect
       style="fill:#800080;fill-opacity:1;stroke:none"
       id="rect6144"
       width="744.09448"
       height="744.09448"
       x="0"
       y="308.26773"
       rx="3.2159898"
       ry="3.4949861"
       sodipodi:insensitive="true" />
    <path
       d="M 719.88853,958.16736 388.28841,383.76771 c -3.38844,-5.84214 -9.58111,-9.34743 -16.24116,-9.34743 -6.66004,0 -12.85272,3.62213 -16.24116,9.34743 L 24.205956,958.16736 c -3.38845,5.84214 -3.38845,12.96956 0,18.69486 3.38844,5.84215 9.58111,9.34743 16.24116,9.34743 H 703.64737 c 6.66005,0 12.85272,-3.62213 16.24116,-9.34743 3.38845,-5.84214 3.38845,-12.96956 0,-18.69486 z"
       id="path3114-9"
       inkscape:connector-curvature="0"
       style="filter:url(#filter6318)"
       sodipodi:insensitive="true" />
    <g
       id="g4943"
       transform="translate(-8.0812099,315.4063)"
       sodipodi:insensitive="true">
      <path
         inkscape:connector-curvature="0"
         id="path3114"
         d="M 727.96973,642.76106 396.36961,68.361413 c -3.38844,-5.842144 -9.58111,-9.347431 -16.24116,-9.347431 -6.66004,0 -12.85272,3.62213 -16.24116,9.347431 L 32.287167,642.76106 c -3.388443,5.84214 -3.388443,12.96956 0,18.69486 3.388444,5.84215 9.581117,9.34743 16.241162,9.34743 H 711.72857 c 6.66005,0 12.85272,-3.62213 16.24116,-9.34743 3.38845,-5.84214 3.38845,-12.96956 0,-18.69486 z" />
      <polygon
         style="fill:#f6bd16"
         id="polygon3116"
         transform="matrix(1.1684289,0,0,1.1636554,29.742914,61.389678)"
         points="299.88,48.2 555.88,491.5 43.875,491.5 " />
    </g>
    <g
       id="g4525"
       transform="matrix(1.2852195,0,0,1.2852195,-87.41873,-173.1376)">
      <path
         sodipodi:nodetypes="ccccc"
         transform="translate(0,308.26772)"
         inkscape:connector-curvature="0"
         id="path3431"
         d="m 275,504.09448 165,0 -10,-50 -145,0 z"
         style="fill:#b98c07;fill-opacity:1;stroke:#000000;stroke-width:5;stroke-linecap:butt;stroke-linejoin:miter;stroke-miterlimit:4;stroke-opacity:1;stroke-dasharray:none" />
      <path
         sodipodi:nodetypes="ccccc"
         transform="translate(0,308.26772)"
         inkscape:connector-curvature="0"
         id="path3433"
         d="m 285,504.09448 0,10 145,0 0,-10 z"
         style="fill:#000000;stroke:#000000;stroke-width:1px;stroke-linecap:butt;stroke-linejoin:miter;stroke-opacity:1" />
      <path
         id="path4203"
         transform="translate(0,308.26772)"
         d="m 357.5,344.09375 c -17.94925,0 -32.5,14.55075 -32.5,32.5 0,13.52152 8.25278,25.10332 20,30 l 0,47.5 25,0 0,-47.5 c 11.74722,-4.89668 20,-16.47848 20,-30 0,-17.94925 -14.55075,-32.5 -32.5,-32.5 z"
         style="fill:#7b5d05;fill-opacity:1;stroke:#000000;stroke-width:5;stroke-linecap:butt;stroke-linejoin:miter;stroke-miterlimit:4;stroke-opacity:1;stroke-dasharray:none"
         inkscape:connector-curvature="0" />
      <g
         transform="matrix(1.278783,0,0,1.278783,-85.380867,-184.29762)"
         id="g4521">
        <path
           sodipodi:type="star"
           style="fill:#ffffff;fill-opacity:1;stroke:#000000;stroke-width:5;stroke-linecap:butt;stroke-linejoin:round;stroke-miterlimit:4;stroke-opacity:1;stroke-dasharray:none;stroke-dashoffset:0"
           id="path4210-4"
           sodipodi:sides="6"
           sodipodi:cx="410"
           sodipodi:cy="334.09448"
           sodipodi:r1="21.213203"
           sodipodi:r2="17.161842"
           sodipodi:arg1="0.78539816"
           sodipodi:arg2="1.3089969"
           inkscape:flatsided="true"
           inkscape:rounded="0.27"
           inkscape:randomized="0"
           d="m 425,349.09448 c -4.05,4.05 -14.95798,6.97279 -20.49038,5.49038 -5.5324,-1.4824 -13.5176,-9.46759 -15,-15 -1.4824,-5.5324 1.44038,-16.44038 5.49038,-20.49038 4.05,-4.05 14.95798,-6.97278 20.49038,-5.49038 5.5324,1.4824 13.5176,9.4676 15,15 1.4824,5.5324 -1.44038,16.44038 -5.49038,20.49038 z"
           transform="matrix(0.70976402,0.11429568,-0.11429568,0.70976402,92.699086,394.91084)"
           inkscape:transform-center-x="0.066854549"
           inkscape:transform-center-y="-2.1107626" />
        <path
           transform="matrix(2.4141332,0,0,2.4141332,-655.41141,-135.78787)"
           sodipodi:type="arc"
           style="fill:#000000;fill-opacity:1;stroke:none"
           id="path4370-9"
           sodipodi:cx="417.5"
           sodipodi:cy="336.59448"
           sodipodi:rx="2.5"
           sodipodi:ry="2.5"
           d="m 420,336.59448 c 0,1.38071 -1.11929,2.5 -2.5,2.5 -1.38071,0 -2.5,-1.11929 -2.5,-2.5 0,-1.38071 1.11929,-2.5 2.5,-2.5 1.38071,0 2.5,1.11929 2.5,2.5 z" />
      </g>
    </g>
  </g>
</svg>
