<?xml version="1.0" encoding="UTF-8" standalone="no"?>
<!-- Created with Inkscape (http://www.inkscape.org/) -->

<svg
   xmlns:dc="http://purl.org/dc/elements/1.1/"
   xmlns:cc="http://creativecommons.org/ns#"
   xmlns:rdf="http://www.w3.org/1999/02/22-rdf-syntax-ns#"
   xmlns:svg="http://www.w3.org/2000/svg"
   xmlns="http://www.w3.org/2000/svg"
   xmlns:xlink="http://www.w3.org/1999/xlink"
   xmlns:sodipodi="http://sodipodi.sourceforge.net/DTD/sodipodi-0.dtd"
   xmlns:inkscape="http://www.inkscape.org/namespaces/inkscape"
   width="2048"
   height="2048"
   id="svg2"
   version="1.1"
   inkscape:version="0.48.4 r9939"
   sodipodi:docname="KD_neinDanke.svg"
   inkscape:export-filename="/home/ku3i/piraten/Gestaltung/drohen/KD_neinDanke.png"
   inkscape:export-xdpi="45"
   inkscape:export-ydpi="45">
  <defs
     id="defs4">
    <path
       sodipodi:type="arc"
       style="fill:#fa6cae;fill-opacity:0.3927273;stroke:#ffffff;stroke-width:1.62;stroke-miterlimit:4;stroke-opacity:1;stroke-dasharray:3.24, 1.62;stroke-dashoffset:0"
       id="path3911-9"
       sodipodi:cx="1148.5714"
       sodipodi:cy="1139.4286"
       sodipodi:rx="1000"
       sodipodi:ry="1000"
       d="m 2148.5714,1139.4286 a 1000,1000 0 1 1 -1999.99999,0 1000,1000 0 1 1 1999.99999,0 z"
       transform="matrix(-0.93206535,0,0,0.93206535,2094.5436,-1033.6597)" />
    <path
       sodipodi:type="arc"
       style="fill:#de411a;fill-opacity:1;stroke:#ffffff;stroke-width:1.62;stroke-miterlimit:4;stroke-opacity:1;stroke-dasharray:3.24, 1.62;stroke-dashoffset:0"
       id="path4499-4"
       sodipodi:cx="143.83478"
       sodipodi:cy="1080.3843"
       sodipodi:rx="758.40155"
       sodipodi:ry="758.40155"
       d="m 902.23633,1080.3843 a 758.40155,758.40155 0 1 1 -1516.8031,0 758.40155,758.40155 0 1 1 1516.8031,0 z"
       transform="matrix(-0.95800072,-0.09446311,0.09446311,-0.95800072,1059.7374,1076.9582)" />
  </defs>
  <sodipodi:namedview
     id="base"
     pagecolor="#ffffff"
     bordercolor="#666666"
     borderopacity="1.0"
     inkscape:pageopacity="0.0"
     inkscape:pageshadow="2"
     inkscape:zoom="0.1081543"
     inkscape:cx="244.92782"
     inkscape:cy="246.33349"
     inkscape:document-units="px"
     inkscape:current-layer="layer1"
     showgrid="false"
     inkscape:window-width="1440"
     inkscape:window-height="831"
     inkscape:window-x="0"
     inkscape:window-y="24"
     inkscape:window-maximized="1" />
  <metadata
     id="metadata7">
    <rdf:RDF>
      <cc:Work
         rdf:about="">
        <dc:format>image/svg+xml</dc:format>
        <dc:type
           rdf:resource="http://purl.org/dc/dcmitype/StillImage" />
        <dc:title></dc:title>
      </cc:Work>
    </rdf:RDF>
  </metadata>
  <g
     inkscape:label="Ebene 1"
     inkscape:groupmode="layer"
     id="layer1"
     transform="translate(0,995.63782)">
    <text
       xml:space="preserve"
       style="font-size:320px;font-style:normal;font-variant:normal;font-weight:normal;font-stretch:normal;line-height:125%;letter-spacing:0px;word-spacing:0px;fill:#000000;fill-opacity:1;stroke:none;font-family:Politics Head;-inkscape-font-specification:Politics Head"
       id="text4508"
       sodipodi:linespacing="125%"
       y="2165.6831"
       x="-287.66956"
       transform="translate(0,-995.63782)"><tspan
         sodipodi:role="line"
         id="tspan4510"></tspan></text>
    <g
       id="g5218">
      <path
         transform="matrix(1.2330147,0,0,1.2330147,-2946.2301,-832.17659)"
         d="m 3981.608,697.91449 a 761.67053,761.67053 0 1 1 -1523.341,0 761.67053,761.67053 0 1 1 1523.341,0 z"
         sodipodi:ry="761.67053"
         sodipodi:rx="761.67053"
         sodipodi:cy="697.91449"
         sodipodi:cx="3219.9375"
         id="path4592-1"
         style="fill:#fa6cae;fill-opacity:0.3927273;stroke:#ffffff;stroke-width:1.62;stroke-miterlimit:4;stroke-opacity:1;stroke-dasharray:3.24, 1.62;stroke-dashoffset:0"
         sodipodi:type="arc" />
      <path
         transform="matrix(0.96059601,0,0,0.96059601,-2069.0591,-647.77793)"
         d="m 3981.608,697.91449 a 761.67053,761.67053 0 1 1 -1523.341,0 761.67053,761.67053 0 1 1 1523.341,0 z"
         sodipodi:ry="761.67053"
         sodipodi:rx="761.67053"
         sodipodi:cy="697.91449"
         sodipodi:cx="3219.9375"
         id="path4592"
         style="fill:#de411a;fill-opacity:1;stroke:#ffffff;stroke-width:1.62000000000000011;stroke-miterlimit:4;stroke-opacity:1;stroke-dasharray:3.24000000000000021, 1.62000000000000011;stroke-dashoffset:0"
         sodipodi:type="arc" />
      <path
         transform="matrix(-1,0,0,1,2172.5714,-1111.0664)"
         d="m 2148.5714,1139.4286 a 1000,1000 0 1 1 -1999.99999,0 1000,1000 0 1 1 1999.99999,0 z"
         sodipodi:ry="1000"
         sodipodi:rx="1000"
         sodipodi:cy="1139.4286"
         sodipodi:cx="1148.5714"
         id="path3911-3"
         style="fill:#ffda2d;fill-opacity:1;stroke:#de411a;stroke-width:2;stroke-miterlimit:4;stroke-opacity:1;stroke-dasharray:none;stroke-dashoffset:0"
         sodipodi:type="arc" />
      <text
         transform="matrix(0.87957852,-0.47575374,0.47575374,0.87957852,109.55556,490.71283)"
         sodipodi:linespacing="125%"
         id="text4515-5"
         style="font-size:320px;font-style:normal;font-variant:normal;font-weight:normal;font-stretch:normal;line-height:125%;letter-spacing:0px;word-spacing:0px;fill:#000000;fill-opacity:1;stroke:none;font-family:Politics Head;-inkscape-font-specification:Politics Head"
         xml:space="preserve"><textPath
           id="textPath4519-5"
           xlink:href="#path3911-9"><tspan
   dx="0 13.869074 13.869074 13.869074 13.869074 11.557562 13.869074 13.869074 13.869074 13.869074 13.869074"
   id="tspan4517-2">NEIN DANKE!</tspan></textPath></text>
      <text
         sodipodi:linespacing="125%"
         id="text4501-5"
         style="font-size:320px;font-style:normal;font-variant:normal;font-weight:normal;font-stretch:normal;line-height:125%;letter-spacing:0px;word-spacing:0px;fill:#000000;fill-opacity:1;stroke:none;font-family:Politics Head;-inkscape-font-specification:Politics Head"
         xml:space="preserve"
         transform="matrix(0.99510268,0.09884663,-0.09884663,0.99510268,8.7934879,-107.54426)"><textPath
           dx="0 -19.613832 -13.869074 -18.4921 -13.869074 -13.869074 -13.869074 -13.869074 -13.869074 -13.869074 -13.869074 -13.869074 -13.869074 -13.869074 -13.869074"
           style="font-size:320px"
           id="textPath4505-1"
           xlink:href="#path4499-4"> KILLERDROHnEN?   </textPath></text>
      <circle
         transform="matrix(2.0178042,0,0,2.0178042,292.54598,-703.09184)"
         style="fill:none;stroke:#de411a;stroke-width:87;stroke-opacity:1"
         id="circle6"
         r="293.5"
         cy="362.5"
         cx="362.5"
         d="M 656,362.5 C 656,524.59557 524.59557,656 362.5,656 200.40443,656 69,524.59557 69,362.5 69,200.40443 200.40443,69 362.5,69 524.59557,69 656,200.40443 656,362.5 z"
         sodipodi:cx="362.5"
         sodipodi:cy="362.5"
         sodipodi:rx="293.5"
         sodipodi:ry="293.5" />
      <g
         style="stroke:#000000;stroke-opacity:1"
         transform="matrix(0.98723882,0,0,0.98723882,-863.44755,-700.07419)"
         id="g3906">
        <path
           inkscape:connector-curvature="0"
           id="path3123"
           d="m 1457.5007,1097.4693 c -9.3814,-4.7518 -13.5648,-15.8399 -10.4357,-27.6605 1.5112,-5.7089 1.4876,-6.0962 -0.6925,-11.3561 l -2.2571,-5.4457 2.352,-1.9046 c 2.9399,-2.3805 3.7364,-8.2923 2.1401,-15.8831 -2.5228,-11.9968 -2.7182,-10.7896 2.1007,-12.9762 2.5369,-1.1512 6.5607,-1.9891 9.6132,-2.0018 5.0584,-0.021 5.25,-0.1226 5.25,-2.7786 0,-1.5161 0.4974,-4.3286 1.1052,-6.25 0.6078,-1.9214 1.0484,-6.018 0.9791,-9.1036 -0.087,-3.87357 0.3352,-5.99303 1.3639,-6.84673 0.8194,-0.68005 2.6287,-4.97027 4.0206,-9.53382 2.9295,-9.60419 6.6991,-14.50044 11.1824,-14.52454 1.5669,-0.008 3.4064,-0.36943 4.0879,-0.80223 2.1377,-1.35771 9.2609,-19.05212 9.2609,-23.00463 0,-2.61456 0.8494,-4.75703 2.8544,-7.19999 5.4165,-6.59954 7.9599,-13.97784 4.8185,-13.97784 -0.73,0 -6.9175,2.05748 -13.75,4.57217 -11.4011,4.19613 -57.0443,20.35145 -99.8262,35.33332 -9.5719,3.35198 -17.8993,6.09451 -18.5053,6.09451 -1.8481,0 -3.7528,7.01054 -4.5462,16.73257 -1.3082,16.02981 -7.0907,24.69991 -22.0452,33.05331 -3.575,1.997 -9.7898,6.2354 -13.8107,9.4187 -4.0209,3.1833 -8.2985,6.0357 -9.5058,6.3387 -2.731,0.6855 -14.692,-3.7321 -19.8914,-7.3465 -6.624,-4.6049 -14.8454,-20.3781 -13.0628,-25.0621 0.562,-1.4766 0.5001,-3.6729 -0.1646,-5.84603 l -1.0647,-3.48082 -5,0.60119 c -32.4698,3.90406 -44.6914,0.2169 -63.6614,-19.20625 -5.7492,-5.88652 -11.3892,-12.0329 -12.5335,-13.65862 l -2.0804,-2.95586 -11.8624,3.60726 c -6.5242,1.984 -13.2123,4.06535 -14.8623,4.62523 -7.0077,2.37785 -11.9786,3.08123 -13.2138,1.86974 -0.6676,-0.65478 -0.8926,-1.68546 -0.5,-2.29039 1.0784,-1.66166 11.1939,-5.77379 25.9552,-10.55129 l 13.2413,-4.28558 11.4924,-19.03163 c 41.8832,-69.35956 44.7136,-73.53108 62.0163,-91.40154 21.4355,-22.13898 55.7255,-41.4151 81.0086,-45.539 9.3861,-1.53096 11.2521,-1.78264 16,-2.15801 7.4729,-0.59081 27.6899,-1.37017 48.5,-1.86966 19.6315,-0.4712 44.4538,-3.55736 46.6208,-5.79636 2.2279,-2.30199 22.5013,-46.04667 21.6819,-46.78383 -0.8743,-0.78648 -23.1253,-7.39963 -66.8027,-19.85415 -34.1899,-9.74921 -59.9264,-17.19348 -85,-24.58625 -10.45,-3.08111 -33.625,-9.90254 -51.5,-15.15872 -17.875,-5.25618 -40.6,-11.95802 -50.5,-14.89298 -9.9,-2.93496 -27.9,-8.26351 -40,-11.84122 -12.1,-3.57771 -33.6468,-9.95332 -47.8818,-14.16802 l -25.8818,-7.66309 -2.9347,2.16972 c -3.9505,2.92075 -13.4833,4.00466 -14.3921,1.63643 -0.8582,-2.23637 1.1612,-4.43971 4.4136,-4.81559 1.4722,-0.17015 2.6768,-0.71281 2.6768,-1.20592 0,-1.02137 -86.6594,-27.61353 -129.49999,-39.73818 -15.675,-4.4363 -30.59469,-8.95783 -33.15487,-10.04785 -8.22174,-3.50048 -7.01112,-8.53408 3.44501,-14.32387 6.37125,-3.5279 20.69884,-6.51165 45.70985,-9.51915 14.2412,-1.71246 14.5704,-1.70842 18.4448,0.22649 12.2256,6.10562 22.0123,9.12464 49.6791,15.32511 38.9558,8.7305 54.9437,12.32797 81.8761,18.42309 12.375,2.80062 38.925,8.71857 59,13.15102 51.4183,11.35286 126.2175,28.04688 147.5,32.91971 36.4182,8.33828 33.4771,7.88495 38,5.85722 4.9066,-2.19978 17.6049,-1.71222 30,1.15186 4.4,1.01669 9.2418,2.11076 10.7596,2.43127 2.2564,0.47649 2.9779,1.3991 3.9569,5.05959 0.6586,2.46226 1.8918,4.6791 2.7405,4.92631 0.8486,0.2472 11.218,2.53428 23.043,5.08239 11.825,2.54811 30.725,6.64689 42,9.10841 11.275,2.46151 26.575,5.78252 34,7.38003 7.425,1.5975 27.675,6.11969 45,10.04931 32.0377,7.26671 45.9012,9.40631 49.4433,7.63071 3.7551,-1.88237 36.8265,1.43178 42.5567,4.26469 0.8534,0.42188 1.7156,2.63771 2,5.13998 l 0.5,4.39842 8,2.31419 c 9.9901,2.88987 11.6261,2.67998 32.5,-4.16952 9.075,-2.97784 23.925,-7.796 33,-10.70702 11.5926,-3.71858 17.1882,-6.01933 18.8139,-7.73568 1.9101,-2.01656 2.948,-2.34002 5.947,-1.85335 3.8634,0.62694 6.6886,-0.19553 63.7391,-18.55548 15.4,-4.95601 31.375,-10.04512 35.5,-11.30913 4.125,-1.264 12.8536,-3.93655 19.3968,-5.93899 6.5432,-2.00244 13.4449,-4.28771 15.3373,-5.07837 l 3.4405,-1.43757 -6.7644,-9.76454 c -3.7204,-5.3705 -11.0584,-16.06454 -16.3066,-23.76454 -5.2482,-7.7 -15.406,-22.41782 -22.5729,-32.70628 -14.1814,-20.35827 -36.8722,-53.13518 -63.893,-92.29373 -9.488,-13.75 -26.8457,-38.88708 -38.5727,-55.86019 -11.7271,-16.9731 -21.8069,-32.14525 -22.3998,-33.71589 -0.9283,-2.4594 -0.7576,-3.19658 1.2298,-5.31214 3.0149,-3.2092 14.4671,-8.72396 24.967,-12.02278 9.1905,-2.88744 25.4754,-4.97187 31.0692,-3.97678 4.593,0.81707 5.168,1.35807 25.3896,23.88778 18.0697,20.13214 35.1303,38.8503 63.6792,69.86613 9.625,10.4567 18.85,20.60587 20.5,22.55371 1.65,1.94784 6.2223,6.92522 10.1606,11.06084 3.9383,4.13563 8.8883,9.61374 11,12.1736 2.1117,2.55985 13.0644,14.88475 24.3394,27.38867 11.275,12.50393 21.5451,24.02201 22.8225,25.59574 1.2773,1.57372 2.9783,2.86132 3.7799,2.86132 0.8015,0 7.8564,-1.98139 15.6775,-4.40308 7.821,-2.4217 21.6451,-6.08858 30.7201,-8.14861 9.075,-2.06004 16.9246,-4.12575 17.4435,-4.59046 0.5585,-0.50014 -3.012,-4.87107 -8.75,-10.71132 -8.1904,-8.33651 -9.6935,-10.36348 -9.6935,-13.0722 0,-5.21326 1.5465,-7.07434 5.8786,-7.07434 5.4782,0 12.1079,2.569 34.2334,13.26537 14.1372,6.8345 21.4582,9.80278 26.2258,10.633 15.3589,2.67465 23.4483,6.54527 27.2974,13.06125 1.6011,2.71044 1.9732,2.81319 12.258,3.38514 5.8337,0.32442 14.8818,1.26373 20.1068,2.08736 5.225,0.82362 10.2179,1.51334 11.0954,1.5327 0.9483,0.0209 3.7325,-3.46215 6.8652,-8.5887 8.28,-13.54967 22.2944,-26.42888 42.0426,-38.63708 9.5621,-5.91118 28.3709,-14.73904 31.4033,-14.73904 5.049,0 9.5538,6.23497 7.8418,10.85374 -0.8479,2.28752 -13.1995,16.93294 -23.738,28.14626 -3.8767,4.12501 -7.94,8.59612 -9.0295,9.9358 l -1.9808,2.43579 4,-2.37623 c 6.7813,-4.0285 32.3212,-19.84201 46,-28.48184 25.9349,-16.38104 39.0795,-24.32954 43,-26.00197 9.1041,-3.8837 26.6893,-9.47039 34.4348,-10.93969 10.1847,-1.93201 12.1604,-1.95394 14.6108,-0.16218 1.9009,1.39 1.9001,1.44073 -0.059,3.6331 -1.0927,1.22287 -25.3232,17.74934 -53.8456,36.72547 l -51.8589,34.50207 0.5688,3.50543 c 0.3129,1.92799 0.1286,4.32805 -0.4094,5.33347 -2.2733,4.24766 -20.3114,11.89081 -28.0626,11.89076 -3.8485,-3e-5 -5.9214,1.04412 -17.1119,8.61964 -7.0031,4.74081 -14.6126,10.70332 -16.9099,13.25002 -2.2973,2.54671 -8.2934,8.90537 -13.3247,14.13037 -5.0313,5.225 -9.4731,10.04175 -9.8707,10.7039 -0.3976,0.66214 0.8974,8.31214 2.8778,17 8.3924,36.81811 11.5709,56.01562 13.9256,84.10638 1.9561,23.33646 1.9351,25.4738 -0.2773,28.20597 -2.3939,2.95641 -5.8111,1.91428 -7.7113,-2.35171 -2.0478,-4.59727 -6.5934,-25.70776 -15.5101,-72.03114 -4.3265,-22.47663 -8.0898,-41.09007 -8.363,-41.36321 -0.2731,-0.27313 -5.8081,3.9535 -12.3,9.39252 -21.2386,17.794 -35.3299,27.77067 -57.0535,40.39402 l -14.25,8.28051 0,52.35613 0,52.35613 2.75,1.05771 c 1.5125,0.58174 19.85,6.00756 40.75,12.05738 20.9,6.04982 42.95,12.4879 49,14.30686 29.7541,8.94567 33.8083,9.88722 44,10.21854 17.0329,0.55372 20.8024,0.92167 27,2.63549 6.4165,1.77436 9.5,4.45315 9.5,8.25316 0,2.09823 0.9609,2.64285 8.75,4.95946 4.8125,1.43132 10.775,3.2128 13.25,3.95886 2.475,0.74607 11.25,3.22879 19.5,5.51717 8.25,2.28838 18.375,5.21369 22.5,6.50068 4.125,1.28699 20.1,5.9808 35.5,10.43067 15.4,4.44988 31.6,9.18807 36,10.52932 4.4,1.34124 12.725,3.78421 18.5,5.4288 11.0416,3.1444 12.2293,3.49451 61.5,18.12926 17.05,5.06431 37.075,10.98371 44.5,13.15422 25.3805,7.41932 61.1131,18.11616 89,26.64286 9.075,2.77477 23.475,7.14072 32,9.70211 8.525,2.56139 22.475,6.8249 31,9.47446 8.525,2.64956 20.225,6.23638 26,7.97071 15.2505,4.58 37.0821,11.33671 74.5,23.05726 4.95,1.5505 15.075,4.6804 22.5,6.9552 7.425,2.2749 15.525,4.7786 18,5.5638 9.9645,3.1614 53.858,12.6971 59,12.8176 4.7545,0.1114 5.5402,0.4102 5.7967,2.2042 0.327,2.2875 -1.0799,2.9252 -31.995,14.5028 -31.7425,11.8873 -50.9799,12.7751 -85.248,3.934 -13.2694,-3.4234 -41.1528,-10.7063 -59.0537,-15.4241 -15.1355,-3.989 -82.063,-21.2062 -124.2653,-31.9673 l -29.2652,-7.4624 -1.6243,3.1709 c -0.8933,1.7439 -2.124,3.5014 -2.7347,3.9055 -2.0792,1.3756 -11.2975,0.8474 -12.5999,-0.722 -1.8758,-2.2601 -0.4603,-4.5127 2.8356,-4.5127 3.246,0 6.2971,-2.6753 4.3931,-3.8521 -0.6227,-0.3848 -9.2979,-2.70566 -19.2782,-5.15745 -15.7947,-3.88011 -18.2962,-4.26552 -19.3036,-2.97411 -2.973,3.81092 -10.0741,6.56067 -13.9075,5.38542 -3.2103,-0.98422 -2.0053,-4.08241 2.25,-5.78506 2.2,-0.88027 4,-2.03678 4,-2.57004 0,-1.15771 0.2984,-1.07716 -37,-9.98652 -16.225,-3.87562 -63.925,-15.38836 -106,-25.58388 -42.075,-10.19552 -83.925,-20.32027 -93,-22.49944 -9.075,-2.17917 -29.325,-7.13417 -45,-11.0111 -15.675,-3.87694 -51.675,-12.67692 -80,-19.55552 -28.325,-6.8786 -63.9889,-15.63486 -79.2532,-19.45836 -15.2642,-3.8235 -28.0025,-6.95182 -28.3074,-6.95182 -0.3049,0 -0.4159,1.90589 -0.2468,4.23532 l 0.3075,4.23532 4.2719,-0.31338 c 3.7281,-0.27347 4.7034,0.118 7.6603,3.07496 3.8108,3.81077 5.6063,10.95886 3.6642,14.58767 -0.603,1.12674 -1.0964,3.71258 -1.0964,5.74629 0,6.49282 -3.6683,8.79877 -31.5843,19.85443 l -24.9157,9.86742 -6.7686,-1.14402 c -3.7227,-0.6292 -7.8588,-1.14401 -9.1914,-1.14401 -1.3327,0 -15.4765,5.23988 -31.4308,11.64417 -24.1897,9.7101 -29.0578,11.9933 -29.3085,13.7461 -0.1889,1.32082 -1.7804,2.7972 -4.2825,3.97287 -3.2854,1.54368 -4.5248,1.67463 -7.0856,0.74862 -3.0975,-1.12005 -9.4326,0.0912 -9.4326,1.80351 0,1.55163 10.0601,23.08444 12.3869,26.51321 1.3576,2.00054 2.6557,4.18504 2.8845,4.85444 0.2927,0.8561 1.6804,0.51306 4.6786,-1.1566 2.7126,-1.51059 6.5748,-2.55929 10.6219,-2.88415 5.5149,-0.44269 7.1041,-0.14618 11.9666,2.23285 9.4535,4.6252 13.529,12.20846 13.617,25.33736 0.053,7.9747 -2.7826,16.4194 -7.8661,23.422 -4.5229,6.2305 -7.7698,8.4177 -15.3965,10.3716 -7.9847,2.0456 -14.354,0.8161 -21.0126,-4.056 -6.5855,-4.8187 -8.8457,-10.0894 -9.9917,-23.3005 -0.7712,-8.8906 -1.5238,-12.0464 -4.3518,-18.2495 -15.6257,-34.27352 -22.8728,-49.82632 -24.094,-51.70734 -1.3724,-2.11406 -1.6076,-2.14576 -5.5636,-0.75 -8.823,3.11293 -15.3547,1.16435 -18.3481,-5.47371 -1.7424,-3.8641 -1.7491,-4.25909 -0.1314,-7.84646 1.0663,-2.36454 3.3674,-4.83021 6.1519,-6.59182 2.4466,-1.54786 4.4484,-3.28969 4.4484,-3.87073 0,-0.58103 -3.7044,-8.18971 -8.232,-16.90817 -7.1355,-13.74034 -8.5498,-15.85175 -10.6182,-15.85175 -7.0546,0 -34.1967,6.80532 -37.7199,9.45749 -1.174,0.88374 -1.1342,1.96975 0.2616,7.1309 0.9056,3.34862 1.3843,6.7719 1.0637,7.60729 -0.3206,0.83539 -5.2341,3.22145 -10.919,5.30237 -5.6849,2.08092 -10.8322,3.96778 -11.4385,4.19304 -0.6063,0.22525 -3.8222,-1.86309 -7.1464,-4.64077 -3.3243,-2.77767 -6.7672,-5.05032 -7.6509,-5.05032 -0.8838,0 -5.9257,1.41119 -11.2042,3.13599 -9.5165,3.10956 -9.6449,3.12275 -15.2467,1.56494 -3.1072,-0.86408 -6.4332,-1.87196 -7.391,-2.23974 -1.8037,-0.69253 -2.0841,-0.26846 -3.2105,4.85471 -0.8655,3.93625 -5.5827,5.68247 -15.2557,5.64733 -4.2858,-0.0156 -9.7634,0.0988 -12.1725,0.25423 -5.0587,0.3263 -6.8034,-1.35757 -5.751,-5.55052 0.4375,-1.74334 2.0383,-3.3441 4.7039,-4.70399 2.9458,-1.50287 4.5352,-3.21518 5.866,-6.31986 2.8919,-6.74646 9.9392,-10.26361 14.5334,-7.25333 1.3517,0.88563 2.8447,1.61024 3.3179,1.61024 0.4732,0 2.6035,-2.40536 4.734,-5.34524 4.7925,-6.61297 7.5299,-8.40526 19.2347,-12.59336 l 9.2586,-3.31287 1.4222,-5.12426 c 0.7822,-2.81835 1.7174,-6.60202 2.0783,-8.40815 0.8082,-4.04552 2.4383,-5.07968 14.7211,-9.33897 11.4442,-3.96849 12.4775,-3.69439 14.7438,3.91103 0.8345,2.80065 1.8025,5.36668 2.151,5.70229 0.3485,0.33561 2.1485,-0.0507 4,-0.85856 l 3.3663,-1.46876 -3.1275,-0.0816 c -6.1428,-0.16021 -5.9398,-1.43918 3.2464,-20.45109 l 8.566,-17.72833 -3.3037,-5.45108 c -1.8611,-3.07077 -4.0256,-5.45105 -4.9568,-5.45105 -0.9093,0 -6.5517,1.84957 -12.5388,4.11016 -5.987,2.26059 -16.2856,6.04827 -22.8856,8.41707 -32.5281,11.67466 -91.7896,33.56158 -93.9355,34.69301 -3.1166,1.64326 -39.1844,43.13228 -41.5947,47.84666 -1.003,1.96179 -2.5198,4.14472 -3.3708,4.85096 -1.2147,1.00813 -1.4167,2.53284 -0.9398,7.09528 0.5568,5.32739 0.3919,6.02667 -1.9804,8.39904 -1.4233,1.4233 -3.2416,2.58782 -4.0407,2.58782 -0.7991,0 -4.3388,2.88591 -7.866,6.41313 -7.1514,7.15142 -12.0978,9.22526 -19.563,8.20205 -8.6302,-1.1829 -18.0801,-9.19843 -19.7367,-16.74098 l -0.6611,-3.00998 -6.1556,5.8902 c -3.3856,3.23961 -8.6697,7.07362 -11.7425,8.52 l -5.5869,2.6298 -4.8355,11.29789 c -2.6596,6.21384 -5.9044,14.44162 -7.2107,18.28396 -1.3062,3.84233 -3.2347,7.90124 -4.2856,9.01979 -1.0508,1.11855 -4.366,8.09982 -7.367,15.51392 -3.001,7.4141 -6.82,16.2484 -8.4865,19.6316 -2.8104,5.7056 -3.5052,6.376 -9.5855,9.2488 -4.908,2.3189 -6.5555,3.6081 -6.5555,5.1299 0,1.118 0.7875,2.3192 1.75,2.6693 4.3025,1.5651 11.0776,8.4723 13.2393,13.4974 5.2458,12.1941 -0.7809,30.0851 -12.0752,35.8471 -5.3195,2.7138 -10.5415,2.4697 -16.9848,-0.7939 z m 444.4324,-70.75 c -0.3166,-0.825 -0.7525,-1.5 -0.9687,-1.5 -0.2161,0 -0.393,0.675 -0.393,1.5 0,0.825 0.4359,1.5 0.9687,1.5 0.5327,0 0.7095,-0.675 0.393,-1.5 z m -330.722,-92.5516 c 1.7783,-5.94791 1.7006,-6.94838 -0.5399,-6.94838 -1.4513,0 -2.181,1.17013 -3.0884,4.95253 -1.955,8.14957 1.2598,9.91798 3.6283,1.99585 z m -26.3128,-11.0784 c 0.9348,-3.09652 2.8187,-7.279 4.1864,-9.29441 3.0518,-4.49709 3.0736,-4.87269 0.2367,-4.0879 -9.3613,2.58973 -10.5913,3.47229 -12.7022,9.11432 -1.1263,3.01017 -2.0478,5.8177 -2.0478,6.23897 0,1.15407 7.4148,5.16047 8.0636,4.35697 0.31,-0.38386 1.3284,-3.23144 2.2633,-6.32795 z m 849.6367,5.67382 c 1.4882,-1.79309 0.5418,-3.5438 -1.9156,-3.5438 -2.2374,0 -3.3061,2.34188 -1.7699,3.87814 1.4834,1.48334 2.2335,1.41529 3.6855,-0.33434 z m -8.0034,-3.49806 c 1.2481,-0.78941 1.185,-1.22777 -0.4337,-3.01643 -1.0416,-1.15103 -2.5987,-1.97521 -3.4602,-1.83152 -0.8615,0.1437 -2.9163,-0.22925 -4.5663,-0.82876 -4.4534,-1.61809 -9.6016,-3.12404 -13.1201,-3.83787 -2.6749,-0.54269 -3.2079,-0.30474 -3.7363,1.66793 -1.3406,5.00515 -0.8847,5.93447 2.6064,5.31269 2.2073,-0.39314 4.3729,0.0342 6.75,1.33214 3.7709,2.05892 13.4526,2.78796 15.9602,1.20182 z m -27.537,-7.8973 c 1.4429,-2.79024 1.4217,-2.84144 -0.9891,-2.3806 -2.8697,0.54858 -3.8354,1.7439 -3.0541,3.78005 0.8678,2.26138 2.4297,1.72076 4.0432,-1.39945 z m -500.7301,-7.43999 c 5.1349,-2.52931 7.0463,-4.13045 9.0301,-7.56421 l 2.5163,-4.35575 -2.8697,0.56788 c -1.5784,0.31233 -5.0021,0.86024 -7.6082,1.21757 -6.6247,0.90831 -7.0462,-0.86413 -2.4258,-10.20176 2.0063,-4.0547 3.3704,-7.37218 3.0313,-7.37218 -1.2098,0 -22.882,8.17029 -23.6581,8.91895 -0.7705,0.7433 7.1925,19.05253 9.4906,21.82152 1.4513,1.74873 4.0856,1.10942 12.4935,-3.03202 z m -255.2543,-14.70729 c 4.9154,-6.28287 4.9248,-6.30928 2,-5.58513 -5.7986,1.43562 -29.4388,10.054 -29.4388,10.73233 0,0.381 1.3267,0.98411 2.9481,1.34024 1.6215,0.35612 4.884,2.40795 7.25,4.55962 l 4.3019,3.91212 4,-4.32323 c 2.2,-2.37778 6.2225,-7.16396 8.9388,-10.63595 z m 682.3329,5.24884 c 0.9744,-0.9625 2.7826,-2.425 4.018,-3.25 l 2.2463,-1.5 -3.5739,-2.41724 c -1.9657,-1.32949 -6.5863,-3.0407 -10.2681,-3.80271 -3.6817,-0.762 -8.494,-1.79215 -10.694,-2.2892 -2.2,-0.49706 -5.8574,-0.92335 -8.1276,-0.9473 -2.4718,-0.0261 -4.6461,-0.66843 -5.4203,-1.60133 -1.5498,-1.86729 -7.8739,-4.64185 -9.381,-4.11565 -0.5891,0.2057 -2.8152,-0.23363 -4.9468,-0.97629 -2.1317,-0.74265 -4.9289,-1.35028 -6.2161,-1.35028 -1.2872,0 -3.8181,-0.62317 -5.6243,-1.38481 -4.0303,-1.69957 -11.584,-3.7371 -14.2839,-3.85294 -3.6106,-0.15492 -27.112,-5.48423 -29.2644,-6.63618 -1.1573,-0.61934 -3.2648,-1.12607 -4.6834,-1.12607 -1.4186,0 -3.3607,-0.40156 -4.3158,-0.89236 -0.955,-0.49079 -4.5958,-1.41811 -8.0906,-2.06071 -5.4739,-1.00652 -6.5942,-0.95109 -8.0873,0.40016 -1.6068,1.45414 -1.8285,1.27993 -3.0393,-2.38889 -1.14,-3.45431 -1.8281,-4.08137 -5.4126,-4.93247 -4.8445,-1.15028 -11.354,-3.40427 -17.6066,-6.09652 -7.5892,-3.26778 -24,-4.59312 -24,-1.93826 0,1.37648 6.037,4.10884 7.6828,3.47728 0.9407,-0.361 1.6863,0.12709 1.9945,1.30575 0.5159,1.97286 4.2174,4.12138 7.1198,4.13261 0.9366,0.004 3.0529,0.90066 4.7029,1.99341 1.65,1.09275 4.5396,1.98979 6.4213,1.99341 1.8817,0.004 4.2582,0.76407 5.2812,1.68988 1.7418,1.57624 9.5376,3.38188 14.4979,3.35794 1.2103,-0.006 2.4743,0.43249 2.8091,0.97407 0.3347,0.54159 1.3868,0.9847 2.3381,0.9847 0.9512,0 3.4948,0.9 5.6524,2 2.1576,1.1 5.5152,2.00251 7.4614,2.00558 5.0706,0.008 11.0514,1.86431 11.7335,3.64178 0.4326,1.12719 1.4398,1.36235 3.8768,0.90516 2.4899,-0.46711 3.522,-0.20751 4.2341,1.065 0.8411,1.50298 4.8056,2.87318 18.6942,6.46105 2.2,0.56833 4.9,1.61339 6,2.32235 1.1,0.70896 4.025,1.62069 6.5,2.02606 2.475,0.40538 6.75,1.11289 9.5,1.57226 2.75,0.45936 8.375,1.95834 12.5,3.33105 8.0576,2.68139 15.1054,4.52258 21.5,5.61671 2.2,0.37642 4.9397,1.19424 6.0883,1.81736 1.1486,0.62313 3.0103,0.89186 4.1372,0.59718 1.1268,-0.29468 2.3511,-0.0466 2.7207,0.55134 0.8993,1.45523 1.2524,1.38486 3.3255,-0.66288 z M 1995.13,874.19419 c 2.5985,-1.11382 4.5483,-2.19001 4.3329,-2.39153 -0.4681,-0.43805 -12.6807,-3.58334 -13.9135,-3.58334 -0.4733,0 0.318,1.8 1.7584,4 1.4404,2.2 2.7266,4 2.8583,4 0.1317,0 2.3655,-0.91131 4.9639,-2.02513 z m 80.9319,-38.95947 c 0.819,-1.32519 -5.5732,-5.12392 -7.5607,-4.49312 -0.8673,0.27527 -3.0575,-0.23815 -4.8672,-1.14093 -1.8097,-0.90278 -5.2447,-1.6954 -7.6335,-1.76138 -3.0171,-0.0833 -4.768,-0.70095 -5.7345,-2.02275 -0.7665,-1.04835 -1.9084,-1.58315 -2.5429,-1.19098 -1.769,1.09329 -1.366,4.59084 0.5983,5.19293 0.9625,0.29502 3.6745,1.4059 6.0268,2.46862 2.3522,1.06271 5.7272,1.96384 7.5,2.0025 1.7727,0.0387 4.1232,0.45702 5.2232,0.92971 2.7774,1.19349 8.2566,1.20288 8.9905,0.0154 z m -85.8904,-57.2654 c -8.0607,-21.14347 -10.9447,-28.35003 -11.6576,-29.13085 -0.4504,-0.49337 -6.4431,1.43477 -13.6233,4.38329 -7.0506,2.89528 -17.0686,6.70226 -22.2622,8.45996 -5.1937,1.75769 -9.592,3.64266 -9.7741,4.1888 -0.198,0.59411 5.4028,1.43023 13.9431,2.08148 7.8507,0.59868 16.974,1.69123 20.274,2.42791 5.8419,1.30412 6.0246,1.4448 6.9341,5.33941 0.5137,2.2 1.0605,4.1718 1.2151,4.38178 0.5007,0.68017 12.7826,3.97357 15.0922,4.04698 l 2.2414,0.0712 -2.3827,-6.25 z m -439.1001,-19.75 c 0.34,-0.55 -0.084,-1 -0.9409,-1 -0.8575,0 -1.5591,0.45 -1.5591,1 0,0.55 0.4235,1 0.941,1 0.5176,0 1.2191,-0.45 1.559,-1 z M 1755.99,718.90256 c 1.7115,-1.25148 1.683,-1.45365 -0.5741,-4.0777 -1.5287,-1.77721 -3.6165,-2.89825 -5.8597,-3.14633 -1.9166,-0.21196 -4.4973,-0.67948 -5.7348,-1.03893 -1.778,-0.51645 -2.25,-0.2515 -2.25,1.26309 0,1.05415 -0.4917,2.40832 -1.0926,3.00927 -0.7902,0.79019 -0.7805,1.67598 0.035,3.2 0.963,1.79936 2.0447,2.10736 7.4015,2.10736 3.6102,0 7.0382,-0.55903 8.0745,-1.31676 z m -3.2686,-11.18324 c 0,-0.5225 -0.4837,-1.11125 -1.075,-1.30833 -0.5912,-0.19709 -1.075,0.39166 -1.075,1.30833 0,0.91667 0.4838,1.50542 1.075,1.30833 0.5913,-0.19708 1.075,-0.78583 1.075,-1.30833 z m 5.925,-1.775 c -0.1237,-1.1957 -1.4953,-0.96414 -1.925,0.325 -0.22,0.66 0.14,1.02 0.8,0.8 0.66,-0.22 1.1663,-0.72625 1.125,-1.125 z m 63.0448,-17.78609 c 2.222,-1.1336 5.0166,-1.96004 6.2101,-1.83653 2.4596,0.25452 5.1984,-0.77327 15.1701,-5.6928 3.85,-1.89939 7.6555,-3.44357 8.4566,-3.43151 0.8012,0.0121 2.93,-1.66557 4.7309,-3.72807 3.173,-3.63416 3.9958,-5.25 2.6734,-5.25 -2.2147,0 -46.0834,14.31035 -49.7439,16.22685 -1.7619,0.92247 -1.6975,1.13755 1,3.34356 3.5773,2.92542 6.3187,3.01324 11.5028,0.3685 z m 69.2419,-22.43891 c 0.3379,-0.88074 0.014,-1.5 -0.7861,-1.5 -0.7489,0 -1.6206,0.675 -1.9372,1.5 -0.338,0.88074 -0.013,1.5 0.786,1.5 0.7489,0 1.6207,-0.675 1.9373,-1.5 z m 12.6383,-3.5 c 0,-0.55 -1.3765,-1 -3.059,-1 -1.7847,0 -2.8015,0.41658 -2.441,1 0.34,0.55 1.7165,1 3.0591,1 1.3425,0 2.4409,-0.45 2.4409,-1 z M 2132.923,611.8714 c 3.2183,-2.2464 5.333,-4.25722 4.6992,-4.46849 -2.8353,-0.94508 -15.0508,5.96978 -15.0508,8.5198 0,2.11182 3.4642,0.75602 10.3516,-4.05131 z m -45.6196,-11.31892 c 6.5148,-3.6433 18.7981,-12.80736 25.018,-18.66484 2.1662,-2.03998 3.25,-3.99568 3.25,-5.86449 0,-3.64777 -1.4969,-3.55753 -7.4012,0.44617 -2.6361,1.7875 -7.6269,4.825 -11.0908,6.75 -11.5608,6.42475 -24.508,16.04973 -24.508,18.21932 0,1.01265 3.7691,2.62869 6.3375,2.71729 1.0106,0.0349 4.7881,-1.58669 8.3945,-3.60345 z m -63.7119,-4.85733 c 0.6957,-0.83829 0.9542,-1.83487 0.5744,-2.21463 -0.8341,-0.83408 -3.8203,0.9161 -4.3683,2.56024 -0.5697,1.70906 2.306,1.44709 3.7939,-0.34561 z m 10.8309,-0.99351 c 1.0202,-1.02021 -1.0151,-3.48232 -2.8786,-3.48232 -1.1498,0 -1.8415,-0.40285 -1.5372,-0.89522 0.3043,-0.49236 -0.075,-1.13623 -0.8424,-1.4308 -0.7804,-0.29947 -1.6096,0.20541 -1.8808,1.14522 -0.2668,0.92444 -0.7942,2.42894 -1.172,3.34334 -0.4721,1.14275 -0.1168,1.79186 1.1366,2.07619 1.8825,0.42706 6.4752,-0.0572 7.1744,-0.75641 z m 9.7287,-4.93927 c 1.9229,-0.99763 2.353,-1.59791 1.3643,-1.90407 -0.7942,-0.24591 -2.2315,-0.70116 -3.194,-1.01166 -1.3465,-0.43439 -1.75,0.005 -1.75,1.90406 0,2.89974 -0.039,2.88883 3.5797,1.01167 z m 20.4203,-5.39118 c 0,-0.46646 1.9125,-1.64729 4.25,-2.62405 11.1442,-4.6568 13.6597,-6.01814 12.7679,-6.9099 -0.5775,-0.57754 -1.4257,-0.5261 -2.2255,0.13498 -0.7108,0.58747 -3.0924,1.39354 -5.2924,1.79126 -4.9032,0.88643 -9.5,3.12252 -9.5,4.62128 0,0.61274 -0.7875,1.71187 -1.75,2.44251 -1.6667,1.26518 -1.6667,1.32996 0,1.36025 0.9625,0.0175 1.75,-0.34986 1.75,-0.81633 z"
           style="fill:#000000;fill-opacity:1;stroke:none;stroke-opacity:1" />
        <g
           style="stroke:#000000;stroke-opacity:1"
           id="g3903">
          <path
             style="fill:#000000;fill-opacity:1;stroke:#000000;stroke-opacity:1"
             d="m 1458.6312,1095.2004 c -3.3691,-2.1367 -5.3281,-4.3023 -6.7028,-7.4101 -3.0643,-6.9273 -3.2992,-9.9891 -1.3885,-18.1026 1.6705,-7.0931 1.678,-7.7883 0.1194,-11.0566 -1.6062,-3.3682 -1.586,-3.5923 0.5888,-6.5447 1.9892,-2.7004 2.2203,-4.0617 1.9808,-11.6698 -0.1791,-5.6898 -0.7957,-9.4134 -1.8169,-10.9719 -1.1423,-1.7433 -1.2594,-2.7044 -0.4487,-3.6812 1.3995,-1.6862 8.728,-3.5442 13.9796,-3.5442 4.0387,0 4.0572,-0.017 4.0572,-3.8411 0,-2.1125 0.6081,-5.8618 1.3515,-8.3317 0.7433,-2.4699 1.1356,-5.9613 0.8718,-7.7586 -0.3167,-2.1578 0.2106,-4.50796 1.552,-6.91824 1.1175,-2.00769 2.7087,-5.95516 3.5362,-8.77216 3.0285,-10.30978 4.924,-12.52676 11.7639,-13.75912 3.4365,-0.61916 3.7817,-1.09041 8.8874,-12.13162 4.7072,-10.17976 5.6093,-11.50537 7.9245,-11.64497 3.3571,-0.20242 4.1068,-0.12217 7.0206,0.75144 2.109,0.63233 2.3381,0.45509 1.8458,-1.42769 -0.6921,-2.64655 3.4224,-6.41772 8.9709,-8.22221 5.0104,-1.62954 13.2754,-5.95134 13.2754,-6.94183 0,-1.27066 -2.5643,-1.88951 -4.0429,-0.97569 -2.2403,1.38456 -10.9206,2.2444 -12.2367,1.21213 -0.6713,-0.52646 -2.6422,-1.22612 -4.38,-1.55482 -3.3865,-0.64055 -4.3404,0.39915 -4.3404,4.73062 0,1.42358 -1.4702,3.4323 -4,5.46534 -2.2,1.76797 -4,2.94363 -4,2.61259 0,-0.33105 1.7911,-3.57167 3.9803,-7.20138 2.9778,-4.93733 3.8281,-7.25326 3.3758,-9.19523 -1.2738,-5.47013 -1.6992,-5.43836 -20.8561,1.55789 -20.6608,7.54547 -48.7699,17.39378 -89.3892,31.3185 l -28.389,9.73206 -1.7309,4.55999 c -0.9521,2.508 -1.9316,8.38159 -2.1767,13.05244 -0.7861,14.97596 -7.4174,24.89426 -21.3143,31.87906 -3.3,1.6587 -7.125,4.0371 -8.5,5.2854 -6.6585,6.045 -12.2732,9.5174 -15.3266,9.4788 -4.2351,-0.054 -13.2998,-4.0485 -17.8529,-7.8678 -2.1036,-1.7647 -5.2376,-6.1927 -7.3178,-10.3393 -3.104,-6.1875 -3.5453,-7.882 -3.0042,-11.5367 0.7549,-5.0991 -0.9374,-10.95389 -3.3055,-11.43615 -0.9312,-0.18963 -5.743,0.26925 -10.693,1.01972 -15.9151,2.41289 -31.121,0.21828 -41.3511,-5.96804 C 1235.4261,986.7997 1218,970.41806 1218,969.16964 c 0,-0.37827 2.5875,-0.0795 5.75,0.66398 17.2403,4.05294 41.4103,1.83381 74.25,-6.81714 4.125,-1.08664 17.625,-4.59335 30,-7.79267 30.6612,-7.92688 80.9997,-23.62728 123.5,-38.51923 8.8001,-3.08349 21.8501,-7.64357 29.0001,-10.13352 21.7803,-7.58488 25.4022,-8.89642 42.5,-15.38991 17.9792,-6.82828 30.2011,-11.38614 72,-26.85062 15.125,-5.59586 32.225,-11.99709 38,-14.22497 5.775,-2.22788 15.9,-5.82273 22.5,-7.98856 6.6,-2.16583 13.8,-5.03743 16,-6.38134 8.7332,-5.33488 16.9684,-8.51378 22.071,-8.51979 2.1505,-0.003 4.7894,-1.62431 9.929,-6.10206 15.6407,-13.62668 21.3501,-17.89449 23.9388,-17.89449 1.4278,0 6.9757,0.95417 12.3286,2.12037 5.3529,1.1662 15.5826,3.38294 22.7326,4.92609 7.15,1.54314 18.175,4.21834 24.5,5.94489 6.325,1.72654 15.4675,4.00178 20.3166,5.05609 4.8492,1.05431 9.1253,2.10767 9.5025,2.34081 0.6088,0.37623 26.488,6.7697 41.1809,10.17376 7.7776,1.80192 90.7942,22.91404 100.25,25.4948 4.1394,1.12975 4.82,2.46882 1.75,3.44319 -1.1,0.34913 -2,1.23131 -2,1.9604 0,2.55662 3.2465,2.53027 8.0149,-0.065 5.653,-3.07674 10.0319,-2.43317 10.9875,1.61486 0.3571,1.51259 1.5743,2.63386 3.385,3.11812 3.4343,0.91845 6.5438,3.59165 7.7026,6.62167 1.0606,2.77325 3.3846,2.84308 9.0508,0.27196 7.779,-3.52982 10.8931,-2.43634 11.799,4.14304 l 0.5969,4.335 4.6301,-0.2894 c 3.6658,-0.22914 5.1914,0.19344 7.3255,2.02913 3.4393,2.95831 4.7523,9.27334 2.8626,13.76764 -0.7385,1.75624 -1.0689,4.28385 -0.7344,5.6169 1.2026,4.79125 -4.2438,8.04573 -30.5901,18.27908 l -24.2094,9.40334 -9.2688,-1.82245 c -9.2162,-1.81208 -9.2882,-1.81066 -12.6605,0.24965 -3.1235,1.90819 -42.8417,18.26606 -44.3516,18.26606 -0.3652,0 -3.0651,1.13589 -5.9997,2.52421 -3.6654,1.73397 -5.5225,3.26801 -5.9321,4.90007 -0.7642,3.04494 -5.8812,5.03522 -8.8545,3.44399 -2.2093,-1.18242 -8.3966,0.12224 -12.2685,2.58697 -1.1081,0.70536 -3.4706,1.60224 -5.25,1.99307 -2.4919,0.54731 -3.2353,0.3758 -3.2353,-0.74641 0,-0.80136 0.675,-2.01721 1.5,-2.7019 0.825,-0.68469 1.5,-2.43533 1.5,-3.89031 0,-2.83174 -4.3927,-10.10969 -6.1018,-10.10969 -1.9688,0 -4.8982,2.07897 -4.8982,3.47617 0,1.98304 -1.9633,2.96057 -3.2872,1.6367 -1.5402,-1.54023 -5.6735,-1.39087 -10.7128,0.38713 -6.0311,2.12789 -7.1569,1.9733 -6.4397,-0.88427 0.6807,-2.71243 -2.7944,-10.38459 -5.1055,-11.27144 -2.3721,-0.91025 -1.7096,-2.07292 3.0452,-5.34429 4.8624,-3.34547 5.3543,-4.76654 2.9301,-8.46633 -1.4993,-2.28817 -1.4431,-2.47357 1.25,-4.12087 1.5509,-0.9487 4.4977,-2.77969 6.5484,-4.06886 2.0507,-1.28917 4.8807,-2.34394 6.2888,-2.34394 2.3745,0 17.3874,-6.16654 20.2443,-8.31529 0.6939,-0.52191 2.1141,-2.87599 3.1559,-5.23129 1.8898,-4.27216 4.4639,-6.45342 7.6156,-6.45342 3.2021,0 8.6414,-3.32897 9.6125,-5.883 0.5387,-1.41696 1.5138,-2.91606 2.1669,-3.33134 3.3096,-2.10438 -1.9366,-0.36811 -9.6369,3.18944 -7.6411,3.53018 -21.1192,6.91467 -22.4072,5.62666 -0.2625,-0.26249 1.3697,-3.82316 3.6271,-7.91261 2.2575,-4.08945 4.1045,-8.21854 4.1045,-9.17576 0,-2.30212 -2.7661,-1.76542 -15,2.91049 -14.7666,5.64388 -16.9105,6.71853 -17.574,8.80919 -0.8684,2.73594 -6.6202,4.91186 -11.1733,4.22686 -2.064,-0.31052 -5.7777,-0.13055 -8.2527,0.39994 -22.6915,4.86365 -23.7918,4.88596 -21.4703,0.43528 1.8549,-3.55612 1.8458,-5.6683 -0.04,-9.31517 -2.1073,-4.07499 -4.8665,-5.28734 -10.354,-4.54933 -4.0688,0.54719 -4.4217,0.45378 -2.8857,-0.76385 0.9625,-0.76301 1.75,-2.09862 1.75,-2.96803 0,-0.8694 0.45,-1.85885 1,-2.19877 0.55,-0.33992 1,-1.29405 1,-2.12029 0,-1.47047 -4.0074,-1.40433 -11.75,0.19394 -1.5326,0.31637 -2.25,-0.01 -2.25,-1.0222 0,-0.81766 3.5009,-8.36373 7.7797,-16.76905 9.5551,-18.76987 11.9508,-25.19734 10.1849,-27.32507 -1.6285,-1.96225 -0.7025,-2.78267 3.0213,-2.67679 1.6578,0.0471 3.0141,-0.38235 3.0141,-0.95441 0,-0.57206 -0.675,-0.78109 -1.5,-0.4645 -0.8713,0.33434 -1.5,0.0166 -1.5,-0.75816 0,-0.73356 -0.9642,-2.55961 -2.1428,-4.05789 -1.6315,-2.07412 -2.7606,-2.60603 -4.732,-2.22917 -1.4241,0.27223 -3.8755,-0.17016 -5.4475,-0.98308 -4.253,-2.1993 -5.7684,-1.14025 -5.4485,3.80765 l 0.2708,4.18781 -6,2.37591 c -6.8896,2.72821 -80.6187,29.86897 -103,37.91582 -8.25,2.96617 -18.6,7.16319 -23,9.32672 -4.4,2.16352 -12.725,5.37134 -18.5,7.12849 -15.9835,4.86328 -47.7868,16.04676 -49.7545,17.49593 -1.9456,1.43286 -2.2653,1.24059 5.652,3.39845 2.7055,0.73738 6.1344,2.83971 8.9119,5.46396 4.4147,4.17112 4.4778,4.31789 2.8526,6.63819 -2.0917,2.98628 -2.0919,4.35492 -10e-4,6.44573 1.2778,1.27788 2.6614,1.51081 6,1.01016 5.1704,-0.77535 5.463,0.13184 1.6534,5.12641 -2.245,2.94332 -2.4911,3.83267 -1.5,5.41971 2.9537,4.72955 0.6481,9.95452 -4.9817,11.28974 -1.5119,0.35859 -3.5515,2.0631 -4.7083,3.93482 -5.3046,8.58317 -17.577,13.05841 -25.2107,9.19338 -8.0083,-4.05468 -13.8834,-10.88873 -13.9289,-16.20237 -0.01,-0.98441 -0.4297,-2.44498 -0.9362,-3.2457 -0.7306,-1.15485 -2.123,-0.17084 -6.7347,4.75929 -3.6599,3.91251 -8.3981,7.60444 -12.7894,9.96505 l -6.9755,3.7499 -5.722,13.49081 c -3.1471,7.41994 -6.4205,14.68524 -7.2744,16.1451 -0.8539,1.45986 -1.5525,3.33784 -1.5525,4.17328 0,0.83544 -1.0927,2.81762 -2.4283,4.40484 -1.3355,1.58722 -4.1592,7.13427 -6.2747,12.32667 -2.1155,5.1925 -4.3641,10.3372 -4.9967,11.4326 -1.9348,3.3501 -2.4306,1.0603 -0.6686,-3.0881 0.9119,-2.147 3.1101,-8.0405 4.8849,-13.0968 1.7748,-5.05625 3.9597,-9.92589 4.8552,-10.82141 2.2809,-2.28092 2.1494,-6.48537 -0.2028,-6.48537 -2.0729,0 -2.9152,1.43746 -7.0315,12 -1.6075,4.12498 -4.1159,9.74178 -5.5742,12.48178 -3.0883,5.8028 -3.024,9.5967 0.1867,11.0053 2.883,1.2649 2.7987,2.7728 -0.5321,9.5129 -2.3166,4.6881 -3.5298,5.9042 -8.2179,8.2377 -5.7756,2.8749 -9.5,3.2148 -9.5,0.8671 0,-0.8034 2.0148,-1.9827 4.75,-2.7803 6.025,-1.7568 6.6939,-4.6135 1,-4.2707 -7.3991,0.4455 -9.4154,0.03 -9.9602,-2.0538 -0.7351,-2.8107 -3.7457,-2.4896 -5.1293,0.5471 -1.5089,3.3118 -1.3592,14.9767 0.2497,19.4529 1.4863,4.1353 5.0311,5.3357 6.0719,2.0563 0.517,-1.6287 1.2157,-1.9376 3.3359,-1.4747 5.5846,1.2191 5.4961,1.0888 4.7944,7.059 -0.43,3.6588 -0.2611,6.0777 0.4872,6.9794 0.8796,1.0599 0.8269,1.371 -0.2271,1.341 -0.7549,-0.021 -2.8492,-2.0464 -4.6542,-4.5 -1.956,-2.6589 -4.0768,-4.461 -5.25,-4.461 -2.3227,0 -2.5473,1.2746 -0.5209,2.9563 0.796,0.6607 2.2028,3.1793 3.1261,5.5969 1.5837,4.1469 1.5784,4.607 -0.094,8.1315 -1.5855,3.3412 -1.6253,4.1627 -0.3761,7.7756 1.1351,3.2832 1.9283,4.1006 4.2351,4.3647 3.512,0.402 6.3176,-1.9822 7.2321,-6.1459 0.3761,-1.7124 1.174,-3.8984 1.7732,-4.8578 0.85,-1.3611 0.635,-2.3588 -0.9785,-4.5412 -1.6481,-2.2291 -2.0113,-4.0082 -1.7893,-8.7642 0.1546,-3.3125 0.7816,-6.135 1.4092,-6.3442 1.857,-0.6191 4.6894,2.6442 7.0422,8.1134 3.8613,8.9759 1.3756,21.2429 -5.8873,29.0542 -6.131,6.5938 -13.7932,7.5349 -21.5088,2.6418 z M 1310,1021.4045 c 0,-3.3821 -0.4008,-4.0059 -3.5339,-5.5 -4.0375,-1.9253 -5.4661,-2.1079 -5.4661,-0.6986 0,0.5426 1.6244,1.6653 3.6097,2.4948 3.0862,1.2895 3.5215,1.8596 3.0017,3.9307 -0.5307,2.1145 -0.1144,2.7975 2.1386,3.509 0.1375,0.043 0.25,-1.6377 0.25,-3.7359 z m 171.3477,-20.9352 c 3.6726,-7.21928 2.4252,-9.83045 -2.2956,-4.80534 -1.692,1.80098 -2.1278,3.11744 -1.6553,5.00004 0.8306,3.3092 2.2028,3.2416 3.9509,-0.1947 z m -157.5329,-5.49998 c 0.2634,-1.38915 -0.3706,-1.75 -3.0748,-1.75 -4.0601,0 -5.1365,0.81735 -3.5669,2.70855 1.5794,1.90313 6.2261,1.2325 6.6417,-0.95855 z m 256.2438,-47.79166 c 3.5374,-2.51887 3.3955,-4.32705 -0.3747,-4.77371 -6.3528,-0.75263 -6.4495,-7.91968 -0.2111,-15.64437 6.8472,-8.47855 6.7654,-10.99481 -0.3577,-10.99481 -12.8309,0 -21.107,21.82864 -11.9803,31.59883 2.489,2.66449 3.4065,3.02957 6.3951,2.54459 1.919,-0.31142 4.8569,-1.54016 6.5287,-2.73053 z m 321.4766,-1.01518 c 1.1934,-1.93098 -0.4816,-6.10012 -2.3094,-5.74812 -3.0289,0.58331 -2.8608,6.80496 0.1839,6.80496 0.8098,0 1.7662,-0.47558 2.1255,-1.05684 z m -14.2063,-10.8843 c 17.7932,-6.67512 20.1261,-7.69715 21.5869,-9.45728 2.8358,-3.41694 -0.5745,-4.38977 -8.6514,-2.46794 -5.3154,1.26477 -6.4157,1.66184 -14.2643,5.14786 -3.025,1.34357 -8.425,2.99717 -12,3.67467 -6.7774,1.28438 -9,2.41225 -9,4.56694 0,1.04407 4.6047,2.90918 8.3288,3.37354 0.4559,0.0568 6.7559,-2.12016 14,-4.83779 z m -339.7082,-8.80819 c 1.7601,-6.90503 4.6535,-12.44149 9.039,-17.29573 4.4606,-4.93734 3.342,-5.03797 -8.8145,-0.79292 -8.8648,3.09557 -9.0965,3.25843 -11.0236,7.75 -3.9859,9.29028 -3.4945,11.99146 2.6781,14.72144 5.1242,2.26631 6.6338,1.45159 8.121,-4.38279 z m 402.3794,-1.75067 c 0,-0.825 -0.4234,-1.5 -0.941,-1.5 -1.261,0 -2.1641,1.56159 -1.3651,2.36052 1.1261,1.12618 2.3061,0.68589 2.3061,-0.86052 z m -30.1362,-2.38263 c 1.9999,-1.03544 5.6612,-2.70001 8.1362,-3.69904 2.475,-0.99902 6.3,-3.08235 8.5,-4.62961 9.4669,-6.65807 14.6434,-9.78485 17.2329,-10.40932 3.9264,-0.94683 14.2671,-6.23546 14.2671,-7.29671 0,-0.95993 -13.0345,4.24211 -16.791,6.70126 -1.8181,1.19021 -2.8074,1.26443 -4.7932,0.35964 -2.038,-0.92858 -3.19,-0.79163 -6.209,0.73813 -6.814,3.4527 -17.6845,7.48463 -19.7068,7.30936 -5.132,-0.44478 -8.797,5.14694 -7.0276,10.72198 0.8155,2.56934 1.765,2.59969 6.3914,0.20431 z m -41.3227,-9.1839 c 0.9448,-1.5288 0.1369,-2.02083 -3.9403,-2.39977 -4.0622,-0.37754 -5.232,2.01303 -1.3508,2.76057 3.9865,0.76783 4.6202,0.72462 5.2911,-0.3608 z m 29.6422,-2.15014 c -0.7176,-0.71756 -1.1833,-0.7766 -1.1833,-0.15 0,1.33478 1.1826,2.51739 1.85,1.85 0.2841,-0.28416 -0.016,-1.04916 -0.6667,-1.7 z m -20.1833,0.21667 c 0,-0.55 -0.675,-1 -1.5,-1 -0.825,0 -1.5,0.45 -1.5,1 0,0.55 0.675,1 1.5,1 0.825,0 1.5,-0.45 1.5,-1 z m 36.5,-10.458 c 7.7417,-2.97425 13.5,-6.21989 13.5,-7.60916 0,-0.49723 2.5875,-2.22413 5.75,-3.83757 3.1625,-1.61344 6.65,-3.6306 7.75,-4.48259 1.9078,-1.47769 1.8228,-1.55054 -1.8462,-1.58088 -2.5469,-0.0211 -9.0298,2.16394 -19.1911,6.4682 -8.4398,3.575 -16.219,6.5 -17.2872,6.5 -1.1336,0 -2.1715,-0.87652 -2.4928,-2.10536 -0.7718,-2.95131 -3.1154,-1.82997 -3.5164,1.68248 -0.1835,1.60758 -1.0256,3.69362 -1.8713,4.63563 -0.8457,0.94202 -1.3097,2.30658 -1.0312,3.03236 0.7683,2.00211 11.8377,0.52348 20.2362,-2.70311 z m 55.3764,-8.64148 c 2.0598,-1.91902 2.119,-2.24811 0.6886,-3.82874 -0.8608,-0.95109 -1.565,-2.25633 -1.565,-2.90052 0,-1.83945 -1.8231,-1.37027 -2.9648,0.763 -1.4904,2.78473 -1.3095,8.06574 0.2762,8.06574 0.7213,0 2.3256,-0.94476 3.565,-2.09948 z m -165.8764,-6.48385 c 0,-1.76593 -2.1528,-1.45839 -2.7709,0.39583 -0.2177,0.65313 0.3167,1.1875 1.1875,1.1875 0.8709,0 1.5834,-0.7125 1.5834,-1.58333 z m 11.4182,-1.02366 c 2.7865,-1.06929 1.8152,-3.39301 -1.4182,-3.39301 -1.8334,0 -3,0.51852 -3,1.33333 0,2.46677 1.5158,3.17342 4.4182,2.05968 z m 134.0818,-5.39301 c 0.3399,-0.55 0.168,-1 -0.382,-1 -0.55,0 -1.2781,0.45 -1.618,1 -0.3399,0.55 -0.168,1 0.382,1 0.55,0 1.2781,-0.45 1.618,-1 z m 819.0793,181.12848 c -0.6192,-1.0019 0.5204,-1.9851 7.7455,-6.6829 l 3.8249,-2.487 8.4982,1.4834 c 7.4354,1.2978 8.9581,1.3022 12.1751,0.035 5.5461,-2.1839 27.2605,-7.4722 30.6769,-7.471 l 3,10e-4 -3,1.813 c -3.9047,2.3597 -17.5467,8.0042 -23.9186,9.8964 -9.7897,2.9072 -37.7995,5.3573 -39.002,3.4116 z m 13.8779,-5.0594 c 0.3164,-0.512 0.096,-1.2269 -0.4889,-1.5886 -1.4799,-0.9147 -4.232,0.2839 -3.4728,1.5125 0.7816,1.2646 3.1985,1.3111 3.9617,0.076 z m -901.413,-3.584 c -10.5793,-4.7804 -13.8735,-10.3439 -15.1889,-25.6521 -0.788,-9.1698 -1.4602,-11.9321 -4.3928,-18.0515 -1.9044,-3.9738 -3.4625,-7.9406 -3.4625,-8.81521 0,-2.45618 5.8308,-6.19288 10.4815,-6.71708 3.9884,-0.44955 4.2645,-0.30409 5.8785,3.09707 0.9314,1.96283 2.0458,3.78651 2.4763,4.05262 0.4306,0.26612 3.407,-0.83977 6.6142,-2.45752 9.2311,-4.65626 18.5301,-3.46753 25.7028,3.28572 10.4726,9.8603 9.3683,30.9978 -2.3148,44.304 -6.2478,7.1159 -18.2657,10.3558 -25.7943,6.954 z m 20.8606,-11.4173 c 9.1149,-6.4904 11.8278,-22.6109 5.0325,-29.9047 -3.2564,-3.4953 -10.4429,-3.0193 -15.3385,1.0161 -9.5395,7.8632 -11.4387,24.4994 -3.4545,30.2586 3.0834,2.224 9.6282,1.5724 13.7605,-1.37 z m -11.2382,-3.7345 c -2.3812,-2.3811 0.9182,-3.1145 3.8922,-0.8651 1.869,1.4136 1.8451,1.4694 -0.6422,1.5 -1.4208,0.017 -2.8833,-0.2682 -3.25,-0.6349 z m 623.3334,-29.3333 c 0,-0.55 0.698,-1 1.551,-1 0.8531,0 2.2504,-1.6875 3.1051,-3.75 1.9193,-4.63127 1.7107,-4.4302 3.7752,-3.63798 2.0142,0.77292 1.4018,4.79068 -1.1642,7.63798 -1.6751,1.8588 -7.2671,2.4359 -7.2671,0.75 z m -44.7627,-13.5653 c 1.5055,-0.81688 3.0168,-2.59886 3.3584,-3.95996 0.6147,-2.44907 2.7624,-3.3224 3.8485,-1.56496 1.5359,2.48504 -3.8483,7.14578 -8.1445,7.0502 -1.3376,-0.0298 -1.0969,-0.42138 0.9376,-1.52528 z M 1197,960.18408 c 3.025,-1.16336 7.75,-2.97853 10.5,-4.0337 6.7989,-2.60873 10.5634,-3.22991 13.3259,-2.19887 2.0039,0.74795 1.3119,1.16128 -5,2.98638 -4.0293,1.16506 -10.0259,2.60844 -13.3259,3.20751 -3.3,0.59908 -7.125,1.32878 -8.5,1.62155 -1.375,0.29278 -0.025,-0.41952 3,-1.58287 z m 475.5591,-26.86914 c -0.9788,-1.58382 0.097,-2.87118 4.1249,-4.9378 2.7645,-1.41828 3.9167,-2.89799 5.1852,-6.65912 1.3933,-4.13128 2.1742,-5.02098 5.3609,-6.10793 3.4299,-1.1699 4.1139,-1.06053 8.5,1.35917 5.9612,3.28861 6.1574,3.59419 5.5389,8.62746 -0.7198,5.85704 -2.7269,7.57824 -8.7695,7.52014 -10.0754,-0.0969 -12.0705,-0.0162 -15.6313,0.63229 -2.2483,0.40944 -3.8899,0.24403 -4.3091,-0.43421 z m 644.2683,-22.32289 c 0.675,-0.675 3.0027,-1.22728 5.1727,-1.22728 2.17,0 4.4977,0.55228 5.1727,1.22728 0.9697,0.96969 -0.1159,1.22727 -5.1727,1.22727 -5.0568,0 -6.1424,-0.25758 -5.1727,-1.22727 z m -9.6507,-1.79213 c -5.422,-3.32897 -2.2382,-6.49139 3.9534,-3.92676 2.1624,0.89572 2.8898,1.80216 2.6709,3.32834 -0.4078,2.84289 -2.6401,3.04454 -6.6243,0.59842 z m 24.3421,1.04966 c -0.5378,-0.87021 5.4239,-4.03026 7.6034,-4.03026 2.182,0 0.5484,2.23971 -2.59,3.55103 -4.1094,1.71702 -4.2406,1.72957 -5.0134,0.47923 z m -17.2687,-7.71959 c 0.9625,-0.25152 2.5375,-0.25152 3.5,0 0.9625,0.25153 0.175,0.45733 -1.75,0.45733 -1.925,0 -2.7125,-0.2058 -1.75,-0.45733 z m -111.25,-44.34205 c 0,-1.39093 2.6263,-2.31764 4.0589,-1.43223 0.8425,0.52073 0.7879,0.94597 -0.2021,1.5733 -1.8611,1.17921 -3.8568,1.10621 -3.8568,-0.14107 z m -648.9963,-36.21862 c 0.01,-3.46649 3.5059,-8.41012 6.4836,-9.15748 1.4728,-0.36963 9.0531,-3.29646 16.8452,-6.50408 22.7139,-9.35017 29.5637,-11.48195 32.2588,-10.03956 1.9522,1.0448 3.5824,0.68551 11.5902,-2.55445 18.1754,-7.35378 18.4517,-7.43262 20.1383,-5.746 1.2291,1.22911 2.1072,1.29835 4.756,0.37499 5.2764,-1.83939 4.4878,-0.61278 -2.7586,4.29051 -19.9188,13.47803 -28.4486,17.69794 -26.7322,13.22507 1.2657,-3.29843 -2.2339,-2.32732 -15.4228,4.27971 -7.6622,3.83842 -14.2,6.71016 -14.5285,6.38165 -0.3286,-0.3285 -0.3317,-1.65547 -0.01,-2.94882 0.3499,-1.39433 0.1453,-2.35154 -0.5028,-2.35154 -0.6011,0 -7.6829,2.925 -15.7373,6.5 -8.0545,3.575 -15.0364,6.5 -15.5155,6.5 -0.4791,0 -0.8694,-1.0125 -0.8673,-2.25 z m 509.9963,-16.83151 c -3.575,-0.98335 -20,-5.56636 -36.5,-10.18445 l -30,-8.39654 -7.9133,-19.91875 c -4.3524,-10.95531 -8.3121,-20.18407 -8.7995,-20.50835 -0.4874,-0.32428 -6.8264,1.86394 -14.0867,4.86272 -7.2603,2.99877 -17.4755,6.94002 -22.7005,8.75832 -5.225,1.81831 -11.4766,4.28404 -13.8924,5.4794 -4.2073,2.08184 -4.6075,2.10764 -9.5,0.61268 -2.8092,-0.8584 -8.4519,-2.38261 -12.5393,-3.38715 -4.0874,-1.00455 -7.5751,-2.25654 -7.7503,-2.78222 -0.1752,-0.52568 4.294,-2.44322 9.9317,-4.2612 11.5778,-3.73352 20.2121,-6.77569 43.3439,-15.27168 8.8515,-3.25102 27.3015,-9.67578 41,-14.27723 13.6985,-4.60145 28.5064,-9.72274 32.9064,-11.38064 4.4,-1.6579 13.1656,-4.89392 19.479,-7.19115 6.3135,-2.29723 12.1635,-4.75062 13,-5.45199 0.8366,-0.70137 3.3665,-1.80085 5.6222,-2.44329 2.2556,-0.64245 8.9502,-3.43807 14.8767,-6.2125 5.9265,-2.77442 10.9584,-4.86155 11.1819,-4.63805 0.4029,0.40293 -10.1632,6.88626 -16.4098,10.06901 l -3.25,1.65593 0,52.9153 c 0,29.10342 -0.3375,53.10081 -0.75,53.32753 -0.4125,0.22672 -3.675,-0.39234 -7.25,-1.3757 z m -36.5567,-55.141 c 2.9562,-4.22061 1.8462,-20.77477 -1.3933,-20.77805 -0.3025,-3e-4 -0.55,4.3872 -0.55,9.75 0,5.36281 -0.3856,10.53806 -0.857,11.50056 -1.2587,2.57032 0.9274,2.20145 2.8003,-0.47251 z m -14.7602,-0.96499 c -0.3192,-0.79773 -0.5562,-0.56078 -0.6042,0.60417 -0.043,1.05416 0.193,1.64479 0.5253,1.3125 0.3323,-0.33229 0.3678,-1.1948 0.079,-1.91667 z m 7.8347,-7.65285 c 0.024,-9.50032 -1.922,-8.85368 -2.3136,0.76894 -0.2281,5.60462 8e-4,7.16948 1,6.8356 0.898,-0.30008 1.3013,-2.63455 1.3136,-7.60454 z m -11.5178,2.11092 c 0,-1.23369 -0.2789,-1.284 -1.5,-0.27057 -0.825,0.68469 -1.5,1.62567 -1.5,2.09106 0,0.46539 0.675,0.58715 1.5,0.27057 0.825,-0.31659 1.5,-1.25756 1.5,-2.09106 z m 32.6458,-0.96519 c 1.8883,-4.51953 1.393,-16.69518 -0.7672,-18.85533 -1.2194,-1.21946 -1.4121,-0.003 -1.3966,8.81768 0.01,5.62775 -0.3676,11.01977 -0.839,11.98227 -0.5644,1.15256 -0.4616,1.75 0.301,1.75 0.6369,0 1.8527,-1.66258 2.7018,-3.69462 z m -6.6458,-7.44773 c 0,-5.1727 -0.3295,-6.91562 -1.25,-6.61198 -1.3036,0.43003 -2.3173,10.83354 -1.3111,13.45574 1.2441,3.24193 2.5611,-0.27749 2.5611,-6.84376 z m 13.4375,3.80902 c -0.034,-1.46667 -0.1469,-6.49167 -0.25,-11.16667 -0.1501,-6.80556 -0.4865,-8.5 -1.6875,-8.5 -1.2262,0 -1.4975,1.68838 -1.4863,9.25 0.01,5.0875 0.2898,10.2809 0.6273,11.54089 0.8199,3.061 2.8752,2.23476 2.7965,-1.12422 z m -38.4375,0.83333 c 0,-0.825 -0.4359,-1.5 -0.9686,-1.5 -0.5328,0 -0.7096,0.675 -0.393,1.5 0.3166,0.825 0.7524,1.5 0.9686,1.5 0.2161,0 0.393,-0.675 0.393,-1.5 z m -533.5494,47.42018 c -0.3448,-0.55787 3.7281,-9.88063 9.0507,-20.71725 5.3227,-10.83661 10.3534,-21.37097 11.1794,-23.40968 1.3843,-3.41664 1.749,-3.66051 4.6605,-3.11602 5.9668,1.11588 28.6337,6.96442 29.2048,7.53544 0.3142,0.3142 -2.0427,2.17388 -5.2374,4.13261 -7.3065,4.47967 -10.5553,9.07242 -10.1245,14.3127 0.3102,3.77298 0.4282,3.87661 6.5659,5.76725 6.8409,2.10726 8.0721,3.57449 3,3.57527 -1.7875,2.8e-4 -5.5809,0.88642 -8.4297,1.9692 -5.8867,2.23743 -31.1763,9.53336 -36.0316,10.39495 -1.7661,0.31341 -3.4933,0.1134 -3.8381,-0.44447 z m 51.2968,-2.17018 c -0.4557,-1.35871 0.738,-7.56881 1.6255,-8.45625 0.3013,-0.30129 2.2531,-0.88426 4.3374,-1.29549 2.0843,-0.41123 4.5191,-1.05495 5.4107,-1.43049 0.94,-0.39591 2.2739,-0.03 3.1747,0.87084 0.8545,0.85449 2.7125,1.99423 4.1289,2.53276 4.6818,1.78001 3.1497,3.62955 -5.7122,6.89562 -6.461,2.38123 -12.3285,2.78085 -12.965,0.88301 z m 28.863,-22.47288 c -0.8602,-0.86026 1.2509,-4.13253 3.4125,-5.28939 2.0522,-1.09832 5.9771,0.17588 5.9771,1.94046 0,1.34732 -8.3965,4.34204 -9.3896,3.34893 z m 625.9463,-13.49963 c -0.8562,-1.22237 -1.5567,-3.6463 -1.5567,-5.3865 0,-2.75545 0.3898,-3.2212 3.019,-3.60708 3.4653,-0.5086 4.7112,0.61703 5.5996,5.05892 1.1263,5.63182 -3.9083,8.43699 -7.0619,3.93466 z m -2.9665,-15.67777 c -1.2189,-1.34692 -4.176,-14.80155 -10.1549,-46.20383 -4.6394,-24.36696 -8.4353,-45.0205 -8.4353,-45.89677 0,-1.80232 6.9774,-8.99912 8.7248,-8.99912 1.3101,0 1.2644,-0.142 4.7026,14.60489 9.3745,40.20753 15.8204,82.94909 13.1591,87.2552 -1.1139,1.80226 -6.1068,1.32748 -7.9963,-0.76037 z m -236.1902,-12.49972 c -2.4043,-2.4043 -3.4,-4.30784 -3.4,-6.5 0,-3.70868 -1.4307,-3.94123 -6.9438,-1.12865 -3.1263,1.59491 -3.9648,1.70916 -4.3911,0.59833 -0.359,-0.93551 0.5437,-1.57386 2.8327,-2.00328 1.8477,-0.34664 4.3895,-1.46431 5.6484,-2.48371 1.8851,-1.52645 2.0689,-2.11861 1.0417,-3.35631 -1.9256,-2.3202 -0.3565,-9.50611 2.8624,-13.10866 2.1767,-2.43621 3.5426,-3.06735 6.5974,-3.04854 5.2813,0.0325 12.5801,4.67218 12.1572,7.728 -0.277,2.00156 0.1062,2.1934 4.1951,2.09969 4.0205,-0.0921 4.2336,0.009 2,0.94651 -1.375,0.5773 -2.6603,1.15897 -2.8561,1.29258 -0.1959,0.13362 -0.4484,3.15586 -0.5612,6.71609 -0.1579,4.98322 -0.7622,7.28622 -2.6256,10.0056 -4.5906,6.69959 -11.2042,7.59527 -16.5571,2.24235 z m 6.6343,-5.66418 c 0.895,-1.67221 1.6889,-1.93588 4.181,-1.38853 2.8888,0.63448 3.029,0.53173 2.3007,-1.68582 -0.9915,-3.01869 -0.988,-6.71309 0.01,-9.75882 0.7325,-2.23704 0.5965,-2.35003 -2.0345,-1.6897 -2.3381,0.58682 -3.2122,0.22779 -5.1192,-2.10265 l -2.2997,-2.8103 -0.036,3.22695 c -0.026,2.31448 -0.7429,3.69013 -2.536,4.86501 -1.375,0.90093 -2.5,1.96407 -2.5,2.36253 0,0.39847 1.125,1.23706 2.5,1.86356 2.0634,0.94014 2.5,1.8414 2.5,5.16051 0,4.37907 1.2922,5.21256 3.0343,1.95726 z m -281.5343,-5.95616 c -1.65,-0.48756 -8.7786,-1.30852 -15.8413,-1.82434 -7.0627,-0.51583 -13.2609,-1.35743 -13.7736,-1.87022 -0.5765,-0.57648 -0.1199,-1.66766 1.1962,-2.85873 1.8091,-1.63722 3.6514,-1.9247 12.2736,-1.91521 10.6664,0.0117 22.439,1.1225 24.3247,2.29509 0.6136,0.38156 1.2742,2.04375 1.468,3.69375 0.329,2.80152 0.1208,3.01211 -3.1476,3.18308 -1.925,0.10069 -4.85,-0.21585 -6.5,-0.70342 z m 301,-10.97966 c 0.3399,-0.55 0.8165,-1 1.059,-1 0.2426,0 0.441,0.45 0.441,1 0,0.55 -0.4766,1 -1.059,1 -0.5825,0 -0.7809,-0.45 -0.441,-1 z m 51.75,-9.66228 c -2.0317,-0.81982 -1.4284,-3.05665 1,-3.70743 3.7459,-1.00385 6.75,-0.70579 6.75,0.66971 0,2.95662 -4.0332,4.53748 -7.75,3.03772 z m 71.75,-0.76735 c 0,-0.275 0.9,-0.98167 2,-1.57037 1.1,-0.5887 2,-0.84537 2,-0.57037 0,0.275 -0.9,0.98167 -2,1.57037 -1.1,0.5887 -2,0.84537 -2,0.57037 z m -47.5474,-28.49364 c 1.1809,-1.91071 5.7128,-3.31135 6.8936,-2.13056 1.3723,1.37237 0.8313,1.7489 -3.7408,2.60306 -2.9159,0.54476 -3.7081,0.42603 -3.1528,-0.4725 z m -99.4526,-3.76934 c -3.8945,-0.65467 -17.1948,-4.23713 -20.25,-5.45437 -2.6526,-1.05687 -3.6255,-3.19388 -1.9309,-4.24124 0.4506,-0.27845 5.489,1.045 11.1965,2.94098 5.7075,1.89598 11.0764,3.44975 11.9309,3.45282 0.8544,0.003 3.2525,0.4774 5.3291,1.05407 6.8913,1.91374 2.0509,3.64742 -6.2756,2.24774 z m 202,-9.30739 c 0,-0.55 0.7016,-1 1.559,-1 0.8575,0 1.2809,0.45 0.941,1 -0.3399,0.55 -1.0415,1 -1.559,1 -0.5176,0 -0.941,-0.45 -0.941,-1 z m -205.5,-1.51753 c -0.55,-0.18679 -5.4878,-1.33155 -10.9729,-2.54392 -11.9107,-2.63259 -15.5271,-5.43784 -15.5271,-12.04431 0,-3.22825 0.7039,-4.59817 4.1161,-8.01032 3.9276,-3.92767 4.3428,-4.09428 9.0703,-3.64003 8.9958,0.86438 18.6046,10.19943 19.4695,18.91476 0.237,2.38774 0.074,4.8432 -0.3625,5.45657 -0.9073,1.27529 -4.3085,2.37155 -5.7934,1.86725 z m -831.1741,-9.20101 c 0.3478,-0.56273 1.9992,-1.29649 3.6697,-1.6306 2.011,-0.4022 3.3612,-1.45953 3.996,-3.12916 1.0411,-2.73816 1.7139,-2.9962 4.0083,-1.53724 2.451,1.55854 -2.5949,5.78895 -7.9032,6.6259 -2.9111,0.45899 -4.1888,0.34754 -3.7708,-0.3289 z m 839.5572,-36.03146 c 0.5244,-0.9625 1.929,-2.78537 3.1215,-4.05082 1.7164,-1.82155 2.4625,-2.05642 3.5817,-1.12756 2.3965,1.98893 1.5865,3.64207 -2.6065,5.3198 -5.0303,2.01272 -5.2659,2.00459 -4.0967,-0.14142 z m 228.1169,0.90499 c 0,-1.10623 2.8609,-3.57228 6,-5.172 l 2.5,-1.27401 -1.9762,2.39551 c -3.5904,4.35213 -6.5238,6.17341 -6.5238,4.0505 z m -7.7086,-14.86669 c -2.3637,-0.81557 -4.4694,-2.27366 -4.8034,-3.32608 -0.9553,-3.00976 1.6987,-10.20758 4.9819,-13.51148 1.6665,-1.6771 4.5806,-5.86021 6.4758,-9.2958 4.4744,-8.11165 12.2868,-16.67028 22.4229,-24.56471 10.4476,-8.13714 23.6737,-16.7473 25.158,-16.37778 0.6352,0.15815 4.109,3.65908 7.7196,7.77986 5.2364,5.97627 6.3753,7.84645 5.6282,9.24245 -0.5152,0.96257 -7.9027,8.68671 -16.4167,17.16476 -13.7008,13.64298 -17.1292,16.45717 -29.8297,24.48554 -7.8923,4.989 -14.9748,9.24743 -15.7388,9.46317 -0.7641,0.21574 -3.2831,-0.26123 -5.5978,-1.05993 z m -18.2914,-13.96647 c -2.3881,-1.04852 -5.0658,-1.35199 -8.4288,-0.95522 -5.0521,0.59606 -7.5712,-0.39848 -7.5712,-2.98905 0,-1.92512 10.6086,-1.83014 14.3643,0.1286 1.5754,0.82161 4.8113,1.49384 7.191,1.49384 2.3797,0 4.5856,0.41891 4.902,0.9309 1.4354,2.32252 -6.0638,3.31999 -10.4573,1.39093 z m -27,-2.32183 c 0,-2.24891 2.8394,-2.69149 6.0937,-0.94983 2.7535,1.47363 1.426,2.94983 -2.6527,2.94983 -2.7743,0 -3.441,-0.38749 -3.441,-2 z m -72.0546,-16.56583 c -1.0456,-1.25983 -1.0589,-2.23136 -0.068,-4.97127 1.7726,-4.90224 6.1879,-12.55069 7.546,-13.07185 1.4807,-0.56821 26.5767,11.30125 26.5767,12.56979 0,0.52169 -1.6875,1.24645 -3.75,1.61057 -2.0625,0.36413 -8.9035,1.73452 -15.2023,3.04532 -13.5642,2.82279 -13.4435,2.81625 -15.1023,0.81744 z m -10.8254,-11.00874 -2.0251,-2.57456 2.6609,-5.42544 c 2.6178,-5.33766 4.0168,-6.21741 7.6624,-4.81845 0.87,0.33384 1.5819,1.12134 1.5819,1.75 3e-4,2.36779 -5.4956,13.64301 -6.65,13.64301 -0.6627,0 -2.1163,-1.15855 -3.2301,-2.57456 z m 235.3733,-14.4362 c -0.4897,-0.79247 0.1117,-1.97179 1.6129,-3.16272 5.5773,-4.42458 10.8472,-7.82652 12.124,-7.82652 0.7534,0 1.8617,-0.49189 2.4629,-1.0931 0.7908,-0.7908 1.8065,-0.62563 3.6728,0.59721 2.0569,1.34772 4.0547,1.58104 9.8569,1.15119 4.0025,-0.29651 8.4022,-0.82365 9.7772,-1.17143 2.4097,-0.60947 2.4299,-0.57546 0.5589,0.94191 -1.0677,0.86582 -2.655,1.57422 -3.5275,1.57422 -0.8725,0 -2.474,0.6185 -3.5589,1.37444 -1.0849,0.75594 -6.2236,2.83165 -11.4194,4.61268 -10.6716,3.65807 -20.3237,5.00209 -21.5598,3.00212 z m -39.4933,-5.57225 c -2.475,-3.01725 -4.63,-6.06518 -4.789,-6.77317 -0.1589,-0.70799 0.9608,-1.8567 2.4883,-2.55267 2.6228,-1.19501 2.962,-1.05193 6.0972,2.57172 6.3596,7.35039 6.7081,8.12203 4.6803,10.36275 -0.9827,1.08591 -2.2795,1.95253 -2.8818,1.92583 -0.6022,-0.0267 -3.12,-2.51722 -5.595,-5.53446 z M 1756.9526,407.99515 c -3.8277,-5.28397 -3.6513,-5.44127 10.8206,-9.64923 16.5385,-4.80888 30.2619,-7.43165 32.8102,-6.27059 1.589,0.72401 2.5372,0.59489 3.6258,-0.49373 0.8107,-0.81075 4.044,-1.73934 7.1849,-2.06351 5.4669,-0.56423 5.8582,-0.44666 9.1584,2.75207 1.8962,1.83782 3.4476,3.87196 3.4476,4.52032 0,1.38537 -4.5153,2.42883 -10.51,2.42883 -3.4871,0 -4.5699,-0.47298 -5.9681,-2.6069 -1.2078,-1.84327 -2.02,-2.29508 -2.7727,-1.54238 -0.7527,0.75269 -0.6792,1.52874 0.2508,2.64928 1.9599,2.36163 0.1933,3.48184 -7.1256,4.51833 -3.5287,0.49972 -8.3756,1.60004 -10.7709,2.44513 -2.3952,0.8451 -5.1728,1.53654 -6.1724,1.53654 -0.9995,0 -5.8468,1.35 -10.7718,3 -4.9249,1.65 -9.2227,3 -9.5506,3 -0.3279,0 -1.9732,-1.90087 -3.6562,-4.22416 z"
             id="path3113"
             inkscape:connector-curvature="0" />
        </g>
      </g>
      <path
         style="stroke:#de411a;stroke-width:176.55786133;stroke-opacity:1"
         id="path8"
         d="M 655.75074,-339.88708 1392.2493,396.61145"
         inkscape:connector-curvature="0" />
    </g>
  </g>
</svg>
