<?xml version="1.0" encoding="UTF-8" standalone="no"?>
<!-- Created with Inkscape (http://www.inkscape.org/) -->

<svg
   xmlns:dc="http://purl.org/dc/elements/1.1/"
   xmlns:cc="http://creativecommons.org/ns#"
   xmlns:rdf="http://www.w3.org/1999/02/22-rdf-syntax-ns#"
   xmlns:svg="http://www.w3.org/2000/svg"
   xmlns="http://www.w3.org/2000/svg"
   xmlns:sodipodi="http://sodipodi.sourceforge.net/DTD/sodipodi-0.dtd"
   xmlns:inkscape="http://www.inkscape.org/namespaces/inkscape"
   id="svg3039"
   version="1.1"
   inkscape:version="0.48.4 r9939"
   width="2480.3149"
   height="602.36218"
   sodipodi:docname="rigaer_font.png">
  <metadata
     id="metadata3045">
    <rdf:RDF>
      <cc:Work
         rdf:about="">
        <dc:format>image/svg+xml</dc:format>
        <dc:type
           rdf:resource="http://purl.org/dc/dcmitype/StillImage" />
        <dc:title></dc:title>
      </cc:Work>
    </rdf:RDF>
  </metadata>
  <defs
     id="defs3043" />
  <sodipodi:namedview
     pagecolor="#ffffff"
     bordercolor="#666666"
     borderopacity="1"
     objecttolerance="10"
     gridtolerance="10"
     guidetolerance="10"
     inkscape:pageopacity="0"
     inkscape:pageshadow="2"
     inkscape:window-width="1440"
     inkscape:window-height="823"
     id="namedview3041"
     showgrid="false"
     units="cm"
     inkscape:zoom="0.11563255"
     inkscape:cx="1978.2952"
     inkscape:cy="297.51612"
     inkscape:window-x="0"
     inkscape:window-y="25"
     inkscape:window-maximized="1"
     inkscape:current-layer="svg3039" />
  <path
     inkscape:connector-curvature="0"
     id="path3120"
     d="m 709.29451,542.97087 c -23.38899,-3.91537 -40.86395,-19.47183 -45.3452,-40.36718 -4.22273,-19.68975 8.75757,-33.69312 25.15138,-27.13362 6.66491,2.66682 10.55215,8.40982 11.77042,17.38954 2.05591,15.15385 20.33226,22.24498 33.49383,12.99523 5.84297,-4.10628 6.83996,-9.21525 6.83996,-35.05081 0,-25.76992 -0.11308,-26.14329 -6.82384,-22.55178 -4.75097,2.54268 -16.21922,3.63165 -25.08213,2.38178 -10.48137,-1.4779 -23.06835,-7.14458 -30.21863,-13.6045 -6.38924,-5.77226 -12.84223,-17.57763 -14.84766,-27.16287 -2.04276,-9.76377 -2.02714,-144.6553 0.0188,-154.83838 3.30774,-16.47066 15.50032,-30.94641 30.92662,-36.7181 14.93285,-5.58717 27.67863,-6.3189 45.41329,-2.60737 5.42575,1.13566 7.90962,0.9907 13.07369,-0.76249 11.3359,-3.84861 22.20899,1.99529 24.84433,13.35303 1.65539,7.13445 1.55289,259.32095 -0.11008,270.82309 -3.33318,23.05472 -19.12009,38.88366 -43.22425,43.33949 -7.56948,1.39932 -19.21223,1.63092 -25.87967,0.51494 z m 23.3744,-127.90072 c 8.63397,-5.265 8.53599,-4.31761 8.53599,-82.5217 0,-76.4612 0.20648,-74.16306 -7.29359,-81.17112 -3.05845,-2.85772 -4.80132,-3.32391 -12.42513,-3.32391 -6.77714,0 -9.7193,0.6269 -12.48009,2.65912 -7.80246,5.74357 -7.68919,4.53571 -7.68919,81.99212 0,66.17837 0.16352,71.25828 2.42954,75.48345 1.33624,2.49166 4.46808,5.62336 6.95964,6.95968 6.00939,3.22302 16.61181,3.18551 21.96283,-0.0769 z m -188.97548,35.20664 c -9.08417,-3.95681 -9.64123,-5.46734 -26.32682,-71.37698 C 497.99902,302.39585 499.9447,308.5501 495.12585,308.5501 l -3.88569,0 -0.0319,61.49413 c -0.0169,33.82157 -0.58414,63.88717 -1.25931,66.8124 -0.77736,3.3676 -2.95306,6.90323 -5.93196,9.63944 -4.01401,3.68715 -5.69247,4.32117 -11.43789,4.32117 -9.04648,0 -14.21563,-2.90422 -17.31358,-9.72757 -2.43415,-5.36158 -2.52649,-11.16628 -2.55265,-160.46118 -0.0304,-173.05546 -0.7216,-160.58156 9.26902,-167.25732 3.25497,-2.17512 10.9999,-3.0113 34.56959,-2.66382 26.91965,0.397 30.70493,0.73436 37.71459,3.36161 15.41186,5.77675 27.41399,18.07081 32.45311,33.24229 1.71958,5.17724 2.20603,15.20467 2.65137,54.6541 0.34411,30.48284 0.0113,52.27551 -0.89927,59.04841 -2.53544,18.83969 -10.68951,31.73215 -24.71094,39.07082 -4.00581,2.09655 -7.52867,4.45076 -7.82857,5.23124 -0.29987,0.78068 7.18965,28.90162 16.64339,62.49122 18.7571,66.64475 19.3729,70.30902 12.98102,77.24188 -6.06297,6.576 -14.26486,8.53734 -21.86292,5.22787 z M 522.59216,271.47344 c 8.34794,-5.0906 8.53621,-6.46236 8.53392,-62.17936 -0.002,-55.98141 -0.13989,-56.93649 -8.93367,-62.01227 -4.62905,-2.6717 -21.56516,-4.57772 -27.48199,-3.09269 l -3.47026,0.87106 0,64.46006 0,64.46043 13.6284,0 c 10.98775,0 14.42189,-0.48888 17.7236,-2.50235 z m 326.47087,179.20053 c -21.61561,-3.66858 -37.6888,-20.49685 -41.4374,-43.38393 -1.64685,-10.05499 -1.61356,-50.67609 0.0499,-60.84623 1.74002,-10.63858 8.09243,-23.18224 14.81622,-29.25679 3.01061,-2.71989 9.43676,-6.80085 14.28031,-9.0688 7.34947,-3.44149 10.82674,-4.21241 21.01781,-4.65985 8.92651,-0.39193 13.9081,0.0413 18.51886,1.61311 3.46911,1.18198 6.79921,2.14905 7.40022,2.14905 0.601,0 1.0905,-10.6202 1.08777,-23.60042 -0.006,-26.23236 -1.00263,-29.94521 -9.17741,-34.17262 -5.14099,-2.65838 -15.13007,-2.63438 -20.78721,0.0506 -6.35053,3.01356 -8.77486,7.57027 -10.04277,18.87625 -1.23771,11.03689 -3.30892,15.13303 -9.58747,18.96139 -8.42276,5.13561 -20.43248,1.97428 -25.47732,-6.70652 -5.61007,-9.6535 -2.6908,-30.63886 6.09171,-43.79086 22.6197,-33.87314 85.15058,-30.32063 101.67646,5.77676 1.77517,3.8773 3.83828,10.35354 4.58469,14.39118 0.86017,4.6531 1.22178,39.25646 0.9875,94.49677 -0.36328,85.65958 -0.41665,87.21831 -3.11097,90.82613 -4.71334,6.3114 -9.01346,8.71043 -15.61342,8.71043 -5.61219,0 -14.22042,-3.44111 -14.22042,-5.6845 0,-2.5618 -4.69576,-1.97222 -11.5733,1.45334 -8.77106,4.36881 -18.78517,5.68205 -29.48372,3.86623 z m 26.43142,-35.42548 c 8.39512,-4.19385 9.30345,-7.99202 9.30016,-38.88873 -0.002,-24.99525 -0.22553,-27.62194 -2.68624,-31.65807 -3.13254,-5.13786 -9.62241,-8.22999 -17.27404,-8.22999 -6.28065,0 -11.23317,2.26626 -15.93186,7.29048 -3.28508,3.51237 -3.32884,3.86736 -3.73626,30.29831 -0.22674,14.70941 -0.0774,28.07876 0.33201,29.70968 0.97238,3.8743 7.09258,11.0967 10.60859,12.5189 4.73485,1.91559 14.52174,1.39033 19.38764,-1.04058 z m 124.31758,35.51193 c -4.38768,-0.5772 -11.56751,-2.3934 -15.95519,-4.03632 -10.84007,-4.05864 -22.89592,-16.01722 -27.37314,-27.15237 l -3.20767,-7.97758 -0.41758,-73.7927 c -0.29468,-52.0696 0.0358,-76.13172 1.12306,-81.73783 5.19243,-26.776 26.84529,-42.63851 57.79689,-42.34091 21.5934,0.20759 38.4619,8.26768 48.3766,23.11511 8.1591,12.2183 8.7962,16.64168 8.7962,61.07557 0,55.51748 2.7562,52.22188 -44.4786,53.1839 l -32.63817,0.66496 -0.36093,26.38876 c -0.33623,24.58176 -0.17552,26.689 2.34776,30.77164 3.40236,5.50522 9.91334,8.65473 17.89174,8.65473 11.8019,0 17.4966,-5.5401 19.3782,-18.85243 1.7374,-12.29163 6.7201,-17.93037 17.0712,-19.31863 3.894,-0.52226 6.5844,0.0525 10.4748,2.23944 7.421,4.17078 10.0667,9.30245 9.8878,19.17817 -0.4926,27.20525 -18.2671,46.00106 -47.2032,49.91587 -5.7203,0.77392 -11.1052,1.33125 -11.9664,1.23861 -0.8612,-0.0938 -5.1557,-0.64097 -9.54337,-1.21799 z m 30.94037,-161.23116 c 0.4032,-31.01335 -0.3385,-34.53792 -8.3033,-39.46049 -5.8122,-3.59227 -17.076,-3.62902 -22.90492,-0.075 -7.76835,4.73655 -8.37455,7.51064 -8.37455,38.32446 0,15.27143 0.41461,28.18077 0.92136,28.68747 0.50673,0.50669 9.33191,0.75611 19.61151,0.55395 l 18.6903,-0.36736 z m 310.7666,161.24429 c -22.436,-2.98805 -37.2794,-13.94036 -44.7288,-33.00377 -2.5377,-6.49386 -2.9466,-10.19245 -3.0348,-27.44922 -0.085,-16.70582 0.2803,-20.6435 2.2525,-24.25264 6.5062,-11.90645 23.7982,-12.59092 32.1012,-1.27068 2.3464,3.19902 2.8314,6.32059 3.4185,22.00513 0.7553,20.17506 1.8606,23.37521 9.7313,28.1742 5.1988,3.16996 15.4022,3.43343 20.9937,0.54177 2.1899,-1.13247 5.1496,-3.97444 6.5771,-6.31553 2.4229,-3.97387 2.5943,-6.9066 2.5785,-44.14472 -0.017,-38.82985 -0.096,-40.02533 -2.9866,-45.0683 -1.9997,-3.48818 -12.7421,-13.04642 -32.8858,-29.26073 -30.8882,-24.86286 -36.7261,-31.02949 -40.2023,-42.46655 -1.2127,-3.99001 -1.6789,-18.10139 -1.6758,-50.73386 0,-44.19217 0.073,-45.37809 3.0881,-52.8544 8.3981,-20.82653 25.9523,-32.53888 50.8211,-33.9082 32.2532,-1.77588 55.7858,14.76397 60.9795,42.8596 1.8225,9.85865 1.8621,30.3887 0.071,36.83718 -3.8886,14.00075 -23.7736,17.3331 -32.8015,5.49698 -3.4641,-4.54171 -3.7045,-5.77208 -4.3561,-22.29449 -0.7374,-18.69661 -1.918,-22.36144 -8.6181,-26.75163 -4.6268,-3.03156 -16.7266,-2.89541 -22.0811,0.24847 -8.8094,5.17255 -9.2136,7.36924 -9.2136,50.07939 0,30.52147 0.3839,39.04288 1.8878,41.90303 2.8221,5.36758 10.9376,12.53748 36.7953,32.5087 12.866,9.93704 25.8822,20.89554 28.9249,24.35222 9.335,10.60501 9.9304,14.09151 10.522,61.60721 0.5419,43.52983 -0.2768,54.20329 -4.9748,64.85181 -3.085,6.99249 -12.1925,16.95222 -19.2299,21.02943 -10.8369,6.27821 -28.9487,9.27788 -43.9533,7.2796 z m 319.9293,-0.0994 c -21.6156,-3.66858 -37.6888,-20.49686 -41.4374,-43.38412 -1.6468,-10.05481 -1.6135,-50.67609 0.05,-60.84623 1.74,-10.63839 8.0924,-23.18205 14.8162,-29.25661 3.0106,-2.72007 9.4368,-6.80103 14.2803,-9.06898 7.3495,-3.4413 10.8268,-4.21222 21.0178,-4.65966 8.9265,-0.39193 13.9081,0.0413 18.5189,1.61292 3.4691,1.18217 6.7992,2.14924 7.4002,2.14924 0.601,0 1.0905,-10.6202 1.0878,-23.60042 -0.01,-26.23255 -1.0027,-29.94521 -9.1774,-34.17262 -5.141,-2.65857 -15.1301,-2.63457 -20.7872,0.0506 -6.3506,3.01355 -8.7749,7.57026 -10.0428,18.87625 -1.2377,11.0367 -3.3089,15.13303 -9.5875,18.9612 -8.4227,5.1358 -20.4325,1.97447 -25.4773,-6.70633 -5.6101,-9.6535 -2.6908,-30.63886 6.0917,-43.79086 22.6197,-33.87333 85.1506,-30.32064 101.6765,5.77657 1.7751,3.87749 3.8383,10.35354 4.5847,14.39136 0.8601,4.65292 1.2217,39.25628 0.9875,94.49659 -0.3633,85.65977 -0.4167,87.21849 -3.111,90.82632 -4.7133,6.3114 -9.0135,8.71024 -15.6134,8.71024 -5.6122,0 -14.2204,-3.44093 -14.2204,-5.68431 0,-2.56199 -4.6958,-1.97222 -11.5733,1.45352 -8.7711,4.36862 -18.7852,5.68168 -29.4838,3.86605 z m 26.4314,-35.42567 c 8.3952,-4.19385 9.3035,-7.99202 9.3002,-38.88873 0,-24.99525 -0.2255,-27.62194 -2.6862,-31.65789 -3.1326,-5.13804 -9.6225,-8.22998 -17.2741,-8.22998 -6.2806,0 -11.2332,2.26626 -15.9318,7.29029 -3.2851,3.51256 -3.3289,3.86736 -3.7363,30.29831 -0.2267,14.70941 -0.077,28.07876 0.332,29.70986 0.9724,3.87412 7.0926,11.09652 10.6086,12.51891 4.7348,1.9154 14.5217,1.39014 19.3876,-1.04077 z m 150.2659,35.51662 c -2.6701,-0.61602 -6.4718,-3.076 -8.9748,-5.80714 -3.7187,-4.05789 -4.3423,-5.71413 -4.3423,-11.53308 0,-9.19275 3.0318,-13.87191 11.6203,-17.93505 l 6.9941,-3.30873 0,-76.44601 0,-76.44583 -3.6564,-1.32413 c -10.886,-3.94219 -14.948,-8.98422 -14.948,-18.55408 0,-9.86522 4.8908,-15.61629 16.2776,-19.14048 2.127,-0.65822 2.3267,-3.32203 2.3247,-31.01017 0,-26.19129 -0.3166,-30.91378 -2.3268,-34.89853 -3.0884,-6.12219 -9.4737,-9.65913 -17.4376,-9.65913 -7.8647,0 -14.1101,3.09532 -17.5161,8.68136 -2.5292,4.14791 -2.5964,7.75236 -2.6321,141.20537 -0.021,78.8398 -0.5577,139.2054 -1.2643,142.26715 -0.7773,3.36779 -2.9531,6.90323 -5.932,9.63962 -4.014,3.68715 -5.6925,4.32118 -11.4379,4.32118 -9.0465,0 -14.2156,-2.90441 -17.3135,-9.72776 -2.4284,-5.34864 -2.5267,-10.86849 -2.5547,-143.44313 -0.02,-95.91635 0.4193,-140.02488 1.4448,-144.92646 5.7484,-27.4751 29.2157,-43.6067 61.0162,-41.94278 26.5071,1.38695 44.564,14.30378 51.5718,36.89137 1.8932,6.10212 2.2696,13.05449 2.2734,41.99511 l 0,34.68232 -4.3212,6.95612 c -2.3767,3.82573 -4.3212,7.49694 -4.3212,8.15835 0,0.66122 1.9445,3.96131 4.3212,7.33323 l 4.3212,6.13081 0,83.98834 c 0,79.41963 -0.1379,84.34577 -2.534,90.55834 -6.2173,16.12074 -25.0293,26.89865 -40.6569,23.29382 z m 120.3077,0 c -4.3877,-0.57721 -11.5675,-2.39359 -15.9552,-4.03632 -10.8401,-4.05883 -22.896,-16.01741 -27.3732,-27.15237 l -3.2076,-7.97776 -0.4177,-73.79271 c -0.2946,-52.0696 0.036,-76.13172 1.1232,-81.73764 5.1923,-26.77619 26.8452,-42.6387 57.7969,-42.3411 21.5933,0.20759 38.4618,8.26768 48.3766,23.11511 8.1591,12.2183 8.7962,16.64168 8.7962,61.07558 0,55.51747 2.7561,52.22187 -44.4786,53.18407 l -32.6382,0.66479 -0.361,26.38876 c -0.3361,24.58175 -0.1754,26.68917 2.3478,30.77163 3.4023,5.50522 9.9134,8.65473 17.8918,8.65473 11.8019,0 17.4966,-5.53991 19.3782,-18.85225 1.7374,-12.29162 6.7201,-17.93036 17.0712,-19.31881 3.8941,-0.52226 6.5844,0.0525 10.4748,2.23944 7.421,4.17079 10.0666,9.30227 9.8878,19.17836 -0.4926,27.20525 -18.2671,46.00106 -47.2033,49.91586 -5.7203,0.77374 -11.1052,1.33107 -11.9664,1.23843 -0.8612,-0.0938 -5.1557,-0.64078 -9.5433,-1.2178 z m 30.9404,-161.23135 c 0.4032,-31.01335 -0.3385,-34.53792 -8.3033,-39.46049 -5.8123,-3.59208 -17.076,-3.62883 -22.9051,-0.075 -7.7683,4.73674 -8.3744,7.51083 -8.3744,38.32465 0,15.27124 0.4145,28.18058 0.9213,28.68728 0.5068,0.5067 9.332,0.75611 19.6115,0.55395 l 18.6904,-0.36774 0.3596,-27.66338 z M 603.46005,448.29538 c -8.73486,-5.3265 -8.51112,-2.25444 -8.51112,-116.8569 0,-98.29419 0.1217,-103.59782 2.47717,-108.00301 3.24266,-6.06461 9.65519,-9.72964 17.02279,-9.72964 6.33381,0 10.94881,2.63344 15.65228,8.93209 2.70312,3.61983 2.74698,5.06472 3.1458,103.62651 0.22242,54.97552 0.0131,103.22653 -0.46408,107.22422 -0.72286,6.04942 -1.71211,8.11203 -5.89882,12.29875 -4.57323,4.57322 -5.67876,5.02984 -12.16713,5.02534 -4.65045,0 -8.57218,-0.88025 -11.25689,-2.51736 z m 503.91825,0 c -8.7349,-5.3265 -8.5112,-2.25444 -8.5112,-116.8569 0,-98.29419 0.1218,-103.59782 2.4772,-108.00301 4.7672,-8.91577 16.9525,-12.39908 26.3346,-7.52807 3.675,1.90808 4.8657,1.95965 9.3072,0.40393 19.4085,-6.79878 41.9478,-0.97383 56.0846,14.49413 7.8973,8.64085 12.2323,18.99214 13.0701,31.20913 0.7496,10.9315 -2.1493,16.21994 -11.0493,20.15687 -7.6389,3.37905 -13.4786,2.47554 -19.7844,-3.06099 -4.5182,-3.96713 -6.3214,-8.23524 -8.0095,-18.95802 -1.2114,-7.69497 -6.8438,-12.76344 -14.1835,-12.76344 -3.2007,0 -7.1739,0.96951 -8.8852,2.16799 -6.8083,4.76881 -6.801,4.66548 -6.8351,96.51194 -0.017,47.38894 -0.5786,87.83921 -1.2593,90.78788 -0.7774,3.36779 -2.9531,6.90342 -5.932,9.63962 -4.0656,3.73441 -5.6547,4.32062 -11.7042,4.3163 -4.5162,0 -8.4619,-0.89637 -11.12,-2.51736 z m 336.3886,0 c -8.6497,-5.27456 -8.5111,-3.57163 -8.5111,-104.55421 l 0,-91.06728 -7.03,-3.10901 c -11.4578,-5.06735 -15.3105,-14.32423 -10.4937,-25.21334 2.6642,-6.02317 6.3998,-8.91633 13.8016,-10.68959 l 3.5908,-0.86037 0.398,-44.92653 c 0.3603,-40.65729 0.6261,-45.2742 2.7971,-48.58498 8.1242,-12.38913 26.536,-11.3823 33.1657,1.81338 2.0693,4.11865 2.325,9.33489 2.3268,47.4677 l 0,42.84067 6.9941,3.30872 c 8.21,3.88405 12.0667,9.41591 12.0566,17.29353 -0.011,8.60972 -3.5209,13.79165 -11.8312,17.46699 l -7.2201,3.19283 0,91.81195 c 0,87.67024 -0.1142,92.03474 -2.5327,96.74523 -1.3929,2.71313 -4.3273,5.98003 -6.5207,7.25972 -5.3549,3.12438 -15.7078,3.0278 -20.9939,-0.19541 z m 70.4688,0 c -8.7349,-5.3265 -8.5111,-2.25444 -8.5111,-116.8569 0,-98.29419 0.1217,-103.59782 2.4772,-108.00301 4.7672,-8.91577 16.9525,-12.39908 26.3345,-7.52807 3.6751,1.90808 4.8657,1.95965 9.3072,0.40393 19.4086,-6.79878 41.9478,-0.97383 56.0847,14.49413 7.8972,8.64085 12.2323,18.99214 13.07,31.20913 0.7496,10.9315 -2.1493,16.21994 -11.0492,20.15687 -7.639,3.37905 -13.4786,2.47554 -19.7844,-3.06099 -4.5182,-3.96713 -6.3215,-8.23524 -8.0096,-18.95802 -1.2114,-7.69497 -6.8438,-12.76344 -14.1835,-12.76344 -3.2007,0 -7.1739,0.96951 -8.8851,2.16799 -6.8084,4.76881 -6.801,4.66548 -6.8351,96.51194 -0.017,47.38894 -0.5787,87.83921 -1.2594,90.78788 -0.7773,3.36779 -2.953,6.90342 -5.9319,9.63962 -4.0657,3.73441 -5.6548,4.32062 -11.7043,4.3163 -4.5162,0 -8.4618,-0.89637 -11.12,-2.51736 z M 609.45961,147.67486 c -6.14146,-1.7665 -10.25186,-5.37095 -12.48252,-10.94593 -5.47149,-13.67464 4.56832,-27.5396 18.78179,-25.93756 10.73324,1.20992 16.64045,8.05257 16.64045,19.27548 0,11.73993 -11.81439,20.80834 -22.93972,17.60801 z"
     style="fill:#000000"
     sodipodi:nodetypes="sssssssssssssssssscssssscscccsscssssssssssscscsscccsssccccccssssssssssssssssssssssscsssssccccsscsssssscssssscscccsssssscssssscsscsssssssssssssssssssssssssssssssssssssssscsscscssssscccccsccccsssccsssscssssssccssscssccccscscsssscscssscsccccsssccccccssssscccccssssssssssssssccsscssscsssccscccsssscssssssssssssssccsssss" />
</svg>
