<?xml version="1.0" encoding="UTF-8" standalone="no"?>
<!-- Created with Inkscape (http://www.inkscape.org/) -->

<svg
   xmlns:dc="http://purl.org/dc/elements/1.1/"
   xmlns:cc="http://creativecommons.org/ns#"
   xmlns:rdf="http://www.w3.org/1999/02/22-rdf-syntax-ns#"
   xmlns:svg="http://www.w3.org/2000/svg"
   xmlns="http://www.w3.org/2000/svg"
   xmlns:xlink="http://www.w3.org/1999/xlink"
   xmlns:sodipodi="http://sodipodi.sourceforge.net/DTD/sodipodi-0.dtd"
   xmlns:inkscape="http://www.inkscape.org/namespaces/inkscape"
   width="2104.72"
   height="2979.9199"
   id="svg3324"
   version="1.1"
   inkscape:version="0.48.4 r9939"
   sodipodi:docname="6_S端nde.svg"
   inkscape:export-filename="/home/ku3i/piraten/Gestaltung/pirat*n_xhain/Plakate/6_S端nde.png"
   inkscape:export-xdpi="21.889999"
   inkscape:export-ydpi="21.889999">
  <defs
     id="defs3326">
    <color-profile
       name="ISO-Coated-v2-300---ECI-"
       xlink:href="/home/ku3i/.local/share/color/icc/ISOcoated_v2_300_eci.icc"
       id="color-profile3032" />
  </defs>
  <sodipodi:namedview
     id="base"
     pagecolor="#ffffff"
     bordercolor="#666666"
     borderopacity="1.0"
     inkscape:pageopacity="0.0"
     inkscape:pageshadow="2"
     inkscape:zoom="0.12374369"
     inkscape:cx="948.31135"
     inkscape:cy="1199.2045"
     inkscape:document-units="px"
     inkscape:current-layer="layer1"
     showgrid="true"
     width="2104.72px"
     inkscape:window-width="1440"
     inkscape:window-height="823"
     inkscape:window-x="0"
     inkscape:window-y="25"
     inkscape:window-maximized="1"
     showguides="true"
     inkscape:guide-bbox="true" />
  <metadata
     id="metadata3329">
    <rdf:RDF>
      <cc:Work
         rdf:about="">
        <dc:format>image/svg+xml</dc:format>
        <dc:type
           rdf:resource="http://purl.org/dc/dcmitype/StillImage" />
        <dc:title></dc:title>
      </cc:Work>
    </rdf:RDF>
  </metadata>
  <g
     inkscape:label="Ebene 1"
     inkscape:groupmode="layer"
     id="layer1"
     transform="translate(0,1927.5581)">
    <rect
       style="fill:#e58400;fill-opacity:1;stroke:none"
       id="rect3332"
       width="2104.72"
       height="2979.9199"
       x="0"
       y="-1927.5581" />
    <g
       transform="translate(2.9802322e-7,-3.1605339e-5)"
       id="g4453"
       style="fill:#ef8900;fill-opacity:1">
      <text
         sodipodi:linespacing="125%"
         id="text3038-5"
         y="478.41028"
         x="-44.34565"
         style="font-size:597.83154296999998678px;font-style:normal;font-variant:normal;font-weight:normal;font-stretch:normal;text-align:start;line-height:125%;letter-spacing:0px;word-spacing:0px;writing-mode:lr-tb;text-anchor:start;fill:#ef8900;fill-opacity:1;stroke:none;font-family:Politics Head;-inkscape-font-specification:Politics Head"
         xml:space="preserve"><tspan
           id="tspan4249-3"
           y="478.41028"
           x="-44.34565"
           sodipodi:role="line">PIRATEN</tspan></text>
      <text
         sodipodi:linespacing="125%"
         id="text3038"
         y="1052.3618"
         x="-17.406666"
         style="font-size:809.63861083999995572px;font-style:normal;font-variant:normal;font-weight:normal;font-stretch:normal;text-align:start;line-height:125%;letter-spacing:0px;word-spacing:0px;writing-mode:lr-tb;text-anchor:start;fill:#ef8900;fill-opacity:1;stroke:none;font-family:Politics Head;-inkscape-font-specification:Politics Head"
         xml:space="preserve"><tspan
           id="tspan4249"
           y="1052.3618"
           x="-17.406666"
           sodipodi:role="line">XHAIN</tspan></text>
      <text
         sodipodi:linespacing="125%"
         id="text3038-5-8"
         y="-535.56213"
         x="-44.34565"
         style="font-size:597.83154296999998678px;font-style:normal;font-variant:normal;font-weight:normal;font-stretch:normal;text-align:start;line-height:125%;letter-spacing:0px;word-spacing:0px;writing-mode:lr-tb;text-anchor:start;fill:#ef8900;fill-opacity:1;stroke:none;font-family:Politics Head;-inkscape-font-specification:Politics Head"
         xml:space="preserve"><tspan
           id="tspan4249-3-3"
           y="-535.56213"
           x="-44.34565"
           sodipodi:role="line">PIRATEN</tspan></text>
      <text
         sodipodi:linespacing="125%"
         id="text3038-0"
         y="38.389469"
         x="-17.406666"
         style="font-size:809.63861083999995572px;font-style:normal;font-variant:normal;font-weight:normal;font-stretch:normal;text-align:start;line-height:125%;letter-spacing:0px;word-spacing:0px;writing-mode:lr-tb;text-anchor:start;fill:#ef8900;fill-opacity:1;stroke:none;font-family:Politics Head;-inkscape-font-specification:Politics Head"
         xml:space="preserve"><tspan
           id="tspan4249-9"
           y="38.389469"
           x="-17.406666"
           sodipodi:role="line">XHAIN</tspan></text>
      <text
         sodipodi:linespacing="125%"
         id="text3038-0-4"
         y="-975.58289"
         x="-17.406666"
         style="font-size:809.63861083999995572px;font-style:normal;font-variant:normal;font-weight:normal;font-stretch:normal;text-align:start;line-height:125%;letter-spacing:0px;word-spacing:0px;writing-mode:lr-tb;text-anchor:start;fill:#ef8900;fill-opacity:1;stroke:none;font-family:Politics Head;-inkscape-font-specification:Politics Head"
         xml:space="preserve"><tspan
           id="tspan4249-9-5"
           y="-975.58289"
           x="-17.406666"
           sodipodi:role="line">XHAIN</tspan></text>
      <text
         sodipodi:linespacing="125%"
         id="text3038-5-8-7"
         y="-1549.5347"
         x="-44.34565"
         style="font-size:597.83154296999998678px;font-style:normal;font-variant:normal;font-weight:normal;font-stretch:normal;text-align:start;line-height:125%;letter-spacing:0px;word-spacing:0px;writing-mode:lr-tb;text-anchor:start;fill:#ef8900;fill-opacity:1;stroke:none;font-family:Politics Head;-inkscape-font-specification:Politics Head"
         xml:space="preserve"><tspan
           id="tspan4249-3-3-5"
           y="-1549.5347"
           x="-44.34565"
           sodipodi:role="line">PIRATEN</tspan></text>
    </g>
    <flowRoot
       xml:space="preserve"
       id="flowRoot4167-6"
       style="font-size:72px;font-style:normal;font-variant:normal;font-weight:normal;font-stretch:normal;line-height:125%;letter-spacing:0px;word-spacing:0px;fill:#e58400;fill-opacity:1;stroke:#e58400;stroke-width:10;stroke-miterlimit:4;stroke-opacity:1;stroke-dasharray:none;font-family:Playfair Display;-inkscape-font-specification:Playfair Display"
       transform="translate(-23.407593,-1743.2283)"><flowRegion
         id="flowRegion4169-8"><rect
           id="rect4171-3"
           width="1624.3253"
           height="2109.1985"
           x="266.68027"
           y="393.92941"
           style="fill:#e58400;fill-opacity:1;stroke:#e58400;stroke-width:10;stroke-miterlimit:4;stroke-opacity:1;stroke-dasharray:none" /></flowRegion><flowPara
         style="font-size:180px;text-align:center;text-anchor:middle;fill:#e58400;fill-opacity:1;stroke:#e58400;stroke-width:10;stroke-miterlimit:4;stroke-opacity:1;stroke-dasharray:none"
         id="flowPara5099-4">Wer ohne S端nde ist,</flowPara><flowPara
         style="font-size:180px;text-align:center;text-anchor:middle;fill:#e58400;fill-opacity:1;stroke:#e58400;stroke-width:10;stroke-miterlimit:4;stroke-opacity:1;stroke-dasharray:none"
         id="flowPara3025-0" /><flowPara
         style="font-size:180px;text-align:center;text-anchor:middle;fill:#e58400;fill-opacity:1;stroke:#e58400;stroke-width:10;stroke-miterlimit:4;stroke-opacity:1;stroke-dasharray:none"
         id="flowPara3029-8">der ziehe</flowPara><flowPara
         style="font-size:180px;text-align:center;text-anchor:middle;fill:#e58400;fill-opacity:1;stroke:#e58400;stroke-width:10;stroke-miterlimit:4;stroke-opacity:1;stroke-dasharray:none"
         id="flowPara3033-7">die erste Line.</flowPara></flowRoot>    <flowRoot
       xml:space="preserve"
       id="flowRoot4167"
       style="font-size:72px;font-style:normal;font-variant:normal;font-weight:normal;font-stretch:normal;line-height:125%;letter-spacing:0px;word-spacing:0px;fill:#ffffff;fill-opacity:1;stroke:none;font-family:Playfair Display;-inkscape-font-specification:Playfair Display"
       transform="translate(-23.407593,-1743.2283)"><flowRegion
         id="flowRegion4169"><rect
           id="rect4171"
           width="1624.3253"
           height="2109.1985"
           x="266.68027"
           y="393.92941"
           style="fill:#ffffff;fill-opacity:1" /></flowRegion><flowPara
         style="font-size:180px;text-align:center;text-anchor:middle;fill:#ffffff;fill-opacity:1"
         id="flowPara5099">Wer ohne S端nde ist,</flowPara><flowPara
         style="font-size:180px;text-align:center;text-anchor:middle;fill:#ffffff;fill-opacity:1"
         id="flowPara3025" /><flowPara
         style="font-size:180px;text-align:center;text-anchor:middle;fill:#ffffff;fill-opacity:1"
         id="flowPara3029">der ziehe</flowPara><flowPara
         style="font-size:180px;text-align:center;text-anchor:middle;fill:#ffffff;fill-opacity:1"
         id="flowPara3033">die erste Line.</flowPara></flowRoot>    <g
       id="g3021">
      <g
         id="text3755"
         style="font-size:94.82155609px;font-style:normal;font-variant:normal;font-weight:normal;font-stretch:normal;text-align:start;line-height:125%;letter-spacing:0px;word-spacing:0px;writing-mode:lr-tb;text-anchor:start;fill:#ffffff;fill-opacity:1;stroke:none;font-family:Montserrat;-inkscape-font-specification:Montserrat">
        <path
           id="path3007"
           style="font-size:96px"
           d="m 869.20921,583.08766 13.728,0 0.672,-8.256 -13.344,0 2.112,-17.184 -8.16,0 -2.112,17.184 -16.992,0 2.112,-17.184 -8.16,0 -2.112,17.184 -13.632,0 -0.768,8.256 13.344,0 -2.016,16.896 -13.728,0 -0.768,8.256 13.44,0 -2.016,16.608 8.064,0 2.112,-16.608 16.992,0 -2.016,16.608 8.064,0 2.112,-16.608 13.632,0 0.768,-8.256 -13.44,0 2.112,-16.896 m -8.16,0 -2.016,16.896 -17.088,0 2.112,-16.896 16.992,0"
           inkscape:connector-curvature="0" />
        <path
           id="path3009"
           style="font-size:96px"
           d="m 895.18771,557.64766 0,67.2 11.328,0 0,-20.256 15.456,0 c 16.89599,0 26.592,-8.83202 26.592,-24 0,-14.59199 -9.69601,-22.944 -26.592,-22.944 l -26.784,0 m 11.328,10.176 14.976,0 c 10.36799,0 16.224,4.22401 16.224,13.056 0,9.11999 -5.85601,13.536 -16.224,13.536 l -14.976,0 0,-26.592"
           inkscape:connector-curvature="0" />
        <path
           id="path3011"
           style="font-size:96px"
           d="m 1002.4992,624.84766 12.864,0 -15.072,-22.464 c 8.928,-3.456 13.92,-11.04001 13.92,-21.792 0,-14.59199 -9.888,-22.944 -27.07199,-22.944 l -27.264,0 0,67.2 11.328,0 0,-20.256 15.936,0 c 1.056,0 2.112,0 3.072,-0.096 l 12.28799,20.352 m -31.29599,-30.432 0,-26.592 15.936,0 c 10.36799,0 16.31999,4.22401 16.31999,13.056 0,9.11999 -5.952,13.536 -16.31999,13.536 l -15.936,0"
           inkscape:connector-curvature="0" />
        <path
           id="path3013"
           style="font-size:96px"
           d="m 1075.1382,567.82366 0,-10.176 -53.856,0 0,10.176 21.216,0 0,57.024 11.328,0 0,-57.024 21.312,0"
           inkscape:connector-curvature="0" />
        <path
           id="path3015"
           style="font-size:96px"
           d="m 1115.8542,589.90366 22.56,-32.256 -13.248,0 -16.512,23.328 -16.416,-23.328 -13.152,0 22.752,32.736 -24.48,34.464 13.248,0 18.048,-25.344 18.144,25.344 13.536,0 -24.48,-34.944"
           inkscape:connector-curvature="0" />
        <path
           id="path3017"
           style="font-size:96px"
           d="m 1209.3972,624.84766 0,-67.2 -11.328,0 0,29.184 -35.616,0 0,-29.184 -11.328,0 0,67.2 11.328,0 0,-27.84 35.616,0 0,27.84 11.328,0"
           inkscape:connector-curvature="0" />
        <path
           id="path3019"
           style="font-size:96px"
           d="m 1285.3347,624.84766 0,-67.2 -11.136,0 0,48.288 -36,-48.288 -11.136,0 0,67.2 11.328,0 0,-48.192 35.808,48.192 11.136,0"
           inkscape:connector-curvature="0" />
      </g>
      <path
         id="rect3779"
         d="m 824.70477,505.18176 460.62993,0 0,28.34646 -460.62993,0 z"
         style="fill:#ffffff;fill-opacity:1;stroke:none"
         inkscape:connector-curvature="0" />
    </g>
    <g
       id="g4468"
       transform="matrix(1.3424928,0,0,1.3424928,1371.9467,-656.68106)"
       style="fill:#ffffff;fill-opacity:1;stroke:none">
      <g
         transform="matrix(0.43504939,0,0,0.43504939,-897.5762,-145.43687)"
         id="g4853"
         style="fill:#ffffff;fill-opacity:1;stroke:none" />
    </g>
  </g>
</svg>
