<?xml version="1.0" encoding="UTF-8" standalone="no"?>
<!-- Created with Inkscape (http://www.inkscape.org/) -->

<svg
   xmlns:dc="http://purl.org/dc/elements/1.1/"
   xmlns:cc="http://creativecommons.org/ns#"
   xmlns:rdf="http://www.w3.org/1999/02/22-rdf-syntax-ns#"
   xmlns:svg="http://www.w3.org/2000/svg"
   xmlns="http://www.w3.org/2000/svg"
   xmlns:xlink="http://www.w3.org/1999/xlink"
   xmlns:sodipodi="http://sodipodi.sourceforge.net/DTD/sodipodi-0.dtd"
   xmlns:inkscape="http://www.inkscape.org/namespaces/inkscape"
   width="2104.72"
   height="2979.9199"
   id="svg3324"
   version="1.1"
   inkscape:version="0.91 r"
   sodipodi:docname="3_Sincerely.svg"
   inkscape:export-filename="/home/ku3i/piraten/Gestaltung/pirat*n_xhain/prtxhn/posters/Serie_1/exprt/3_Sincerely.png"
   inkscape:export-xdpi="42.759998"
   inkscape:export-ydpi="42.759998">
  <defs
     id="defs3326">
    <color-profile
       name="ISO-Coated-v2-300---ECI-"
       xlink:href="/home/ku3i/.local/share/color/icc/ISOcoated_v2_300_eci.icc"
       id="color-profile3031" />
  </defs>
  <sodipodi:namedview
     id="base"
     pagecolor="#ffffff"
     bordercolor="#666666"
     borderopacity="1.0"
     inkscape:pageopacity="0.0"
     inkscape:pageshadow="2"
     inkscape:zoom="0.175"
     inkscape:cx="1620.27"
     inkscape:cy="1411.7999"
     inkscape:document-units="px"
     inkscape:current-layer="layer1"
     showgrid="true"
     width="2104.72px"
     inkscape:window-width="1440"
     inkscape:window-height="823"
     inkscape:window-x="0"
     inkscape:window-y="25"
     inkscape:window-maximized="1" />
  <metadata
     id="metadata3329">
    <rdf:RDF>
      <cc:Work
         rdf:about="">
        <dc:format>image/svg+xml</dc:format>
        <dc:type
           rdf:resource="http://purl.org/dc/dcmitype/StillImage" />
        <dc:title />
      </cc:Work>
    </rdf:RDF>
  </metadata>
  <g
     inkscape:label="Ebene 1"
     inkscape:groupmode="layer"
     id="layer1"
     transform="translate(0,1927.5581)">
    <rect
       style="fill:#5600d0;fill-opacity:1;stroke:none"
       id="rect3332"
       width="2104.72"
       height="2979.9199"
       x="0"
       y="-1927.5581" />
    <flowRoot
       xml:space="preserve"
       id="flowRoot4167"
       style="font-size:72px;font-style:normal;font-variant:normal;font-weight:normal;font-stretch:normal;line-height:125%;letter-spacing:0px;word-spacing:0px;fill:#000000;fill-opacity:1;stroke:none;font-family:Playfair Display;-inkscape-font-specification:Playfair Display"
       transform="translate(-25.692749,-1865.2283)"><flowRegion
         id="flowRegion4169"><rect
           id="rect4171"
           width="1624.3253"
           height="2109.1985"
           x="266.68027"
           y="393.92941" /></flowRegion><flowPara
         style="font-size:180px;text-align:center;text-anchor:middle;fill:#ffffff"
         id="flowPara4497"> Racist you are.</flowPara><flowPara
         style="font-size:180px;text-align:center;text-anchor:middle;fill:#ffffff"
         id="flowPara4548" /><flowPara
         style="font-size:180px;text-align:center;text-anchor:middle;fill:#ffffff"
         id="flowPara4540"> Off you can fuck.</flowPara><flowPara
         style="font-size:180px;text-align:center;text-anchor:middle;fill:#ffffff"
         id="flowPara4550" /><flowPara
         style="font-size:180px;text-align:center;text-anchor:middle;fill:#ffffff"
         id="flowPara4542"> Sincerely,</flowPara><flowPara
         style="font-size:180px;text-align:center;text-anchor:middle;fill:#ffffff"
         id="flowPara4544"> Friedrichshain-</flowPara><flowPara
         style="font-size:180px;text-align:center;text-anchor:middle;fill:#ffffff"
         id="flowPara4546">Kreuzberg</flowPara></flowRoot>    <g
       id="g3021">
      <path
         inkscape:connector-curvature="0"
         id="path3004"
         style="font-size:96px;font-style:normal;font-variant:normal;font-weight:normal;font-stretch:normal;text-align:start;line-height:125%;letter-spacing:0px;word-spacing:0px;writing-mode:lr-tb;text-anchor:start;fill:#ffffff;fill-opacity:1;stroke:none;font-family:Montserrat;-inkscape-font-specification:Montserrat"
         d="m 869.20924,583.08767 13.728,0 0.672,-8.256 -13.344,0 2.112,-17.184 -8.16,0 -2.112,17.184 -16.992,0 2.112,-17.184 -8.16,0 -2.112,17.184 -13.632,0 -0.768,8.256 13.344,0 -2.016,16.896 -13.728,0 -0.768,8.256 13.44,0 -2.016,16.608 8.064,0 2.112,-16.608 16.992,0 -2.016,16.608 8.064,0 2.112,-16.608 13.632,0 0.768,-8.256 -13.44,0 2.112,-16.896 m -8.16,0 -2.016,16.896 -17.088,0 2.112,-16.896 16.992,0" />
      <path
         inkscape:connector-curvature="0"
         id="path3006"
         style="font-size:96px;font-style:normal;font-variant:normal;font-weight:normal;font-stretch:normal;text-align:start;line-height:125%;letter-spacing:0px;word-spacing:0px;writing-mode:lr-tb;text-anchor:start;fill:#ffffff;fill-opacity:1;stroke:none;font-family:Montserrat;-inkscape-font-specification:Montserrat"
         d="m 895.18774,557.64767 0,67.2 11.328,0 0,-20.256 15.456,0 c 16.89598,0 26.592,-8.83201 26.592,-24 0,-14.59198 -9.69602,-22.944 -26.592,-22.944 l -26.784,0 m 11.328,10.176 14.976,0 c 10.36799,0 16.224,4.22401 16.224,13.056 0,9.11999 -5.85601,13.536 -16.224,13.536 l -14.976,0 0,-26.592" />
      <path
         inkscape:connector-curvature="0"
         id="path3008"
         style="font-size:96px;font-style:normal;font-variant:normal;font-weight:normal;font-stretch:normal;text-align:start;line-height:125%;letter-spacing:0px;word-spacing:0px;writing-mode:lr-tb;text-anchor:start;fill:#ffffff;fill-opacity:1;stroke:none;font-family:Montserrat;-inkscape-font-specification:Montserrat"
         d="m 1002.4992,624.84767 12.864,0 -15.072,-22.464 c 8.928,-3.45599 13.92,-11.04001 13.92,-21.792 0,-14.59198 -9.888,-22.944 -27.07196,-22.944 l -27.264,0 0,67.2 11.328,0 0,-20.256 15.936,0 c 1.056,0 2.112,0 3.072,-0.096 l 12.28796,20.352 m -31.29596,-30.432 0,-26.592 15.936,0 c 10.368,0 16.31996,4.22401 16.31996,13.056 0,9.11999 -5.95196,13.536 -16.31996,13.536 l -15.936,0" />
      <path
         inkscape:connector-curvature="0"
         id="path3010"
         style="font-size:96px;font-style:normal;font-variant:normal;font-weight:normal;font-stretch:normal;text-align:start;line-height:125%;letter-spacing:0px;word-spacing:0px;writing-mode:lr-tb;text-anchor:start;fill:#ffffff;fill-opacity:1;stroke:none;font-family:Montserrat;-inkscape-font-specification:Montserrat"
         d="m 1075.1382,567.82367 0,-10.176 -53.856,0 0,10.176 21.216,0 0,57.024 11.328,0 0,-57.024 21.312,0" />
      <path
         inkscape:connector-curvature="0"
         id="path3012"
         style="font-size:96px;font-style:normal;font-variant:normal;font-weight:normal;font-stretch:normal;text-align:start;line-height:125%;letter-spacing:0px;word-spacing:0px;writing-mode:lr-tb;text-anchor:start;fill:#ffffff;fill-opacity:1;stroke:none;font-family:Montserrat;-inkscape-font-specification:Montserrat"
         d="m 1115.8542,589.90367 22.56,-32.256 -13.248,0 -16.512,23.328 -16.416,-23.328 -13.152,0 22.752,32.736 -24.48,34.464 13.248,0 18.048,-25.344 18.144,25.344 13.536,0 -24.48,-34.944" />
      <path
         inkscape:connector-curvature="0"
         id="path3014"
         style="font-size:96px;font-style:normal;font-variant:normal;font-weight:normal;font-stretch:normal;text-align:start;line-height:125%;letter-spacing:0px;word-spacing:0px;writing-mode:lr-tb;text-anchor:start;fill:#ffffff;fill-opacity:1;stroke:none;font-family:Montserrat;-inkscape-font-specification:Montserrat"
         d="m 1209.3972,624.84767 0,-67.2 -11.328,0 0,29.184 -35.616,0 0,-29.184 -11.328,0 0,67.2 11.328,0 0,-27.84 35.616,0 0,27.84 11.328,0" />
      <path
         inkscape:connector-curvature="0"
         id="path3016"
         style="font-size:96px;font-style:normal;font-variant:normal;font-weight:normal;font-stretch:normal;text-align:start;line-height:125%;letter-spacing:0px;word-spacing:0px;writing-mode:lr-tb;text-anchor:start;fill:#ffffff;fill-opacity:1;stroke:none;font-family:Montserrat;-inkscape-font-specification:Montserrat"
         d="m 1285.3347,624.84767 0,-67.2 -11.136,0 0,48.288 -36,-48.288 -11.136,0 0,67.2 11.328,0 0,-48.192 35.808,48.192 11.136,0" />
      <path
         id="rect3779"
         d="m 824.70477,505.18176 460.62993,0 0,28.34646 -460.62993,0 z"
         style="fill:#ffffff;fill-opacity:1;stroke:none"
         inkscape:connector-curvature="0" />
    </g>
    <g
       id="g4468"
       transform="matrix(1.3424928,0,0,1.3424928,1371.9467,-656.68106)"
       style="fill:#ffffff;fill-opacity:1;stroke:none">
      <g
         transform="matrix(0.43504939,0,0,0.43504939,-897.5762,-145.43687)"
         id="g4853"
         style="fill:#ffffff;fill-opacity:1;stroke:none" />
    </g>
  </g>
</svg>
