<?xml version="1.0" encoding="UTF-8" standalone="no"?>
<!-- Created with Inkscape (http://www.inkscape.org/) -->

<svg
   xmlns:ns0="http://www.iki.fi/pav/software/textext/"
   xmlns:dc="http://purl.org/dc/elements/1.1/"
   xmlns:cc="http://creativecommons.org/ns#"
   xmlns:rdf="http://www.w3.org/1999/02/22-rdf-syntax-ns#"
   xmlns:svg="http://www.w3.org/2000/svg"
   xmlns="http://www.w3.org/2000/svg"
   xmlns:xlink="http://www.w3.org/1999/xlink"
   xmlns:sodipodi="http://sodipodi.sourceforge.net/DTD/sodipodi-0.dtd"
   xmlns:inkscape="http://www.inkscape.org/namespaces/inkscape"
   width="3557.4802"
   height="2494.4883"
   id="svg2"
   version="1.1"
   inkscape:version="0.48.1 r9760"
   sodipodi:docname="was_wuerden_sie_arbeiten.svg">
  <sodipodi:namedview
     id="base"
     pagecolor="#ffffff"
     bordercolor="#666666"
     borderopacity="1.0"
     inkscape:pageopacity="0.0"
     inkscape:pageshadow="2"
     inkscape:zoom="0.15999999"
     inkscape:cx="3267.1065"
     inkscape:cy="1369.5719"
     inkscape:document-units="px"
     inkscape:current-layer="layer1"
     showgrid="false"
     units="mm"
     inkscape:window-width="1440"
     inkscape:window-height="827"
     inkscape:window-x="0"
     inkscape:window-y="26"
     inkscape:window-maximized="1"
     fit-margin-top="0"
     fit-margin-left="0"
     fit-margin-right="0"
     fit-margin-bottom="0">
    <inkscape:grid
       snapvisiblegridlinesonly="true"
       enabled="true"
       visible="true"
       empspacing="5"
       id="grid3755"
       type="xygrid" />
  </sodipodi:namedview>
  <defs
     id="defs4" />
  <metadata
     id="metadata7">
    <rdf:RDF>
      <cc:Work
         rdf:about="">
        <dc:format>image/svg+xml</dc:format>
        <dc:type
           rdf:resource="http://purl.org/dc/dcmitype/StillImage" />
        <dc:title />
      </cc:Work>
    </rdf:RDF>
  </metadata>
  <g
     transform="translate(0,1466.9293)"
     id="layer1"
     inkscape:groupmode="layer"
     inkscape:label="Ebene 1">
    <g
       id="g3116">
      <rect
         style="fill:#406080;fill-opacity:1;stroke:none"
         id="rect2985"
         width="3557.4802"
         height="2494.4883"
         x="0"
         y="-1466.9293" />
      <g
         ns0:text="Was w\xc3\xbcrden Sie \\emph{arbeiten},\\\\\nwenn f\xc3\xbcr Ihr Einkommen\\\\\ngesorgt w\xc3\xa4re?"
         ns0:preamble="/home/ku3i/dokumente/Inkscape-Latex-preamble/preamble.tex"
         transform="matrix(25.937213,0,0,25.937213,-5440.9755,-4428.9621)"
         style="fill:#ffffff;fill-opacity:1;stroke:none"
         id="g5251">
        <defs
           id="defs5253">
          <g
             id="g5255">
            <symbol
               style="overflow:visible"
               overflow="visible"
               id="textext-ced06af1-0">
              <path
                 inkscape:connector-curvature="0"
                 style="stroke:none"
                 d="m 10.0625,-6.5 0,-0.3125 c -0.296875,0.03125 -0.609375,0.03125 -0.90625,0.03125 l -1.1875,-0.03125 0,0.3125 c 0.671875,0.015625 0.859375,0.34375 0.859375,0.53125 0,0.0625 -0.03125,0.140625 -0.046875,0.203125 l -1.5,4.59375 -1.59375,-4.875 C 5.6875,-6.09375 5.65625,-6.15625 5.65625,-6.203125 5.65625,-6.5 6.234375,-6.5 6.5,-6.5 l 0,-0.3125 C 6.140625,-6.78125 5.46875,-6.78125 5.078125,-6.78125 L 3.875,-6.8125 l 0,0.3125 c 0.5625,0 0.765625,0 0.890625,0.359375 L 4.984375,-5.4375 3.59375,-1.171875 2,-6.078125 C 1.984375,-6.09375 1.96875,-6.171875 1.96875,-6.203125 1.96875,-6.5 2.546875,-6.5 2.8125,-6.5 l 0,-0.3125 c -0.359375,0.03125 -1.03125,0.03125 -1.421875,0.03125 l -1.21875,-0.03125 0,0.3125 c 0.75,0 0.796875,0.046875 0.921875,0.421875 L 3.078125,0.03125 c 0.03125,0.09375 0.0625,0.1875 0.1875,0.1875 0.140625,0 0.15625,-0.0625 0.203125,-0.203125 l 1.640625,-5.0625 1.65625,5.078125 c 0.03125,0.09375 0.0625,0.1875 0.1875,0.1875 0.140625,0 0.171875,-0.0625 0.203125,-0.203125 L 9.0625,-5.828125 C 9.234375,-6.40625 9.671875,-6.5 10.0625,-6.5 z m 0,0"
                 id="path5258" />
            </symbol>
            <symbol
               style="overflow:visible"
               overflow="visible"
               id="textext-ced06af1-1">
              <path
                 inkscape:connector-curvature="0"
                 style="stroke:none"
                 d="m 4.8125,-0.890625 0,-0.5625 -0.25,0 0,0.5625 C 4.5625,-0.3125 4.3125,-0.25 4.203125,-0.25 3.875,-0.25 3.84375,-0.703125 3.84375,-0.75 l 0,-1.984375 c 0,-0.421875 0,-0.8125 -0.359375,-1.1875 C 3.09375,-4.3125 2.59375,-4.46875 2.109375,-4.46875 c -0.8125,0 -1.5,0.46875 -1.5,1.125 0,0.296875 0.203125,0.46875 0.453125,0.46875 0.28125,0 0.46875,-0.203125 0.46875,-0.453125 0,-0.125 -0.0625,-0.453125 -0.515625,-0.453125 C 1.28125,-4.140625 1.78125,-4.25 2.09375,-4.25 c 0.484375,0 1.0625,0.390625 1.0625,1.28125 l 0,0.359375 C 2.640625,-2.578125 1.9375,-2.546875 1.3125,-2.25 c -0.75,0.34375 -1,0.859375 -1,1.296875 0,0.8125 0.96875,1.0625 1.59375,1.0625 0.671875,0 1.125,-0.40625 1.3125,-0.859375 0.046875,0.390625 0.3125,0.8125 0.78125,0.8125 0.203125,0 0.8125,-0.140625 0.8125,-0.953125 z m -1.65625,-0.5 c 0,0.9375 -0.71875,1.28125 -1.171875,1.28125 -0.484375,0 -0.890625,-0.34375 -0.890625,-0.84375 0,-0.546875 0.40625,-1.375 2.0625,-1.4375 z m 0,0"
                 id="path5261" />
            </symbol>
            <symbol
               style="overflow:visible"
               overflow="visible"
               id="textext-ced06af1-2">
              <path
                 inkscape:connector-curvature="0"
                 style="stroke:none"
                 d="m 3.59375,-1.28125 c 0,-0.515625 -0.296875,-0.828125 -0.421875,-0.9375 C 2.84375,-2.546875 2.453125,-2.625 2.03125,-2.703125 1.46875,-2.8125 0.8125,-2.9375 0.8125,-3.515625 c 0,-0.359375 0.25,-0.765625 1.109375,-0.765625 1.09375,0 1.15625,0.90625 1.171875,1.203125 0,0.09375 0.109375,0.09375 0.109375,0.09375 0.140625,0 0.140625,-0.046875 0.140625,-0.234375 l 0,-1.015625 c 0,-0.15625 0,-0.234375 -0.109375,-0.234375 -0.046875,0 -0.078125,0 -0.203125,0.125 -0.03125,0.03125 -0.125,0.125 -0.171875,0.15625 -0.375,-0.28125 -0.78125,-0.28125 -0.9375,-0.28125 -1.21875,0 -1.59375,0.671875 -1.59375,1.234375 0,0.34375 0.15625,0.625 0.421875,0.84375 0.328125,0.25 0.609375,0.3125 1.328125,0.453125 0.21875,0.046875 1.03125,0.203125 1.03125,0.921875 0,0.5 -0.34375,0.90625 -1.125,0.90625 -0.84375,0 -1.203125,-0.5625 -1.390625,-1.421875 C 0.5625,-1.65625 0.5625,-1.6875 0.453125,-1.6875 c -0.125,0 -0.125,0.0625 -0.125,0.234375 l 0,1.328125 c 0,0.171875 0,0.234375 0.109375,0.234375 0.046875,0 0.0625,-0.015625 0.25,-0.203125 0.015625,-0.015625 0.015625,-0.03125 0.203125,-0.21875 0.4375,0.40625 0.890625,0.421875 1.09375,0.421875 1.140625,0 1.609375,-0.671875 1.609375,-1.390625 z m 0,0"
                 id="path5264" />
            </symbol>
            <symbol
               style="overflow:visible"
               overflow="visible"
               id="textext-ced06af1-3">
              <path
                 inkscape:connector-curvature="0"
                 style="stroke:none"
                 d="m 7.015625,-3.984375 0,-0.3125 C 6.78125,-4.28125 6.5,-4.265625 6.28125,-4.265625 l -0.921875,-0.03125 0,0.3125 c 0.359375,0 0.578125,0.1875 0.578125,0.46875 0,0.0625 0,0.09375 -0.0625,0.21875 L 4.96875,-0.75 3.984375,-3.53125 C 3.953125,-3.65625 3.9375,-3.671875 3.9375,-3.71875 c 0,-0.265625 0.390625,-0.265625 0.59375,-0.265625 l 0,-0.3125 -1.046875,0.03125 c -0.296875,0 -0.578125,-0.015625 -0.875,-0.03125 l 0,0.3125 c 0.359375,0 0.515625,0.015625 0.625,0.140625 0.046875,0.0625 0.15625,0.359375 0.21875,0.546875 L 2.609375,-0.875 1.65625,-3.53125 C 1.609375,-3.65625 1.609375,-3.671875 1.609375,-3.71875 1.609375,-3.984375 2,-3.984375 2.1875,-3.984375 l 0,-0.3125 -1.078125,0.03125 -0.9375,-0.03125 0,0.3125 c 0.5,0 0.625,0.03125 0.75,0.34375 l 1.25,3.53125 C 2.21875,0.03125 2.25,0.109375 2.375,0.109375 c 0.140625,0 0.15625,-0.0625 0.203125,-0.203125 l 1.015625,-2.8125 1.015625,2.828125 c 0.03125,0.109375 0.0625,0.1875 0.203125,0.1875 0.125,0 0.15625,-0.09375 0.1875,-0.1875 L 6.171875,-3.34375 c 0.171875,-0.5 0.484375,-0.640625 0.84375,-0.640625 z m 0,0"
                 id="path5267" />
            </symbol>
            <symbol
               style="overflow:visible"
               overflow="visible"
               id="textext-ced06af1-4">
              <path
                 inkscape:connector-curvature="0"
                 style="stroke:none"
                 d="m 5.328125,0 0,-0.3125 C 4.640625,-0.3125 4.5625,-0.375 4.5625,-0.875 l 0,-3.53125 -1.46875,0.109375 0,0.3125 c 0.6875,0 0.78125,0.0625 0.78125,0.5625 l 0,1.765625 c 0,0.875 -0.484375,1.546875 -1.21875,1.546875 -0.828125,0 -0.875,-0.46875 -0.875,-0.984375 l 0,-3.3125 -1.46875,0.109375 0,0.3125 c 0.78125,0 0.78125,0.03125 0.78125,0.90625 l 0,1.5 c 0,0.78125 0,1.6875 1.515625,1.6875 0.5625,0 1,-0.28125 1.28125,-0.890625 l 0,0.890625 z M 2.375,-6.03125 C 2.375,-6.265625 2.15625,-6.5 1.890625,-6.5 c -0.3125,0 -0.484375,0.25 -0.484375,0.46875 0,0.25 0.203125,0.484375 0.484375,0.484375 0.296875,0 0.484375,-0.25 0.484375,-0.484375 z m 1.765625,0 C 4.140625,-6.265625 3.9375,-6.5 3.671875,-6.5 c -0.3125,0 -0.484375,0.25 -0.484375,0.46875 0,0.25 0.203125,0.484375 0.46875,0.484375 0.3125,0 0.484375,-0.25 0.484375,-0.484375 z m 0,0"
                 id="path5270" />
            </symbol>
            <symbol
               style="overflow:visible"
               overflow="visible"
               id="textext-ced06af1-5">
              <path
                 inkscape:connector-curvature="0"
                 style="stroke:none"
                 d="m 3.625,-3.796875 c 0,-0.3125 -0.3125,-0.609375 -0.734375,-0.609375 -0.734375,0 -1.09375,0.671875 -1.21875,1.09375 l 0,-1.09375 -1.390625,0.109375 0,0.3125 c 0.703125,0 0.78125,0.0625 0.78125,0.5625 l 0,2.671875 c 0,0.4375 -0.109375,0.4375 -0.78125,0.4375 l 0,0.3125 1.140625,-0.03125 c 0.390625,0 0.859375,0 1.265625,0.03125 l 0,-0.3125 -0.21875,0 c -0.734375,0 -0.75,-0.109375 -0.75,-0.46875 l 0,-1.53125 c 0,-0.984375 0.421875,-1.875 1.171875,-1.875 0.0625,0 0.09375,0 0.109375,0.015625 -0.03125,0 -0.234375,0.125 -0.234375,0.390625 0,0.265625 0.21875,0.421875 0.4375,0.421875 0.171875,0 0.421875,-0.125 0.421875,-0.4375 z m 0,0"
                 id="path5273" />
            </symbol>
            <symbol
               style="overflow:visible"
               overflow="visible"
               id="textext-ced06af1-6">
              <path
                 inkscape:connector-curvature="0"
                 style="stroke:none"
                 d="m 5.25,0 0,-0.3125 c -0.6875,0 -0.78125,-0.0625 -0.78125,-0.5625 l 0,-6.046875 -1.421875,0.109375 0,0.3125 c 0.6875,0 0.765625,0.0625 0.765625,0.5625 l 0,2.15625 c -0.28125,-0.359375 -0.71875,-0.625 -1.25,-0.625 -1.171875,0 -2.21875,0.984375 -2.21875,2.265625 0,1.265625 0.96875,2.25 2.109375,2.25 0.640625,0 1.078125,-0.34375 1.328125,-0.65625 l 0,0.65625 z M 3.78125,-1.171875 c 0,0.171875 0,0.1875 -0.109375,0.359375 C 3.375,-0.328125 2.9375,-0.109375 2.5,-0.109375 2.046875,-0.109375 1.6875,-0.375 1.453125,-0.75 1.203125,-1.15625 1.171875,-1.71875 1.171875,-2.140625 1.171875,-2.5 1.1875,-3.09375 1.46875,-3.546875 1.6875,-3.859375 2.0625,-4.1875 2.609375,-4.1875 c 0.34375,0 0.765625,0.15625 1.0625,0.59375 0.109375,0.171875 0.109375,0.1875 0.109375,0.375 z m 0,0"
                 id="path5276" />
            </symbol>
            <symbol
               style="overflow:visible"
               overflow="visible"
               id="textext-ced06af1-7">
              <path
                 inkscape:connector-curvature="0"
                 style="stroke:none"
                 d="m 4.140625,-1.1875 c 0,-0.09375 -0.078125,-0.125 -0.140625,-0.125 -0.078125,0 -0.109375,0.0625 -0.125,0.140625 -0.34375,1.03125 -1.25,1.03125 -1.34375,1.03125 -0.5,0 -0.890625,-0.296875 -1.125,-0.671875 -0.296875,-0.46875 -0.296875,-1.125 -0.296875,-1.484375 l 2.78125,0 c 0.21875,0 0.25,0 0.25,-0.21875 0,-0.984375 -0.546875,-1.953125 -1.78125,-1.953125 -1.15625,0 -2.078125,1.03125 -2.078125,2.28125 0,1.328125 1.046875,2.296875 2.1875,2.296875 C 3.6875,0.109375 4.140625,-1 4.140625,-1.1875 z m -0.65625,-1.328125 -2.375,0 C 1.171875,-4 2.015625,-4.25 2.359375,-4.25 c 1.015625,0 1.125,1.34375 1.125,1.734375 z m 0,0"
                 id="path5279" />
            </symbol>
            <symbol
               style="overflow:visible"
               overflow="visible"
               id="textext-ced06af1-8">
              <path
                 inkscape:connector-curvature="0"
                 style="stroke:none"
                 d="m 5.328125,0 0,-0.3125 c -0.515625,0 -0.765625,0 -0.765625,-0.296875 l 0,-1.90625 c 0,-0.859375 0,-1.15625 -0.3125,-1.515625 -0.140625,-0.171875 -0.46875,-0.375 -1.046875,-0.375 C 2.46875,-4.40625 2,-3.984375 1.71875,-3.359375 l 0,-1.046875 -1.40625,0.109375 0,0.3125 c 0.703125,0 0.78125,0.0625 0.78125,0.5625 l 0,2.671875 c 0,0.4375 -0.109375,0.4375 -0.78125,0.4375 L 0.3125,0 1.453125,-0.03125 2.5625,0 l 0,-0.3125 c -0.671875,0 -0.78125,0 -0.78125,-0.4375 l 0,-1.84375 C 1.78125,-3.625 2.5,-4.1875 3.125,-4.1875 c 0.640625,0 0.75,0.53125 0.75,1.109375 l 0,2.328125 c 0,0.4375 -0.109375,0.4375 -0.78125,0.4375 l 0,0.3125 1.125,-0.03125 z m 0,0"
                 id="path5282" />
            </symbol>
            <symbol
               style="overflow:visible"
               overflow="visible"
               id="textext-ced06af1-9">
              <path
                 inkscape:connector-curvature="0"
                 style="stroke:none"
                 d="m 4.96875,-1.859375 c 0,-0.984375 -0.65625,-1.8125 -1.484375,-2.015625 l -1.28125,-0.296875 c -0.625,-0.15625 -1,-0.6875 -1,-1.265625 0,-0.703125 0.53125,-1.3125 1.3125,-1.3125 1.65625,0 1.875,1.640625 1.9375,2.078125 0.015625,0.0625 0.015625,0.125 0.125,0.125 0.125,0 0.125,-0.046875 0.125,-0.234375 l 0,-2 c 0,-0.171875 0,-0.25 -0.109375,-0.25 -0.0625,0 -0.078125,0.015625 -0.140625,0.140625 l -0.359375,0.5625 C 3.796875,-6.625 3.390625,-7.03125 2.5,-7.03125 c -1.109375,0 -1.9375,0.875 -1.9375,1.9375 0,0.828125 0.53125,1.5625 1.296875,1.828125 0.109375,0.03125 0.625,0.15625 1.328125,0.328125 0.265625,0.0625 0.5625,0.140625 0.84375,0.5 0.203125,0.265625 0.3125,0.59375 0.3125,0.921875 0,0.703125 -0.5,1.421875 -1.34375,1.421875 -0.28125,0 -1.046875,-0.046875 -1.578125,-0.53125 C 0.84375,-1.171875 0.8125,-1.796875 0.8125,-2.15625 0.796875,-2.265625 0.71875,-2.265625 0.6875,-2.265625 c -0.125,0 -0.125,0.078125 -0.125,0.25 l 0,2 c 0,0.171875 0,0.234375 0.109375,0.234375 0.0625,0 0.078125,-0.015625 0.140625,-0.125 0,0 0.03125,-0.046875 0.359375,-0.578125 0.3125,0.34375 0.953125,0.703125 1.84375,0.703125 1.15625,0 1.953125,-0.96875 1.953125,-2.078125 z m 0,0"
                 id="path5285" />
            </symbol>
            <symbol
               style="overflow:visible"
               overflow="visible"
               id="textext-ced06af1-10">
              <path
                 inkscape:connector-curvature="0"
                 style="stroke:none"
                 d="m 2.46875,0 0,-0.3125 c -0.671875,0 -0.703125,-0.046875 -0.703125,-0.4375 l 0,-3.65625 -1.390625,0.109375 0,0.3125 c 0.640625,0 0.734375,0.0625 0.734375,0.546875 l 0,2.6875 c 0,0.4375 -0.109375,0.4375 -0.78125,0.4375 l 0,0.3125 1.09375,-0.03125 C 1.78125,-0.03125 2.125,-0.015625 2.46875,0 z m -0.5625,-6.015625 c 0,-0.28125 -0.21875,-0.53125 -0.515625,-0.53125 -0.34375,0 -0.546875,0.28125 -0.546875,0.53125 C 0.84375,-5.75 1.078125,-5.5 1.375,-5.5 c 0.34375,0 0.53125,-0.265625 0.53125,-0.515625 z m 0,0"
                 id="path5288" />
            </symbol>
            <symbol
               style="overflow:visible"
               overflow="visible"
               id="textext-ced06af1-11">
              <path
                 inkscape:connector-curvature="0"
                 style="stroke:none"
                 d="m 2.03125,-0.015625 c 0,-0.625 -0.25,-1.046875 -0.640625,-1.046875 -0.359375,0 -0.53125,0.28125 -0.53125,0.53125 C 0.859375,-0.265625 1.03125,0 1.390625,0 1.53125,0 1.671875,-0.0625 1.78125,-0.15625 1.796875,0.625 1.53125,1.234375 1.09375,1.703125 1.03125,1.765625 1.015625,1.78125 1.015625,1.8125 c 0,0.078125 0.046875,0.109375 0.09375,0.109375 0.125,0 0.921875,-0.78125 0.921875,-1.9375 z m 0,0"
                 id="path5291" />
            </symbol>
            <symbol
               style="overflow:visible"
               overflow="visible"
               id="textext-ced06af1-12">
              <path
                 inkscape:connector-curvature="0"
                 style="stroke:none"
                 d="m 3.5625,-6.328125 c 0,-0.375 -0.375,-0.703125 -0.90625,-0.703125 -0.6875,0 -1.546875,0.53125 -1.546875,1.59375 l 0,1.140625 -0.78125,0 0,0.3125 0.78125,0 0,3.234375 c 0,0.4375 -0.109375,0.4375 -0.765625,0.4375 l 0,0.3125 1.125,-0.03125 c 0.40625,0 0.875,0 1.265625,0.03125 l 0,-0.3125 -0.203125,0 c -0.734375,0 -0.75,-0.109375 -0.75,-0.46875 l 0,-3.203125 1.125,0 0,-0.3125 -1.15625,0 0,-1.15625 c 0,-0.875 0.46875,-1.359375 0.90625,-1.359375 0.03125,0 0.1875,0 0.328125,0.078125 C 2.875,-6.703125 2.6875,-6.5625 2.6875,-6.3125 c 0,0.21875 0.15625,0.421875 0.4375,0.421875 0.28125,0 0.4375,-0.203125 0.4375,-0.4375 z m 0,0"
                 id="path5294" />
            </symbol>
            <symbol
               style="overflow:visible"
               overflow="visible"
               id="textext-ced06af1-13">
              <path
                 inkscape:connector-curvature="0"
                 style="stroke:none"
                 d="m 3.3125,0 0,-0.3125 -0.25,0 C 2.265625,-0.3125 2.25,-0.421875 2.25,-0.78125 l 0,-5.25 C 2.25,-6.390625 2.265625,-6.5 3.0625,-6.5 l 0.25,0 0,-0.3125 c -0.34375,0.03125 -1.125,0.03125 -1.515625,0.03125 -0.375,0 -1.171875,0 -1.515625,-0.03125 l 0,0.3125 0.25,0 c 0.796875,0 0.828125,0.109375 0.828125,0.46875 l 0,5.25 c 0,0.359375 -0.03125,0.46875 -0.828125,0.46875 l -0.25,0 0,0.3125 c 0.34375,-0.03125 1.140625,-0.03125 1.515625,-0.03125 0.390625,0 1.171875,0 1.515625,0.03125 z m 0,0"
                 id="path5297" />
            </symbol>
            <symbol
               style="overflow:visible"
               overflow="visible"
               id="textext-ced06af1-14">
              <path
                 inkscape:connector-curvature="0"
                 style="stroke:none"
                 d="m 5.328125,0 0,-0.3125 c -0.515625,0 -0.765625,0 -0.765625,-0.296875 l 0,-1.90625 c 0,-0.859375 0,-1.15625 -0.3125,-1.515625 -0.140625,-0.171875 -0.46875,-0.375 -1.046875,-0.375 -0.84375,0 -1.28125,0.59375 -1.4375,0.953125 l -0.015625,0 0,-3.46875 -1.4375,0.109375 0,0.3125 c 0.703125,0 0.78125,0.0625 0.78125,0.5625 l 0,5.1875 c 0,0.4375 -0.109375,0.4375 -0.78125,0.4375 L 0.3125,0 1.453125,-0.03125 2.5625,0 l 0,-0.3125 c -0.671875,0 -0.78125,0 -0.78125,-0.4375 l 0,-1.84375 C 1.78125,-3.625 2.5,-4.1875 3.125,-4.1875 c 0.640625,0 0.75,0.53125 0.75,1.109375 l 0,2.328125 c 0,0.4375 -0.109375,0.4375 -0.78125,0.4375 l 0,0.3125 1.125,-0.03125 z m 0,0"
                 id="path5300" />
            </symbol>
            <symbol
               style="overflow:visible"
               overflow="visible"
               id="textext-ced06af1-15">
              <path
                 inkscape:connector-curvature="0"
                 style="stroke:none"
                 d="m 6.5,-2.578125 -0.25,0 C 6,-1.03125 5.765625,-0.3125 4.0625,-0.3125 l -1.328125,0 C 2.265625,-0.3125 2.25,-0.375 2.25,-0.703125 l 0,-2.671875 0.890625,0 c 0.96875,0 1.078125,0.328125 1.078125,1.171875 l 0.25,0 0,-2.640625 -0.25,0 c 0,0.859375 -0.109375,1.171875 -1.078125,1.171875 l -0.890625,0 0,-2.40625 c 0,-0.328125 0.015625,-0.390625 0.484375,-0.390625 l 1.28125,0 c 1.53125,0 1.796875,0.546875 1.953125,1.9375 l 0.25,0 -0.28125,-2.25 -5.609375,0 0,0.3125 0.234375,0 c 0.765625,0 0.796875,0.109375 0.796875,0.46875 l 0,5.21875 c 0,0.359375 -0.03125,0.46875 -0.796875,0.46875 l -0.234375,0 0,0.3125 5.75,0 z m 0,0"
                 id="path5303" />
            </symbol>
            <symbol
               style="overflow:visible"
               overflow="visible"
               id="textext-ced06af1-16">
              <path
                 inkscape:connector-curvature="0"
                 style="stroke:none"
                 d="m 5.09375,0 0,-0.3125 c -0.375,0 -0.59375,0 -0.96875,-0.53125 L 2.859375,-2.625 c -0.015625,-0.015625 -0.0625,-0.078125 -0.0625,-0.109375 0,-0.03125 0.71875,-0.640625 0.8125,-0.71875 0.625,-0.5 1.046875,-0.53125 1.25,-0.53125 l 0,-0.3125 c -0.28125,0.03125 -0.40625,0.03125 -0.6875,0.03125 -0.359375,0 -0.984375,-0.015625 -1.125,-0.03125 l 0,0.3125 c 0.1875,0 0.296875,0.109375 0.296875,0.25 0,0.203125 -0.140625,0.3125 -0.21875,0.390625 l -1.40625,1.203125 0,-4.78125 -1.4375,0.109375 0,0.3125 c 0.703125,0 0.78125,0.0625 0.78125,0.5625 l 0,5.1875 c 0,0.4375 -0.109375,0.4375 -0.78125,0.4375 L 0.28125,0 1.359375,-0.03125 2.46875,0 l 0,-0.3125 c -0.671875,0 -0.78125,0 -0.78125,-0.4375 l 0,-1.03125 0.640625,-0.546875 c 0.765625,1.046875 1.1875,1.609375 1.1875,1.796875 0,0.1875 -0.171875,0.21875 -0.359375,0.21875 l 0,0.3125 1.078125,-0.03125 c 0.28125,0 0.578125,0.015625 0.859375,0.03125 z m 0,0"
                 id="path5306" />
            </symbol>
            <symbol
               style="overflow:visible"
               overflow="visible"
               id="textext-ced06af1-17">
              <path
                 inkscape:connector-curvature="0"
                 style="stroke:none"
                 d="M 4.6875,-2.140625 C 4.6875,-3.40625 3.703125,-4.46875 2.5,-4.46875 c -1.25,0 -2.21875,1.09375 -2.21875,2.328125 0,1.296875 1.03125,2.25 2.203125,2.25 1.203125,0 2.203125,-0.984375 2.203125,-2.25 z M 3.875,-2.21875 c 0,0.359375 0,0.90625 -0.21875,1.34375 -0.234375,0.453125 -0.671875,0.734375 -1.15625,0.734375 -0.4375,0 -0.875,-0.203125 -1.140625,-0.671875 -0.25,-0.4375 -0.25,-1.046875 -0.25,-1.40625 0,-0.390625 0,-0.921875 0.234375,-1.359375 C 1.609375,-4.03125 2.078125,-4.25 2.484375,-4.25 c 0.4375,0 0.859375,0.21875 1.125,0.65625 0.265625,0.421875 0.265625,1 0.265625,1.375 z m 0,0"
                 id="path5309" />
            </symbol>
            <symbol
               style="overflow:visible"
               overflow="visible"
               id="textext-ced06af1-18">
              <path
                 inkscape:connector-curvature="0"
                 style="stroke:none"
                 d="m 8.109375,0 0,-0.3125 c -0.515625,0 -0.765625,0 -0.78125,-0.296875 l 0,-1.90625 c 0,-0.859375 0,-1.15625 -0.3125,-1.515625 -0.140625,-0.171875 -0.46875,-0.375 -1.046875,-0.375 -0.828125,0 -1.28125,0.59375 -1.4375,0.984375 C 4.390625,-4.296875 3.65625,-4.40625 3.203125,-4.40625 2.46875,-4.40625 2,-3.984375 1.71875,-3.359375 l 0,-1.046875 -1.40625,0.109375 0,0.3125 c 0.703125,0 0.78125,0.0625 0.78125,0.5625 l 0,2.671875 c 0,0.4375 -0.109375,0.4375 -0.78125,0.4375 L 0.3125,0 1.453125,-0.03125 2.5625,0 l 0,-0.3125 c -0.671875,0 -0.78125,0 -0.78125,-0.4375 l 0,-1.84375 C 1.78125,-3.625 2.5,-4.1875 3.125,-4.1875 c 0.640625,0 0.75,0.53125 0.75,1.109375 l 0,2.328125 c 0,0.4375 -0.109375,0.4375 -0.78125,0.4375 l 0,0.3125 1.125,-0.03125 L 5.328125,0 l 0,-0.3125 c -0.65625,0 -0.765625,0 -0.765625,-0.4375 l 0,-1.84375 c 0,-1.03125 0.703125,-1.59375 1.34375,-1.59375 0.625,0 0.734375,0.53125 0.734375,1.109375 l 0,2.328125 c 0,0.4375 -0.109375,0.4375 -0.78125,0.4375 l 0,0.3125 1.125,-0.03125 z m 0,0"
                 id="path5312" />
            </symbol>
            <symbol
               style="overflow:visible"
               overflow="visible"
               id="textext-ced06af1-19">
              <path
                 inkscape:connector-curvature="0"
                 style="stroke:none"
                 d="m 4.828125,-4.03125 c 0,-0.171875 -0.109375,-0.484375 -0.5,-0.484375 -0.203125,0 -0.640625,0.0625 -1.0625,0.46875 C 2.84375,-4.375 2.4375,-4.40625 2.21875,-4.40625 c -0.9375,0 -1.625,0.6875 -1.625,1.453125 0,0.4375 0.21875,0.8125 0.46875,1.03125 -0.125,0.140625 -0.3125,0.46875 -0.3125,0.828125 0,0.3125 0.140625,0.6875 0.453125,0.890625 -0.609375,0.15625 -0.921875,0.59375 -0.921875,0.984375 0,0.71875 0.984375,1.265625 2.203125,1.265625 1.171875,0 2.203125,-0.5 2.203125,-1.28125 0,-0.34375 -0.125,-0.859375 -0.640625,-1.140625 -0.53125,-0.265625 -1.109375,-0.265625 -1.71875,-0.265625 -0.25,0 -0.671875,0 -0.75,-0.015625 C 1.265625,-0.703125 1.0625,-1 1.0625,-1.328125 c 0,-0.03125 0,-0.265625 0.15625,-0.46875 0.390625,0.28125 0.8125,0.3125 1,0.3125 0.921875,0 1.609375,-0.6875 1.609375,-1.453125 0,-0.375 -0.15625,-0.734375 -0.40625,-0.96875 C 3.78125,-4.25 4.140625,-4.296875 4.3125,-4.296875 c 0,0 0.078125,0 0.109375,0.015625 C 4.3125,-4.25 4.25,-4.140625 4.25,-4.015625 c 0,0.171875 0.140625,0.28125 0.296875,0.28125 0.09375,0 0.28125,-0.0625 0.28125,-0.296875 z m -1.75,1.078125 c 0,0.265625 0,0.59375 -0.15625,0.84375 C 2.84375,-2 2.609375,-1.71875 2.21875,-1.71875 c -0.875,0 -0.875,-1 -0.875,-1.21875 0,-0.265625 0.015625,-0.59375 0.15625,-0.84375 0.078125,-0.109375 0.3125,-0.390625 0.71875,-0.390625 0.859375,0 0.859375,0.984375 0.859375,1.21875 z m 1.09375,3.734375 c 0,0.546875 -0.703125,1.046875 -1.671875,1.046875 -1.015625,0 -1.703125,-0.515625 -1.703125,-1.046875 0,-0.453125 0.375,-0.828125 0.8125,-0.84375 l 0.59375,0 c 0.859375,0 1.96875,0 1.96875,0.84375 z m 0,0"
                 id="path5315" />
            </symbol>
            <symbol
               style="overflow:visible"
               overflow="visible"
               id="textext-ced06af1-20">
              <path
                 inkscape:connector-curvature="0"
                 style="stroke:none"
                 d="m 3.3125,-1.234375 0,-0.5625 -0.25,0 0,0.546875 c 0,0.734375 -0.296875,1.109375 -0.671875,1.109375 -0.671875,0 -0.671875,-0.90625 -0.671875,-1.078125 l 0,-2.765625 1.4375,0 0,-0.3125 -1.4375,0 0,-1.828125 -0.25,0 c 0,0.8125 -0.296875,1.875 -1.28125,1.921875 l 0,0.21875 0.84375,0 0,2.75 c 0,1.21875 0.9375,1.34375 1.296875,1.34375 0.703125,0 0.984375,-0.703125 0.984375,-1.34375 z m 0,0"
                 id="path5318" />
            </symbol>
            <symbol
               style="overflow:visible"
               overflow="visible"
               id="textext-ced06af1-21">
              <path
                 inkscape:connector-curvature="0"
                 style="stroke:none"
                 d="m 4.8125,-0.890625 0,-0.5625 -0.25,0 0,0.5625 C 4.5625,-0.3125 4.3125,-0.25 4.203125,-0.25 3.875,-0.25 3.84375,-0.703125 3.84375,-0.75 l 0,-1.984375 c 0,-0.421875 0,-0.8125 -0.359375,-1.1875 C 3.09375,-4.3125 2.59375,-4.46875 2.109375,-4.46875 c -0.8125,0 -1.5,0.46875 -1.5,1.125 0,0.296875 0.203125,0.46875 0.453125,0.46875 0.28125,0 0.46875,-0.203125 0.46875,-0.453125 0,-0.125 -0.0625,-0.453125 -0.515625,-0.453125 C 1.28125,-4.140625 1.78125,-4.25 2.09375,-4.25 c 0.484375,0 1.0625,0.390625 1.0625,1.28125 l 0,0.359375 C 2.640625,-2.578125 1.9375,-2.546875 1.3125,-2.25 c -0.75,0.34375 -1,0.859375 -1,1.296875 0,0.8125 0.96875,1.0625 1.59375,1.0625 0.671875,0 1.125,-0.40625 1.3125,-0.859375 0.046875,0.390625 0.3125,0.8125 0.78125,0.8125 0.203125,0 0.8125,-0.140625 0.8125,-0.953125 z m -1.65625,-0.5 c 0,0.9375 -0.71875,1.28125 -1.171875,1.28125 -0.484375,0 -0.890625,-0.34375 -0.890625,-0.84375 0,-0.546875 0.40625,-1.375 2.0625,-1.4375 z M 2.09375,-6.03125 C 2.09375,-6.265625 1.890625,-6.5 1.609375,-6.5 1.3125,-6.5 1.125,-6.25 1.125,-6.03125 c 0,0.25 0.203125,0.484375 0.484375,0.484375 0.296875,0 0.484375,-0.25 0.484375,-0.484375 z m 1.78125,0 C 3.875,-6.265625 3.65625,-6.5 3.390625,-6.5 c -0.3125,0 -0.484375,0.25 -0.484375,0.46875 0,0.25 0.203125,0.484375 0.46875,0.484375 0.3125,0 0.5,-0.25 0.5,-0.484375 z m 0,0"
                 id="path5321" />
            </symbol>
            <symbol
               style="overflow:visible"
               overflow="visible"
               id="textext-ced06af1-22">
              <path
                 inkscape:connector-curvature="0"
                 style="stroke:none"
                 d="m 4.140625,-5.6875 c 0,-0.578125 -0.40625,-1.34375 -1.890625,-1.34375 -1.078125,0 -1.6875,0.6875 -1.6875,1.328125 0,0.34375 0.21875,0.484375 0.453125,0.484375 0.28125,0 0.453125,-0.203125 0.453125,-0.46875 0,-0.4375 -0.40625,-0.4375 -0.546875,-0.4375 0.296875,-0.53125 0.875,-0.6875 1.296875,-0.6875 1.09375,0 1.09375,0.6875 1.09375,1.078125 0,0.578125 -0.15625,0.765625 -0.34375,0.9375 -0.65625,0.71875 -0.875,1.640625 -0.875,2.25 l 0,0.4375 c 0,0.1875 0,0.25 0.125,0.25 0.125,0 0.125,-0.09375 0.125,-0.28125 l 0,-0.34375 c 0,-1.25 0.96875,-1.96875 1.3125,-2.21875 0.265625,-0.203125 0.484375,-0.5625 0.484375,-0.984375 z m -1.40625,5.15625 C 2.734375,-0.8125 2.5,-1.0625 2.21875,-1.0625 c -0.296875,0 -0.53125,0.25 -0.53125,0.53125 C 1.6875,-0.234375 1.921875,0 2.21875,0 2.5,0 2.734375,-0.234375 2.734375,-0.53125 z m 0,0"
                 id="path5324" />
            </symbol>
            <symbol
               style="overflow:visible"
               overflow="visible"
               id="textext-ced06af1-23">
              <path
                 inkscape:connector-curvature="0"
                 style="stroke:none"
                 d="m 5.234375,-1.421875 c 0,-0.109375 -0.078125,-0.109375 -0.15625,-0.109375 -0.109375,0 -0.125,0.015625 -0.1875,0.234375 -0.140625,0.5625 -0.328125,1.1875 -0.65625,1.1875 -0.265625,0 -0.265625,-0.265625 -0.265625,-0.40625 0,-0.078125 0,-0.234375 0.0625,-0.515625 l 0.6875,-2.703125 C 4.75,-3.875 4.75,-3.890625 4.75,-3.953125 c 0,-0.203125 -0.171875,-0.25 -0.265625,-0.25 -0.3125,0 -0.390625,0.328125 -0.390625,0.390625 C 3.890625,-4.25 3.578125,-4.40625 3.265625,-4.40625 c -1.109375,0 -2.28125,1.515625 -2.28125,2.96875 0,0.84375 0.453125,1.546875 1.203125,1.546875 0.359375,0 0.796875,-0.203125 1.1875,-0.703125 0.109375,0.5 0.484375,0.703125 0.828125,0.703125 0.375,0 0.578125,-0.25 0.734375,-0.5625 0.171875,-0.375 0.296875,-0.96875 0.296875,-0.96875 z m -1.78125,0.1875 c -0.078125,0.3125 -0.703125,1.125 -1.25,1.125 -0.46875,0 -0.546875,-0.59375 -0.546875,-0.890625 0,-0.5 0.3125,-1.65625 0.484375,-2.078125 0.25,-0.609375 0.703125,-1.109375 1.125,-1.109375 0.4375,0 0.6875,0.515625 0.6875,0.9375 0,0 -0.015625,0.0625 -0.03125,0.125 z m 0,0"
                 id="path5327" />
            </symbol>
            <symbol
               style="overflow:visible"
               overflow="visible"
               id="textext-ced06af1-24">
              <path
                 inkscape:connector-curvature="0"
                 style="stroke:none"
                 d="m 4.875,-3.78125 c 0,-0.515625 -0.640625,-0.625 -0.984375,-0.625 -0.6875,0 -1.046875,0.5 -1.203125,0.71875 -0.109375,-0.53125 -0.5,-0.71875 -0.828125,-0.71875 -0.359375,0 -0.546875,0.234375 -0.71875,0.53125 -0.1875,0.390625 -0.3125,1 -0.3125,1 0,0.109375 0.09375,0.109375 0.15625,0.109375 0.125,0 0.125,-0.015625 0.1875,-0.234375 0.171875,-0.703125 0.359375,-1.1875 0.671875,-1.1875 0.265625,0 0.265625,0.296875 0.265625,0.40625 0,0.15625 -0.03125,0.34375 -0.078125,0.5 l -0.75,2.984375 c -0.015625,0.0625 -0.03125,0.125 -0.03125,0.140625 0,0.109375 0.078125,0.265625 0.28125,0.265625 0.296875,0 0.375,-0.28125 0.390625,-0.375 L 2.578125,-2.875 c 0,-0.03125 0.453125,-1.3125 1.3125,-1.3125 0.046875,0 0.328125,0 0.53125,0.140625 C 4.0625,-3.9375 4.03125,-3.625 4.03125,-3.5625 4.03125,-3.4375 4.125,-3.25 4.390625,-3.25 4.5625,-3.25 4.875,-3.390625 4.875,-3.78125 z m 0,0"
                 id="path5330" />
            </symbol>
            <symbol
               style="overflow:visible"
               overflow="visible"
               id="textext-ced06af1-25">
              <path
                 inkscape:connector-curvature="0"
                 style="stroke:none"
                 d="m 4.578125,-2.84375 c 0,-1.078125 -0.59375,-1.5625 -1.203125,-1.5625 -0.375,0 -0.71875,0.203125 -1.046875,0.53125 l 0.6875,-2.796875 c 0.015625,-0.03125 0.03125,-0.125 0.03125,-0.125 0,-0.09375 -0.0625,-0.125 -0.140625,-0.125 -0.03125,0 -0.125,0.015625 -0.15625,0.03125 L 1.765625,-6.8125 c -0.125,0 -0.234375,0.015625 -0.234375,0.203125 0,0.109375 0.109375,0.109375 0.25,0.109375 0.46875,0 0.484375,0.0625 0.484375,0.171875 0,0.03125 -0.015625,0.171875 -0.015625,0.171875 l -1,3.9375 c 0,0.03125 -0.109375,0.4375 -0.109375,0.8125 0,0.84375 0.421875,1.515625 1.15625,1.515625 1.109375,0 2.28125,-1.5 2.28125,-2.953125 z M 3.34375,-1.0625 c -0.109375,0.25 -0.546875,0.953125 -1.046875,0.953125 -0.25,0 -0.578125,-0.203125 -0.578125,-0.953125 0,-0.4375 0.078125,-0.796875 0.375,-1.921875 0.0625,-0.25 0.0625,-0.265625 0.21875,-0.46875 C 2.609375,-3.84375 2.984375,-4.1875 3.359375,-4.1875 c 0.453125,0 0.546875,0.5625 0.546875,0.890625 0,0.421875 -0.265625,1.609375 -0.5625,2.234375 z m 0,0"
                 id="path5333" />
            </symbol>
            <symbol
               style="overflow:visible"
               overflow="visible"
               id="textext-ced06af1-26">
              <path
                 inkscape:connector-curvature="0"
                 style="stroke:none"
                 d="m 4.671875,-1.03125 c 0,-0.0625 -0.09375,-0.171875 -0.171875,-0.171875 -0.03125,0 -0.046875,0.015625 -0.125,0.109375 -0.734375,0.9375 -1.625,0.984375 -1.796875,0.984375 -0.640625,0 -0.75,-0.703125 -0.75,-1.09375 0,-0.375 0.09375,-0.828125 0.171875,-1.09375 l 0.375,0 c 0.3125,0 0.96875,-0.03125 1.453125,-0.21875 0.78125,-0.328125 0.78125,-0.96875 0.78125,-1.046875 0,-0.453125 -0.359375,-0.84375 -1,-0.84375 -1.046875,0 -2.46875,1 -2.46875,2.765625 0,0.90625 0.46875,1.75 1.421875,1.75 1.28125,0 2.109375,-1 2.109375,-1.140625 z m -0.4375,-2.546875 c 0,1.0625 -1.640625,1.0625 -1.96875,1.0625 l -0.21875,0 c 0.4375,-1.640625 1.46875,-1.671875 1.5625,-1.671875 0.390625,0 0.625,0.265625 0.625,0.609375 z m 0,0"
                 id="path5336" />
            </symbol>
            <symbol
               style="overflow:visible"
               overflow="visible"
               id="textext-ced06af1-27">
              <path
                 inkscape:connector-curvature="0"
                 style="stroke:none"
                 d="m 3.296875,-1.421875 c 0,-0.109375 -0.078125,-0.109375 -0.140625,-0.109375 -0.140625,0 -0.140625,0.03125 -0.171875,0.171875 -0.078125,0.296875 -0.359375,1.25 -0.9375,1.25 -0.078125,0 -0.21875,-0.015625 -0.21875,-0.28125 0,-0.25 0.140625,-0.59375 0.265625,-0.953125 l 0.640625,-1.703125 c 0.09375,-0.296875 0.109375,-0.375 0.109375,-0.5625 0,-0.546875 -0.375,-0.796875 -0.734375,-0.796875 -0.9375,0 -1.28125,1.484375 -1.28125,1.53125 0,0.109375 0.09375,0.109375 0.15625,0.109375 0.125,0 0.125,-0.03125 0.171875,-0.171875 0.09375,-0.328125 0.34375,-1.25 0.921875,-1.25 0.109375,0 0.21875,0.046875 0.21875,0.28125 0,0.234375 -0.109375,0.53125 -0.171875,0.71875 L 1.828125,-2.359375 1.453125,-1.375 C 1.3125,-1 1.28125,-0.890625 1.28125,-0.6875 c 0,0.390625 0.234375,0.796875 0.75,0.796875 0.9375,0 1.265625,-1.5 1.265625,-1.53125 z M 3.5625,-6.09375 c 0,-0.203125 -0.140625,-0.421875 -0.4375,-0.421875 -0.328125,0 -0.640625,0.3125 -0.640625,0.625 0,0.21875 0.15625,0.421875 0.453125,0.421875 0.3125,0 0.625,-0.296875 0.625,-0.625 z m 0,0"
                 id="path5339" />
            </symbol>
            <symbol
               style="overflow:visible"
               overflow="visible"
               id="textext-ced06af1-28">
              <path
                 inkscape:connector-curvature="0"
                 style="stroke:none"
                 d="m 3.546875,-1.421875 c 0,-0.109375 -0.078125,-0.109375 -0.140625,-0.109375 -0.125,0 -0.125,0.015625 -0.203125,0.203125 -0.1875,0.46875 -0.578125,1.21875 -1.15625,1.21875 -0.265625,0 -0.265625,-0.25 -0.265625,-0.40625 0,-0.078125 0,-0.234375 0.078125,-0.515625 l 0.734375,-2.953125 0.84375,0 c 0.171875,0 0.28125,0 0.28125,-0.1875 0,-0.125 -0.09375,-0.125 -0.25,-0.125 l -0.796875,0 0.375,-1.46875 c 0.03125,-0.140625 0.03125,-0.171875 0.03125,-0.21875 0,-0.203125 -0.171875,-0.25 -0.265625,-0.25 -0.25,0 -0.34375,0.203125 -0.390625,0.359375 l -0.390625,1.578125 -0.84375,0 c -0.171875,0 -0.28125,0 -0.28125,0.1875 0,0.125 0.09375,0.125 0.25,0.125 l 0.796875,0 L 1.234375,-1.125 C 1.21875,-1.09375 1.1875,-0.921875 1.1875,-0.78125 c 0,0.484375 0.328125,0.890625 0.84375,0.890625 1.015625,0 1.515625,-1.484375 1.515625,-1.53125 z m 0,0"
                 id="path5342" />
            </symbol>
            <symbol
               style="overflow:visible"
               overflow="visible"
               id="textext-ced06af1-29">
              <path
                 inkscape:connector-curvature="0"
                 style="stroke:none"
                 d="m 5.84375,-1.421875 c 0,-0.109375 -0.078125,-0.109375 -0.15625,-0.109375 -0.125,0 -0.125,0.03125 -0.171875,0.171875 -0.078125,0.265625 -0.34375,1.25 -0.921875,1.25 -0.203125,0 -0.21875,-0.15625 -0.21875,-0.296875 0,-0.234375 0.09375,-0.5 0.1875,-0.734375 0.1875,-0.53125 0.59375,-1.65625 0.59375,-2.234375 0,-0.8125 -0.546875,-1.03125 -1.03125,-1.03125 -0.8125,0 -1.296875,0.59375 -1.421875,0.78125 C 2.625,-4.109375 2.296875,-4.40625 1.859375,-4.40625 1.5,-4.40625 1.3125,-4.171875 1.140625,-3.875 c -0.1875,0.390625 -0.3125,1 -0.3125,1 0,0.109375 0.09375,0.109375 0.15625,0.109375 0.125,0 0.125,-0.015625 0.1875,-0.234375 0.171875,-0.703125 0.359375,-1.1875 0.671875,-1.1875 0.265625,0 0.265625,0.296875 0.265625,0.40625 0,0.15625 -0.03125,0.34375 -0.078125,0.5 l -0.75,2.984375 c -0.015625,0.0625 -0.03125,0.125 -0.03125,0.140625 0,0.109375 0.078125,0.265625 0.28125,0.265625 0.125,0 0.296875,-0.0625 0.359375,-0.265625 L 2.296875,-1.75 C 2.34375,-1.96875 2.40625,-2.171875 2.453125,-2.390625 2.578125,-2.90625 2.578125,-2.90625 2.75,-3.203125 2.890625,-3.4375 3.34375,-4.1875 4.09375,-4.1875 c 0.4375,0 0.46875,0.453125 0.46875,0.65625 0,0.625 -0.453125,1.8125 -0.578125,2.203125 -0.140625,0.34375 -0.171875,0.4375 -0.171875,0.640625 0,0.4375 0.28125,0.796875 0.765625,0.796875 0.921875,0 1.265625,-1.484375 1.265625,-1.53125 z m 0,0"
                 id="path5345" />
            </symbol>
          </g>
        </defs>
        <g
           style="fill:#ffffff;fill-opacity:1"
           id="textext-ced06af1-30">
          <g
             style="fill:#ffffff;fill-opacity:1"
             id="g5348">
            <use
               height="2519.2913"
               width="3557.4802"
               style="fill:#ffffff;fill-opacity:1"
               xlink:href="#textext-ced06af1-0"
               x="223.43201"
               y="134.765"
               id="use5350" />
          </g>
          <g
             style="fill:#ffffff;fill-opacity:1"
             id="g5352">
            <use
               height="2519.2913"
               width="3557.4802"
               style="fill:#ffffff;fill-opacity:1"
               xlink:href="#textext-ced06af1-1"
               x="232.84467"
               y="134.765"
               id="use5354" />
            <use
               height="2519.2913"
               width="3557.4802"
               style="fill:#ffffff;fill-opacity:1"
               xlink:href="#textext-ced06af1-2"
               x="237.82596"
               y="134.765"
               id="use5356" />
          </g>
          <g
             style="fill:#ffffff;fill-opacity:1"
             id="g5358">
            <use
               height="2519.2913"
               width="3557.4802"
               style="fill:#ffffff;fill-opacity:1"
               xlink:href="#textext-ced06af1-3"
               x="245.07376"
               y="134.765"
               id="use5360" />
            <use
               height="2519.2913"
               width="3557.4802"
               style="fill:#ffffff;fill-opacity:1"
               xlink:href="#textext-ced06af1-4"
               x="252.26875"
               y="134.765"
               id="use5362" />
            <use
               height="2519.2913"
               width="3557.4802"
               style="fill:#ffffff;fill-opacity:1"
               xlink:href="#textext-ced06af1-5"
               x="257.80396"
               y="134.765"
               id="use5364" />
            <use
               height="2519.2913"
               width="3557.4802"
               style="fill:#ffffff;fill-opacity:1"
               xlink:href="#textext-ced06af1-6"
               x="261.70633"
               y="134.765"
               id="use5366" />
            <use
               height="2519.2913"
               width="3557.4802"
               style="fill:#ffffff;fill-opacity:1"
               xlink:href="#textext-ced06af1-7"
               x="267.24155"
               y="134.765"
               id="use5368" />
            <use
               height="2519.2913"
               width="3557.4802"
               style="fill:#ffffff;fill-opacity:1"
               xlink:href="#textext-ced06af1-8"
               x="271.66992"
               y="134.765"
               id="use5370" />
          </g>
          <g
             style="fill:#ffffff;fill-opacity:1"
             id="g5372">
            <use
               height="2519.2913"
               width="3557.4802"
               style="fill:#ffffff;fill-opacity:1"
               xlink:href="#textext-ced06af1-9"
               x="280.52267"
               y="134.765"
               id="use5374" />
            <use
               height="2519.2913"
               width="3557.4802"
               style="fill:#ffffff;fill-opacity:1"
               xlink:href="#textext-ced06af1-10"
               x="286.05789"
               y="134.765"
               id="use5376" />
            <use
               height="2519.2913"
               width="3557.4802"
               style="fill:#ffffff;fill-opacity:1"
               xlink:href="#textext-ced06af1-7"
               x="288.8255"
               y="134.765"
               id="use5378" />
          </g>
          <g
             style="fill:#ffffff;fill-opacity:1"
             id="g5380">
            <use
               height="2519.2913"
               width="3557.4802"
               style="fill:#ffffff;fill-opacity:1"
               xlink:href="#textext-ced06af1-23"
               x="296.57401"
               y="134.765"
               id="use5382" />
            <use
               height="2519.2913"
               width="3557.4802"
               style="fill:#ffffff;fill-opacity:1"
               xlink:href="#textext-ced06af1-24"
               x="301.66589"
               y="134.765"
               id="use5384" />
            <use
               height="2519.2913"
               width="3557.4802"
               style="fill:#ffffff;fill-opacity:1"
               xlink:href="#textext-ced06af1-25"
               x="305.86713"
               y="134.765"
               id="use5386" />
          </g>
          <g
             style="fill:#ffffff;fill-opacity:1"
             id="g5388">
            <use
               height="2519.2913"
               width="3557.4802"
               style="fill:#ffffff;fill-opacity:1"
               xlink:href="#textext-ced06af1-26"
               x="309.9418"
               y="134.765"
               id="use5390" />
            <use
               height="2519.2913"
               width="3557.4802"
               style="fill:#ffffff;fill-opacity:1"
               xlink:href="#textext-ced06af1-27"
               x="314.52463"
               y="134.765"
               id="use5392" />
            <use
               height="2519.2913"
               width="3557.4802"
               style="fill:#ffffff;fill-opacity:1"
               xlink:href="#textext-ced06af1-28"
               x="317.58014"
               y="134.765"
               id="use5394" />
            <use
               height="2519.2913"
               width="3557.4802"
               style="fill:#ffffff;fill-opacity:1"
               xlink:href="#textext-ced06af1-26"
               x="320.88971"
               y="134.765"
               id="use5396" />
            <use
               height="2519.2913"
               width="3557.4802"
               style="fill:#ffffff;fill-opacity:1"
               xlink:href="#textext-ced06af1-29"
               x="325.4725"
               y="134.765"
               id="use5398" />
          </g>
          <g
             style="fill:#ffffff;fill-opacity:1"
             id="g5400">
            <use
               height="2519.2913"
               width="3557.4802"
               style="fill:#ffffff;fill-opacity:1"
               xlink:href="#textext-ced06af1-11"
               x="331.07199"
               y="134.765"
               id="use5402" />
          </g>
          <g
             style="fill:#ffffff;fill-opacity:1"
             id="g5404">
            <use
               height="2519.2913"
               width="3557.4802"
               style="fill:#ffffff;fill-opacity:1"
               xlink:href="#textext-ced06af1-3"
               x="223.43201"
               y="146.72"
               id="use5406" />
          </g>
          <g
             style="fill:#ffffff;fill-opacity:1"
             id="g5408">
            <use
               height="2519.2913"
               width="3557.4802"
               style="fill:#ffffff;fill-opacity:1"
               xlink:href="#textext-ced06af1-7"
               x="230.34804"
               y="146.72"
               id="use5410" />
            <use
               height="2519.2913"
               width="3557.4802"
               style="fill:#ffffff;fill-opacity:1"
               xlink:href="#textext-ced06af1-8"
               x="234.77641"
               y="146.72"
               id="use5412" />
            <use
               height="2519.2913"
               width="3557.4802"
               style="fill:#ffffff;fill-opacity:1"
               xlink:href="#textext-ced06af1-8"
               x="240.31163"
               y="146.72"
               id="use5414" />
          </g>
          <g
             style="fill:#ffffff;fill-opacity:1"
             id="g5416">
            <use
               height="2519.2913"
               width="3557.4802"
               style="fill:#ffffff;fill-opacity:1"
               xlink:href="#textext-ced06af1-12"
               x="249.1644"
               y="146.72"
               id="use5418" />
            <use
               height="2519.2913"
               width="3557.4802"
               style="fill:#ffffff;fill-opacity:1"
               xlink:href="#textext-ced06af1-4"
               x="252.20897"
               y="146.72"
               id="use5420" />
            <use
               height="2519.2913"
               width="3557.4802"
               style="fill:#ffffff;fill-opacity:1"
               xlink:href="#textext-ced06af1-5"
               x="257.7442"
               y="146.72"
               id="use5422" />
          </g>
          <g
             style="fill:#ffffff;fill-opacity:1"
             id="g5424">
            <use
               height="2519.2913"
               width="3557.4802"
               style="fill:#ffffff;fill-opacity:1"
               xlink:href="#textext-ced06af1-13"
               x="264.97406"
               y="146.72"
               id="use5426" />
            <use
               height="2519.2913"
               width="3557.4802"
               style="fill:#ffffff;fill-opacity:1"
               xlink:href="#textext-ced06af1-14"
               x="268.57153"
               y="146.72"
               id="use5428" />
            <use
               height="2519.2913"
               width="3557.4802"
               style="fill:#ffffff;fill-opacity:1"
               xlink:href="#textext-ced06af1-5"
               x="274.10675"
               y="146.72"
               id="use5430" />
          </g>
          <g
             style="fill:#ffffff;fill-opacity:1"
             id="g5432">
            <use
               height="2519.2913"
               width="3557.4802"
               style="fill:#ffffff;fill-opacity:1"
               xlink:href="#textext-ced06af1-15"
               x="281.32666"
               y="146.72"
               id="use5434" />
            <use
               height="2519.2913"
               width="3557.4802"
               style="fill:#ffffff;fill-opacity:1"
               xlink:href="#textext-ced06af1-10"
               x="288.10721"
               y="146.72"
               id="use5436" />
            <use
               height="2519.2913"
               width="3557.4802"
               style="fill:#ffffff;fill-opacity:1"
               xlink:href="#textext-ced06af1-8"
               x="290.87482"
               y="146.72"
               id="use5438" />
            <use
               height="2519.2913"
               width="3557.4802"
               style="fill:#ffffff;fill-opacity:1"
               xlink:href="#textext-ced06af1-16"
               x="296.41003"
               y="146.72"
               id="use5440" />
          </g>
          <g
             style="fill:#ffffff;fill-opacity:1"
             id="g5442">
            <use
               height="2519.2913"
               width="3557.4802"
               style="fill:#ffffff;fill-opacity:1"
               xlink:href="#textext-ced06af1-17"
               x="301.38934"
               y="146.72"
               id="use5444" />
            <use
               height="2519.2913"
               width="3557.4802"
               style="fill:#ffffff;fill-opacity:1"
               xlink:href="#textext-ced06af1-18"
               x="306.37064"
               y="146.72"
               id="use5446" />
            <use
               height="2519.2913"
               width="3557.4802"
               style="fill:#ffffff;fill-opacity:1"
               xlink:href="#textext-ced06af1-18"
               x="314.67249"
               y="146.72"
               id="use5448" />
            <use
               height="2519.2913"
               width="3557.4802"
               style="fill:#ffffff;fill-opacity:1"
               xlink:href="#textext-ced06af1-7"
               x="322.9743"
               y="146.72"
               id="use5450" />
            <use
               height="2519.2913"
               width="3557.4802"
               style="fill:#ffffff;fill-opacity:1"
               xlink:href="#textext-ced06af1-8"
               x="327.40268"
               y="146.72"
               id="use5452" />
          </g>
          <g
             style="fill:#ffffff;fill-opacity:1"
             id="g5454">
            <use
               height="2519.2913"
               width="3557.4802"
               style="fill:#ffffff;fill-opacity:1"
               xlink:href="#textext-ced06af1-19"
               x="223.43201"
               y="158.675"
               id="use5456" />
            <use
               height="2519.2913"
               width="3557.4802"
               style="fill:#ffffff;fill-opacity:1"
               xlink:href="#textext-ced06af1-7"
               x="228.4133"
               y="158.675"
               id="use5458" />
            <use
               height="2519.2913"
               width="3557.4802"
               style="fill:#ffffff;fill-opacity:1"
               xlink:href="#textext-ced06af1-2"
               x="232.84167"
               y="158.675"
               id="use5460" />
            <use
               height="2519.2913"
               width="3557.4802"
               style="fill:#ffffff;fill-opacity:1"
               xlink:href="#textext-ced06af1-17"
               x="236.77193"
               y="158.675"
               id="use5462" />
            <use
               height="2519.2913"
               width="3557.4802"
               style="fill:#ffffff;fill-opacity:1"
               xlink:href="#textext-ced06af1-5"
               x="241.75322"
               y="158.675"
               id="use5464" />
            <use
               height="2519.2913"
               width="3557.4802"
               style="fill:#ffffff;fill-opacity:1"
               xlink:href="#textext-ced06af1-19"
               x="245.65558"
               y="158.675"
               id="use5466" />
            <use
               height="2519.2913"
               width="3557.4802"
               style="fill:#ffffff;fill-opacity:1"
               xlink:href="#textext-ced06af1-20"
               x="250.63687"
               y="158.675"
               id="use5468" />
          </g>
          <g
             style="fill:#ffffff;fill-opacity:1"
             id="g5470">
            <use
               height="2519.2913"
               width="3557.4802"
               style="fill:#ffffff;fill-opacity:1"
               xlink:href="#textext-ced06af1-3"
               x="257.82889"
               y="158.675"
               id="use5472" />
          </g>
          <g
             style="fill:#ffffff;fill-opacity:1"
             id="g5474">
            <use
               height="2519.2913"
               width="3557.4802"
               style="fill:#ffffff;fill-opacity:1"
               xlink:href="#textext-ced06af1-21"
               x="264.7449"
               y="158.675"
               id="use5476" />
            <use
               height="2519.2913"
               width="3557.4802"
               style="fill:#ffffff;fill-opacity:1"
               xlink:href="#textext-ced06af1-5"
               x="269.7262"
               y="158.675"
               id="use5478" />
            <use
               height="2519.2913"
               width="3557.4802"
               style="fill:#ffffff;fill-opacity:1"
               xlink:href="#textext-ced06af1-7"
               x="273.62857"
               y="158.675"
               id="use5480" />
            <use
               height="2519.2913"
               width="3557.4802"
               style="fill:#ffffff;fill-opacity:1"
               xlink:href="#textext-ced06af1-22"
               x="278.05695"
               y="158.675"
               id="use5482" />
          </g>
        </g>
      </g>
    </g>
  </g>
</svg>
