<?xml version="1.0" encoding="UTF-8" standalone="no"?>
<!-- Created with Inkscape (http://www.inkscape.org/) -->

<svg
   xmlns:dc="http://purl.org/dc/elements/1.1/"
   xmlns:cc="http://creativecommons.org/ns#"
   xmlns:rdf="http://www.w3.org/1999/02/22-rdf-syntax-ns#"
   xmlns:svg="http://www.w3.org/2000/svg"
   xmlns="http://www.w3.org/2000/svg"
   xmlns:sodipodi="http://sodipodi.sourceforge.net/DTD/sodipodi-0.dtd"
   xmlns:inkscape="http://www.inkscape.org/namespaces/inkscape"
   width="1052.3622"
   height="744.09448"
   id="svg2"
   version="1.1"
   inkscape:version="0.48.4 r9939"
   sodipodi:docname="betonmischer_abgeschleppt.svg"
   inkscape:export-filename="/home/ku3i/piraten/Gestaltung/pirat*n_xhain/gruen/betonmischer.png"
   inkscape:export-xdpi="54.73"
   inkscape:export-ydpi="54.73">
  <defs
     id="defs4" />
  <sodipodi:namedview
     id="base"
     pagecolor="#ffffff"
     bordercolor="#666666"
     borderopacity="1.0"
     inkscape:pageopacity="0.0"
     inkscape:pageshadow="2"
     inkscape:zoom="0.35"
     inkscape:cx="656.4857"
     inkscape:cy="-4.1767535"
     inkscape:document-units="px"
     inkscape:current-layer="layer1"
     showgrid="false"
     inkscape:window-width="1440"
     inkscape:window-height="823"
     inkscape:window-x="0"
     inkscape:window-y="25"
     inkscape:window-maximized="1"
     showguides="true"
     inkscape:guide-bbox="true">
    <sodipodi:guide
       orientation="0,1"
       position="1788.5714,-434.28571"
       id="guide9536" />
  </sodipodi:namedview>
  <metadata
     id="metadata7">
    <rdf:RDF>
      <cc:Work
         rdf:about="">
        <dc:format>image/svg+xml</dc:format>
        <dc:type
           rdf:resource="http://purl.org/dc/dcmitype/StillImage" />
        <dc:title />
      </cc:Work>
    </rdf:RDF>
  </metadata>
  <g
     inkscape:label="Ebene 1"
     inkscape:groupmode="layer"
     id="layer1"
     transform="translate(0,-308.2677)">
    <path
       style="fill:#60ae20"
       d="m 393.24271,308.26994 659.11839,0 0,97.38094 0,646.70902 -659.11839,0 -393.24162869,0 0,-646.70902 0,-97.38094 z"
       id="path4036"
       inkscape:connector-curvature="0" />
    <g
       id="g10776"
       transform="translate(278.8021,-46.467017)">
      <text
         sodipodi:linespacing="125%"
         id="text3038-0-4"
         y="1098.8292"
         x="-288.70651"
         style="font-size:405.72915649px;font-style:normal;font-variant:normal;font-weight:normal;font-stretch:normal;text-align:start;line-height:125%;letter-spacing:0px;word-spacing:0px;writing-mode:lr-tb;text-anchor:start;fill:#67cb16;fill-opacity:1;stroke:none;font-family:Politics Head;-inkscape-font-specification:Politics Head"
         xml:space="preserve"><tspan
           id="tspan4249-9-5"
           y="1098.8292"
           x="-288.70651"
           sodipodi:role="line">XHAIN</tspan></text>
      <text
         sodipodi:linespacing="125%"
         id="text3038-5-8-7"
         y="821.50024"
         x="-302.20624"
         style="font-size:299.58758545px;font-style:normal;font-variant:normal;font-weight:normal;font-stretch:normal;text-align:start;line-height:125%;letter-spacing:0px;word-spacing:0px;writing-mode:lr-tb;text-anchor:start;fill:#67cb16;fill-opacity:1;stroke:none;font-family:Politics Head;-inkscape-font-specification:Politics Head"
         xml:space="preserve"><tspan
           id="tspan4249-3-3-5"
           y="821.50024"
           x="-302.20624"
           sodipodi:role="line">PIRATEN</tspan></text>
      <text
         xml:space="preserve"
         style="font-size:405.72915649px;font-style:normal;font-variant:normal;font-weight:normal;font-stretch:normal;text-align:start;line-height:125%;letter-spacing:0px;word-spacing:0px;writing-mode:lr-tb;text-anchor:start;fill:#67cb16;fill-opacity:1;stroke:none;font-family:Politics Head;-inkscape-font-specification:Politics Head"
         x="-288.70651"
         y="611.28711"
         id="text3038-0-4-9"
         sodipodi:linespacing="125%"><tspan
           sodipodi:role="line"
           x="-288.70651"
           y="611.28711"
           id="tspan4249-9-5-9">XHAIN</tspan></text>
    </g>
    <g
       id="g10816"
       transform="translate(-4.0406102,48.487322)">
      <g
         transform="matrix(0.48899994,0.13376582,-0.13376582,0.48899994,590.19402,286.52994)"
         id="g9425">
        <path
           inkscape:connector-curvature="0"
           id="path3130"
           d="m 297.29371,892.426 c -20.39646,-13.8817 -28.3786,-27.42932 -28.3786,-48.1653 0,-33.50163 20.17969,-55.06356 54.17184,-57.88246 17.2963,-1.43434 22.86558,-0.14815 35.46639,8.19067 28.41373,18.80331 34.61876,58.00656 13.20853,83.45116 -20.41852,24.26603 -51.22446,30.22548 -74.46816,14.40593 z m 47.62307,-26.25488 c 7.821,-6.15201 10.13956,-11.36783 10.13956,-22.81009 0,-11.44227 -2.31856,-16.6581 -10.13956,-22.8101 -30.33005,-23.85762 -65.46857,16.82001 -38.13828,44.15028 11.54351,11.54354 24.68772,12.05012 38.13828,1.46991 z m 230.32846,28.51348 c -27.19778,-13.40524 -39.24525,-50.92598 -25.10419,-78.1845 27.831,-53.64738 108.86208,-33.37021 108.91129,27.2539 0.0353,42.58436 -45.09577,70.01065 -83.8071,50.9306 z m 41.21572,-26.16771 c 18.47706,-9.55489 21.39087,-31.32771 6.22248,-46.49607 -15.37584,-15.37585 -36.96016,-11.48906 -47.64924,8.58046 -6.92074,12.99422 -5.4324,20.09266 6.77188,32.29691 12.68204,12.68209 19.01135,13.70826 34.65488,5.6187 z m 134.9243,23.90911 c -20.46455,-13.92806 -28.37863,-27.41443 -28.37863,-48.36021 0,-34.97194 24.0287,-58.42826 59.85396,-58.42826 46.71146,0 73.06959,56.63825 42.99277,92.38254 -20.41842,24.26603 -51.22446,30.22548 -74.4681,14.40593 z m 47.62299,-26.25488 c 7.82109,-6.15201 10.13965,-11.36783 10.13965,-22.81009 0,-11.44227 -2.31856,-16.6581 -10.13965,-22.8101 -30.32992,-23.85762 -65.46856,16.82001 -38.13823,44.15028 11.54359,11.54354 24.6877,12.05012 38.13823,1.46991 z m -649.37662,-17.2377 c -4.25101,-11.0779 -2.58205,-57.70621 2.238,-62.52625 3.06148,-3.06148 19.67978,-4.61788 49.30706,-4.61788 44.49584,0 44.73639,-0.0492 55.6009,-11.38938 17.22912,-17.98334 40.59706,-27.09295 69.49866,-27.09295 29.46875,0 43.76682,5.24517 66.66445,24.45556 l 16.71909,14.02677 64.82876,0 c 35.65582,0 65.77319,1.52816 66.92755,3.39593 1.15432,1.86774 -1.39028,7.83156 -5.6547,13.25289 -5.72286,7.27544 -12.00822,10.16549 -23.99905,11.03495 l -16.2455,1.17798 -2.13078,18.54718 c -1.1719,10.20098 -4.63532,20.16508 -7.69646,22.14253 -3.06114,1.97743 -22.01689,3.15556 -42.12392,2.61807 l -36.55821,-0.97721 -2.38189,-19.51397 c -2.97103,-24.3404 -6.78084,-31.49955 -26.00564,-48.86799 -30.81582,-27.84024 -72.42122,-28.66187 -102.75416,-2.02918 -16.76664,14.72129 -24.76604,29.76017 -28.04294,52.72066 l -2.52475,17.69048 -46.6433,1.07686 c -39.98861,0.92317 -46.98283,0.19201 -49.02317,-5.12505 z m 534.73686,1.44643 c -0.887,-2.80209 -2.61663,-11.18723 -3.8437,-18.63368 -1.22708,-7.44642 -5.69115,-19.995 -9.92033,-27.88574 -4.22918,-7.89072 -7.68946,-16.08476 -7.68946,-18.20896 0,-2.24078 12.11666,-3.86218 28.86178,-3.86218 15.87399,0 28.86179,1.63273 28.86179,3.62827 0,1.99555 -3.59823,9.7267 -7.99605,17.18035 -4.39768,7.45364 -9.17847,21.81904 -10.6237,31.92311 -1.87183,13.0861 -4.55677,18.74251 -9.33286,19.66227 -3.68769,0.7102 -7.43047,-1.00135 -8.31747,-3.80344 z m 163.38495,-51.14237 c -12.22288,-13.0107 -6.68847,-18.26245 17.61904,-16.71891 18.07562,1.14782 18.81586,1.64908 18.81586,12.73954 0,10.43189 -1.30978,11.65498 -13.58892,12.68887 -10.50514,0.88451 -15.68977,-1.09202 -22.84598,-8.7095 z M 151.23538,755.10464 c -8.63024,-16.12575 -4.21556,-43.85563 16.58347,-104.16552 24.50739,-71.06282 28.81153,-79.90551 46.41801,-95.36422 17.01041,-14.93533 30.56082,-16.94484 104.26125,-15.46177 l 57.7235,1.16158 0,92.35759 c 0,105.02559 4.60539,93.97665 -36.89131,88.50708 -27.99593,-3.69008 -56.50099,4.4751 -87.20793,24.98043 -22.95175,15.32659 -23.34739,15.42832 -60.00373,15.42832 -32.54309,0 -37.36997,-0.87881 -40.88326,-7.44349 z m 62.85611,-61.99174 c 9.20087,-4.32491 28.15821,-17.29095 42.12743,-28.81343 14.29051,-11.78747 36.42306,-25.36334 50.60598,-31.04115 28.03108,-11.22161 30.2448,-14.82866 28.26793,-46.05984 l -1.20177,-18.98615 -43.24094,-1.0876 c -45.88813,-1.1542 -62.02957,2.98494 -70.04479,17.96151 -6.74053,12.59481 -38.71948,103.1491 -38.71948,109.64135 0,8.52785 11.89731,7.93136 32.20564,-1.61469 z m 194.5441,58.18654 -11.2487,-11.24868 0,-76.52518 c 0,-83.97521 1.97722,-92.77653 19.83534,-88.29444 8.2563,2.0722 13.46186,12.51281 40.09575,80.4183 l 30.60762,78.03693 150.48264,1.00627 c 117.4596,0.78544 151.34369,-0.059 154.40602,-3.84823 2.1577,-2.66998 17.47317,-50.55547 34.03422,-106.41219 16.56105,-55.85671 32.46486,-103.91153 35.3418,-106.78847 6.19635,-6.19629 25.23065,-6.86087 35.71993,-1.24717 4.58365,2.45308 7.42092,7.99755 7.38464,14.43088 -0.069,12.3501 -3.27431,17.80512 -12.44793,21.1898 -6.18107,2.28057 -6.73445,10.83899 -6.73445,104.17195 0,89.17552 -0.74891,101.97464 -6.08705,104.02308 -3.34791,1.28471 -108.24921,2.33584 -233.11414,2.33584 l -227.02702,0 -11.24867,-11.24869 z m 127.39965,-40.62829 c -18.44124,-3.46321 -30.62477,-7.89404 -33.97901,-12.35724 -16.19204,-21.54554 -46.94584,-101.2676 -46.94584,-121.69614 0,-10.93767 35.15716,-57.45389 53.89362,-71.30638 11.301,-8.35517 73.53651,-33.99231 128.60941,-52.97903 27.85812,-9.60427 54.10563,-11.3194 102.81365,-6.71839 l 25.56103,2.41451 25.42809,66.21952 c 13.98541,36.42072 25.42808,68.33578 25.42808,70.92235 0,6.11108 -53.96022,59.36019 -72.36901,71.41526 -7.81889,5.12023 -41.92347,20.07797 -75.78788,33.23942 -68.89605,26.77648 -86.41431,29.52946 -132.65214,20.84612 z M 822.86331,535.90144 c -4.97853,-8.05541 -29.10844,-73.66212 -29.10844,-79.14281 0,-4.13217 3.84165,-5.91742 12.73337,-5.91742 16.94388,0 24.36847,6.24387 31.40187,26.40788 5.26087,15.08279 5.2456,18.88524 -0.15131,37.44916 -6.07956,20.91309 -10.85139,27.71463 -14.87564,21.20319 z"
           style="fill:#141414" />
        <path
           style="fill:#f5e104;fill-opacity:1"
           d="m 228.87663,803.26667 c 1.38358,1.74187 1.68724,2.36346 1.53162,3.13587 -0.20759,1.03027 0.13681,3.11465 0.6968,4.21915 0.35577,0.70162 1.62699,2.19103 3.64757,4.27378 3.82598,3.94352 4.91727,4.95606 7.50064,6.95928 1.85755,1.44048 2.90587,2.16492 5.53911,3.82769 0.50285,0.31755 0.90351,0.69229 0.89034,0.8328 -0.0132,0.14056 -0.84309,0.46681 -1.84436,0.72512 -9.89371,2.55257 -20.86376,5.54438 -22.5538,6.15102 -0.58195,0.2089 -1.10768,0.49237 -1.16835,0.63006 -0.21181,0.48074 0.42462,1.51052 2.28806,3.70218 2.70382,3.18016 6.34622,6.29608 10.95424,9.37093 1.76946,1.18073 8.70496,4.24441 11.23359,4.96306 6.42535,1.82429 12.08169,2.48325 13.98624,1.62928 1.14338,-0.5126 1.46427,0.23906 0.5398,1.26426 -0.41216,0.457 -1.58073,0.91313 -4.9744,1.94153 -5.26592,1.59565 -9.71464,3.37092 -13.78825,5.50232 -3.4904,1.8262 -7.30675,4.23346 -8.8992,5.61335 -1.9256,1.66859 -4.46717,5.94286 -3.88011,6.52526 1.17714,1.16783 12.78588,2.58276 29.48816,3.59431 2.73073,0.16538 4.40407,0.36545 4.46965,0.53437 0.15007,0.38663 -1.38692,1.96225 -3.24561,3.32707 -2.15949,1.58572 -6.23772,4.98349 -8.32194,6.93345 -5.62495,5.26252 -9.54237,10.57779 -11.30827,15.34314 -1.05663,2.85129 -1.33245,4.50991 -1.24231,7.46958 0.0575,1.88901 0.17724,2.56878 0.51001,2.89689 1.94802,1.92062 8.50442,1.6797 15.93366,-0.58557 2.67685,-0.81624 10.01685,-3.70165 11.46217,-4.50589 0.49134,-0.27341 1.01298,-0.44446 1.15914,-0.38006 0.30404,0.13392 0.2649,0.29076 -1.20094,4.8153 -2.40322,7.41785 -3.13976,12.87699 -2.1429,15.88234 0.21113,0.63643 0.44853,1.88211 0.5275,2.76826 0.0781,0.88617 0.32995,2.19915 0.55762,2.91788 0.55121,1.73999 1.05376,1.9587 3.58679,1.56133 2.45924,-0.38611 4.00667,-1.00018 6.91522,-2.74433 3.12984,-1.8768 6.83272,-3.78504 7.43423,-3.83109 0.39031,-0.0299 0.54183,0.0964 0.7754,0.64552 0.46882,1.10263 0.81856,3.54272 0.6931,4.83573 -0.13674,1.40879 0.005,3.21011 0.45218,5.76322 0.69408,3.95712 2.08348,6.69014 3.5512,6.98593 0.58561,0.11808 0.73564,0.30293 1.26967,1.5732 1.05609,2.50997 1.29753,2.64429 2.8381,1.57926 0.41983,-0.29028 1.75471,-0.99943 2.96646,-1.57604 7.00376,-3.33252 13.75918,-8.96897 18.2577,-15.23348 2.78545,-3.87894 3.48301,-5.14805 6.12233,-11.13852 1.38582,-3.14538 2.57587,-5.69405 2.64451,-5.66376 0.0685,0.0302 0.078,0.70237 0.0205,1.49358 -0.53899,7.42358 -0.23214,10.34227 1.57852,15.0135 2.50087,6.45186 6.58652,11.6738 14.58688,18.64367 2.45898,2.14234 3.1973,2.58015 3.62439,2.14962 0.54939,-0.55376 0.90173,-4.05574 0.75033,-7.45801 -0.15512,-3.48756 0.0825,-5.97846 1.01157,-10.59931 0.80287,-3.99312 1.90701,-8.36453 2.61844,-10.36639 0.79167,-2.22779 1.28627,-4.41692 1.40423,-6.21591 0.048,-0.73316 0.17052,-1.36543 0.2729,-1.405 0.10198,-0.0397 0.39501,0.36103 0.65124,0.89005 2.91099,6.01268 5.06228,9.45855 8.30982,13.31053 4.2361,5.02457 8.58866,8.51871 14.66387,11.77173 2.75437,1.47481 4.31016,2.08299 4.67926,1.8293 0.813,-0.55887 0.66519,-1.87697 -1.52341,-13.58061 -0.31948,-1.70848 -0.76093,-4.08183 -0.98107,-5.27418 -0.22009,-1.19239 -0.29528,-2.20811 -0.1669,-2.2572 0.12817,-0.0493 1.99402,0.88708 4.14683,2.07938 6.79815,3.76701 10.56806,5.66719 10.99947,5.54416 1.27167,-0.36254 1.86948,-6.55061 1.11849,-11.57754 -0.6429,-4.30312 -1.543,-7.49494 -3.77366,-13.3814 -0.87537,-2.30998 -1.51356,-4.23024 -1.41818,-4.26727 0.0954,-0.0371 1.83058,0.77596 3.85619,1.80642 5.47937,2.78761 9.83235,4.2919 13.33364,4.60823 0.8795,0.0795 2.7805,0.37402 4.2245,0.65475 2.74999,0.53459 4.30071,0.58578 4.72712,0.15595 0.431,-0.43445 0.23758,-1.798 -0.57852,-4.07953 -0.43064,-1.20373 -1.07298,-3.81029 -1.42745,-5.79228 -1.10731,-6.19168 -2.04441,-9.28113 -3.86758,-12.75053 -2.34373,-4.46003 -5.31454,-7.92663 -9.33416,-10.89185 -1.7239,-1.2717 -1.89061,-1.42618 -1.68868,-1.56497 0.0968,-0.0665 1.36188,0.01 2.81132,0.16978 9.13681,1.00805 16.68753,-0.43973 22.80231,-4.3722 1.24371,-0.79984 3.5139,-1.97438 5.04488,-2.61008 3.46385,-1.4383 6.46054,-3.07014 6.48294,-3.53031 0.0186,-0.38154 -0.26725,-0.57937 -3.39834,-2.35211 -3.97299,-2.24941 -9.24461,-5.90346 -9.73184,-6.74573 -0.2574,-0.44499 -0.0251,-0.56814 8.28612,-4.39426 2.25331,-1.03722 4.13595,-1.9745 4.18365,-2.08277 0.35547,-0.80682 -8.78321,-8.09767 -15.20243,-12.12848 -1.47803,-0.92812 -3.49149,-1.96112 -5.95729,-3.05635 -2.08839,-0.92524 -3.68974,-1.73379 -3.64523,-1.83484 0.0437,-0.0992 1.19403,-0.92849 2.55629,-1.84279 5.19249,-3.48504 7.97155,-5.96167 10.73288,-9.56473 2.88588,-3.76558 6.03619,-9.30687 5.73378,-10.0856 -0.11409,-0.294 -1.36305,-0.30253 -6.51113,-0.0445 -6.75599,0.33858 -14.22893,0.86749 -19.23166,1.36113 -1.66843,0.16464 -3.17069,0.24009 -3.33863,0.16482 -0.35858,-0.158 -0.31424,-0.27833 0.64023,-1.7369 7.54226,-11.52499 12.01149,-19.21037 11.67512,-20.07664 -0.0861,-0.22159 -0.75782,-0.36737 -2.3649,-0.5137 -1.2346,-0.11235 -2.55666,-0.30656 -2.93783,-0.43221 l -0.69316,-0.22784 1.6866,-4.12621 c 1.53301,-3.75044 1.91312,-5.09526 1.49265,-5.28051 -0.36903,-0.16259 -8.24672,0.67192 -14.14193,1.49799 -2.20599,0.30911 -2.25647,0.27085 -1.79265,-1.35798 0.15361,-0.53935 0.64584,-2.47587 1.0939,-4.3034 l 0.81467,-3.32273 -0.60744,-0.3409 c -1.33047,-0.74692 -7.41621,-0.26389 -11.71757,0.9299 -1.07221,0.2976 -2.93255,0.95048 -4.13402,1.45087 -8.25638,3.4386 -13.11685,8.2581 -19.21932,19.05737 -4.41296,7.80934 -6.29848,15.37646 -4.61685,18.52867 0.2215,0.41508 0.73455,0.90007 1.26921,1.1997 0.82694,0.4634 0.96284,0.47084 1.72972,0.0944 1.14541,-0.56217 3.05611,-2.15643 6.03207,-5.03296 1.38529,-1.33903 2.63905,-2.42333 2.78607,-2.40961 0.14692,0.014 0.37389,0.29933 0.50408,0.63467 0.29819,0.76791 0.25684,0.82688 -3.57172,5.09115 -1.64408,1.8312 -3.0361,3.4358 -3.09337,3.5658 -0.21804,0.49487 0.49896,0.45228 2.34197,-0.13911 2.25673,-0.72419 3.05568,-0.8836 3.1544,-0.6294 0.0398,0.10251 -0.46421,0.88383 -1.12037,1.73571 -0.65612,0.85185 -1.38062,1.82185 -1.61003,2.15557 -0.99171,1.44268 -0.81368,3.01021 0.57645,5.07499 0.41238,0.61255 1.07959,1.68112 1.48271,2.37469 0.71554,1.23098 0.75592,1.26451 1.69789,1.4104 0.53064,0.0821 1.05001,0.18693 1.15398,0.23273 0.40135,0.17684 0.25865,0.97324 -0.31321,1.74769 -0.45647,0.61806 -0.54975,0.89692 -0.46699,1.39373 0.24155,1.45055 1.67694,2.61823 3.10284,2.52427 0.37223,-0.025 1.60571,-0.30882 2.74109,-0.63167 5.07077,-1.44214 7.30166,-1.81971 7.02366,-1.18872 -0.13559,0.30782 -1.92068,1.30992 -5.58087,3.13289 -3.69413,1.83988 -3.75387,1.88075 -4.18609,2.86179 -0.61434,1.39432 -0.48612,3.25004 0.39957,5.78436 1.09208,3.12474 2.9601,5.88534 4.91168,7.25867 0.54309,0.3821 0.94228,0.79714 0.88717,0.92219 -0.0549,0.12496 -0.87766,0.52281 -1.82792,0.88391 -2.7996,1.06375 -3.05187,1.29638 -4.17804,3.85241 -1.0286,2.33458 -1.17119,3.45642 -0.51315,4.0363 0.17392,0.15335 1.62365,0.6392 3.22147,1.07991 4.68617,1.29239 7.10813,2.52425 6.71534,3.41576 -0.25771,0.58494 -0.99031,0.553 -3.96188,-0.17268 -2.96025,-0.72291 -4.98843,-0.91261 -6.10977,-0.57144 -0.72204,0.21968 -0.73574,0.23969 -0.70894,1.03205 0.0151,0.44433 0.21571,1.39679 0.44588,2.11649 0.23022,0.71968 0.3316,1.36824 0.22535,1.44125 -0.10635,0.0728 -0.69906,0.0397 -1.3173,-0.0713 -1.97011,-0.35763 -3.7742,0.53637 -4.52597,2.24266 -0.72512,1.6458 -0.72452,3.54807 0.002,6.23488 0.78234,2.89338 0.95005,4.3663 0.51635,4.53474 -0.19225,0.0747 -0.90382,-0.25918 -2.14956,-1.00891 -1.02402,-0.61637 -2.19963,-1.19947 -2.61242,-1.29587 -1.38722,-0.32412 -3.17962,0.83629 -3.93301,2.54623 -0.54927,1.24667 -0.52609,1.42748 0.40666,3.17743 1.01866,1.91106 2.57062,7.30435 2.28881,7.95397 -0.20318,0.46889 -2.80357,-1.70056 -6.55205,-5.46641 -2.68351,-2.6959 -3.3535,-3.16253 -4.49466,-3.13053 -1.04727,0.0295 -2.72148,1.03269 -3.0796,1.84549 -0.23018,0.52244 0.44347,5.74146 1.27447,9.88087 0.22361,1.11275 0.32865,2.10891 0.23371,2.21365 -0.19842,0.21852 -0.82358,-1.02404 -3.01791,-5.99706 -1.74346,-3.95134 -2.48038,-5.24955 -3.14627,-5.54294 -0.54196,-0.23877 -1.95763,0.13783 -2.64284,0.70471 -1.18322,0.97732 -1.32422,1.4653 -1.15095,3.9833 0.1911,2.77745 0.0719,6.22532 -0.23976,6.93269 -0.27619,0.62685 -1.1925,0.83443 -1.66473,0.37715 -0.22356,-0.21653 -0.44729,-1.67432 -0.63222,-4.12057 -0.15826,-2.08199 -0.37088,-3.79455 -0.47445,-3.8056 -0.30015,-0.0318 -3.07316,6.64169 -3.81526,9.18242 -0.37191,1.27319 -0.76452,2.35485 -0.8726,2.40364 -0.10803,0.0488 -0.32103,-0.95297 -0.47356,-2.2263 -0.49873,-4.16371 -1.77463,-8.0245 -3.28423,-9.93756 -0.57465,-0.72825 -0.77579,-0.86936 -1.074,-0.75357 -0.56856,0.22081 -1.64029,3.10449 -2.77892,7.47713 -1.49605,5.74524 -1.70259,6.34038 -2.25496,6.49786 -0.2538,0.0723 -0.77241,-0.005 -1.15249,-0.1729 -1.20143,-0.52935 -1.07986,-1.36784 0.61915,-4.26962 1.3869,-2.36886 2.53537,-5.57579 2.68036,-7.4844 0.19824,-2.60943 -1.20382,-3.3084 -4.39394,-2.19059 -0.8021,0.28104 -1.45139,0.37771 -1.59302,0.23718 -0.13129,-0.13034 -0.389,-0.90388 -0.57231,-1.71877 -0.37577,-1.67049 -0.69318,-1.88774 -1.69591,-1.16095 -0.65431,0.47431 -3.84483,4.08473 -4.11538,4.65705 -0.0765,0.16228 -0.57966,0.6811 -1.11769,1.1531 -1.46195,1.28261 -1.52921,0.71872 -0.32668,-2.73956 1.19592,-3.43922 1.60912,-5.47883 1.29462,-6.38987 -0.19948,-0.5778 -0.48686,-0.82647 -1.77617,-1.53625 -1.08131,-0.59529 -1.70946,-0.83602 -2.11518,-0.80979 -0.83745,0.0549 -2.66566,0.57463 -5.34509,1.52274 -1.56606,0.55413 -2.3882,0.73631 -2.46224,0.54559 -0.0741,-0.19068 0.1883,-0.75805 0.78542,-1.6993 0.96259,-1.51696 1.17024,-2.24362 0.69994,-2.45083 -0.16221,-0.0715 -2.84366,0.82463 -5.95897,1.99124 -5.4969,2.05853 -8.37505,2.8571 -9.11776,2.52989 -0.42968,-0.18932 -0.54552,-0.79453 -0.34383,-1.79582 0.14254,-0.70699 0.22838,-0.7595 2.47747,-1.51348 4.83736,-1.62162 9.65899,-3.5167 10.17914,-4.00074 0.40721,-0.37895 0.56967,-0.70766 0.66238,-1.34057 0.11209,-0.76432 -0.26479,-2.13875 -0.63074,-2.29995 -0.0823,-0.0363 -1.07656,-0.10999 -2.20909,-0.16369 -5.83564,-0.27676 -6.08279,-0.64006 -2.21768,-3.26015 1.12386,-0.76185 2.0849,-1.47941 2.13563,-1.59452 0.18777,-0.4262 -0.53172,-2.14352 -1.12052,-2.67445 -0.66649,-0.60098 -1.84072,-0.86069 -3.08421,-0.68181 -1.37814,0.19818 -5.21279,1.0323 -8.03152,1.74711 -4.71051,1.1946 -5.32215,1.28763 -5.83631,0.88789 -0.64172,-0.49902 -0.7813,-1.54336 -0.26753,-2.00149 0.21956,-0.1959 2.76615,-0.77963 5.65894,-1.29728 5.58554,-0.99948 7.08835,-1.38885 7.12409,-1.84573 0.0381,-0.48733 -2.23574,-1.24904 -5.02127,-1.68202 -1.43619,-0.22323 -2.76805,-0.50723 -2.95974,-0.63097 -0.26523,-0.17133 0.58058,-0.59178 3.54059,-1.76021 4.22848,-1.66912 4.74201,-2.06799 3.85581,-2.9946 -0.37811,-0.39539 -1.36986,-0.75062 -5.40948,-1.93714 -5.78393,-1.699 -5.22697,-1.49852 -5.08129,-1.82921 0.0644,-0.14602 0.78475,-0.38967 1.601,-0.54161 2.14896,-0.40018 7.62927,-2.58153 8.64597,-3.44143 1.68073,-1.42157 1.70458,-2.76239 0.0776,-4.36312 -0.91024,-0.8955 -6.28959,-3.32883 -9.08467,-4.10936 -1.84355,-0.51486 -2.83811,-1.16862 -2.60006,-1.70893 0.2663,-0.60442 6.24656,-0.2069 9.92304,0.65958 1.93328,0.45565 2.2033,0.4124 1.64109,-0.26287 -0.24955,-0.29982 -1.17358,-1.21598 -2.05336,-2.03604 -1.8032,-1.6808 -2.20688,-2.28399 -1.49365,-2.23153 3.11419,0.22887 5.58398,-0.0263 7.18171,-0.74181 1.32428,-0.59312 1.78006,-1.0383 2.32174,-2.26775 0.90274,-2.04897 -0.45109,-5.74912 -3.63966,-9.94412 -0.35301,-0.46447 -0.57377,-0.91951 -0.49055,-1.01124 0.0833,-0.0915 1.32182,0.11247 2.75257,0.45368 3.70436,0.88351 4.70766,0.938 6.00119,0.32609 0.5968,-0.28233 1.43958,-0.81046 1.87279,-1.17361 l 0.78767,-0.66028 -0.19006,-0.85794 c -0.66001,-2.97741 -1.475,-5.24077 -2.43697,-6.76769 -1.85265,-2.94068 -5.02947,-6.62173 -8.3859,-9.71675 -5.72959,-5.28344 -14.43418,-11.46231 -20.69141,-14.68755 -7.60545,-3.92016 -9.66667,-5.00879 -12.52479,-6.61487 -4.23438,-2.37944 -4.89768,-2.63118 -5.18931,-1.96926 -0.16798,0.38131 0.61594,3.69455 1.21994,5.15563 1.61423,3.90521 9.03116,16.00475 12.44815,20.30733 0.77513,0.97607 1.3794,1.84273 1.34276,1.92593 -0.0755,0.17139 -0.72437,0.0807 -4.13965,-0.57791 -8.02269,-1.54734 -21.38683,-3.68555 -25.79463,-4.12715 -3.75334,-0.37598 -6.07111,-0.18392 -6.15446,0.51006 -0.0159,0.13105 0.49382,0.89633 1.13238,1.70021 z"
           id="path3156"
           inkscape:connector-curvature="0" />
        <path
           inkscape:connector-curvature="0"
           id="path3156-1"
           d="m 651.50939,747.97501 c -1.79838,1.30928 -2.43216,1.58659 -3.19738,1.39869 -1.02065,-0.25059 -3.11764,0.006 -4.24466,0.51918 -0.71592,0.32602 -2.25736,1.53365 -4.42304,3.46507 -4.10057,3.65717 -5.15799,4.70503 -7.26784,7.20208 -1.51714,1.79547 -2.28492,2.81248 -4.05669,5.37364 -0.33836,0.48908 -0.72958,0.87367 -0.86942,0.85462 -0.13988,-0.0191 -0.43104,-0.86194 -0.64711,-1.87316 -2.13525,-9.99208 -4.66419,-21.07799 -5.19941,-22.792 -0.18428,-0.59021 -0.44545,-1.12736 -0.58048,-1.19374 -0.47145,-0.23175 -1.52699,0.36086 -3.79491,2.13072 -3.29078,2.56801 -6.55678,6.07649 -9.82224,10.55145 -1.25393,1.71837 -4.60588,8.51923 -5.42998,11.01549 -2.09225,6.34315 -2.98794,11.96687 -2.21464,13.90556 0.46418,1.16387 -0.30024,1.45296 -1.28579,0.48628 -0.4393,-0.43096 -0.84601,-1.61765 -1.73113,-5.05147 -1.37331,-5.32823 -2.96039,-9.84751 -4.91901,-14.00695 -1.67816,-3.56395 -3.92318,-7.47794 -5.23505,-9.12688 -1.58635,-1.99389 -5.75023,-4.71255 -6.35673,-4.15043 -1.21619,1.1271 -3.11691,12.66626 -4.82824,29.31141 -0.27979,2.72137 -0.54988,4.38486 -0.72136,4.44329 -0.39259,0.13373 -1.90234,-1.46801 -3.18799,-3.38232 -1.49372,-2.22412 -4.7174,-6.4413 -6.57819,-8.6055 -5.02192,-5.84078 -10.16815,-9.97774 -14.85523,-11.942 -2.80444,-1.17533 -4.45003,-1.52049 -7.41086,-1.55459 -1.88977,-0.0218 -2.57396,0.0693 -2.91575,0.38801 -2.00066,1.86574 -2.03501,8.42646 -0.0834,15.94421 0.70323,2.70873 3.27815,10.16333 4.02105,11.6411 0.25256,0.50239 0.40157,1.03075 0.33109,1.17408 -0.14657,0.29815 -0.30161,0.25246 -4.76068,-1.40191 -7.31049,-2.71231 -12.73392,-3.67722 -15.77844,-2.80733 -0.64474,0.18425 -1.89927,0.36919 -2.78797,0.4109 -0.88866,0.0408 -2.21105,0.23739 -2.93869,0.43471 -1.76158,0.47773 -2.00119,0.97067 -1.71045,3.51813 0.2826,2.47326 0.83121,4.04511 2.45182,7.02426 1.74383,3.20583 3.49504,6.98551 3.51582,7.58841 0.0135,0.39124 -0.11907,0.53731 -0.67749,0.74764 -1.12133,0.42215 -3.57394,0.66921 -4.86055,0.48962 -1.40181,-0.19573 -3.2075,-0.12995 -5.77712,0.20999 -3.98274,0.52746 -6.77166,1.80097 -7.12876,3.25499 -0.14258,0.58013 -0.33308,0.72249 -1.62509,1.20255 -2.55207,0.94986 -2.6964,1.18544 -1.69693,2.76936 0.2724,0.43163 0.92493,1.79509 1.4502,3.02996 3.03575,7.13741 8.38383,14.12335 14.4541,18.88073 3.75865,2.94572 4.99739,3.69591 10.87186,6.58423 3.08448,1.51656 5.58097,2.81249 5.54783,2.8798 -0.0326,0.0675 -0.70504,0.0485 -1.49314,-0.0422 -7.39442,-0.84996 -10.32341,-0.66582 -15.0665,0.94727 -6.55111,2.2279 -11.93986,6.09086 -19.23923,13.79177 -2.24362,2.36693 -2.71201,3.08624 -2.29978,3.53102 0.53024,0.57213 4.01434,1.07109 7.41997,1.06256 3.49098,-0.009 5.96972,0.33325 10.54753,1.45534 3.95594,0.96968 8.27716,2.25627 10.24742,3.05105 2.19262,0.88442 4.35907,1.47044 6.15152,1.66377 0.73049,0.0788 1.35701,0.22798 1.39232,0.33158 0.0353,0.10353 -0.37729,0.37953 -0.91659,0.61335 -6.12952,2.65616 -9.66261,4.66099 -13.64743,7.74408 -5.19787,4.02157 -8.87154,8.22371 -12.37657,14.15708 -1.58907,2.69009 -2.26199,4.21899 -2.02398,4.59841 0.52427,0.83573 1.84742,0.74331 13.63256,-0.95231 1.72038,-0.24752 4.11016,-0.58901 5.3107,-0.75894 1.20056,-0.16987 2.21855,-0.20238 2.26221,-0.072 0.0439,0.13016 -0.97,1.95503 -2.25152,4.05595 -4.0489,6.63413 -6.10557,10.32098 -6.00075,10.75719 0.30887,1.28576 6.46641,2.14263 11.52043,1.60322 4.3263,-0.46181 7.55307,-1.22721 13.52793,-3.20894 2.34466,-0.77768 4.29002,-1.33476 4.32302,-1.23791 0.033,0.0969 -0.85207,1.79643 -1.96661,3.777 -3.01506,5.35761 -4.70063,9.64363 -5.16357,13.12857 -0.1163,0.87541 -0.49038,2.76235 -0.83141,4.19333 -0.64948,2.72513 -0.76569,4.27233 -0.35413,4.71641 0.41599,0.44884 1.78644,0.31284 4.10022,-0.40686 1.22073,-0.37977 3.85194,-0.91218 5.84705,-1.18319 6.23269,-0.84658 9.35874,-1.65324 12.90158,-3.32925 4.55442,-2.15455 8.14261,-4.97731 11.27386,-8.86898 1.3429,-1.66904 1.50423,-1.82912 1.63443,-1.62156 0.0623,0.0995 -0.067,1.36028 -0.28758,2.80174 -1.39047,9.08648 -0.26075,16.69128 3.4117,22.96565 0.74698,1.27617 1.82523,3.59365 2.39616,5.14995 1.29171,3.52114 2.7964,6.58365 3.25521,6.62533 0.38043,0.0346 0.59007,-0.24269 2.49261,-3.29667 2.41412,-3.87512 6.2861,-8.9888 7.14808,-9.44026 0.4554,-0.23851 0.5687,-10e-4 4.04276,8.46318 0.94178,2.29484 1.79924,4.21515 1.90542,4.26734 0.79119,0.38903 8.45903,-8.43574 12.7556,-14.68022 0.9893,-1.43778 2.10587,-3.40614 3.30357,-5.82382 1.01207,-2.04771 1.88707,-3.61375 1.98615,-3.56503 0.0972,0.0481 0.87759,1.23194 1.73393,2.63135 3.26414,5.33412 5.62199,8.21465 9.10605,11.12471 3.64118,3.04131 9.04541,6.42132 9.83615,6.15185 0.29853,-0.10166 0.35945,-1.34917 0.31767,-6.50354 -0.0548,-6.76423 -0.26978,-14.25278 -0.55309,-19.27182 -0.0945,-1.67387 -0.10687,-3.17798 -0.0246,-3.3426 0.17295,-0.35161 0.29128,-0.30228 1.7085,0.71255 11.19844,8.01912 18.68954,12.80685 19.56916,12.50711 0.225,-0.0767 0.39887,-0.74171 0.61246,-2.34126 0.16407,-1.2288 0.41385,-2.54149 0.55509,-2.91711 l 0.25671,-0.68299 4.05184,1.85821 c 3.68283,1.68894 5.0105,2.1252 5.21324,1.71287 0.1779,-0.36189 -0.32537,-8.26766 -0.90338,-14.19233 -0.21629,-2.21701 -0.17604,-2.26584 1.43199,-1.7341 0.53243,0.17608 2.4466,0.74914 4.25371,1.27348 l 3.28563,0.95335 0.36614,-0.59257 c 0.80206,-1.29798 0.57478,-7.39863 -0.43751,-11.74627 -0.25235,-1.08377 -0.82661,-2.96986 -1.27616,-4.19125 -3.08918,-8.39339 -7.70051,-13.45176 -18.23427,-20.00194 -7.61731,-4.73669 -15.09868,-6.93802 -18.31865,-5.39011 -0.42401,0.20388 -0.9301,0.69613 -1.2519,1.21776 -0.49769,0.80676 -0.5108,0.94225 -0.1669,1.72423 0.51362,1.16798 2.02631,3.1439 4.77545,6.23791 1.27974,1.44025 2.31049,2.7384 2.29061,2.88472 -0.0199,0.14623 -0.31475,0.36099 -0.65526,0.47701 -0.77974,0.26571 -0.83693,0.22192 -4.93683,-3.78218 -1.7606,-1.71945 -3.30539,-3.17757 -3.43286,-3.24023 -0.48529,-0.23864 -0.47283,0.47954 0.0407,2.34573 0.62887,2.28513 0.75463,3.09007 0.49651,3.17804 -0.10414,0.0355 -0.86358,-0.50089 -1.68718,-1.19221 -0.82358,-0.69128 -1.76233,-1.45584 -2.08612,-1.69904 -1.39981,-1.05139 -2.97343,-0.93926 -5.09471,0.36301 -0.62931,0.38632 -1.72493,1.00812 -2.43481,1.3818 -1.25991,0.66326 -1.2951,0.70219 -1.48039,1.63722 -0.10431,0.52672 -0.23084,1.04123 -0.28096,1.14319 -0.1935,0.3936 -0.98325,0.2176 -1.73301,-0.38624 -0.59837,-0.48199 -0.87308,-0.5869 -1.37294,-0.52501 -1.45941,0.18047 -2.68628,1.56562 -2.65223,2.99421 0.009,0.37294 0.24119,1.61724 0.51613,2.76517 1.22812,5.12681 1.51177,7.37158 0.89301,7.06736 -0.30185,-0.14845 -1.2282,-1.97394 -2.896,-5.7074 -1.68329,-3.76807 -1.72161,-3.82948 -2.68365,-4.30247 -1.36732,-0.6723 -3.22678,-0.62206 -5.79603,0.15654 -3.16781,0.96004 -6.00436,2.7106 -7.45835,4.60285 -0.40454,0.52657 -0.83596,0.908 -0.95859,0.84769 -0.12234,-0.0606 -0.48553,-0.89882 -0.80644,-1.86339 -0.94537,-2.84177 -1.1672,-3.10358 -3.67374,-4.33598 -2.28938,-1.12563 -3.40424,-1.31518 -4.01124,-0.68203 -0.16048,0.16735 -0.7067,1.59543 -1.21409,3.17334 -1.48785,4.62783 -2.82023,6.99597 -3.69448,6.56612 -0.57361,-0.28203 -0.51097,-1.01266 0.33873,-3.95114 0.84647,-2.92732 1.12109,-4.94575 0.82727,-6.08041 -0.18919,-0.73064 -0.20861,-0.74517 -1.00139,-0.75162 -0.44457,-0.004 -1.40463,0.15691 -2.13335,0.35669 -0.7287,0.19982 -1.38095,0.2739 -1.44943,0.16467 -0.0683,-0.10926 -0.0104,-0.7001 0.1265,-1.31315 0.43998,-1.95335 -0.37755,-3.79338 -2.05079,-4.61606 -1.61393,-0.79356 -3.51455,-0.87274 -6.22947,-0.25966 -2.92367,0.66026 -4.40231,0.76603 -4.55241,0.32563 -0.0665,-0.19522 0.29684,-0.89215 1.0982,-2.10532 0.65878,-0.99727 1.2907,-2.14739 1.40434,-2.55577 0.38202,-1.37238 -0.70217,-3.21191 -2.379,-4.03637 -1.22253,-0.60105 -1.40412,-0.58556 -3.19171,0.27301 -1.95209,0.93758 -7.40574,2.26191 -8.04297,1.95309 -0.45997,-0.22263 1.81668,-2.72974 5.73648,-6.31694 2.80612,-2.56805 3.30043,-3.21788 3.31633,-4.35938 0.0145,-1.04757 -0.91761,-2.76239 -1.71465,-3.1543 -0.51233,-0.25191 -5.75501,0.2022 -9.92565,0.8588 -1.12115,0.17673 -2.12084,0.2399 -2.2215,0.14063 -0.21001,-0.2074 1.05769,-0.77989 6.11839,-2.76365 4.02101,-1.57616 5.34899,-2.25796 5.67006,-2.91095 0.26129,-0.53146 -0.0556,-1.96168 -0.59322,-2.67008 -0.92681,-1.22318 -1.40846,-1.38454 -3.93151,-1.31705 -2.78302,0.0744 -6.22285,-0.18934 -6.91652,-0.5304 -0.61473,-0.3022 -0.78368,-1.22646 -0.30697,-1.6791 0.22572,-0.21428 1.6916,-0.37664 4.14345,-0.45879 2.08681,-0.0708 3.80677,-0.21136 3.82216,-0.31437 0.0447,-0.2985 -6.50692,-3.34909 -9.01427,-4.19713 -1.25647,-0.42499 -2.3207,-0.86264 -2.36492,-0.97266 -0.0442,-0.10996 0.9656,-0.28076 2.2442,-0.37974 4.18096,-0.3236 8.09189,-1.43641 10.0666,-2.86442 0.75171,-0.5436 0.90114,-0.73863 0.79796,-1.04144 -0.19676,-0.57733 -3.03294,-1.76909 -7.35396,-3.09016 -5.67742,-1.73577 -6.26337,-1.9671 -6.39754,-2.52559 -0.0616,-0.2566 0.0379,-0.7715 0.2211,-1.14421 0.57932,-1.17816 1.41195,-1.02153 4.23989,0.79768 2.30859,1.48506 5.46452,2.76707 7.36537,2.992 2.5988,0.30753 3.35599,-1.06396 2.373,-4.29816 -0.24714,-0.8132 -0.31649,-1.46597 -0.17014,-1.60159 0.13569,-0.12571 0.91939,-0.35072 1.74126,-0.49969 1.68479,-0.30535 1.91517,-0.61336 1.23108,-1.6457 -0.44645,-0.67364 -3.91982,-4.01282 -4.48028,-4.30715 -0.15896,-0.0832 -0.6562,-0.60772 -1.10521,-1.16508 -1.22015,-1.51449 -0.65393,-1.55801 2.75086,-0.21146 3.38601,1.33916 5.40649,1.83757 6.32992,1.56157 0.58568,-0.17506 0.84617,-0.45177 1.60942,-1.71016 0.64013,-1.05539 0.907,-1.67288 0.89779,-2.07936 -0.0198,-0.83902 -0.46229,-2.68742 -1.29717,-5.40427 -0.48794,-1.58794 -0.63546,-2.41699 -0.44181,-2.48296 0.19363,-0.066 0.74948,0.21991 1.66487,0.85599 1.47524,1.02536 2.19255,1.26333 2.41931,0.80214 0.0782,-0.15908 -0.7046,-2.87576 -1.73949,-6.03726 -1.82609,-5.57844 -2.50322,-8.48755 -2.14513,-9.21588 0.20721,-0.42135 0.81671,-0.5117 1.80866,-0.26819 0.70038,0.17211 0.74926,0.26003 1.4082,2.53878 1.41725,4.90116 3.10838,9.79804 3.57018,10.33804 0.36152,0.42274 0.68313,0.59885 1.31159,0.71803 0.75896,0.14403 2.14798,-0.17482 2.32439,-0.5337 0.0396,-0.0807 0.15507,-1.07098 0.25623,-2.20027 0.52133,-5.81889 0.89467,-6.05058 3.35031,-2.07895 0.71403,1.15483 1.39064,2.14514 1.50353,2.20064 0.41796,0.20546 2.16394,-0.44132 2.71909,-1.00732 0.62842,-0.64069 0.93716,-1.803 0.81061,-3.05291 -0.1402,-1.38523 -0.8127,-5.25149 -1.40862,-8.09773 -0.99592,-4.75648 -1.06322,-5.37148 -0.64226,-5.86842 0.52551,-0.62023 1.57479,-0.71588 2.01095,-0.18333 0.18653,0.22758 0.66291,2.79642 1.05874,5.70839 0.76427,5.62254 1.09023,7.14037 1.54521,7.19523 0.48531,0.0586 1.34175,-2.18136 1.89121,-4.94627 0.28332,-1.42556 0.62291,-2.74435 0.75458,-2.93067 0.18235,-0.25778 0.5669,0.6049 1.61013,3.61133 1.49025,4.29478 1.86723,4.8246 2.83019,3.97805 0.41091,-0.36119 0.80743,-1.33715 2.16238,-5.32344 1.94016,-5.70757 1.71649,-5.15952 2.04078,-5.00008 0.14336,0.07 0.35641,0.8004 0.47398,1.6223 0.30965,2.16386 2.25917,7.73087 3.07566,8.78275 1.3498,1.73888 2.68845,1.81896 4.35601,0.26061 0.93291,-0.87187 3.58978,-6.14441 4.48689,-8.90428 0.59175,-1.82033 1.28661,-2.78659 1.8165,-2.52607 0.59272,0.29141 -0.0553,6.24974 -1.0753,9.88662 -0.53636,1.91248 -0.50448,2.18407 0.19378,1.65069 0.31003,-0.23676 1.26415,-1.12154 2.1204,-1.96615 1.75497,-1.73109 2.37457,-2.1091 2.29223,-1.3987 -0.35933,3.10184 -0.20804,5.58016 0.43986,7.2065 0.53703,1.34801 0.9627,1.82206 2.16835,2.41484 2.00931,0.98786 5.76299,-0.20951 10.08805,-3.21927 0.47887,-0.3332 0.94277,-0.53468 1.03093,-0.44769 0.088,0.0869 -0.16787,1.31593 -0.56876,2.73112 -1.03814,3.66402 -1.13467,4.66416 -0.57757,5.98223 0.25705,0.60811 0.74935,1.47231 1.094,1.92036 l 0.62666,0.81467 0.86516,-0.15388 c 3.00247,-0.53451 5.29804,-1.25384 6.86397,-2.1509 3.01581,-1.72765 6.82691,-4.74726 10.06002,-7.97087 5.51915,-5.50287 12.05778,-13.94058 15.54268,-20.057 4.23578,-7.43428 5.40994,-9.44802 7.13451,-12.23625 2.55499,-4.13083 2.83434,-4.78297 2.18525,-5.10211 -0.37393,-0.18387 -3.71716,0.46039 -5.20229,1.00256 -3.96949,1.44898 -16.36954,8.35175 -20.8117,11.58522 -1.00771,0.7335 -1.89896,1.30089 -1.98055,1.26078 -0.16822,-0.0823 -0.0503,-0.72712 0.75107,-4.11175 1.88255,-7.95071 4.57955,-21.21339 5.20569,-25.59877 0.53313,-3.73426 0.43846,-6.05805 -0.25141,-6.17044 -0.13026,-0.0214 -0.91627,0.45577 -1.74622,1.06006 z"
           style="fill:#f5e104;fill-opacity:1" />
        <path
           inkscape:connector-curvature="0"
           id="path3156-2"
           d="m 885.64244,872.0502 c -1.64331,-1.49931 -2.04207,-2.06461 -2.01145,-2.85196 0.0408,-1.05017 -0.63106,-3.05311 -1.35978,-4.05434 -0.46296,-0.63601 -1.95516,-1.90397 -4.28163,-3.63837 -4.40515,-3.28392 -5.64377,-4.10975 -8.51317,-5.67601 -2.06324,-1.1263 -3.21355,-1.67454 -6.07798,-2.89675 -0.54699,-0.23342 -1.00222,-0.53958 -1.01159,-0.68039 -0.009,-0.14088 0.758,-0.59512 1.70535,-1.00958 9.36095,-4.09554 19.71458,-8.79612 21.28644,-9.66417 0.54127,-0.2989 1.01514,-0.66247 1.05311,-0.80807 0.13255,-0.50835 -0.65975,-1.42362 -2.84843,-3.29057 -3.17574,-2.70899 -7.26786,-5.20512 -12.30674,-7.5069 -1.93491,-0.88389 -9.26979,-2.80401 -11.8806,-3.1108 -6.63385,-0.7778 -12.32296,-0.52759 -14.06721,0.61875 -1.04715,0.68815 -1.48365,-0.003 -0.73424,-1.16216 0.33412,-0.5168 1.41515,-1.1532 4.60174,-2.70891 4.94462,-2.41387 9.05385,-4.87494 12.73606,-7.62785 3.15504,-2.35874 6.53935,-5.34302 7.89173,-6.95889 1.6353,-1.95395 3.46377,-6.57842 2.79146,-7.05988 -1.34809,-0.96548 -13.03402,-0.5137 -29.68424,1.14751 -2.7222,0.2716 -4.40607,0.34056 -4.4977,0.18428 -0.20973,-0.35779 1.05673,-2.15807 2.67436,-3.80148 1.8794,-1.90937 5.36451,-5.91322 7.11161,-8.1702 4.71512,-6.09113 7.73611,-11.96241 8.7206,-16.94816 0.58908,-2.98317 0.59726,-4.66454 0.0369,-7.57208 -0.35754,-1.85576 -0.58405,-2.50778 -0.96482,-2.77872 -2.22902,-1.58589 -8.66338,-0.30395 -15.63707,3.1155 -2.51271,1.23211 -9.29955,5.24957 -10.59834,6.27371 -0.44154,0.34817 -0.92928,0.60011 -1.08384,0.5598 -0.32148,-0.0838 -0.30782,-0.24486 0.4188,-4.9451 1.19128,-7.7059 1.04906,-13.21266 -0.41368,-16.02091 -0.30978,-0.59468 -0.74252,-1.78666 -0.9616,-2.64894 -0.21822,-0.86242 -0.67595,-2.11854 -1.01517,-2.79183 -0.82127,-1.63 -1.35224,-1.76589 -3.78966,-0.97023 -2.36636,0.77282 -3.79627,1.62547 -6.38993,3.81055 -2.79104,2.35127 -6.14278,4.82483 -6.72927,4.96608 -0.38057,0.0917 -0.55027,-0.009 -0.86831,-0.5138 -0.63842,-1.01391 -1.37228,-3.36717 -1.45433,-4.66365 -0.0893,-1.41259 -0.51587,-3.1684 -1.3642,-5.61766 -1.31538,-3.79609 -3.12227,-6.27299 -4.61837,-6.33127 -0.59693,-0.0234 -0.77449,-0.18191 -1.50398,-1.35093 -1.44233,-2.30977 -1.70207,-2.40392 -3.05339,-1.10714 -0.36824,0.35342 -1.57316,1.26611 -2.67762,2.02833 -6.38369,4.40532 -12.15531,11.04563 -15.59882,17.94657 -2.13219,4.27301 -2.61874,5.63702 -4.27041,11.97135 -0.86724,3.32593 -1.63624,6.03159 -1.70883,6.01262 -0.0725,-0.0189 -0.18887,-0.681 -0.25811,-1.47127 -0.65008,-7.41466 -1.4178,-10.24724 -3.94925,-14.57052 -3.4963,-5.9713 -8.36138,-10.47597 -17.36959,-16.08286 -2.76876,-1.72341 -3.56739,-2.03805 -3.92046,-1.545 -0.45419,0.63419 -0.24436,4.14757 0.44691,7.48233 0.70853,3.41833 0.8706,5.91529 0.68927,10.62512 -0.15673,4.07003 -0.55065,8.56148 -0.93421,10.65109 -0.4268,2.32543 -0.56647,4.56539 -0.39644,6.3602 0.0693,0.73145 0.0488,1.37517 -0.0457,1.43053 -0.0943,0.0554 -0.44747,-0.29351 -0.78468,-0.77498 -3.83134,-5.47239 -6.50392,-8.53169 -10.32344,-11.81734 -4.98219,-4.28587 -9.83566,-7.04229 -16.35136,-9.28633 -2.95408,-1.01737 -4.58687,-1.37003 -4.91085,-1.0608 -0.71363,0.68121 -0.35782,1.95894 3.66663,13.16471 0.58748,1.6358 1.40124,3.90856 1.80845,5.05064 0.40717,1.14211 0.64315,2.13291 0.52422,2.20182 -0.11869,0.0691 -2.10984,-0.55822 -4.42504,-1.39247 -7.31129,-2.63635 -11.33568,-3.91194 -11.742,-3.72178 -1.19771,0.56042 -0.80244,6.76472 0.73949,11.60791 1.31994,4.14583 2.71685,7.15357 5.85645,12.6097 1.23205,2.14108 2.16789,3.93522 2.07963,3.98697 -0.0883,0.0517 -1.93079,-0.47454 -4.09464,-1.16928 -5.85337,-1.87947 -10.39036,-2.67135 -13.89734,-2.42608 -0.88094,0.0616 -2.80458,0.0735 -4.27487,0.0263 -2.80002,-0.0898 -4.3391,0.10657 -4.69163,0.59882 -0.35629,0.49754 0.0517,1.81289 1.22081,3.93535 0.61683,1.11978 1.66606,3.59079 2.33163,5.49103 2.0792,5.93634 3.49632,8.83713 5.84872,11.97193 3.02407,4.02988 6.50901,6.97914 10.94954,9.26642 1.90442,0.98093 2.0936,1.1069 1.91636,1.27607 -0.085,0.0811 -1.34608,0.20718 -2.80249,0.28008 -9.18074,0.45983 -16.40455,3.09157 -21.81506,7.9476 -1.10045,0.98771 -3.15464,2.50877 -4.56485,3.38018 -3.19061,1.97155 -5.88918,4.05979 -5.83801,4.51764 0.0424,0.37963 0.35609,0.52942 3.72953,1.78092 4.2805,1.58802 10.06675,4.35593 10.68189,5.10988 0.32498,0.39832 0.11528,0.55689 -7.48061,5.65773 -2.05937,1.38282 -3.76872,2.60793 -3.79857,2.72242 -0.22245,0.85313 9.96065,6.59563 16.93986,9.55276 1.60696,0.6809 3.75923,1.38008 6.36797,2.06865 2.20908,0.58087 3.91876,1.12409 3.89091,1.23092 -0.0274,0.1049 -1.03093,1.1068 -2.23021,2.22638 -4.57123,4.26746 -6.92044,7.15504 -9.07275,11.15186 -2.2494,4.17709 -4.47707,10.14933 -4.05451,10.86998 0.15945,0.27208 1.39384,0.0816 6.43515,-0.99291 6.61584,-1.41014 13.90919,-3.12235 18.76947,-4.40635 1.62092,-0.42824 3.09199,-0.74196 3.26977,-0.69439 0.37917,0.0989 0.35455,0.22474 -0.35546,1.81668 -5.61068,12.57902 -8.79901,20.87803 -8.32897,21.67968 0.12027,0.20505 0.80665,0.24198 2.41652,0.13054 1.23675,-0.0857 2.57287,-0.10419 2.96917,-0.0411 l 0.7206,0.11455 -1.00799,4.34215 c -0.91619,3.94669 -1.07731,5.33489 -0.63269,5.45082 0.39021,0.10175 8.03448,-1.97662 13.72291,-3.73095 2.12862,-0.65647 2.18451,-0.62682 1.98603,1.05517 -0.0657,0.55693 -0.24333,2.54714 -0.39464,4.42269 l -0.27514,3.41006 0.65398,0.23982 c 1.43243,0.52551 7.36359,-0.92049 11.41995,-2.78403 1.01115,-0.46454 2.74377,-1.40535 3.85022,-2.09069 7.60344,-4.70952 11.63438,-10.24153 15.93924,-21.8748 3.113,-8.41242 3.76942,-16.18325 1.60727,-19.02743 -0.28477,-0.37452 -0.8685,-0.77162 -1.44407,-0.98228 -0.89018,-0.3258 -1.02553,-0.31151 -1.72268,0.18225 -1.04126,0.73739 -2.67371,2.61558 -5.1536,5.92931 -1.15439,1.54255 -2.21946,2.81267 -2.3668,2.82254 -0.14726,0.01 -0.41679,-0.23597 -0.59872,-0.5463 -0.41667,-0.71062 -0.38524,-0.77543 2.71539,-5.59497 1.33149,-2.06964 2.45022,-3.87544 2.48605,-4.0129 0.13645,-0.52328 -0.56462,-0.36706 -2.28994,0.51028 -2.11259,1.07433 -2.87596,1.35894 -3.01391,1.12371 -0.0556,-0.0949 0.31754,-0.94649 0.82967,-1.89198 0.51209,-0.94547 1.07288,-2.01847 1.24621,-2.38446 0.74933,-1.5822 0.32393,-3.10137 -1.37726,-4.91843 -0.50467,-0.53906 -1.33353,-1.48774 -1.84196,-2.10827 -0.90244,-1.10132 -0.94764,-1.12799 -1.90083,-1.12201 -0.53694,0.003 -1.06638,-0.0174 -1.17631,-0.046 -0.42439,-0.11068 -0.41034,-0.91964 0.0309,-1.77527 0.35221,-0.68286 0.3999,-0.97302 0.23908,-1.45031 -0.46946,-1.39358 -2.07249,-2.31777 -3.46523,-1.99795 -0.3635,0.084 -1.53604,0.56059 -2.60551,1.06013 -4.77641,2.23124 -6.91871,2.95926 -6.74474,2.29206 0.0849,-0.32549 1.68757,-1.59908 5.01075,-3.98165 3.35399,-2.40469 3.40647,-2.45455 3.67694,-3.49189 0.38445,-1.47437 -0.0376,-3.28598 -1.31562,-5.64692 -1.57575,-2.91096 -3.85955,-5.33886 -6.00493,-6.38388 -0.597,-0.29073 -1.05718,-0.6369 -1.0227,-0.76913 0.0344,-0.13211 0.7832,-0.6559 1.66384,-1.16372 2.59447,-1.49601 2.80647,-1.76584 3.51122,-4.46859 0.6437,-2.4686 0.60583,-3.59882 -0.13618,-4.06653 -0.19613,-0.12367 -1.70472,-0.37247 -3.35234,-0.5531 -4.83218,-0.52963 -7.4194,-1.36008 -7.17359,-2.30276 0.16128,-0.61852 0.88962,-0.70366 3.93882,-0.46046 3.03759,0.24228 5.0701,0.10658 6.1228,-0.40881 0.67785,-0.33185 0.68819,-0.3538 0.53553,-1.13177 -0.0856,-0.43626 -0.43537,-1.34463 -0.77723,-2.01849 -0.34188,-0.67383 -0.54525,-1.29797 -0.45198,-1.38697 0.0934,-0.0888 0.6838,-0.15055 1.31184,-0.13939 2.00192,0.0394 3.64063,-1.13054 4.11108,-2.93477 0.45378,-1.74027 0.15025,-3.61817 -0.99478,-6.15501 -1.23312,-2.73188 -1.63324,-4.15929 -1.2319,-4.39465 0.17792,-0.10432 0.93356,0.11194 2.28279,0.65373 1.10912,0.44542 2.36259,0.83387 2.78545,0.86332 1.42113,0.0991 3.00588,-1.33198 3.47734,-3.14007 0.34373,-1.31823 0.29206,-1.49304 -0.90748,-3.07214 -1.30997,-1.72443 -3.701,-6.80175 -3.52624,-7.48796 0.12592,-0.49526 3.0386,1.23239 7.33894,4.35326 3.07859,2.23415 3.81434,2.58813 4.93584,2.3748 1.02921,-0.19587 2.52229,-1.4529 2.74641,-2.31234 0.14405,-0.55244 -1.35213,-5.59757 -2.83171,-9.55183 -0.39795,-1.06294 -0.66029,-2.02966 -0.58325,-2.14819 0.16109,-0.24732 0.97617,0.87982 3.93442,5.43994 2.35046,3.62328 3.28472,4.78757 3.98883,4.97117 0.57305,0.14942 1.91069,-0.44782 2.49687,-1.11658 1.0125,-1.15328 1.074,-1.65749 0.50195,-4.11576 -0.63096,-2.71157 -1.06234,-6.13442 -0.86731,-6.88239 0.17284,-0.66284 1.0444,-1.0137 1.58344,-0.63744 0.25519,0.17815 0.7082,1.58171 1.28034,3.96729 0.48779,2.03022 0.97041,3.68707 1.07442,3.68149 0.3014,-0.016 1.97627,-7.04633 2.30429,-9.67281 0.16441,-1.31618 0.37977,-2.44655 0.47869,-2.51193 0.0989,-0.0654 0.46869,0.88969 0.82205,2.12247 1.15542,4.03115 3.02987,7.6395 4.82486,9.28775 0.68329,0.62743 0.90433,0.73472 1.1803,0.57292 0.52614,-0.30854 1.12496,-3.32609 1.55273,-7.82425 0.56205,-5.91018 0.67118,-6.5306 1.19142,-6.77404 0.23904,-0.11183 0.76343,-0.11758 1.16531,-0.0128 1.27041,0.33126 1.28391,1.17842 0.0687,4.31372 -0.99198,2.55949 -1.61509,5.9084 -1.45429,7.81574 0.21984,2.60769 1.71531,3.07447 4.68671,1.46291 0.74713,-0.40519 1.37272,-0.60403 1.53493,-0.48784 0.15036,0.10777 0.52797,0.83038 0.83872,1.60569 0.63698,1.58934 0.98494,1.75327 1.85913,0.87607 0.57044,-0.57246 3.14529,-4.64488 3.32126,-5.25297 0.0497,-0.17241 0.46379,-0.76474 0.91979,-1.31639 1.23905,-1.49905 1.39523,-0.95307 0.75878,2.65258 -0.63298,3.58578 -0.71611,5.66516 -0.26054,6.51448 0.28895,0.53868 0.61226,0.7384 1.99815,1.23381 1.16232,0.41549 1.82078,0.55312 2.21715,0.46262 0.81801,-0.1876 2.54013,-0.9918 5.03439,-2.35452 1.45783,-0.79644 2.24046,-1.10721 2.34392,-0.93072 0.10347,0.17647 -0.0652,0.77836 -0.50479,1.80269 -0.70872,1.65089 -0.79801,2.40135 -0.30071,2.53102 0.17152,0.0448 2.67606,-1.26695 5.56582,-2.91478 5.09896,-2.90762 7.8132,-4.15435 8.59854,-3.94958 0.45434,0.11848 0.66508,0.69751 0.62542,1.71814 -0.0282,0.72067 -0.10452,0.78618 -2.20484,1.88869 -4.5174,2.37127 -8.9757,5.01001 -9.41213,5.5707 -0.34167,0.43896 -0.44971,0.78934 -0.44045,1.42894 0.0111,0.77243 0.60201,2.06929 0.98896,2.17016 0.087,0.0227 1.08033,-0.0628 2.20696,-0.19019 5.80525,-0.65609 6.10709,-0.33679 2.70855,2.86538 -0.98819,0.9311 -1.82271,1.79255 -1.85445,1.91427 -0.11751,0.45067 0.86629,2.0315 1.53211,2.46187 0.7537,0.48718 1.9543,0.55659 3.15345,0.18196 1.32899,-0.41512 4.98186,-1.84925 7.65079,-3.00381 4.46016,-1.92948 5.04918,-2.11873 5.62044,-1.80598 0.713,0.39046 1.01711,1.39925 0.58285,1.93335 -0.18557,0.22837 -2.6067,1.21019 -5.38014,2.18191 -5.35509,1.8762 -6.77672,2.49991 -6.73925,2.95665 0.0399,0.4872 2.40611,0.87707 5.22505,0.86094 1.45341,-0.008 2.81352,0.0599 3.02245,0.15158 0.28913,0.12692 -0.47893,0.67669 -3.2151,2.30159 -3.90871,2.32119 -4.35218,2.79675 -3.32973,3.57041 0.43626,0.33013 1.47192,0.5229 5.64893,1.05097 5.98069,0.75624 5.39892,0.64701 5.30776,0.99668 -0.0403,0.15441 -0.71269,0.50968 -1.49432,0.78966 -2.05781,0.73729 -7.12082,3.76353 -7.9876,4.77436 -1.4329,1.67108 -1.24291,2.99859 0.61817,4.3198 1.04123,0.73912 6.73945,2.28475 9.62316,2.61021 1.90201,0.21471 2.98797,0.70174 2.83901,1.27307 -0.16665,0.63911 -6.1339,1.19901 -9.90144,0.92905 -1.98118,-0.14196 -2.24086,-0.0563 -1.57829,0.52086 0.29411,0.25626 1.35225,1.01358 2.35139,1.68307 2.04785,1.37219 2.54244,1.9034 1.82995,1.96519 -3.11088,0.26997 -5.50853,0.91515 -6.97192,1.87601 -1.21294,0.79644 -1.592,1.30852 -1.93098,2.60855 -0.56493,2.16657 1.36087,5.60392 5.17679,9.2376 0.42247,0.40233 0.71287,0.81641 0.64533,0.92022 -0.0675,0.10361 -1.32287,0.0994 -2.7897,-0.01 -3.79778,-0.28232 -4.79696,-0.17634 -5.97654,0.63375 -0.54422,0.37377 -1.29214,1.02936 -1.66199,1.45687 l -0.67246,0.77728 0.32425,0.81674 c 1.12573,2.83429 2.29076,4.939 3.48361,6.29323 2.2973,2.60813 6.0198,5.7363 9.82626,8.25732 6.49783,4.3036 16.07532,9.01744 22.76631,11.20506 8.13266,2.65898 10.34095,3.40548 13.41836,4.53592 4.55927,1.67476 5.25418,1.81766 5.43668,1.11775 0.10512,-0.4032 -1.19642,-3.54932 -2.02539,-4.89558 -2.21553,-3.5983 -11.46462,-14.36231 -15.52318,-18.06584 -0.92068,-0.84017 -1.65525,-1.59953 -1.63232,-1.68752 0.0472,-0.18123 0.70227,-0.19505 4.17884,-0.0887 8.16672,0.24999 21.70083,0.23272 26.12269,-0.0332 3.76533,-0.22651 6.02293,-0.78525 5.9947,-1.48364 -0.005,-0.1319 -0.63025,-0.80626 -1.38869,-1.49819 z"
           style="fill:#f5e104;fill-opacity:1" />
      </g>
      <path
         sodipodi:nodetypes="sssssssssssssssssscccsscscccccsscsscssssccccsssssssscsscccccscssssscssccccccssccccccsccsscccccssssssssssccsssssssssssccsscccsscscssssccscssssscccssss"
         style="fill:#141414;fill-opacity:1"
         d="m 174.32011,830.5139 c -18.29512,-4.45986 -30.32496,-22.20261 -27.73298,-40.90315 4.03574,-29.11679 39.74036,-41.79596 61.02123,-21.6694 5.40615,5.11287 8.20443,9.57405 10.37018,16.53263 8.23838,26.46996 -16.57916,52.6412 -43.65843,46.03992 z m 16.72578,-15.95696 c 6.74597,-2.39309 13.56031,-12.35033 13.56031,-19.81465 0,-7.15971 -5.88443,-16.12182 -12.77593,-19.45794 -7.73185,-3.74294 -19.61173,-1.27608 -25.08678,5.20921 -8.91419,10.55898 -6.08164,27.00863 5.6844,33.01117 6.24476,3.18585 11.72967,3.49585 18.618,1.05221 z m 214.77613,15.9387 c -14.45667,-3.58803 -25.65339,-15.87157 -27.6736,-30.35993 -2.81852,-20.21335 10.61507,-38.29249 30.95777,-41.66337 15.56647,-2.57946 31.66606,6.33353 38.85489,21.51059 2.5008,5.27957 2.66775,6.20325 2.66775,14.75936 0,8.77791 -0.1145,9.36554 -2.99135,15.35049 -7.75531,16.13385 -25.0383,24.56674 -41.81546,20.40286 z m 16.11045,-15.60397 c 3.64056,-1.11702 9.67247,-6.67879 11.91339,-10.98472 2.43707,-4.68306 2.43226,-13.65529 -0.01,-18.34856 -2.08235,-4.00183 -7.58463,-9.18166 -11.4839,-10.81089 -1.53214,-0.64015 -5.18216,-1.16398 -8.11111,-1.16398 -4.21715,0 -6.2484,0.48226 -9.76108,2.31734 -17.40637,9.09313 -14.32648,34.5054 4.80412,39.63959 4.07227,1.09288 7.55418,0.91431 12.64846,-0.64878 z m -55.97345,-15.64181 c -0.30111,-0.48723 -0.28153,-4.24578 0.0432,-8.35232 l 0.59095,-7.46656 -32.66035,0.57992 c -17.96321,0.31895 -40.67711,0.81034 -50.47542,1.09204 l -17.81508,0.51204 -0.69873,3.54123 c -1.1579,5.86837 -1.91198,6.069 -21.84204,5.8107 l -17.33686,-0.22462 -0.20379,-2.48926 c -1.55211,-18.95909 -14.78765,-34.75532 -32.64879,-38.9655 -14.76241,-3.47975 -29.45831,0.7223 -40.24275,11.50672 -6.20187,6.20184 -9.94249,13.28066 -11.83036,22.38789 l -1.39517,6.7304 -22.94214,0.22046 -22.942146,0.22047 -1.729958,-2.19935 c -1.34866,-1.71453 -1.729966,-3.38283 -1.729966,-7.56878 0,-4.73866 0.298513,-5.74648 2.540488,-8.57719 4.549618,-5.7444 5.114051,-10.73936 2.330792,-20.62632 -1.685283,-5.9866 -1.726721,-7.02388 -0.898434,-22.48986 0.625586,-11.68089 1.296327,-17.48022 2.39923,-20.7439 0.841987,-2.49158 8.620734,-17.18466 17.286104,-32.6513 19.38901,-34.60702 22.3012,-38.04129 34.15603,-40.2793 2.20143,-0.4156 18.75151,-0.85065 36.77795,-0.96679 29.81007,-0.19207 33.02524,-0.0803 35.53743,1.23548 4.82737,2.52835 4.86509,2.85367 5.54236,47.80274 0.34038,22.5901 0.85147,48.16734 1.13575,56.83829 l 0.51688,15.76536 76.17333,0.21184 76.17336,0.21175 3.29081,-2.64451 c 1.80995,-1.45457 2.9877,-2.94763 2.61738,-3.31803 -0.3704,-0.3704 -28.47484,-0.76927 -62.45417,-0.88626 l -61.78072,-0.21284 -0.5082,-14.52072 c -0.62115,-17.74815 -1.34756,-20.06798 -10.97354,-35.04486 -7.85265,-12.21781 -9.94026,-20.26604 -8.11475,-31.28438 3.18869,-19.24626 21.64962,-32.58546 41.32315,-29.85862 14.77713,2.04819 27.01461,13.2761 30.43088,27.92032 1.46709,6.2886 0.58365,16.66496 -1.89591,22.27055 -0.9465,2.13971 -1.72091,4.26006 -1.72091,4.7119 0,0.45184 5.33292,7.96552 11.85091,16.6971 6.51806,8.73152 12.70322,17.08741 13.7449,18.56852 l 1.89392,2.69306 90.18204,0.21109 71.49427,0.21117 0,8.71244 0,8.71243 -37.54645,0.21591 c -22.92989,0.13186 -18.85863,0.52183 -18.85863,1.00184 0,0.43222 1.30653,1.82862 2.90332,3.10312 l 2.90331,2.31718 15.95531,0.41488 34.64314,0.41488 0,5.80829 0,5.80829 -27.79682,4.2783 c -15.28826,2.35307 -10.63251,4.51346 -12.49457,4.80089 l -3.38565,0.52241 -3.06977,-6.21122 c -10.29892,-20.83849 -35.81342,-29.50014 -56.53947,-19.19408 -14.38988,7.1554 -22.48077,19.30892 -24.11888,36.22963 -0.32626,3.36947 -1.00716,6.40057 -1.51322,6.73587 -1.35616,0.89846 -3.64661,0.76404 -4.27383,-0.25083 z M 134.60527,727.07405 c 1.26272,-0.4801 5.53677,-3.9971 9.49789,-7.81564 10.83487,-10.44486 15.56933,-12.29811 35.18913,-13.7744 13.12598,-0.98766 16.842,-2.1963 20.87491,-6.78959 3.69129,-4.2042 4.439,-8.91042 4.439,-27.93988 0,-17.84057 0.0332,-17.70779 -4.76995,-19.08532 -1.34284,-0.38511 -13.23417,-0.43705 -26.42517,-0.11541 -22.23559,0.54219 -24.23306,0.71406 -27.40573,2.35821 -4.10946,2.12961 -6.73188,5.12035 -10.9531,12.49147 -21.22058,37.05559 -23.3787,41.76908 -23.3787,51.06083 0,5.99341 1.33618,8.44002 5.22316,9.56393 3.70005,1.06988 14.93857,1.09893 17.70856,0.0456 z m 149.33569,-27.73499 c 5.40422,-1.60488 10.85049,-6.3549 13.28782,-11.58914 6.58992,-14.15203 -3.6184,-30.27425 -19.18919,-30.3059 -19.18099,-0.039 -28.8133,22.89247 -15.29448,36.41128 5.96191,5.96191 13.24271,7.84558 21.19585,5.48376 z m -12.53942,-6.79382 c -3.8439,-2.03102 -5.49575,-3.72417 -7.15189,-7.33073 -2.96369,-6.454 -1.5972,-12.96078 3.69837,-17.61035 6.71577,-5.89652 15.93248,-5.28255 21.58751,1.43804 8.2408,9.79366 0.93472,24.96801 -11.96535,24.85153 -2.02366,-0.0183 -4.79954,-0.62509 -6.16864,-1.34849 z m 272.01531,44.03712 c -2.88938,-0.73699 -5.97142,-3.41644 -7.40507,-6.43774 -1.18896,-2.50545 -1.31724,-4.84362 -0.90012,-16.40405 0.26759,-7.41516 16.60105,-13.17139 18.09455,-36.16274 l 4.46112,-68.67591 -4.0444,-1.9203 -4.04448,-1.9203 -116.09536,42.80211 c -63.85248,23.54115 -116.41518,42.60443 -116.80608,42.36284 -0.39372,-0.24333 -0.388,-1.82913 0.0124,-3.55526 2.707,-11.65753 -1.11892,-25.35385 -9.69022,-34.68977 -2.02053,-2.20082 -3.38001,-4.29528 -3.02089,-4.65435 0.35904,-0.35906 53.85198,-13.16331 118.87317,-28.45387 65.02116,-15.29056 119.00656,-27.98914 119.96759,-28.21905 0.96102,-0.22992 2.76176,-1.951 4.00166,-3.82462 2.919,-4.4109 8.31722,-6.93952 13.55464,-6.34919 4.2301,0.47678 7.22842,2.41762 10.01797,6.48459 1.62716,2.37218 1.88994,3.63576 1.63114,7.84168 -0.38069,6.18842 -2.4984,9.45483 -7.72154,11.90997 l -3.76162,1.76817 -3.96393,68.88458 c -1.33025,23.11682 -16.89339,29.23694 -16.62754,36.99515 0.45031,13.14269 0.60556,14.20502 2.27428,15.55794 2.6007,2.10849 6.30183,1.84388 8.57918,-0.61344 1.8779,-2.02626 4.97846,-9.67936 4.66179,-7.60113 -0.67598,4.43615 8.3e-4,9.3744 -0.15464,10.18225 -0.53536,2.7801 -7.93961,5.70126 -11.89406,4.69244 z M 562.1037,598.71247 c 4.17359,-3.53159 1.9588,-10.16451 -3.39403,-10.16451 -5.53904,0 -7.77498,6.471 -3.41968,9.89685 2.67091,2.10097 4.55943,2.17516 6.81371,0.26766 z"
         id="path9530"
         inkscape:connector-curvature="0" />
      <g
         transform="matrix(0.20983263,0,0,0.20983263,151.34577,665.94378)"
         id="g3780"
         style="overflow:visible">
        <path
           sodipodi:type="arc"
           style="fill:#ff8000;fill-opacity:1;stroke:none"
           id="path3001"
           sodipodi:cx="-62.047459"
           sodipodi:cy="97.627121"
           sodipodi:rx="40.352543"
           sodipodi:ry="40.352543"
           d="m -21.694916,97.627121 c 0,22.286099 -18.066449,40.352539 -40.352543,40.352539 -22.286094,0 -40.352541,-18.06644 -40.352541,-40.352539 0,-22.286094 18.066447,-40.352543 40.352541,-40.352543 22.286094,0 40.352543,18.066449 40.352543,40.352543 z"
           transform="matrix(3.9650537,0,0,3.9650537,847.96368,-328.52798)" />
        <g
           id="g3771"
           transform="translate(474.38317,-68.990703)">
          <path
             id="path6"
             d="M 0,127.559 C 0,57.11 57.11,0 127.561,0 c 70.447,0 127.557,57.11 127.557,127.559 0,70.452 -57.11,127.56 -127.557,127.56 C 57.11,255.118 0,198.011 0,127.559 z"
             inkscape:connector-curvature="0"
             style="fill:#ffffff" />
          <g
             id="g8">
            <g
               id="g10">
              <path
                 id="path12"
                 d="M 127.561,8.504 C 61.805,8.504 8.503,61.806 8.503,127.56 c 0,65.752 53.302,119.052 119.058,119.055 65.75,0 119.052,-53.303 119.052,-119.055 0,-65.754 -53.302,-119.056 -119.052,-119.056 z m 0,221.102 c -56.357,0 -102.048,-45.688 -102.048,-102.045 0,-56.361 45.691,-102.048 102.048,-102.048 56.362,0 102.046,45.688 102.046,102.048 -0.001,56.358 -45.684,102.045 -102.046,102.045 z"
                 inkscape:connector-curvature="0" />
            </g>
          </g>
          <g
             id="g14">
            <g
               id="g16">
              <path
                 id="path18"
                 d="m 126.265,55.796 c -14.248,0 -25.147,1.39 -33.31,3.194 V 43.104 h -10.31 v 18.797 c -7.486,2.666 -10.512,5.196 -10.512,5.196 0,0 4.312,-0.361 10.512,0.131 v 97.745 c -2.418,4.448 -3.968,9.744 -3.968,16.141 0,17.646 8.528,33.511 8.528,33.511 0,0 -2.579,-9.919 -2.532,-16.853 0.152,-22.449 9.336,-34.371 48.93,-40.852 16.963,-2.775 69.205,-6.346 68.804,-45.406 C 202.168,87.927 187.54,55.796 126.265,55.796 z m -21.018,89.03 c -3.504,2.151 -7.999,4.748 -12.292,8.21 V 68.734 c 15.4,3.365 33.708,12.898 33.707,39.21 10e-4,10.663 -1.387,24.588 -21.415,36.882 z"
                 inkscape:connector-curvature="0" />
            </g>
          </g>
        </g>
      </g>
    </g>
    <g
       style="font-size:94.82155609px;font-style:normal;font-variant:normal;font-weight:normal;font-stretch:normal;text-align:start;line-height:125%;letter-spacing:0px;word-spacing:0px;writing-mode:lr-tb;text-anchor:start;fill:#ffffff;fill-opacity:1;stroke:none;font-family:Montserrat;-inkscape-font-specification:Montserrat"
       id="text3755"
       transform="matrix(0.52248003,0,0,0.52248003,-14.862275,650.39267)">
      <path
         d="m 869.20921,583.08766 13.728,0 0.672,-8.256 -13.344,0 2.112,-17.184 -8.16,0 -2.112,17.184 -16.992,0 2.112,-17.184 -8.16,0 -2.112,17.184 -13.632,0 -0.768,8.256 13.344,0 -2.016,16.896 -13.728,0 -0.768,8.256 13.44,0 -2.016,16.608 8.064,0 2.112,-16.608 16.992,0 -2.016,16.608 8.064,0 2.112,-16.608 13.632,0 0.768,-8.256 -13.44,0 2.112,-16.896 m -8.16,0 -2.016,16.896 -17.088,0 2.112,-16.896 16.992,0"
         style="font-size:96px"
         id="path3009"
         inkscape:connector-curvature="0" />
      <path
         d="m 895.18771,557.64766 0,67.2 11.328,0 0,-20.256 15.456,0 c 16.89599,0 26.592,-8.83202 26.592,-24 0,-14.59199 -9.69601,-22.944 -26.592,-22.944 l -26.784,0 m 11.328,10.176 14.976,0 c 10.36799,0 16.224,4.22401 16.224,13.056 0,9.11999 -5.85601,13.536 -16.224,13.536 l -14.976,0 0,-26.592"
         style="font-size:96px"
         id="path3011"
         inkscape:connector-curvature="0" />
      <path
         d="m 1002.4992,624.84766 12.864,0 -15.072,-22.464 c 8.928,-3.456 13.92,-11.04001 13.92,-21.792 0,-14.59199 -9.888,-22.944 -27.07199,-22.944 l -27.264,0 0,67.2 11.328,0 0,-20.256 15.936,0 c 1.056,0 2.112,0 3.072,-0.096 l 12.28799,20.352 m -31.29599,-30.432 0,-26.592 15.936,0 c 10.36799,0 16.31999,4.22401 16.31999,13.056 0,9.11999 -5.952,13.536 -16.31999,13.536 l -15.936,0"
         style="font-size:96px"
         id="path3013"
         inkscape:connector-curvature="0" />
      <path
         d="m 1075.1382,567.82366 0,-10.176 -53.856,0 0,10.176 21.216,0 0,57.024 11.328,0 0,-57.024 21.312,0"
         style="font-size:96px"
         id="path3015"
         inkscape:connector-curvature="0" />
      <path
         d="m 1115.8542,589.90366 22.56,-32.256 -13.248,0 -16.512,23.328 -16.416,-23.328 -13.152,0 22.752,32.736 -24.48,34.464 13.248,0 18.048,-25.344 18.144,25.344 13.536,0 -24.48,-34.944"
         style="font-size:96px"
         id="path3017"
         inkscape:connector-curvature="0" />
      <path
         d="m 1209.3972,624.84766 0,-67.2 -11.328,0 0,29.184 -35.616,0 0,-29.184 -11.328,0 0,67.2 11.328,0 0,-27.84 35.616,0 0,27.84 11.328,0"
         style="font-size:96px"
         id="path3019"
         inkscape:connector-curvature="0" />
      <path
         d="m 1285.3347,624.84766 0,-67.2 -11.136,0 0,48.288 -36,-48.288 -11.136,0 0,67.2 11.328,0 0,-48.192 35.808,48.192 11.136,0"
         style="font-size:96px"
         id="path3021"
         inkscape:connector-curvature="0" />
    </g>
    <path
       style="fill:#ffffff;fill-opacity:1;stroke:none"
       d="m 416.0295,914.34005 240.66994,0 0,14.81046 -240.66994,0 z"
       id="rect3779"
       inkscape:connector-curvature="0" />
    <text
       xml:space="preserve"
       style="font-size:72px;font-style:normal;font-variant:normal;font-weight:normal;font-stretch:normal;line-height:125%;letter-spacing:0px;word-spacing:0px;fill:#ffffff;fill-opacity:1;stroke:none;font-family:Playfair Display;-inkscape-font-specification:Playfair Display"
       x="181.82748"
       y="506.87982"
       id="text10834"
       sodipodi:linespacing="125%"><tspan
         sodipodi:role="line"
         id="tspan10836"
         x="181.82748"
         y="506.87982">Spruch hier einfgen.</tspan></text>
  </g>
</svg>
