<?xml version="1.0" encoding="UTF-8" standalone="no"?>
<!-- Created with Inkscape (http://www.inkscape.org/) -->

<svg
   xmlns:dc="http://purl.org/dc/elements/1.1/"
   xmlns:cc="http://creativecommons.org/ns#"
   xmlns:rdf="http://www.w3.org/1999/02/22-rdf-syntax-ns#"
   xmlns:svg="http://www.w3.org/2000/svg"
   xmlns="http://www.w3.org/2000/svg"
   xmlns:sodipodi="http://sodipodi.sourceforge.net/DTD/sodipodi-0.dtd"
   xmlns:inkscape="http://www.inkscape.org/namespaces/inkscape"
   width="1052.3622"
   height="744.09448"
   id="svg2"
   version="1.1"
   inkscape:version="0.48.4 r9939"
   sodipodi:docname="betonmischer.svg"
   inkscape:export-filename="/home/ku3i/piraten/Gestaltung/pirat*n_xhain/gruen/betonmischer.png"
   inkscape:export-xdpi="54.73"
   inkscape:export-ydpi="54.73">
  <defs
     id="defs4" />
  <sodipodi:namedview
     id="base"
     pagecolor="#ffffff"
     bordercolor="#666666"
     borderopacity="1.0"
     inkscape:pageopacity="0.0"
     inkscape:pageshadow="2"
     inkscape:zoom="0.35"
     inkscape:cx="1047.1003"
     inkscape:cy="310.58255"
     inkscape:document-units="px"
     inkscape:current-layer="layer1"
     showgrid="false"
     inkscape:window-width="1440"
     inkscape:window-height="823"
     inkscape:window-x="0"
     inkscape:window-y="25"
     inkscape:window-maximized="1" />
  <metadata
     id="metadata7">
    <rdf:RDF>
      <cc:Work
         rdf:about="">
        <dc:format>image/svg+xml</dc:format>
        <dc:type
           rdf:resource="http://purl.org/dc/dcmitype/StillImage" />
        <dc:title></dc:title>
      </cc:Work>
    </rdf:RDF>
  </metadata>
  <g
     inkscape:label="Ebene 1"
     inkscape:groupmode="layer"
     id="layer1"
     transform="translate(0,-308.2677)">
    <path
       style="fill:#60ae20"
       d="m 393.24271,308.26994 659.11839,0 0,97.38094 0,646.70902 -659.11839,0 -393.24162869,0 0,-646.70902 0,-97.38094 z"
       id="path4036"
       inkscape:connector-curvature="0" />
    <g
       id="g3369"
       transform="matrix(1.4690249,0,0,1.4690249,-820.67176,581.01802)">
      <path
         style="fill:#141414"
         d="m 761.02554,211.98278 c -13.88435,-9.4496 -19.31798,-18.67179 -19.31798,-32.78726 0,-22.80535 13.73679,-37.48307 36.87605,-39.40196 11.774,-0.97639 15.56514,-0.10085 24.14281,5.57558 19.3419,12.79986 23.56581,39.48644 8.99136,56.80718 -13.89937,16.51846 -34.8697,20.5752 -50.69224,9.80646 z m 32.41815,-17.87232 c 5.32394,-4.18782 6.90224,-7.73835 6.90224,-15.52737 0,-7.78902 -1.5783,-11.33956 -6.90224,-15.52737 -20.64638,-16.24045 -44.566,11.44978 -25.96163,30.05414 7.85794,7.85796 16.80552,8.2028 25.96163,1.0006 z m 156.79003,19.4098 c -18.51417,-9.12526 -26.71517,-34.66652 -17.08901,-53.22204 18.94522,-36.51904 74.10499,-22.71589 74.13849,18.55238 0.024,28.98818 -30.69776,47.6579 -57.04948,34.66966 z m 28.05652,-17.81298 c 12.57777,-6.50424 14.56127,-21.32551 4.23579,-31.65097 -10.4667,-10.46671 -25.15966,-7.82088 -32.43597,5.84092 -4.71111,8.84547 -3.69796,13.67755 4.60978,21.98527 8.63297,8.633 12.94148,9.33154 23.5904,3.82478 z m 91.84616,16.2755 c -13.9307,-9.48116 -19.318,-18.66165 -19.318,-32.91994 0,-23.80623 16.3569,-39.7735 40.744,-39.7735 31.7976,0 49.7402,38.555 29.2662,62.88698 -13.8993,16.51846 -34.8697,20.5752 -50.6922,9.80646 z m 32.4181,-17.87232 c 5.324,-4.18782 6.9023,-7.73835 6.9023,-15.52737 0,-7.78902 -1.5783,-11.33956 -6.9023,-15.52737 -20.6463,-16.24045 -44.566,11.44978 -25.9616,30.05414 7.858,7.85796 16.8055,8.2028 25.9616,1.0006 z M 660.50847,182.37635 c -2.89376,-7.54099 -1.75766,-39.28198 1.52346,-42.5631 2.08402,-2.08402 13.39649,-3.1435 33.56448,-3.1435 30.28937,0 30.45312,-0.0335 37.84885,-7.75302 11.72827,-12.24168 27.63538,-18.44281 47.30938,-18.44281 20.06008,0 29.79311,3.57051 45.38007,16.64748 l 11.38108,9.54835 44.13047,0 c 24.27176,0 44.77337,1.04026 45.55917,2.31169 0.78577,1.27142 -0.9464,5.33113 -3.84929,9.02156 -3.89569,4.95256 -8.17428,6.91989 -16.33672,7.51175 l -11.0587,0.80188 -1.45047,12.6255 c -0.79774,6.94405 -3.15537,13.72685 -5.23916,15.07295 -2.08379,1.34608 -14.98742,2.14806 -28.67475,1.78218 l -24.88604,-0.66521 -1.62141,-13.28362 c -2.02245,-16.56909 -4.61588,-21.44249 -17.70265,-33.2656 -20.97706,-18.95151 -49.29884,-19.51081 -69.94719,-1.38131 -11.41345,10.02113 -16.85883,20.25845 -19.08949,35.8882 l -1.71866,12.04233 -31.7512,0.73304 c -27.22119,0.62843 -31.98232,0.13071 -33.37123,-3.48874 z m 364.00803,0.98462 c -0.6038,-1.90745 -1.7812,-7.61541 -2.6165,-12.68439 -0.8353,-5.06895 -3.8741,-13.61107 -6.753,-18.98248 -2.8789,-5.3714 -5.2344,-10.94928 -5.2344,-12.39527 0,-1.52535 8.2481,-2.62908 19.6469,-2.62908 10.8058,0 19.6469,1.11144 19.6469,2.46985 0,1.35842 -2.4494,6.6212 -5.4431,11.69507 -2.9936,5.07387 -6.248,14.85274 -7.2318,21.73082 -1.2742,8.90802 -3.1019,12.75847 -6.3531,13.38457 -2.5103,0.48345 -5.0581,-0.68164 -5.6619,-2.58909 z m 111.22,-34.81382 c -8.3204,-8.85669 -4.553,-12.43168 11.9937,-11.38096 12.3045,0.78135 12.8084,1.12257 12.8084,8.67211 0,7.10123 -0.8916,7.93382 -9.2503,8.63761 -7.1511,0.60211 -10.6804,-0.74336 -15.5518,-5.92876 z M 661.60018,118.50488 c -5.87481,-10.97718 -2.86963,-29.853564 11.28876,-70.907934 16.68276,-48.37413953 19.61269,-54.3935697 31.59784,-64.91668 11.57939,-10.16683 20.80347,-11.53475 70.9731,-10.52519 l 39.29375,0.79071 0,62.87 c 0,71.493404 3.135,63.97213 -25.11279,60.24886 -19.05749,-2.51192 -38.46156,3.04631 -59.3645,17.004774 -15.6238,10.43317 -15.89312,10.50242 -40.84596,10.50242 -22.15285,0 -25.43862,-0.59823 -27.8302,-5.06696 z m 42.78764,-42.199244 c 6.26325,-2.94407 19.16796,-11.77036 28.67714,-19.61398 9.72789,-8.02401 24.79404,-17.26543 34.44869,-21.13045 19.08142,-7.63881 20.58835,-10.09422 19.24265,-31.3540195 l -0.81808,-12.9243202 -29.43513,-0.74036 c -31.23713,-0.7856903 -42.22499,2.03192 -47.68114,12.2268302 -4.58844,8.5735795 -26.35727,70.2160295 -26.35727,74.6354595 0,5.80511 8.09878,5.39906 21.92314,-1.09916 z m 132.43077,39.608954 -7.65725,-7.65724 0,-52.092504 c 0,-57.16390953 1.34594,-63.1551797 13.50238,-60.1041097 5.62026,1.4105902 9.16381,8.5177602 27.29413,54.7426397 l 20.83533,53.121584 102.43709,0.68499 c 79.95753,0.53467 103.02323,-0.0402 105.10783,-2.61958 1.4688,-1.81752 11.8944,-34.414304 23.1679,-72.437294 11.2735,-38.0229897 22.0996,-70.73504 24.058,-72.69344 4.218,-4.21796 17.1751,-4.67036 24.3154,-0.84898 3.1202,1.66987 5.0516,5.44412 5.0269,9.82344 -0.047,8.40701 -2.2289,12.12037 -8.4736,14.4244 -4.2076,1.55244 -4.5843,7.37836 -4.5843,70.91231 0,60.703884 -0.5098,69.416554 -4.1436,70.810974 -2.279,0.87453 -73.6878,1.59006 -158.68631,1.59006 l -154.54266,0 -7.65724,-7.65725 z m 86.72396,-27.656634 c -12.55339,-2.35749 -20.84701,-5.37366 -23.13032,-8.41187 -11.0223,-14.66656 -31.95714,-68.93525 -31.95714,-82.8414395 0,-7.4455305 23.93231,-39.1102205 36.68666,-48.5399405 7.69286,-5.68756 50.05804,-23.13937 87.54747,-36.06408 18.96368,-6.537851 36.83098,-7.705381 69.98768,-4.573364 l 17.4,1.643614 17.3095,45.07719 c 9.5202,24.79245 17.3095,46.5177805 17.3095,48.2785205 0,4.15996 -36.732,40.4078895 -49.2633,48.6140595 -5.3225,3.48546 -28.5383,13.66755 -51.5906,22.62686 -46.89917,18.22738 -58.82427,20.1014 -90.29945,14.19045 z m 195.25065,-118.96988 c -3.389,-5.48351 -19.8148,-50.14355 -19.8148,-53.87438 0,-2.81287 2.6151,-4.02813 8.6679,-4.02813 11.5341,0 16.5882,4.25035 21.376,17.97647 3.5812,10.26721 3.5708,12.85563 -0.103,25.49253 -4.1385,14.23603 -7.3868,18.866 -10.1262,14.43351 z"
         id="path3130"
         inkscape:connector-curvature="0" />
      <path
         inkscape:connector-curvature="0"
         id="path3156"
         d="m 844.91009,212.98138 c -0.84685,-1.25533 -1.02005,-1.69324 -0.87358,-2.20923 0.19536,-0.68822 0.0719,-2.12104 -0.24972,-2.90024 -0.20434,-0.49498 -0.9883,-1.57304 -2.24943,-3.0934 -2.38797,-2.87871 -3.07504,-3.62361 -4.72232,-5.11977 -1.18446,-1.07586 -1.8576,-1.62296 -3.55674,-2.89071 -0.32447,-0.2421 -0.57656,-0.51762 -0.56019,-0.61228 0.0164,-0.0947 0.59687,-0.27222 1.29006,-0.39456 6.84953,-1.20902 14.45278,-2.6592 15.63184,-2.98152 0.406,-0.11099 0.77779,-0.27556 0.82624,-0.3658 0.16918,-0.31506 -0.20827,-1.04759 -1.357,-2.63357 -1.66677,-2.30127 -3.97393,-4.60861 -6.93859,-6.93914 -1.13842,-0.89492 -5.68325,-3.34098 -7.36134,-3.96245 -4.26416,-1.57795 -8.06807,-2.32436 -9.40579,-1.84555 -0.80308,0.28741 -0.98111,-0.23967 -0.29947,-0.88656 0.30389,-0.28835 1.12109,-0.5361 3.47865,-1.05453 3.6582,-0.80437 6.77129,-1.77388 9.64865,-3.00491 2.46541,-1.05476 5.18277,-2.48662 6.3365,-3.33887 1.39509,-1.03057 3.34606,-3.79693 2.97844,-4.22323 -0.73711,-0.85483 -8.54072,-2.42914 -19.82248,-3.99907 -1.8445,-0.25667 -2.96956,-0.48096 -3.00514,-0.59904 -0.0814,-0.27033 1.04504,-1.25835 2.37867,-2.0863 1.54944,-0.96195 4.49692,-3.05218 6.01455,-4.2653 4.09582,-3.27397 7.03559,-6.67405 8.4861,-9.81472 0.86792,-1.87918 1.14284,-2.99024 1.23821,-5.00363 0.0609,-1.28505 0.0156,-1.75272 -0.19289,-1.993 -1.22047,-1.4065 -5.68281,-1.58979 -10.8446,-0.44539 -1.85986,0.41236 -6.99389,1.98234 -8.01731,2.4517 -0.34793,0.15957 -0.71099,0.24806 -0.80678,0.19662 -0.19925,-0.10699 -0.1644,-0.21134 1.06974,-3.20445 2.02335,-4.90713 2.81197,-8.5731 2.2944,-10.66545 -0.10962,-0.44309 -0.20485,-1.30105 -0.21157,-1.90663 -0.006,-0.60554 -0.1076,-1.50994 -0.2241,-2.00975 -0.28205,-1.21003 -0.61155,-1.38504 -2.35164,-1.24935 -1.68942,0.13196 -2.7721,0.46686 -4.83828,1.49671 -2.22339,1.10817 -4.83734,2.20736 -5.248,2.2068 -0.26648,-3.2e-4 -0.36262,-0.0941 -0.49209,-0.47911 -0.25985,-0.77312 -0.36814,-2.44762 -0.2146,-3.31851 0.16732,-0.94886 0.16659,-2.17884 -0.002,-3.93521 -0.26174,-2.72227 -1.06011,-4.65058 -2.04056,-4.92895 -0.39118,-0.11114 -0.48323,-0.2445 -0.77846,-1.13484 -0.58397,-1.75929 -0.74072,-1.86322 -1.8426,-1.2219 -0.30027,0.17479 -1.24372,0.58546 -2.09659,0.91269 -4.92948,1.89121 -9.81229,5.35915 -13.19664,9.37271 -2.09556,2.48516 -2.6361,3.30957 -4.74418,7.23549 -1.10688,2.06136 -2.04934,3.72811 -2.09432,3.70392 -0.0449,-0.0241 -0.0158,-0.48081 0.0651,-1.01473 0.75846,-5.00961 0.70459,-7.00666 -0.27716,-10.27264 -1.35599,-4.51094 -3.85256,-8.271 -8.91346,-13.42438 -1.55551,-1.584 -2.03343,-1.92018 -2.34605,-1.65058 -0.40214,0.34676 -0.8265,2.70479 -0.90371,5.02181 -0.0792,2.37508 -0.37222,4.053 -1.24716,7.13987 -0.75609,2.66753 -1.73666,5.57585 -2.32537,6.89681 -0.65512,1.47005 -1.10658,2.92958 -1.28179,4.14425 -0.0714,0.49502 -0.18817,0.9176 -0.25951,0.93909 -0.0713,0.0215 -0.24899,-0.26591 -0.39491,-0.63849 -1.65754,-4.23458 -2.93528,-6.68696 -4.93553,-9.47294 -2.60912,-3.63407 -5.37824,-6.23565 -9.3292,-8.7647 -1.79129,-1.1466 -2.81498,-1.64164 -3.07889,-1.489 -0.58132,0.33629 -0.55073,1.23865 0.31554,9.29728 0.12645,1.17638 0.30051,2.81044 0.38684,3.63129 0.0863,0.82087 0.0836,1.51419 -0.006,1.54072 -0.0896,0.0267 -1.30635,-0.70751 -2.70432,-1.63055 -4.41442,-2.91613 -6.87241,-4.40512 -7.17171,-4.34445 -0.88221,0.17878 -1.61523,4.34679 -1.37146,7.79812 0.2087,2.95438 0.65074,5.16817 1.85325,9.2811 0.47189,1.614 0.80344,2.95098 0.73675,2.97107 -0.0667,0.0201 -1.20131,-0.62345 -2.52151,-1.42993 -3.57121,-2.18169 -6.44586,-3.43284 -8.80533,-3.83273 -0.59269,-0.10045 -1.86724,-0.40093 -2.8324,-0.66781 -1.83804,-0.50826 -2.88775,-0.62503 -3.19988,-0.35587 -0.31548,0.27205 -0.25637,1.20766 0.17684,2.79924 0.22859,0.8397 0.52665,2.64266 0.66238,4.00652 0.42399,4.26065 0.89655,6.40692 1.95036,8.85792 1.3547,3.15084 3.18752,5.66064 5.75865,7.88565 1.10269,0.95424 1.20766,1.0679 1.06328,1.15141 -0.0692,0.04 -0.92375,-0.0787 -1.89897,-0.26393 -6.14752,-1.16741 -11.34851,-0.58424 -15.7064,1.76114 -0.88637,0.47705 -2.4892,1.15408 -3.56185,1.50454 -2.42688,0.7929 -4.54694,1.74187 -4.58648,2.05298 -0.0328,0.25795 0.15072,0.40733 2.18192,1.77605 2.57735,1.73675 5.96174,4.49546 6.24785,5.09286 0.15115,0.31561 -0.013,0.3869 -5.85594,2.54394 -1.5841,0.58474 -2.91136,1.12125 -2.94946,1.19221 -0.28392,0.52876 5.53254,5.96019 9.67584,9.03531 0.95399,0.70806 2.26582,1.51562 3.88134,2.38934 1.36838,0.73839 2.41239,1.37183 2.37684,1.43805 -0.0349,0.065 -0.85946,0.56698 -1.83234,1.11543 -3.7083,2.09053 -5.72536,3.62433 -7.78996,5.92355 -2.15773,2.40292 -4.58883,5.99696 -4.42479,6.54146 0.0619,0.20556 0.90906,0.27741 4.41653,0.37463 4.60296,0.12757 9.70256,0.16389 13.12385,0.0935 1.14102,-0.0235 2.16454,0.005 2.27453,0.0647 0.235,0.12619 0.19854,0.20552 -0.52637,1.1449 -5.72828,7.42268 -9.16791,12.40208 -8.98544,13.00778 0.0467,0.15494 0.49487,0.2894 1.5778,0.47372 0.83194,0.14157 1.71886,0.34349 1.97094,0.44873 l 0.45837,0.19129 -1.36289,2.71111 c -1.23877,2.4642 -1.56788,3.35678 -1.29232,3.50475 0.24185,0.12986 5.63231,-0.0198 9.67688,-0.26861 1.51348,-0.0931 1.54571,-0.0645 1.14478,1.01643 -0.13276,0.35792 -0.56927,1.64613 -0.97002,2.86271 l -0.72864,2.21193 0.39421,0.26349 c 0.86344,0.57728 5.01917,0.57137 8.0015,-0.0113 0.74342,-0.14525 2.0405,-0.48994 2.88236,-0.76599 5.78521,-1.89694 9.33876,-4.91067 14.05153,-11.91698 3.40798,-5.0665 5.08788,-10.10232 4.11335,-12.33056 -0.12836,-0.29342 -0.4509,-0.6497 -0.79791,-0.88133 -0.5367,-0.35824 -0.62854,-0.37048 -1.16891,-0.15557 -0.80708,0.32094 -2.18814,1.30184 -4.35997,3.09663 -1.01098,0.83548 -1.91921,1.50504 -2.01827,1.48795 -0.099,-0.0171 -0.23791,-0.22292 -0.30853,-0.45739 -0.16175,-0.53693 -0.13057,-0.57476 2.6933,-3.26627 1.21264,-1.1558 2.24223,-2.17116 2.28797,-2.25635 0.17416,-0.32433 -0.3147,-0.33335 -1.59677,-0.0295 -1.56987,0.37212 -2.12052,0.43805 -2.17408,0.26031 -0.0216,-0.0717 0.3618,-0.57528 0.85217,-1.11871 0.49035,-0.54342 1.03335,-1.1634 1.20669,-1.37775 0.74936,-0.92664 0.71144,-1.99988 -0.12277,-3.47471 -0.24747,-0.43753 -0.64376,-1.19802 -0.88066,-1.69005 -0.4205,-0.87327 -0.44613,-0.89816 -1.0777,-1.047 -0.35578,-0.0838 -0.70271,-0.18242 -0.77085,-0.219 -0.26303,-0.14125 -0.12406,-0.67419 0.305,-1.16953 0.34248,-0.39531 0.42054,-0.57963 0.39065,-0.92118 -0.0872,-0.99722 -0.99959,-1.8656 -1.97227,-1.87726 -0.25394,-0.003 -1.10607,0.12465 -1.89369,0.28371 -3.51764,0.71051 -5.05164,0.84875 -4.8296,0.43523 0.10833,-0.20173 1.37279,-0.78741 3.95326,-1.83099 2.6044,-1.05327 2.64711,-1.07784 2.99233,-1.72077 0.49068,-0.91379 0.50183,-2.17998 0.0348,-3.94678 -0.57588,-2.17843 -1.69762,-4.15076 -2.94945,-5.18602 -0.34836,-0.28804 -0.59732,-0.59083 -0.55331,-0.67278 0.0439,-0.0819 0.62329,-0.30839 1.2873,-0.50319 1.95626,-0.57385 2.13977,-0.71838 3.03926,-2.39351 0.82156,-1.52999 0.97768,-2.2838 0.56175,-2.71216 -0.10993,-0.11326 -1.06811,-0.51968 -2.12919,-0.90329 -3.11198,-1.12497 -4.69052,-2.0891 -4.37679,-2.67336 0.20584,-0.38335 0.70135,-0.32292 2.67966,0.32675 1.97078,0.6472 3.3372,0.88322 4.11626,0.71099 0.50165,-0.11089 0.51201,-0.12375 0.53572,-0.66291 0.0133,-0.30235 -0.0725,-0.95937 -0.19065,-1.45998 -0.11817,-0.5006 -0.15267,-0.94612 -0.0767,-0.99005 0.076,-0.0438 0.47653,0.01 0.89024,0.11807 1.31812,0.34693 2.58979,-0.16438 3.19024,-1.28261 0.57917,-1.07859 0.67938,-2.36963 0.32849,-4.2315 -0.3779,-2.00502 -0.41381,-3.01351 -0.11056,-3.10488 0.13443,-0.0405 0.59968,0.2237 1.40546,0.79841 0.66237,0.47247 1.42938,0.93039 1.70442,1.01765 0.92431,0.29334 2.20214,-0.39938 2.80388,-1.52001 0.43871,-0.81702 0.43255,-0.94095 -0.10792,-2.17793 -0.59024,-1.35084 -1.35823,-5.09317 -1.13261,-5.51914 0.16269,-0.30747 1.81273,1.3024 4.1575,4.05643 1.67861,1.97156 2.10863,2.32368 2.88479,2.36232 0.7123,0.0354 1.90159,-0.5569 2.18763,-1.08957 0.18385,-0.34239 0.003,-3.91999 -0.34229,-6.77322 -0.0929,-0.76701 -0.1115,-1.44863 -0.0415,-1.51469 0.14622,-0.13781 0.50478,0.73854 1.73094,4.22963 0.97423,2.77386 1.40568,3.69389 1.84208,3.92822 0.35517,0.19071 1.33586,0.01 1.83087,-0.33847 0.85471,-0.60069 0.97622,-0.92441 0.99181,-2.64245 0.0172,-1.89507 0.28049,-4.22871 0.52942,-4.69229 0.22059,-0.41082 0.85344,-0.50323 1.14975,-0.1679 0.14027,0.15877 0.21499,1.15995 0.21111,2.82992 -0.003,1.42135 0.051,2.59485 0.12069,2.60783 0.20197,0.0377 2.43696,-4.34494 3.07499,-6.02999 0.31974,-0.8444 0.64341,-1.55771 0.71934,-1.58511 0.0759,-0.0274 0.16746,0.66373 0.20363,1.53596 0.11823,2.85214 0.77993,5.53982 1.70325,6.918 0.35148,0.52463 0.48052,0.63104 0.68903,0.56823 0.39754,-0.11978 1.27741,-2.02015 2.28145,-4.92748 1.31922,-3.81997 1.49086,-4.21294 1.87407,-4.2906 0.17607,-0.0357 0.52392,0.0446 0.773,0.1783 0.78738,0.4228 0.66052,0.98543 -0.646,2.8649 -1.06654,1.5343 -2.0156,3.64999 -2.21495,4.93763 -0.27256,1.76044 0.64199,2.30897 2.86614,1.71909 0.55923,-0.1483 1.00499,-0.17957 1.09368,-0.0767 0.0822,0.0954 0.21619,0.634 0.29749,1.19674 0.16666,1.15358 0.37058,1.31781 1.08954,0.8776 0.46916,-0.28729 2.82542,-2.56879 3.03931,-2.94289 0.0605,-0.10609 0.42942,-0.43159 0.81953,-0.72346 1.06002,-0.79313 1.07583,-0.40688 0.0768,1.87653 -0.99355,2.27082 -1.38186,3.63317 -1.21661,4.2681 0.10482,0.40269 0.2867,0.58665 1.12417,1.13655 0.70236,0.4612 1.11593,0.6578 1.39266,0.66146 0.57126,0.007 1.83949,-0.24898 3.70808,-0.75071 1.09214,-0.29323 1.65973,-0.37338 1.69989,-0.24003 0.0402,0.13333 -0.16787,0.5045 -0.62292,1.11171 -0.73351,0.97859 -0.91288,1.46077 -0.60466,1.62627 0.1063,0.0571 1.97352,-0.40923 4.14947,-1.03619 3.83945,-1.10629 5.83499,-1.49602 6.32173,-1.23466 0.2816,0.15121 0.3282,0.56807 0.13836,1.23694 -0.13415,0.47227 -0.19517,0.50337 -1.76143,0.8961 -3.36873,0.84467 -6.74124,1.87576 -7.11985,2.17675 -0.2964,0.23564 -0.42404,0.45013 -0.52044,0.87476 -0.11648,0.5128 0.0666,1.4655 0.30641,1.59426 0.0539,0.029 0.7248,0.1316 1.49057,0.22794 3.94581,0.4965 4.09432,0.75613 1.33262,2.32985 -0.80302,0.4576 -1.49321,0.89375 -1.53372,0.96919 -0.14998,0.27931 0.24748,1.48286 0.61899,1.87432 0.42054,0.44312 1.20371,0.68149 2.05709,0.62586 0.94578,-0.0616 3.59234,-0.42486 5.54312,-0.76088 3.26005,-0.56157 3.68007,-0.59236 4.00787,-0.29387 0.40912,0.37261 0.44861,1.08875 0.0757,1.37249 -0.15937,0.12134 -1.91853,0.3828 -3.90915,0.5811 -3.84358,0.38287 -4.88408,0.56762 -4.9325,0.8758 -0.0517,0.32872 1.45125,0.96594 3.31879,1.40713 0.96288,0.22749 1.85176,0.49065 1.9753,0.58477 0.17094,0.13031 -0.42532,0.37091 -2.49598,1.00732 -2.95801,0.90911 -3.32763,1.15265 -2.77521,1.82838 0.2357,0.28834 0.88997,0.58188 3.56876,1.6008 3.83549,1.45899 3.46811,1.29347 3.35175,1.51019 -0.0514,0.0957 -0.5532,0.22295 -1.11519,0.2829 -1.47959,0.15791 -5.31428,1.34844 -6.04976,1.87825 -1.21584,0.87587 -1.30295,1.78458 -0.28347,2.95699 0.57038,0.65589 4.09246,2.59185 5.9481,3.26941 1.22392,0.44693 1.8643,0.94322 1.67417,1.29732 -0.2127,0.39611 -4.25027,-0.18999 -6.69953,-0.97251 -1.28796,-0.41149 -1.4735,-0.39642 -1.12766,0.0916 0.1535,0.21668 0.73215,0.88732 1.28585,1.4904 1.13486,1.23608 1.37692,1.6668 0.89565,1.59347 -2.10138,-0.32005 -3.79104,-0.27755 -4.91321,0.12357 -0.93012,0.33248 -1.26299,0.6105 -1.69564,1.41624 -0.72104,1.34281 0.002,3.92559 1.94412,6.94124 0.21501,0.33389 0.34076,0.65439 0.27943,0.71224 -0.0613,0.0577 -0.89112,-0.14627 -1.84408,-0.45349 -2.46728,-0.79555 -3.14531,-0.88559 -4.05555,-0.53874 -0.41996,0.16005 -1.01986,0.47389 -1.33307,0.69743 l -0.56949,0.40645 0.0836,0.59231 c 0.29044,2.05557 0.72383,3.63475 1.29592,4.72189 1.10178,2.09374 3.06308,4.75998 5.17726,7.038 3.609,3.88875 9.18968,8.54256 13.26565,11.06239 4.9542,3.06276 6.2955,3.91061 8.15026,5.15178 2.74787,1.83882 3.1847,2.04475 3.41763,1.61096 0.13418,-0.2499 -0.22259,-2.53995 -0.55522,-3.56349 -0.88896,-2.73571 -5.28257,-11.33956 -7.37398,-14.44032 -0.47443,-0.70342 -0.83868,-1.32355 -0.80941,-1.37808 0.0603,-0.11233 0.49587,-0.0165 2.77886,0.61117 5.36288,1.47448 14.31956,3.6325 17.28762,4.16535 2.52738,0.45371 4.11053,0.44594 4.2038,-0.0206 0.0177,-0.0881 -0.28772,-0.63443 -0.67858,-1.21377 z"
         style="fill:#f5e104;fill-opacity:1" />
    </g>
    <path
       inkscape:connector-curvature="0"
       id="path3156-1"
       d="m 696.87114,895.81591 c -1.24404,-1.84411 -1.49848,-2.48741 -1.28331,-3.24541 0.28699,-1.01102 0.10562,-3.11586 -0.36684,-4.26053 -0.30018,-0.72714 -1.45184,-2.31083 -3.30447,-4.54428 -3.50799,-4.2289 -4.51731,-5.32317 -6.93721,-7.52107 -1.74,-1.58047 -2.72886,-2.38417 -5.22494,-4.24652 -0.47665,-0.35566 -0.84698,-0.7604 -0.82293,-0.89946 0.0241,-0.13912 0.87682,-0.3999 1.89513,-0.57962 10.06213,-1.77608 21.23149,-3.90643 22.96356,-4.37993 0.59643,-0.16304 1.14259,-0.4048 1.21377,-0.53736 0.24853,-0.46284 -0.30596,-1.53894 -1.99347,-3.86878 -2.44853,-3.38063 -5.8378,-6.77017 -10.19296,-10.19377 -1.67237,-1.31466 -8.34884,-4.90799 -10.81399,-5.82094 -6.26416,-2.31805 -11.8522,-3.41454 -13.81734,-2.71116 -1.17975,0.42221 -1.44128,-0.35208 -0.43993,-1.30238 0.44642,-0.42359 1.64691,-0.78754 5.11022,-1.54913 5.37399,-1.18164 9.9472,-2.60587 14.17411,-4.41429 3.62175,-1.54947 7.61362,-3.6529 9.30848,-4.90488 2.04942,-1.51393 4.91544,-5.57779 4.3754,-6.20403 -1.08283,-1.25577 -12.54653,-3.56847 -29.11972,-5.87473 -2.70961,-0.37706 -4.36236,-0.70655 -4.41462,-0.88001 -0.11958,-0.39712 1.53519,-1.84855 3.49432,-3.06483 2.27617,-1.41312 6.60609,-4.48372 8.83553,-6.26583 6.01686,-4.80954 10.33545,-9.80434 12.46629,-14.41807 1.27499,-2.76056 1.67886,-4.39273 1.81896,-7.35045 0.0895,-1.88777 0.0229,-2.57479 -0.28336,-2.92777 -1.7929,-2.06618 -8.34819,-2.33544 -15.93099,-0.65429 -2.73218,0.60577 -10.2742,2.91211 -11.77763,3.60161 -0.51111,0.23441 -1.04446,0.36441 -1.18518,0.28884 -0.2927,-0.15717 -0.2415,-0.31046 1.57148,-4.70742 2.97235,-7.20869 4.13085,-12.59409 3.37053,-15.66781 -0.16104,-0.65091 -0.30093,-1.91127 -0.3108,-2.80089 -0.009,-0.88955 -0.15807,-2.21814 -0.32921,-2.95237 -0.41434,-1.77756 -0.89838,-2.03466 -3.45462,-1.83533 -2.4818,0.19386 -4.07228,0.68583 -7.10755,2.19871 -3.26622,1.62793 -7.10618,3.24267 -7.70944,3.24184 -0.39147,-4.7e-4 -0.5327,-0.13823 -0.7229,-0.70382 -0.38172,-1.13573 -0.5408,-3.59562 -0.31525,-4.87497 0.2458,-1.3939 0.24472,-3.20078 -0.003,-5.78093 -0.3845,-3.99908 -1.55733,-6.83181 -2.99763,-7.24075 -0.57465,-0.16326 -0.70988,-0.35917 -1.14358,-1.6671 -0.85787,-2.58445 -1.08813,-2.73712 -2.70682,-1.79501 -0.44111,0.25677 -1.82706,0.86006 -3.07995,1.34077 -7.24153,2.77823 -14.4145,7.87272 -19.38619,13.76874 -3.07843,3.65076 -3.8725,4.86184 -6.96932,10.62912 -1.62603,3.02819 -3.01053,5.47668 -3.07661,5.44115 -0.066,-0.0354 -0.0232,-0.70632 0.0956,-1.49067 1.11419,-7.35924 1.03506,-10.29295 -0.40716,-15.09076 -1.99188,-6.62668 -5.6594,-12.1503 -13.09399,-19.72075 -2.28508,-2.32693 -2.98716,-2.82079 -3.44641,-2.42474 -0.59075,0.5094 -1.21415,3.9734 -1.32757,7.37716 -0.11635,3.48905 -0.5468,5.95396 -1.83211,10.48865 -1.11071,3.91867 -2.5512,8.19106 -3.41603,10.13159 -0.96238,2.15954 -1.62559,4.30362 -1.88298,6.088 -0.10489,0.7272 -0.27642,1.34798 -0.38122,1.37955 -0.10475,0.0316 -0.36578,-0.39063 -0.58014,-0.93796 -2.43496,-6.2207 -4.312,-9.82331 -7.25041,-13.91598 -3.83287,-5.33854 -7.90077,-9.16033 -13.70483,-12.87557 -2.63145,-1.68438 -4.13528,-2.41161 -4.52297,-2.18737 -0.85397,0.49401 -0.80903,1.8196 0.46354,13.65793 0.18576,1.72813 0.44146,4.12861 0.56828,5.33446 0.12677,1.20587 0.12281,2.22438 -0.009,2.26335 -0.13163,0.0392 -1.91906,-1.03935 -3.97272,-2.39532 -6.48489,-4.28386 -10.09574,-6.47123 -10.53542,-6.3821 -1.29599,0.26263 -2.37281,6.38554 -2.01471,11.45563 0.30659,4.34006 0.95596,7.59217 2.72247,13.63417 0.69322,2.371 1.18028,4.33506 1.08231,4.36457 -0.098,0.0295 -1.76476,-0.91586 -3.70416,-2.1006 -5.2462,-3.20496 -9.46913,-5.04293 -12.93525,-5.63037 -0.87068,-0.14757 -2.74302,-0.58898 -4.16087,-0.98103 -2.70012,-0.74665 -4.24217,-0.91819 -4.7007,-0.52279 -0.46345,0.39965 -0.37661,1.77409 0.25978,4.11216 0.33581,1.23354 0.77366,3.88213 0.97305,5.88567 0.62286,6.25901 1.31706,9.41193 2.86513,13.01251 1.99009,4.62866 4.68255,8.31562 8.4596,11.58422 1.61988,1.4018 1.77408,1.56877 1.56199,1.69145 -0.10166,0.0588 -1.35701,-0.11562 -2.78964,-0.38772 -9.03086,-1.71496 -16.67124,-0.85827 -23.07309,2.58715 -1.3021,0.7008 -3.6567,1.69538 -5.23245,2.21021 -3.56514,1.16479 -6.67956,2.55885 -6.73765,3.01588 -0.0482,0.37894 0.22141,0.59838 3.2053,2.60906 3.78619,2.55133 8.75794,6.60394 9.17824,7.48154 0.22205,0.46364 -0.0191,0.56837 -8.60252,3.73711 -2.32708,0.859 -4.27686,1.64715 -4.33283,1.75139 -0.41709,0.77676 8.12744,8.75567 14.21405,13.27309 1.40144,1.04016 3.32855,2.22649 5.70179,3.51 2.01018,1.08472 3.54386,2.01526 3.49163,2.11253 -0.0513,0.0955 -1.26257,0.83291 -2.69175,1.6386 -5.44759,3.07104 -8.4107,5.32423 -11.44365,8.70184 -3.16975,3.52995 -6.7411,8.80968 -6.50012,9.60957 0.0909,0.30197 1.33543,0.40752 6.48799,0.55034 6.76186,0.1874 14.2533,0.24076 19.27926,0.13735 1.67619,-0.0345 3.17977,0.007 3.34134,0.0951 0.34522,0.18538 0.29166,0.30191 -0.77325,1.68189 -8.41498,10.9041 -13.46788,18.21896 -13.19983,19.10875 0.0686,0.22761 0.72697,0.42513 2.31783,0.69591 1.22214,0.20797 2.52504,0.50459 2.89536,0.65919 l 0.67335,0.28101 -2.00212,3.98269 c -1.81978,3.61997 -2.30325,4.93119 -1.89845,5.14856 0.35529,0.19077 8.27401,-0.0291 14.21558,-0.39459 2.22334,-0.13677 2.27069,-0.0948 1.68171,1.49316 -0.19503,0.52579 -0.83627,2.41821 -1.42498,4.20539 l -1.07039,3.24938 0.5791,0.38708 c 1.26842,0.84803 7.37329,0.83935 11.7544,-0.0166 1.09211,-0.21338 2.99755,-0.71974 4.23426,-1.12526 8.49862,-2.78665 13.71887,-7.2139 20.64205,-17.50634 5.00641,-7.44282 7.47422,-14.84056 6.04261,-18.1139 -0.18856,-0.43104 -0.66238,-0.95443 -1.17215,-1.2947 -0.78842,-0.52626 -0.92334,-0.54424 -1.71715,-0.22853 -1.18562,0.47146 -3.21444,1.91243 -6.40491,4.54902 -1.48515,1.22734 -2.81937,2.21094 -2.96489,2.18584 -0.14543,-0.0251 -0.34949,-0.32748 -0.45324,-0.67192 -0.23761,-0.78876 -0.19181,-0.84434 3.95653,-4.79823 1.7814,-1.6979 3.29389,-3.18949 3.36108,-3.31464 0.25585,-0.47644 -0.4623,-0.4897 -2.34569,-0.0433 -2.30618,0.54665 -3.1151,0.6435 -3.19378,0.3824 -0.0317,-0.10533 0.53149,-0.8451 1.25186,-1.64341 0.72034,-0.7983 1.51802,-1.70907 1.77266,-2.02395 1.10083,-1.36126 1.04512,-2.93788 -0.18035,-5.10444 -0.36354,-0.64274 -0.9457,-1.75992 -1.29372,-2.48272 -0.61772,-1.28286 -0.65537,-1.31942 -1.58316,-1.53807 -0.52265,-0.12311 -1.0323,-0.26798 -1.1324,-0.32172 -0.3864,-0.2075 -0.18225,-0.9904 0.44805,-1.71807 0.50311,-0.58072 0.61778,-0.85149 0.57388,-1.35323 -0.1281,-1.46494 -1.46843,-2.74062 -2.89732,-2.75775 -0.37304,-0.004 -1.62484,0.18312 -2.78188,0.41678 -5.1675,1.04376 -7.42098,1.24684 -7.0948,0.63937 0.15914,-0.29635 2.01666,-1.15673 5.80744,-2.68977 3.82593,-1.54728 3.88867,-1.58338 4.39581,-2.52786 0.72082,-1.34238 0.7372,-3.20244 0.0511,-5.79792 -0.84599,-3.20016 -2.49385,-6.09757 -4.33282,-7.61839 -0.51175,-0.42314 -0.87748,-0.86794 -0.81283,-0.98833 0.0645,-0.12031 0.91563,-0.45303 1.89108,-0.7392 2.8738,-0.843 3.14338,-1.05532 4.46475,-3.51612 1.20689,-2.2476 1.43624,-3.35496 0.82522,-3.98424 -0.16149,-0.16638 -1.56908,-0.76342 -3.12783,-1.32695 -4.57158,-1.65261 -6.89049,-3.06894 -6.42961,-3.92723 0.30238,-0.56315 1.0303,-0.47438 3.93648,0.48 2.89513,0.95075 4.90243,1.29747 6.04689,1.04446 0.73694,-0.1629 0.75216,-0.18179 0.78699,-0.97383 0.0195,-0.44416 -0.10651,-1.40934 -0.28007,-2.14475 -0.1736,-0.73539 -0.22428,-1.38987 -0.11267,-1.4544 0.11164,-0.0643 0.70003,0.0147 1.30778,0.17344 1.93635,0.50965 3.80447,-0.24147 4.68654,-1.88418 0.85082,-1.58448 0.99803,-3.48105 0.48256,-6.21618 -0.55514,-2.94543 -0.6079,-4.42692 -0.16241,-4.56115 0.19748,-0.0595 0.88094,0.32862 2.06465,1.17289 0.97304,0.69407 2.0998,1.36676 2.50384,1.49495 1.35783,0.43092 3.235,-0.5867 4.11897,-2.23293 0.64447,-1.20022 0.63542,-1.38228 -0.15854,-3.19944 -0.86708,-1.98441 -1.99527,-7.48199 -1.66383,-8.10775 0.23899,-0.45168 2.66294,1.91326 6.10747,5.959 2.46592,2.89627 3.09763,3.41354 4.23783,3.4703 1.04638,0.052 2.79348,-0.8181 3.21368,-1.6006 0.27008,-0.50298 0.004,-5.75856 -0.50283,-9.95003 -0.13647,-1.12676 -0.1638,-2.12807 -0.061,-2.22512 0.2148,-0.20244 0.74153,1.08494 2.54279,6.21343 1.43117,4.07487 2.06498,5.42642 2.70606,5.77066 0.52176,0.28016 1.96241,0.0147 2.6896,-0.49722 1.25559,-0.88243 1.43409,-1.35798 1.45699,-3.88183 0.0253,-2.7839 0.41205,-6.21208 0.77773,-6.89309 0.32406,-0.6035 1.25373,-0.73926 1.68902,-0.24665 0.20606,0.23324 0.31582,1.704 0.31012,4.15722 -0.004,2.088 0.0749,3.8119 0.1773,3.83097 0.2967,0.0554 3.57995,-6.38282 4.51723,-8.8582 0.46971,-1.24045 0.94519,-2.28832 1.05673,-2.32857 0.1115,-0.0403 0.24601,0.97504 0.29914,2.25636 0.17368,4.18987 1.14574,8.13814 2.50212,10.16272 0.51633,0.77069 0.70589,0.92701 1.0122,0.83474 0.584,-0.17596 1.87655,-2.96765 3.35151,-7.23859 1.93796,-5.61163 2.19011,-6.18891 2.75305,-6.303 0.25865,-0.0524 0.76965,0.0655 1.13556,0.26193 1.15668,0.6211 0.97032,1.44762 -0.94899,4.20861 -1.56678,2.25392 -2.96097,5.36193 -3.25382,7.2535 -0.4004,2.58613 0.9431,3.39194 4.21043,2.52539 0.82153,-0.21786 1.47636,-0.2638 1.60665,-0.11268 0.12075,0.14015 0.31758,0.93136 0.43702,1.75804 0.24482,1.69464 0.54439,1.9359 1.60056,1.28922 0.6892,-0.42204 4.15061,-3.77362 4.46482,-4.32318 0.0889,-0.15585 0.63083,-0.63402 1.20391,-1.06278 1.5572,-1.16513 1.58042,-0.59772 0.11282,2.75667 -1.45955,3.33589 -2.02999,5.33722 -1.78723,6.26994 0.15398,0.59157 0.42117,0.86181 1.65143,1.66963 1.03179,0.67751 1.63933,0.96632 2.04586,0.9717 0.83919,0.0103 2.70225,-0.36576 5.44726,-1.10282 1.60438,-0.43076 2.43818,-0.5485 2.49718,-0.35261 0.059,0.19587 -0.24661,0.74113 -0.91509,1.63313 -1.07754,1.43758 -1.34104,2.14591 -0.88826,2.38904 0.15616,0.0839 2.89915,-0.60117 6.09568,-1.52219 5.64025,-1.62517 8.57174,-2.19769 9.28678,-1.81375 0.41367,0.22213 0.48213,0.83451 0.20325,1.8171 -0.19707,0.69377 -0.28671,0.73946 -2.58758,1.31639 -4.94875,1.24084 -9.90305,2.75554 -10.45924,3.1977 -0.43542,0.34616 -0.62293,0.66125 -0.76454,1.28504 -0.17111,0.75332 0.0978,2.15286 0.45012,2.34201 0.0792,0.0426 1.06475,0.19332 2.18969,0.33485 5.79649,0.72937 6.01466,1.11077 1.95765,3.42261 -1.17966,0.67222 -2.19356,1.31294 -2.25307,1.42376 -0.22033,0.41032 0.36355,2.17836 0.90931,2.75342 0.61778,0.65096 1.76828,1.00113 3.02192,0.91941 1.38937,-0.0905 5.27723,-0.62413 8.14298,-1.11775 4.78909,-0.82496 5.40611,-0.87019 5.88766,-0.43171 0.60101,0.54738 0.65902,1.59941 0.1112,2.01623 -0.23412,0.17825 -2.81837,0.56234 -5.74264,0.85365 -5.64631,0.56244 -7.17483,0.83385 -7.24596,1.28657 -0.0759,0.4829 2.13192,1.41899 4.87538,2.06711 1.4145,0.33419 2.72029,0.72078 2.90177,0.85904 0.25111,0.19143 -0.62481,0.54488 -3.66666,1.47978 -4.34539,1.3355 -4.88837,1.69327 -4.07685,2.68593 0.34625,0.42358 1.30739,0.8548 5.2426,2.35162 5.63443,2.14329 5.09474,1.90014 4.9238,2.21851 -0.0755,0.14058 -0.81266,0.32752 -1.63824,0.41558 -2.17356,0.23198 -7.80681,1.9809 -8.88725,2.7592 -1.7861,1.28667 -1.91406,2.62159 -0.41642,4.34389 0.8379,0.96352 6.01192,3.80749 8.7379,4.80285 1.79797,0.65655 2.73871,1.38561 2.4594,1.90579 -0.31246,0.5819 -6.24375,-0.2791 -9.84178,-1.42864 -1.89204,-0.60449 -2.1646,-0.58235 -1.65656,0.13456 0.2255,0.31831 1.07555,1.3035 1.88895,2.18944 1.66714,1.81583 2.02273,2.44857 1.31573,2.34084 -3.08698,-0.47016 -5.56913,-0.40772 -7.21763,0.18153 -1.36637,0.48842 -1.85536,0.89684 -2.49093,2.08049 -1.05923,1.97262 0.003,5.76679 2.85596,10.19686 0.31585,0.49049 0.50058,0.96131 0.41049,1.0463 -0.09,0.0848 -1.30908,-0.21488 -2.709,-0.66619 -3.6245,-1.16868 -4.62054,-1.30096 -5.95771,-0.79142 -0.61693,0.23511 -1.4982,0.69615 -1.95831,1.02454 l -0.83659,0.59708 0.12281,0.87012 c 0.42666,3.01968 1.06332,5.33954 1.90373,6.93658 1.61855,3.07575 4.49975,6.99252 7.60553,10.33899 5.30171,5.71267 13.49987,12.54924 19.48757,16.25093 7.27784,4.49927 9.24825,5.74478 11.97293,7.56809 4.03669,2.70127 4.67841,3.00379 5.02059,2.36654 0.19711,-0.36711 -0.32699,-3.73125 -0.81563,-5.23485 -1.30591,-4.01883 -7.76023,-16.6581 -10.83256,-21.21319 -0.69695,-1.03334 -1.23205,-1.94433 -1.18905,-2.02444 0.0886,-0.16501 0.72845,-0.0242 4.08222,0.89783 7.8782,2.16604 21.03579,5.33623 25.39594,6.119 3.71278,0.66651 6.03847,0.6551 6.17549,-0.0303 0.026,-0.12942 -0.42267,-0.932 -0.99685,-1.78306 z"
       style="fill:#f5e104;fill-opacity:1" />
    <path
       inkscape:connector-curvature="0"
       id="path3156-2"
       d="m 874.65799,893.79561 c -1.24404,-1.84411 -1.49848,-2.48741 -1.28331,-3.24541 0.28699,-1.01102 0.10562,-3.11586 -0.36684,-4.26053 -0.30018,-0.72714 -1.45184,-2.31083 -3.30447,-4.54428 -3.50799,-4.2289 -4.51731,-5.32317 -6.93721,-7.52107 -1.74,-1.58047 -2.72886,-2.38417 -5.22494,-4.24652 -0.47665,-0.35566 -0.84698,-0.7604 -0.82293,-0.89946 0.0241,-0.13912 0.87682,-0.3999 1.89513,-0.57962 10.06213,-1.77608 21.23149,-3.90643 22.96356,-4.37993 0.59643,-0.16304 1.14259,-0.4048 1.21377,-0.53736 0.24853,-0.46284 -0.30596,-1.53894 -1.99347,-3.86878 -2.44853,-3.38063 -5.8378,-6.77017 -10.19296,-10.19377 -1.67237,-1.31466 -8.34884,-4.90799 -10.81399,-5.82094 -6.26416,-2.31805 -11.8522,-3.41454 -13.81734,-2.71116 -1.17975,0.42221 -1.44128,-0.35208 -0.43993,-1.30238 0.44642,-0.42359 1.64691,-0.78754 5.11022,-1.54913 5.37399,-1.18164 9.9472,-2.60587 14.17411,-4.41429 3.62175,-1.54947 7.61362,-3.6529 9.30848,-4.90488 2.04942,-1.51393 4.91544,-5.57779 4.3754,-6.20403 -1.08283,-1.25577 -12.54653,-3.56847 -29.11972,-5.87473 -2.70961,-0.37706 -4.36236,-0.70655 -4.41462,-0.88001 -0.11958,-0.39712 1.53519,-1.84855 3.49432,-3.06483 2.27617,-1.41312 6.60609,-4.48372 8.83553,-6.26583 6.01686,-4.80954 10.33545,-9.80434 12.46629,-14.41807 1.27499,-2.76056 1.67886,-4.39273 1.81896,-7.35045 0.0895,-1.88777 0.0229,-2.57479 -0.28336,-2.92777 -1.7929,-2.06618 -8.34819,-2.33544 -15.93099,-0.65429 -2.73218,0.60577 -10.2742,2.91211 -11.77763,3.60161 -0.51111,0.23441 -1.04446,0.36441 -1.18518,0.28884 -0.2927,-0.15717 -0.2415,-0.31046 1.57148,-4.70742 2.97235,-7.20869 4.13085,-12.59409 3.37053,-15.66781 -0.16104,-0.65091 -0.30093,-1.91127 -0.3108,-2.80089 -0.009,-0.88955 -0.15807,-2.21814 -0.32921,-2.95237 -0.41434,-1.77756 -0.89838,-2.03466 -3.45462,-1.83533 -2.4818,0.19386 -4.07228,0.68583 -7.10755,2.19871 -3.26622,1.62793 -7.10618,3.24267 -7.70944,3.24184 -0.39147,-4.7e-4 -0.5327,-0.13823 -0.7229,-0.70382 -0.38172,-1.13573 -0.5408,-3.59562 -0.31525,-4.87497 0.2458,-1.3939 0.24472,-3.20078 -0.003,-5.78093 -0.3845,-3.99908 -1.55733,-6.83181 -2.99763,-7.24075 -0.57465,-0.16326 -0.70988,-0.35917 -1.14358,-1.6671 -0.85787,-2.58445 -1.08813,-2.73712 -2.70682,-1.79501 -0.44111,0.25677 -1.82706,0.86006 -3.07995,1.34077 -7.24153,2.77823 -14.4145,7.87272 -19.38619,13.76874 -3.07843,3.65076 -3.8725,4.86184 -6.96932,10.62912 -1.62603,3.02819 -3.01053,5.47668 -3.07661,5.44115 -0.066,-0.0354 -0.0232,-0.70632 0.0956,-1.49067 1.11419,-7.35924 1.03506,-10.29295 -0.40716,-15.09076 -1.99188,-6.62668 -5.6594,-12.1503 -13.094,-19.72075 -2.28508,-2.32693 -2.98716,-2.82079 -3.4464,-2.42474 -0.59076,0.5094 -1.21415,3.9734 -1.32758,7.37716 -0.11634,3.48905 -0.5468,5.95396 -1.8321,10.48865 -1.11072,3.91867 -2.5512,8.19106 -3.41603,10.13159 -0.96239,2.15954 -1.62559,4.30362 -1.88298,6.088 -0.10489,0.7272 -0.27643,1.34798 -0.38123,1.37955 -0.10474,0.0316 -0.36577,-0.39063 -0.58013,-0.93796 -2.43497,-6.2207 -4.312,-9.82331 -7.25042,-13.91598 -3.83286,-5.33854 -7.90077,-9.16033 -13.70483,-12.87557 -2.63144,-1.68438 -4.13527,-2.41161 -4.52296,-2.18737 -0.85397,0.49401 -0.80904,1.8196 0.46353,13.65793 0.18576,1.72813 0.44146,4.12861 0.56828,5.33446 0.12678,1.20587 0.12281,2.22438 -0.009,2.26335 -0.13162,0.0392 -1.91906,-1.03935 -3.97271,-2.39532 -6.48489,-4.28386 -10.09574,-6.47123 -10.53542,-6.3821 -1.29599,0.26263 -2.37281,6.38554 -2.01471,11.45563 0.30658,4.34006 0.95595,7.59217 2.72247,13.63417 0.69322,2.371 1.18027,4.33506 1.0823,4.36457 -0.098,0.0295 -1.76475,-0.91586 -3.70416,-2.1006 -5.24619,-3.20496 -9.46913,-5.04293 -12.93525,-5.63037 -0.87067,-0.14757 -2.74302,-0.58898 -4.16086,-0.98103 -2.70013,-0.74665 -4.24218,-0.91819 -4.70071,-0.52279 -0.46344,0.39965 -0.37661,1.77409 0.25979,4.11216 0.3358,1.23354 0.77366,3.88213 0.97305,5.88567 0.62285,6.25901 1.31705,9.41193 2.86513,13.01251 1.99008,4.62866 4.68254,8.31562 8.4596,11.58422 1.61988,1.4018 1.77408,1.56877 1.56198,1.69145 -0.10165,0.0588 -1.35701,-0.11562 -2.78963,-0.38772 -9.03086,-1.71496 -16.67125,-0.85827 -23.0731,2.58715 -1.30209,0.7008 -3.65669,1.69538 -5.23244,2.21021 -3.56515,1.16479 -6.67957,2.55885 -6.73765,3.01588 -0.0482,0.37894 0.22141,0.59838 3.20529,2.60906 3.78619,2.55133 8.75794,6.60394 9.17825,7.48154 0.22204,0.46364 -0.0191,0.56837 -8.60252,3.73711 -2.32709,0.859 -4.27686,1.64715 -4.33283,1.75139 -0.41709,0.77676 8.12743,8.75567 14.21405,13.27309 1.40143,1.04016 3.32854,2.22649 5.70178,3.51 2.01018,1.08472 3.54386,2.01526 3.49164,2.11253 -0.0513,0.0955 -1.26257,0.83291 -2.69176,1.6386 -5.44758,3.07104 -8.41069,5.32423 -11.44364,8.70184 -3.16976,3.52995 -6.74111,8.80968 -6.50013,9.60957 0.0909,0.30197 1.33543,0.40752 6.488,0.55034 6.76186,0.1874 14.2533,0.24076 19.27926,0.13735 1.67618,-0.0345 3.17976,0.007 3.34134,0.0951 0.34522,0.18538 0.29166,0.30191 -0.77325,1.68189 -8.41499,10.9041 -13.46789,18.21896 -13.19984,19.10875 0.0686,0.22761 0.72698,0.42513 2.31783,0.69591 1.22214,0.20797 2.52505,0.50459 2.89536,0.65919 l 0.67336,0.28101 -2.00212,3.98269 c -1.81979,3.61997 -2.30326,4.93119 -1.89845,5.14856 0.35528,0.19077 8.274,-0.0291 14.21558,-0.39459 2.22334,-0.13677 2.27068,-0.0948 1.68171,1.49316 -0.19503,0.52579 -0.83628,2.41821 -1.42499,4.20539 l -1.07039,3.24938 0.57911,0.38708 c 1.26841,0.84803 7.37328,0.83935 11.7544,-0.0166 1.0921,-0.21338 2.99754,-0.71974 4.23426,-1.12526 8.49862,-2.78665 13.71887,-7.2139 20.64205,-17.50634 5.0064,-7.44282 7.47422,-14.84056 6.04261,-18.1139 -0.18857,-0.43104 -0.66238,-0.95443 -1.17215,-1.2947 -0.78843,-0.52626 -0.92334,-0.54424 -1.71716,-0.22853 -1.18562,0.47146 -3.21443,1.91243 -6.4049,4.54902 -1.48516,1.22734 -2.81937,2.21094 -2.96489,2.18584 -0.14544,-0.0251 -0.3495,-0.32748 -0.45324,-0.67192 -0.23762,-0.78876 -0.19181,-0.84434 3.95652,-4.79823 1.7814,-1.6979 3.2939,-3.18949 3.36109,-3.31464 0.25584,-0.47644 -0.4623,-0.4897 -2.3457,-0.0433 -2.30617,0.54665 -3.11509,0.6435 -3.19377,0.3824 -0.0317,-0.10533 0.53149,-0.8451 1.25186,-1.64341 0.72033,-0.7983 1.51801,-1.70907 1.77265,-2.02395 1.10083,-1.36126 1.04513,-2.93788 -0.18035,-5.10444 -0.36354,-0.64274 -0.9457,-1.75992 -1.29371,-2.48272 -0.61773,-1.28286 -0.65538,-1.31942 -1.58317,-1.53807 -0.52265,-0.12311 -1.0323,-0.26798 -1.1324,-0.32172 -0.38639,-0.2075 -0.18224,-0.9904 0.44806,-1.71807 0.50311,-0.58072 0.61778,-0.85149 0.57387,-1.35323 -0.1281,-1.46494 -1.46842,-2.74062 -2.89731,-2.75775 -0.37305,-0.004 -1.62485,0.18312 -2.78188,0.41678 -5.1675,1.04376 -7.42099,1.24684 -7.0948,0.63937 0.15914,-0.29635 2.01666,-1.15673 5.80743,-2.68977 3.82593,-1.54728 3.88867,-1.58338 4.39581,-2.52786 0.72082,-1.34238 0.7372,-3.20244 0.0511,-5.79792 -0.84598,-3.20016 -2.49384,-6.09757 -4.33281,-7.61839 -0.51175,-0.42314 -0.87748,-0.86794 -0.81283,-0.98833 0.0645,-0.12031 0.91563,-0.45303 1.89108,-0.7392 2.87379,-0.843 3.14337,-1.05532 4.46474,-3.51612 1.2069,-2.2476 1.43624,-3.35496 0.82523,-3.98424 -0.16149,-0.16638 -1.56908,-0.76342 -3.12783,-1.32695 -4.57158,-1.65261 -6.8905,-3.06894 -6.42962,-3.92723 0.30239,-0.56315 1.0303,-0.47438 3.93649,0.48 2.89512,0.95075 4.90243,1.29747 6.04689,1.04446 0.73693,-0.1629 0.75215,-0.18179 0.78698,-0.97383 0.0195,-0.44416 -0.1065,-1.40934 -0.28007,-2.14475 -0.17359,-0.73539 -0.22427,-1.38987 -0.11267,-1.4544 0.11165,-0.0643 0.70003,0.0147 1.30778,0.17344 1.93636,0.50965 3.80447,-0.24147 4.68655,-1.88418 0.85081,-1.58448 0.99802,-3.48105 0.48256,-6.21618 -0.55515,-2.94543 -0.6079,-4.42692 -0.16242,-4.56115 0.19748,-0.0595 0.88095,0.32862 2.06466,1.17289 0.97304,0.69407 2.09979,1.36676 2.50383,1.49495 1.35784,0.43092 3.235,-0.5867 4.11897,-2.23293 0.64448,-1.20022 0.63543,-1.38228 -0.15854,-3.19944 -0.86707,-1.98441 -1.99527,-7.48199 -1.66383,-8.10775 0.239,-0.45168 2.66295,1.91326 6.10747,5.959 2.46592,2.89627 3.09763,3.41354 4.23783,3.4703 1.04639,0.052 2.79349,-0.8181 3.21368,-1.6006 0.27009,-0.50298 0.004,-5.75856 -0.50283,-9.95003 -0.13647,-1.12676 -0.16379,-2.12807 -0.061,-2.22512 0.2148,-0.20244 0.74154,1.08494 2.5428,6.21343 1.43116,4.07487 2.06498,5.42642 2.70606,5.77066 0.52175,0.28016 1.96241,0.0147 2.68959,-0.49722 1.2556,-0.88243 1.4341,-1.35798 1.457,-3.88183 0.0253,-2.7839 0.41205,-6.21208 0.77773,-6.89309 0.32406,-0.6035 1.25373,-0.73926 1.68902,-0.24665 0.20606,0.23324 0.31582,1.704 0.31012,4.15722 -0.004,2.088 0.0749,3.8119 0.1773,3.83097 0.2967,0.0554 3.57995,-6.38282 4.51723,-8.8582 0.46971,-1.24045 0.94519,-2.28832 1.05673,-2.32857 0.1115,-0.0403 0.24601,0.97504 0.29914,2.25636 0.17368,4.18987 1.14574,8.13814 2.50212,10.16272 0.51633,0.77069 0.70589,0.92701 1.0122,0.83474 0.584,-0.17596 1.87655,-2.96765 3.35151,-7.23859 1.93796,-5.61163 2.19011,-6.18891 2.75305,-6.303 0.25865,-0.0524 0.76965,0.0655 1.13556,0.26193 1.15668,0.6211 0.97032,1.44762 -0.94899,4.20861 -1.56678,2.25392 -2.96097,5.36193 -3.25382,7.2535 -0.4004,2.58613 0.9431,3.39194 4.21043,2.52539 0.82153,-0.21786 1.47636,-0.2638 1.60665,-0.11268 0.12075,0.14015 0.31758,0.93136 0.43702,1.75804 0.24482,1.69464 0.54439,1.9359 1.60056,1.28922 0.6892,-0.42204 4.15061,-3.77362 4.46482,-4.32318 0.0889,-0.15585 0.63083,-0.63402 1.20391,-1.06278 1.5572,-1.16513 1.58042,-0.59772 0.11282,2.75667 -1.45955,3.33589 -2.02999,5.33722 -1.78723,6.26994 0.15398,0.59157 0.42117,0.86181 1.65143,1.66963 1.03179,0.67751 1.63933,0.96632 2.04586,0.9717 0.83919,0.0103 2.70225,-0.36576 5.44726,-1.10282 1.60438,-0.43076 2.43818,-0.5485 2.49718,-0.35261 0.059,0.19587 -0.24661,0.74113 -0.91509,1.63313 -1.07754,1.43758 -1.34104,2.14591 -0.88826,2.38904 0.15616,0.0839 2.89915,-0.60117 6.09568,-1.52219 5.64025,-1.62517 8.57174,-2.19769 9.28678,-1.81375 0.41367,0.22213 0.48213,0.83451 0.20325,1.8171 -0.19707,0.69377 -0.28671,0.73946 -2.58758,1.31639 -4.94875,1.24084 -9.90305,2.75554 -10.45924,3.1977 -0.43542,0.34616 -0.62293,0.66125 -0.76454,1.28504 -0.17111,0.75332 0.0978,2.15286 0.45012,2.34201 0.0792,0.0426 1.06475,0.19332 2.18969,0.33485 5.79649,0.72937 6.01466,1.11077 1.95765,3.42261 -1.17966,0.67222 -2.19356,1.31294 -2.25307,1.42376 -0.22033,0.41032 0.36355,2.17836 0.90931,2.75342 0.61778,0.65096 1.76828,1.00113 3.02192,0.91941 1.38937,-0.0905 5.27723,-0.62413 8.14298,-1.11775 4.78909,-0.82496 5.40611,-0.87019 5.88766,-0.43171 0.60101,0.54738 0.65902,1.59941 0.1112,2.01623 -0.23412,0.17825 -2.81837,0.56234 -5.74264,0.85365 -5.64631,0.56244 -7.17483,0.83385 -7.24596,1.28657 -0.0759,0.4829 2.13192,1.41899 4.87538,2.06711 1.4145,0.33419 2.72029,0.72078 2.90177,0.85904 0.25111,0.19143 -0.62481,0.54488 -3.66666,1.47978 -4.34539,1.3355 -4.88837,1.69327 -4.07685,2.68593 0.34625,0.42358 1.30739,0.8548 5.2426,2.35162 5.63443,2.14329 5.09474,1.90014 4.9238,2.21851 -0.0755,0.14058 -0.81266,0.32752 -1.63824,0.41558 -2.17356,0.23198 -7.80681,1.9809 -8.88725,2.7592 -1.7861,1.28667 -1.91406,2.62159 -0.41642,4.34389 0.8379,0.96352 6.01192,3.80749 8.7379,4.80285 1.79797,0.65655 2.73871,1.38561 2.4594,1.90579 -0.31246,0.5819 -6.24375,-0.2791 -9.84178,-1.42864 -1.89204,-0.60449 -2.1646,-0.58235 -1.65656,0.13456 0.2255,0.31831 1.07555,1.3035 1.88895,2.18944 1.66714,1.81583 2.02273,2.44857 1.31573,2.34084 -3.08698,-0.47016 -5.56913,-0.40772 -7.21763,0.18153 -1.36637,0.48842 -1.85536,0.89684 -2.49093,2.08049 -1.05923,1.97262 0.003,5.76679 2.85596,10.19686 0.31585,0.49049 0.50058,0.96131 0.41049,1.0463 -0.09,0.0848 -1.30908,-0.21488 -2.709,-0.66619 -3.6245,-1.16868 -4.62054,-1.30096 -5.95771,-0.79142 -0.61693,0.23511 -1.4982,0.69615 -1.95831,1.02454 l -0.83659,0.59708 0.12281,0.87012 c 0.42666,3.01968 1.06332,5.33954 1.90373,6.93658 1.61855,3.07575 4.49975,6.99252 7.60553,10.33899 5.30171,5.71267 13.49987,12.54924 19.48757,16.25093 7.27784,4.49927 9.24825,5.74478 11.97293,7.56809 4.03669,2.70127 4.67841,3.00379 5.02059,2.36654 0.19711,-0.36711 -0.32699,-3.73125 -0.81563,-5.23485 -1.30591,-4.01883 -7.76023,-16.6581 -10.83256,-21.21319 -0.69695,-1.03334 -1.23205,-1.94433 -1.18905,-2.02444 0.0886,-0.16501 0.72845,-0.0242 4.08222,0.89783 7.8782,2.16604 21.03579,5.33623 25.39594,6.119 3.71278,0.66651 6.03847,0.6551 6.17549,-0.0303 0.026,-0.12942 -0.42267,-0.932 -0.99685,-1.78306 z"
       style="fill:#f5e104;fill-opacity:1" />
  </g>
</svg>
