<?xml version="1.0" encoding="UTF-8" standalone="no"?>
<!-- Created with Inkscape (http://www.inkscape.org/) -->

<svg
   xmlns:dc="http://purl.org/dc/elements/1.1/"
   xmlns:cc="http://creativecommons.org/ns#"
   xmlns:rdf="http://www.w3.org/1999/02/22-rdf-syntax-ns#"
   xmlns:svg="http://www.w3.org/2000/svg"
   xmlns="http://www.w3.org/2000/svg"
   xmlns:sodipodi="http://sodipodi.sourceforge.net/DTD/sodipodi-0.dtd"
   xmlns:inkscape="http://www.inkscape.org/namespaces/inkscape"
   width="354.33069"
   height="354.33069"
   id="svg3232"
   version="1.1"
   inkscape:version="0.48.4 r9939"
   sodipodi:docname="Gefahrengebiet_Miete_Aufkl_10x10cm.svg">
  <defs
     id="defs3234">
    <filter
       color-interpolation-filters="sRGB"
       inkscape:collect="always"
       id="filter5976">
      <feGaussianBlur
         inkscape:collect="always"
         stdDeviation="0.33175027"
         id="feGaussianBlur5978" />
    </filter>
  </defs>
  <sodipodi:namedview
     id="base"
     pagecolor="#ffffff"
     bordercolor="#666666"
     borderopacity="1.0"
     inkscape:pageopacity="0.0"
     inkscape:pageshadow="2"
     inkscape:zoom="0.7"
     inkscape:cx="106.52341"
     inkscape:cy="23.761357"
     inkscape:document-units="px"
     inkscape:current-layer="layer1"
     showgrid="false"
     units="cm"
     inkscape:window-width="1440"
     inkscape:window-height="823"
     inkscape:window-x="0"
     inkscape:window-y="25"
     inkscape:window-maximized="1" />
  <metadata
     id="metadata3237">
    <rdf:RDF>
      <cc:Work
         rdf:about="">
        <dc:format>image/svg+xml</dc:format>
        <dc:type
           rdf:resource="http://purl.org/dc/dcmitype/StillImage" />
        <dc:title />
      </cc:Work>
    </rdf:RDF>
  </metadata>
  <g
     inkscape:label="Ebene 1"
     inkscape:groupmode="layer"
     id="layer1"
     transform="translate(0,-698.03177)">
    <path
       inkscape:connector-curvature="0"
       id="path3114-1"
       d="M 335.45767,1001.6396 184.55622,740.24718 c -1.54198,-2.65858 -4.36009,-4.25374 -7.39088,-4.25374 -3.03079,0 -5.84889,1.64833 -7.39087,4.25374 L 18.87301,1001.6396 c -1.541981,2.6586 -1.541981,5.902 0,8.5075 1.541981,2.6585 4.360084,4.2537 7.390875,4.2537 H 328.0668 c 3.03079,0 5.84889,-1.6483 7.39087,-4.2537 1.54199,-2.6586 1.54199,-5.9021 0,-8.5075 z"
       style="fill:#f6bd16;fill-opacity:1" />
    <path
       style="fill:#000000;fill-opacity:1"
       d="M 177.15625 37.96875 C 174.12546 37.96875 171.32323 39.61334 169.78125 42.21875 L 18.875 303.59375 C 17.33302 306.25235 17.33302 309.5195 18.875 312.125 C 20.41698 314.7835 23.21921 316.375 26.25 316.375 L 180.125 316.375 L 180.125 306.3125 C 180.125 305.6545 180.37901 304.8709 180.9375 304.3125 C 181.49599 303.754 182.27953 303.53125 182.9375 303.53125 L 188.25 303.53125 C 189.22261 303.53125 190.33946 304.1531 190.78125 305.125 L 195.6875 316.375 L 196.65625 316.375 L 201.40625 305.25 L 201.4375 305.15625 L 201.46875 305.15625 C 201.9404 304.03065 203.05927 303.53125 204 303.53125 L 209.28125 303.53125 C 209.93922 303.53125 210.72276 303.754 211.28125 304.3125 C 211.83974 304.8709 212.0625 305.6545 212.0625 306.3125 L 212.0625 316.375 L 215.5625 316.375 L 215.5625 306.3125 C 215.5625 305.6545 215.78526 304.8709 216.34375 304.3125 C 216.90224 303.754 217.68578 303.53125 218.34375 303.53125 L 223.3125 303.53125 C 223.97047 303.53125 224.72276 303.754 225.28125 304.3125 C 225.83974 304.8709 226.09375 305.6545 226.09375 306.3125 L 226.09375 316.375 L 229.5625 316.375 L 229.5625 306.53125 C 229.5625 305.87325 229.81651 305.1209 230.375 304.5625 C 230.93349 304.004 231.71703 303.75 232.375 303.75 L 250.625 303.75 C 251.28297 303.75 252.06651 304.004 252.625 304.5625 C 253.18349 305.1209 253.40625 305.87325 253.40625 306.53125 L 253.40625 310.90625 C 253.40625 311.56425 253.18349 312.34775 252.625 312.90625 C 252.06651 313.46475 251.28297 313.71875 250.625 313.71875 L 240.09375 313.71875 L 240.09375 315.65625 L 248.53125 315.65625 C 249.14643 315.65625 249.8581 315.88966 250.40625 316.375 L 261.1875 316.375 L 261.1875 313.71875 L 257.15625 313.71875 C 256.49828 313.71875 255.74599 313.46475 255.1875 312.90625 C 254.62901 312.34775 254.375 311.56425 254.375 310.90625 L 254.375 306.53125 C 254.375 305.87325 254.62901 305.1209 255.1875 304.5625 C 255.74599 304.004 256.49828 303.75 257.15625 303.75 L 275.75 303.75 C 276.40797 303.75 277.19151 304.004 277.75 304.5625 C 278.30849 305.1209 278.5625 305.87325 278.5625 306.53125 L 278.5625 310.90625 C 278.5625 311.56425 278.30849 312.34775 277.75 312.90625 C 277.19151 313.46475 276.40797 313.71875 275.75 313.71875 L 271.75 313.71875 L 271.75 316.375 L 280.40625 316.375 L 280.40625 306.53125 C 280.40625 305.87325 280.62901 305.1209 281.1875 304.5625 C 281.74599 304.004 282.52953 303.75 283.1875 303.75 L 301.46875 303.75 C 302.12672 303.75 302.87901 304.004 303.4375 304.5625 C 303.99599 305.1209 304.25 305.87325 304.25 306.53125 L 304.25 310.90625 C 304.25 311.56425 303.99599 312.34775 303.4375 312.90625 C 302.87901 313.46475 302.12672 313.71875 301.46875 313.71875 L 290.9375 313.71875 L 290.9375 315.65625 L 299.34375 315.65625 C 299.95893 315.65625 300.6706 315.88966 301.21875 316.375 L 328.0625 316.375 C 331.09329 316.375 333.92677 314.7304 335.46875 312.125 C 337.01074 309.4664 337.01074 306.19915 335.46875 303.59375 L 184.5625 42.21875 C 183.02052 39.56017 180.18704 37.96875 177.15625 37.96875 z M 184.125 307.53125 L 184.125 316.375 L 186 316.375 L 186 315.375 L 188 315.375 L 188.125 315.375 L 189.25 315.375 L 189.84375 316.34375 C 189.85885 316.36891 189.86202 316.35304 189.875 316.375 L 191.3125 316.375 L 187.46875 307.53125 L 184.125 307.53125 z M 204.78125 307.53125 L 201 316.375 L 202.0625 316.375 L 202.0625 315.5625 L 204.0625 315.5625 L 204.25 315.5625 L 206.25 315.5625 L 206.25 316.375 L 208.0625 316.375 L 208.0625 307.53125 L 204.78125 307.53125 z M 219.5625 307.53125 L 219.5625 316.375 L 222.09375 316.375 L 222.09375 307.53125 L 219.5625 307.53125 z M 233.5625 307.75 L 233.5625 316.375 L 236.09375 316.375 L 236.09375 312.5 C 236.09375 311.8421 236.34776 311.0585 236.90625 310.5 C 237.46474 309.9416 238.24828 309.71875 238.90625 309.71875 L 249.40625 309.71875 L 249.40625 307.75 L 233.5625 307.75 z M 258.375 307.75 L 258.375 309.71875 L 262.40625 309.71875 C 263.06422 309.71875 263.84776 309.9416 264.40625 310.5 C 264.96474 311.0585 265.1875 311.8421 265.1875 312.5 L 265.1875 316.375 L 267.75 316.375 L 267.75 312.5 C 267.75 311.8421 267.97276 311.0585 268.53125 310.5 C 269.08974 309.9416 269.87328 309.71875 270.53125 309.71875 L 274.5625 309.71875 L 274.5625 307.75 L 258.375 307.75 z M 284.40625 307.75 L 284.40625 316.375 L 286.9375 316.375 L 286.9375 312.5 C 286.9375 311.8421 287.19151 311.0585 287.75 310.5 C 288.30849 309.9416 289.06078 309.71875 289.71875 309.71875 L 300.25 309.71875 L 300.25 307.75 L 284.40625 307.75 z "
       transform="translate(0,698.03177)"
       id="path3114-1-5" />
    <polygon
       points="299.88,48.2 555.88,491.5 43.875,491.5 "
       transform="matrix(0.53171761,0,0,0.52954532,17.769698,737.07455)"
       id="polygon3116"
       style="fill:#f6bd16" />
    <g
       id="g3230"
       transform="matrix(0.43035921,0,0,0.43035921,35.711489,723.56598)"
       style="opacity:0.46308725;stroke:none">
      <path
         id="rect3152"
         d="m 347.00237,198.0786 -14.96875,1.59375 0.26949,12.45636 -24.05106,-6.02835 -87.8458,18.68089 1.28125,13.78125 9.90625,-0.71875 -15.84292,399.75375 116,0 L 372.5,241.5 l 10.53125,1.59375 2.5,-13.96875 -38.16289,-11.85068 z m -91.37737,76.01515 31.0625,7.875 0,31.0625 -30.28125,3.9375 z m 89.65625,0.78125 -7.0625,45.625 -27.53125,-4.71875 0.78125,-36.96875 z m -24.21875,95.34375 c 0,0 4.54614,-0.32441 8.0625,3.75 3.51636,4.07441 -10.8595,73.56368 -13.25,74.78125 -2.3905,1.21756 -7.875,0.78125 -7.875,0.78125 l -5.59375,-26.65625 -9.15625,25.0625 -7.375,-0.78125 -7.5625,-23.96875 -7.15625,22.375 c 0,0 -9.75785,-1.25568 -13.09375,-3.625 -3.33591,-2.36932 -8.63331,-60.84136 -4.03125,-66.15625 C 258.6333,370.46636 268,370.9375 268,370.9375 l 7.0625,41.53125 13.1875,-41.71875 10.71875,-0.40625 3.125,41.53125 z"
         style="fill:#000000;fill-opacity:1;stroke:none"
         inkscape:connector-curvature="0"
         sodipodi:nodetypes="cccccccccccccccccccccccccssccccccsscccccc" />
      <text
         sodipodi:linespacing="125%"
         id="text3973"
         y="310.1012"
         x="256.66901"
         style="font-size:45.14495468px;font-style:normal;font-variant:normal;font-weight:normal;font-stretch:normal;line-height:125%;letter-spacing:0px;word-spacing:0px;fill:#000000;fill-opacity:1;stroke:none;font-family:Politics Head;-inkscape-font-specification:Politics Head"
         xml:space="preserve"><tspan
           y="310.1012"
           x="256.66901"
           id="tspan3975"
           sodipodi:role="line">€</tspan></text>
      <text
         sodipodi:linespacing="125%"
         id="text3973-3"
         y="313.84854"
         x="311.63092"
         style="font-size:48.953228px;font-style:normal;font-variant:normal;font-weight:normal;font-stretch:normal;line-height:125%;letter-spacing:0px;word-spacing:0px;fill:#000000;fill-opacity:1;stroke:none;font-family:Politics Head;-inkscape-font-specification:Politics Head"
         xml:space="preserve"><tspan
           y="313.84854"
           x="311.63092"
           id="tspan3975-8"
           sodipodi:role="line">€</tspan></text>
    </g>
    <g
       id="g4221"
       transform="matrix(0.53171761,0,0,0.53171761,21.956974,735.99344)">
      <g
         transform="matrix(0.50174031,-0.19067441,-0.19067441,-0.50174031,-176.93545,632.09471)"
         id="g3135">
        <g
           id="g3147"
           transform="translate(626.05916,-83.369687)">
          <path
             id="path3120"
             d="m 179.89,433.9 c -9.543,-5.5583 -5.3709,-13.228 16.744,-30.78 11.895,-9.4411 29.163,-20.768 38.372,-25.172 l 16.744,-8.0062 -24.264,-0.002 c -21.79,-0.002 -26.45,0.99377 -45.697,9.7652 -24.515,11.172 -30.542,11.937 -34.582,4.3882 -5.0195,-9.379 0.0218,-14.399 27.067,-26.951 l 26.363,-12.236 28.634,1.752 c 18.544,1.1347 29.261,0.73722 30.413,-1.128 0.97893,-1.5839 6.1258,-13.033 11.437,-25.443 l 9.6575,-22.563 -15.192,-10.537 c -13.807,-9.5764 -15.968,-12.559 -23.706,-32.721 -10.344,-26.952 -10.082,-33.63 1.3175,-33.63 7.6227,0 8.7891,1.5054 16.744,21.612 7.9594,20.117 9.8053,22.498 26.69,34.423 17.337,12.245 18.818,12.751 33.488,11.445 25.787,-2.2952 29.343,-4.7774 36.15,-25.23 3.314,-9.9585 7.7781,-19.561 9.9203,-21.339 5.9183,-4.9118 15.326,-0.70592 15.326,6.8519 0,7.0503 -12.757,42.779 -17.176,48.105 -1.5105,1.8206 -11.176,5.4816 -21.478,8.1356 l -18.732,4.8254 -13.865,32.33 -13.865,32.33 -33.577,16.744 c -18.468,9.2093 -42.285,23.337 -52.928,31.395 -20.419,15.46 -22.234,16.164 -30.006,11.637 z"
             inkscape:connector-curvature="0"
             style="fill:#000000" />
          <path
             id="path3122"
             d="m 302.14,280.02 c -3.8473,-5.303 -4.8076,-12.845 -1.4868,-18.644 2.4395,-4.5804 6.4453,-8.3268 11.155,-10.489 6.0541,-2.3429 13.533,-0.4091 17.481,4.8074 4.4521,4.9721 7.3975,11.964 5.7639,18.67 -1.4681,5.6576 -6.7576,9.7453 -12.414,10.628 -5.4455,1.2588 -11.581,1.7261 -16.604,-1.1809 -1.5602,-0.95147 -2.9022,-2.258 -3.8956,-3.7918 z"
             inkscape:connector-curvature="0"
             style="fill:#000000" />
        </g>
      </g>
      <path
         id="path3142"
         d="m 369.90158,268.88847 51.57267,47.50329 1.57813,26.98416 25.2062,-1.5183 2.29344,18.49954 -26.34291,2.84682 2.12485,36.34365 -13.66277,1.14513 -5.61365,-16.45312 -54.03868,28.37681 c 0,0 1.7466,79.66141 1.04839,83.95078 -0.69821,4.28936 -113.00219,2.07175 -113.00219,2.07175 l 0.67971,-13.51861 -47.05151,-50.28927 -0.81784,-49.29079 -11.2949,-14.92201 9.61629,-24.07411 8.29299,29.45246 15.21516,-7.61975 -7.85884,19.69219 1.59043,39.71671 34.14124,20.70377 1.04621,-21.02306 15.38851,-30.9024 2.64148,31.51597 0.88422,0.26763 6.07288,-18.30926 c 0,0 1.01771,14.55972 1.12381,20.49944 l 2.77563,0.85202 42.46154,1.73068 2.88111,-28.02653 6.5413,-23.53407 -15.64363,-39.86124 -16.49522,-0.20731 c 0,0 7.9688,-7.05719 11.88474,-11.54552 l -0.24372,-0.60362 -23.66329,0.9581 18.31522,-17.43348 63.87944,-20.16775 -7.88437,-18.37268 14.35793,-5.43802 z m -9.61279,49.46668 -25.54488,10.59541 8.94171,30.98792 30.88411,-10.00282 c 4e-5,-10e-6 -10.68974,-26.59295 -14.28094,-31.58051 z"
         style="fill:#000000;stroke:#000000;stroke-width:0.47380489px;stroke-linecap:butt;stroke-linejoin:miter;stroke-opacity:1"
         inkscape:connector-curvature="0" />
      <text
         transform="matrix(0.42923795,0.90319144,-0.90319144,0.42923795,0,0)"
         sodipodi:linespacing="125%"
         id="text3973-3-0"
         y="-164.97539"
         x="449.11282"
         style="font-size:30.7560463px;font-style:normal;font-variant:normal;font-weight:normal;font-stretch:normal;line-height:125%;letter-spacing:0px;word-spacing:0px;fill:#000000;fill-opacity:1;stroke:none;font-family:Politics Head;-inkscape-font-specification:Politics Head"
         xml:space="preserve"><tspan
           y="-164.97539"
           x="449.11282"
           id="tspan3975-8-3"
           sodipodi:role="line">€</tspan></text>
    </g>
    <g
       transform="matrix(-0.37351522,0,0,0.37351522,243.17434,813.30242)"
       id="g4058"
       style="opacity:0.75">
      <g
         id="g4462">
        <g
           id="g4492"
           transform="translate(0,16.063602)">
          <path
             sodipodi:nodetypes="ccccccccccccccccccccccccccccccccccccccccc"
             style="fill:#000000;fill-opacity:1;stroke:none"
             d="m 378.82867,296.48074 -3.02504,11.25494 27.62576,-6.18354 40.74913,39.94837 -4.84897,3.87028 -6.09458,-4.40411 -22.4654,151.71565 -82.47693,0 20.15213,-168.44236 -7.82952,1.29009 -1.42355,-9.56448 29.67212,-6.67289 1.73495,-12.81195 z m 11.12148,45.06426 -19.70727,6.27252 -5.78317,34.43211 18.37269,-6.71737 z m 13.65719,2.5357 -3.73682,33.36445 19.57381,9.69794 3.46991,-32.43025 z m -14.81382,56.60187 -2.89159,0.26692 -8.5413,10.32074 -3.06953,-10.1428 -9.43102,2.04636 -10.49868,33.54239 9.47551,3.29196 6.6284,-8.76373 3.87028,9.87588 3.64785,0.57832 6.80635,-8.36336 3.69233,9.47551 7.02878,-1.42355 11.83326,-32.25231 -8.94168,-4.00373 -7.16223,9.4755 z"
             id="rect3152-5"
             inkscape:connector-curvature="0" />
          <text
             transform="matrix(-0.99367342,0.11230822,0.11230822,0.99367342,0,0)"
             sodipodi:linespacing="125%"
             id="text3973-3-1"
             y="417.8269"
             x="-375.66452"
             style="font-size:26.95662498px;font-style:normal;font-variant:normal;font-weight:normal;font-stretch:normal;line-height:125%;letter-spacing:0px;word-spacing:0px;fill:#000000;fill-opacity:1;stroke:none;font-family:Politics Head;-inkscape-font-specification:Politics Head"
             xml:space="preserve"><tspan
               y="417.8269"
               x="-375.66452"
               id="tspan3975-8-8"
               sodipodi:role="line">€</tspan></text>
          <text
             transform="matrix(-0.99367342,0.11230822,0.11230822,0.99367342,0,0)"
             sodipodi:linespacing="125%"
             id="text3973-3-1-0"
             y="408.84872"
             x="-341.77386"
             style="font-size:25.96396446px;font-style:normal;font-variant:normal;font-weight:normal;font-stretch:normal;line-height:125%;letter-spacing:0px;word-spacing:0px;fill:#000000;fill-opacity:1;stroke:none;font-family:Politics Head;-inkscape-font-specification:Politics Head"
             xml:space="preserve"><tspan
               y="408.84872"
               x="-341.77386"
               id="tspan3975-8-8-6"
               sodipodi:role="line">€</tspan></text>
        </g>
      </g>
    </g>
    <text
       sodipodi:linespacing="125%"
       id="text4697-3-1-4"
       y="1033.7991"
       x="178.40038"
       style="font-size:47.84001541px;font-style:normal;font-variant:normal;font-weight:normal;font-stretch:normal;line-height:125%;letter-spacing:0px;word-spacing:0px;fill:#000000;fill-opacity:1;stroke:none;font-family:Politics Head;-inkscape-font-specification:Politics Head"
       xml:space="preserve"><tspan
         y="1033.7991"
         x="178.40038"
         id="tspan4699-9-6-5"
         sodipodi:role="line">Miete</tspan></text>
    <text
       sodipodi:linespacing="125%"
       id="text3053"
       y="1009.3503"
       x="39.991127"
       style="font-size:12.32797241px;font-style:normal;font-variant:normal;font-weight:normal;font-stretch:normal;line-height:125%;letter-spacing:0px;word-spacing:0px;fill:#f6bd16;fill-opacity:1;stroke:none;font-family:Politics Head;-inkscape-font-specification:Politics Head"
       xml:space="preserve"><tspan
         y="1009.3503"
         x="39.991127"
         id="tspan3055"
         sodipodi:role="line">Piraten XHAIN</tspan></text>
    <g
       id="g3934"
       transform="translate(128.28937,0)">
      <text
         xml:space="preserve"
         style="font-size:15.33489799px;font-style:normal;font-variant:normal;font-weight:normal;font-stretch:normal;line-height:125%;letter-spacing:0px;word-spacing:0px;fill:#f6bd16;fill-opacity:1;stroke:#f6bd16;stroke-width:3;stroke-miterlimit:4;stroke-opacity:1;stroke-dasharray:none;filter:url(#filter5976);font-family:Politics Head;-inkscape-font-specification:Politics Head"
         x="55.113602"
         y="993.01111"
         id="text4697-0"
         sodipodi:linespacing="125%"><tspan
           sodipodi:role="line"
           id="tspan4699-7"
           x="55.113602"
           y="993.01111">GEFAHRENGEBIET</tspan></text>
      <text
         xml:space="preserve"
         style="font-size:15.33489799px;font-style:normal;font-variant:normal;font-weight:normal;font-stretch:normal;line-height:125%;letter-spacing:0px;word-spacing:0px;fill:#000000;fill-opacity:1;stroke:none;font-family:Politics Head;-inkscape-font-specification:Politics Head"
         x="55.113602"
         y="993.01111"
         id="text4697"
         sodipodi:linespacing="125%"><tspan
           sodipodi:role="line"
           id="tspan4699"
           x="55.113602"
           y="993.01111">GEFAHRENGEBIET</tspan></text>
    </g>
  </g>
</svg>
