<?xml version="1.0" encoding="UTF-8" standalone="no"?>
<!-- Created with Inkscape (http://www.inkscape.org/) -->

<svg
   xmlns:dc="http://purl.org/dc/elements/1.1/"
   xmlns:cc="http://creativecommons.org/ns#"
   xmlns:rdf="http://www.w3.org/1999/02/22-rdf-syntax-ns#"
   xmlns:svg="http://www.w3.org/2000/svg"
   xmlns="http://www.w3.org/2000/svg"
   xmlns:sodipodi="http://sodipodi.sourceforge.net/DTD/sodipodi-0.dtd"
   xmlns:inkscape="http://www.inkscape.org/namespaces/inkscape"
   height="525"
   width="600"
   version="1.1"
   id="svg3110"
   inkscape:version="0.48.4 r9939"
   sodipodi:docname="Gefahrengemiet1.svg">
  <defs
     id="defs3126" />
  <sodipodi:namedview
     pagecolor="#ffffff"
     bordercolor="#666666"
     borderopacity="1"
     objecttolerance="10"
     gridtolerance="10"
     guidetolerance="10"
     inkscape:pageopacity="0"
     inkscape:pageshadow="2"
     inkscape:window-width="1440"
     inkscape:window-height="823"
     id="namedview3124"
     showgrid="false"
     inkscape:zoom="0.63572265"
     inkscape:cx="232.37878"
     inkscape:cy="76.337622"
     inkscape:window-x="0"
     inkscape:window-y="25"
     inkscape:window-maximized="1"
     inkscape:current-layer="svg3110"
     showguides="true"
     inkscape:guide-bbox="true" />
  <metadata
     id="metadata3112">
    <rdf:RDF>
      <cc:Work
         rdf:about="">
        <dc:format>image/svg+xml</dc:format>
        <dc:type
           rdf:resource="http://purl.org/dc/dcmitype/StillImage" />
        <dc:title></dc:title>
      </cc:Work>
    </rdf:RDF>
  </metadata>
  <g
     id="g4230">
    <path
       id="path3114"
       d="M597.6,499.6,313.8,8c-2.9-5-8.2-8-13.9-8s-11,3.1-13.9,8l-283.8,491.6c-2.9,5-2.9,11.1,0,16,2.9,5,8.2,8,13.9,8h567.6c5.7,0,11-3.1,13.9-8,2.9-5,2.9-11.1,0-16z" />
    <polygon
       id="polygon3116"
       transform="matrix(1,0,0,0.99591458,0.125,2.0332437)"
       fill="#f6bd16"
       points="43.875,491.5,299.88,48.2,555.88,491.5" />
    <g
       style="opacity:0.46308725;stroke:none"
       transform="matrix(0.8093755,0,0,0.8093755,33.868083,-23.372287)"
       id="g3230">
      <path
         sodipodi:nodetypes="cccccccccccccccccccccccccssccccccsscccccc"
         inkscape:connector-curvature="0"
         style="fill:#000000;fill-opacity:1;stroke:none"
         d="m 347.00237,198.0786 -14.96875,1.59375 0.26949,12.45636 -24.05106,-6.02835 -87.8458,18.68089 1.28125,13.78125 9.90625,-0.71875 -15.84292,399.75375 116,0 L 372.5,241.5 l 10.53125,1.59375 2.5,-13.96875 -38.16289,-11.85068 z m -91.37737,76.01515 31.0625,7.875 0,31.0625 -30.28125,3.9375 z m 89.65625,0.78125 -7.0625,45.625 -27.53125,-4.71875 0.78125,-36.96875 z m -24.21875,95.34375 c 0,0 4.54614,-0.32441 8.0625,3.75 3.51636,4.07441 -10.8595,73.56368 -13.25,74.78125 -2.3905,1.21756 -7.875,0.78125 -7.875,0.78125 l -5.59375,-26.65625 -9.15625,25.0625 -7.375,-0.78125 -7.5625,-23.96875 -7.15625,22.375 c 0,0 -9.75785,-1.25568 -13.09375,-3.625 -3.33591,-2.36932 -8.63331,-60.84136 -4.03125,-66.15625 C 258.6333,370.46636 268,370.9375 268,370.9375 l 7.0625,41.53125 13.1875,-41.71875 10.71875,-0.40625 3.125,41.53125 z"
         id="rect3152" />
      <text
         xml:space="preserve"
         style="font-size:45.14495468px;font-style:normal;font-variant:normal;font-weight:normal;font-stretch:normal;line-height:125%;letter-spacing:0px;word-spacing:0px;fill:#000000;fill-opacity:1;stroke:none;font-family:Politics Head;-inkscape-font-specification:Politics Head"
         x="256.66901"
         y="310.1012"
         id="text3973"
         sodipodi:linespacing="125%"><tspan
           sodipodi:role="line"
           id="tspan3975"
           x="256.66901"
           y="310.1012">€</tspan></text>
      <text
         xml:space="preserve"
         style="font-size:48.953228px;font-style:normal;font-variant:normal;font-weight:normal;font-stretch:normal;line-height:125%;letter-spacing:0px;word-spacing:0px;fill:#000000;fill-opacity:1;stroke:none;font-family:Politics Head;-inkscape-font-specification:Politics Head"
         x="311.63092"
         y="313.84854"
         id="text3973-3"
         sodipodi:linespacing="125%"><tspan
           sodipodi:role="line"
           id="tspan3975-8"
           x="311.63092"
           y="313.84854">€</tspan></text>
    </g>
    <g
       transform="translate(8,0)"
       id="g4221">
      <g
         id="g3135"
         transform="matrix(0.50174031,-0.19067441,-0.19067441,-0.50174031,-176.93545,632.09471)">
        <g
           transform="translate(626.05916,-83.369687)"
           id="g3147">
          <path
             style="fill:#000000"
             inkscape:connector-curvature="0"
             d="m 179.89,433.9 c -9.543,-5.5583 -5.3709,-13.228 16.744,-30.78 11.895,-9.4411 29.163,-20.768 38.372,-25.172 l 16.744,-8.0062 -24.264,-0.002 c -21.79,-0.002 -26.45,0.99377 -45.697,9.7652 -24.515,11.172 -30.542,11.937 -34.582,4.3882 -5.0195,-9.379 0.0218,-14.399 27.067,-26.951 l 26.363,-12.236 28.634,1.752 c 18.544,1.1347 29.261,0.73722 30.413,-1.128 0.97893,-1.5839 6.1258,-13.033 11.437,-25.443 l 9.6575,-22.563 -15.192,-10.537 c -13.807,-9.5764 -15.968,-12.559 -23.706,-32.721 -10.344,-26.952 -10.082,-33.63 1.3175,-33.63 7.6227,0 8.7891,1.5054 16.744,21.612 7.9594,20.117 9.8053,22.498 26.69,34.423 17.337,12.245 18.818,12.751 33.488,11.445 25.787,-2.2952 29.343,-4.7774 36.15,-25.23 3.314,-9.9585 7.7781,-19.561 9.9203,-21.339 5.9183,-4.9118 15.326,-0.70592 15.326,6.8519 0,7.0503 -12.757,42.779 -17.176,48.105 -1.5105,1.8206 -11.176,5.4816 -21.478,8.1356 l -18.732,4.8254 -13.865,32.33 -13.865,32.33 -33.577,16.744 c -18.468,9.2093 -42.285,23.337 -52.928,31.395 -20.419,15.46 -22.234,16.164 -30.006,11.637 z"
             id="path3120" />
          <path
             style="fill:#000000"
             inkscape:connector-curvature="0"
             d="m 302.14,280.02 c -3.8473,-5.303 -4.8076,-12.845 -1.4868,-18.644 2.4395,-4.5804 6.4453,-8.3268 11.155,-10.489 6.0541,-2.3429 13.533,-0.4091 17.481,4.8074 4.4521,4.9721 7.3975,11.964 5.7639,18.67 -1.4681,5.6576 -6.7576,9.7453 -12.414,10.628 -5.4455,1.2588 -11.581,1.7261 -16.604,-1.1809 -1.5602,-0.95147 -2.9022,-2.258 -3.8956,-3.7918 z"
             id="path3122" />
        </g>
      </g>
      <path
         inkscape:connector-curvature="0"
         style="fill:#000000;stroke:#000000;stroke-width:0.47380489px;stroke-linecap:butt;stroke-linejoin:miter;stroke-opacity:1"
         d="m 369.90158,268.88847 51.57267,47.50329 1.57813,26.98416 25.2062,-1.5183 2.29344,18.49954 -26.34291,2.84682 2.12485,36.34365 -13.66277,1.14513 -5.61365,-16.45312 -54.03868,28.37681 c 0,0 1.7466,79.66141 1.04839,83.95078 -0.69821,4.28936 -113.00219,2.07175 -113.00219,2.07175 l 0.67971,-13.51861 -47.05151,-50.28927 -0.81784,-49.29079 -11.2949,-14.92201 9.61629,-24.07411 8.29299,29.45246 15.21516,-7.61975 -7.85884,19.69219 1.59043,39.71671 34.14124,20.70377 1.04621,-21.02306 15.38851,-30.9024 2.64148,31.51597 0.88422,0.26763 6.07288,-18.30926 c 0,0 1.01771,14.55972 1.12381,20.49944 l 2.77563,0.85202 42.46154,1.73068 2.88111,-28.02653 6.5413,-23.53407 -15.64363,-39.86124 -16.49522,-0.20731 c 0,0 7.9688,-7.05719 11.88474,-11.54552 l -0.24372,-0.60362 -23.66329,0.9581 18.31522,-17.43348 63.87944,-20.16775 -7.88437,-18.37268 14.35793,-5.43802 z m -9.61279,49.46668 -25.54488,10.59541 8.94171,30.98792 30.88411,-10.00282 c 4e-5,-10e-6 -10.68974,-26.59295 -14.28094,-31.58051 z"
         id="path3142" />
      <text
         xml:space="preserve"
         style="font-size:30.7560463px;font-style:normal;font-variant:normal;font-weight:normal;font-stretch:normal;line-height:125%;letter-spacing:0px;word-spacing:0px;fill:#000000;fill-opacity:1;stroke:none;font-family:Politics Head;-inkscape-font-specification:Politics Head"
         x="449.11282"
         y="-164.97539"
         id="text3973-3-0"
         sodipodi:linespacing="125%"
         transform="matrix(0.42923795,0.90319144,-0.90319144,0.42923795,0,0)"><tspan
           sodipodi:role="line"
           id="tspan3975-8-3"
           x="449.11282"
           y="-164.97539">€</tspan></text>
    </g>
    <g
       style="opacity:0.75"
       id="g4058"
       transform="matrix(-0.70246915,0,0,0.70246915,423.37129,160.17171)">
      <path
         inkscape:connector-curvature="0"
         id="rect3152-5"
         transform="matrix(-1.4235501,0,0,1.4235501,588.13502,-224.09374)"
         d="m 147.03125,365.6875 2.125,7.90625 L 129.75,369.25 l -28.625,28.0625 3.40625,2.71875 4.28125,-3.09375 15.78125,97.84375 57.9375,0 -14.15625,-109.59375 5.5,0.90625 1,-6.71875 -20.84375,-4.6875 -1.21875,-9 -5.78125,0 z m -7.8125,31.65625 13.84375,4.40625 4.0625,24.1875 -12.90625,-4.71875 -5,-23.875 z m -9.59375,1.78125 2.625,23.4375 -13.75,6.8125 -2.4375,-22.78125 13.5625,-7.46875 z m 10.40625,50.84375 2.03125,0.1875 6,7.25 2.15625,-7.125 6.625,1.4375 7.375,23.5625 -6.65625,2.3125 -4.65625,-6.15625 -2.71875,6.9375 -2.5625,0.40625 -4.78125,-5.875 -2.59375,6.65625 -4.9375,-1 -8.3125,-22.65625 6.28125,-2.8125 5.03125,6.65625 1.71875,-9.78125 z"
         style="fill:#000000;fill-opacity:1;stroke:none" />
      <text
         xml:space="preserve"
         style="font-size:26.95662498px;font-style:normal;font-variant:normal;font-weight:normal;font-stretch:normal;line-height:125%;letter-spacing:0px;word-spacing:0px;fill:#000000;fill-opacity:1;stroke:none;font-family:Politics Head;-inkscape-font-specification:Politics Head"
         x="-375.66452"
         y="417.8269"
         id="text3973-3-1"
         sodipodi:linespacing="125%"
         transform="matrix(-0.99367342,0.11230822,0.11230822,0.99367342,0,0)"><tspan
           sodipodi:role="line"
           id="tspan3975-8-8"
           x="-375.66452"
           y="417.8269">€</tspan></text>
      <text
         xml:space="preserve"
         style="font-size:25.96396446px;font-style:normal;font-variant:normal;font-weight:normal;font-stretch:normal;line-height:125%;letter-spacing:0px;word-spacing:0px;fill:#000000;fill-opacity:1;stroke:none;font-family:Politics Head;-inkscape-font-specification:Politics Head"
         x="-341.77386"
         y="408.84872"
         id="text3973-3-1-0"
         sodipodi:linespacing="125%"
         transform="matrix(-0.99367342,0.11230822,0.11230822,0.99367342,0,0)"><tspan
           sodipodi:role="line"
           id="tspan3975-8-8-6"
           x="-341.77386"
           y="408.84872">€</tspan></text>
    </g>
  </g>
</svg>
